<svg xmlns="http://www.w3.org/2000/svg" viewBox="0 0 320 50"><title>txt2</title><g id="Layer_2" data-name="Layer 2"><g id="Frame_2_v1" data-name="Frame 2 v1" style="isolation:isolate"><g id="rect"><rect width="320" height="50" fill="none"/></g><g id="National_Adoption_Days_Nov._2_22" data-name="National Adoption Days Nov. 2–22"><path d="M13.57,15.16V21H11.72V12.32h1.9l4,5.61V12.32h1.84V21H17.69Z" fill="#fff"/><path d="M25.54,20.17a2.57,2.57,0,0,1-.86.72,2.32,2.32,0,0,1-1.07.26,2.58,2.58,0,0,1-2.42-1.53,4,4,0,0,1-.36-1.76,4,4,0,0,1,.36-1.75,2.71,2.71,0,0,1,1-1.15,2.61,2.61,0,0,1,1.44-.41,2.46,2.46,0,0,1,1.06.25,2.38,2.38,0,0,1,.87.71v-.8H27.2V21H25.54Zm0-3.42a1.58,1.58,0,0,0-.61-.52,1.87,1.87,0,0,0-.82-.2,1.48,1.48,0,0,0-1.14.5,2.2,2.2,0,0,0,0,2.64,1.45,1.45,0,0,0,1.14.51,1.87,1.87,0,0,0,.82-.2,1.58,1.58,0,0,0,.61-.52Z" fill="#fff"/><path d="M29.58,20.7a1.7,1.7,0,0,1-.45-1.27V16.15h-1V14.71h1V13h1.66v1.71h1.27v1.44H30.79V19a.72.72,0,0,0,.16.49.5.5,0,0,0,.41.2,1.21,1.21,0,0,0,.34-.05.7.7,0,0,0,.23-.13l.35,1.24a2,2,0,0,1-1.37.41A1.83,1.83,0,0,1,29.58,20.7Z" fill="#fff"/><path d="M33.32,13.5a1,1,0,0,1-.3-.7,1,1,0,0,1,1-1,1,1,0,0,1,1,1,1,1,0,0,1-.29.7,1,1,0,0,1-1.39,0Zm-.13,1.21h1.65V21H33.19Z" fill="#fff"/><path d="M37.57,20.7a3,3,0,0,1-1.15-1.19,3.49,3.49,0,0,1-.4-1.67,3.41,3.41,0,0,1,.4-1.65A3,3,0,0,1,37.57,15a3.67,3.67,0,0,1,3.52,0,3,3,0,0,1,1.16,1.19,3.53,3.53,0,0,1,.4,1.65,3.61,3.61,0,0,1-.4,1.67,3,3,0,0,1-1.16,1.19,3.67,3.67,0,0,1-3.52,0Zm2.93-1.55a2,2,0,0,0,.44-1.31,2,2,0,0,0-.44-1.29A1.44,1.44,0,0,0,39.33,16a1.42,1.42,0,0,0-1.17.53,2,2,0,0,0-.43,1.29,2,2,0,0,0,.43,1.31,1.42,1.42,0,0,0,1.17.53A1.44,1.44,0,0,0,40.5,19.15Z" fill="#fff"/><path d="M48.07,17.19a1.16,1.16,0,0,0-.3-.9,1.22,1.22,0,0,0-.85-.27,1.65,1.65,0,0,0-.83.21,2.2,2.2,0,0,0-.6.53V21H43.84V14.71h1.65v.82a2.73,2.73,0,0,1,.91-.69,2.83,2.83,0,0,1,1.28-.29,1.82,1.82,0,0,1,2,2V21H48.07Z" fill="#fff"/><path d="M55.65,20.17a2.57,2.57,0,0,1-.86.72,2.35,2.35,0,0,1-1.07.26,2.67,2.67,0,0,1-1.43-.39,2.52,2.52,0,0,1-1-1.14,4,4,0,0,1-.36-1.76,4,4,0,0,1,.36-1.75,2.64,2.64,0,0,1,1-1.15,2.61,2.61,0,0,1,1.44-.41,2.46,2.46,0,0,1,1.06.25,2.38,2.38,0,0,1,.87.71v-.8h1.66V21H55.65Zm0-3.42a1.58,1.58,0,0,0-.61-.52,1.87,1.87,0,0,0-.82-.2,1.45,1.45,0,0,0-1.14.5,2.2,2.2,0,0,0,0,2.64,1.43,1.43,0,0,0,1.14.51,1.87,1.87,0,0,0,.82-.2,1.58,1.58,0,0,0,.61-.52Z" fill="#fff"/><path d="M59.31,20.71a1.74,1.74,0,0,1-.44-1.28V12.32h1.65V19a.77.77,0,0,0,.15.49.5.5,0,0,0,.42.2,1.14,1.14,0,0,0,.33-.05.49.49,0,0,0,.22-.13L62,20.74a2,2,0,0,1-1.36.41A1.83,1.83,0,0,1,59.31,20.71Z" fill="#fff"/><path d="M71.61,19.48H67.74L67.2,21h-2l3.35-8.66h2.31L74.17,21h-2Zm-3.37-1.59H71.1l-1.42-4Z" fill="#fff"/><path d="M79.2,20.17a2.6,2.6,0,0,1-.87.72,2.32,2.32,0,0,1-1.07.26,2.69,2.69,0,0,1-1.43-.39,2.64,2.64,0,0,1-1-1.14,4,4,0,0,1-.35-1.76,4,4,0,0,1,.35-1.75,2.73,2.73,0,0,1,1-1.15,2.6,2.6,0,0,1,1.43-.41,2.51,2.51,0,0,1,1.07.25,2.55,2.55,0,0,1,.87.71V12.32h1.66V21H79.2Zm0-3.43a1.66,1.66,0,0,0-.61-.52,1.87,1.87,0,0,0-.82-.2,1.43,1.43,0,0,0-1.14.51,1.93,1.93,0,0,0-.44,1.33,1.91,1.91,0,0,0,.44,1.31,1.43,1.43,0,0,0,1.14.51,1.87,1.87,0,0,0,.82-.2A1.66,1.66,0,0,0,79.2,19Z" fill="#fff"/><path d="M83.61,20.7a3,3,0,0,1-1.16-1.19,3.49,3.49,0,0,1-.4-1.67,3.41,3.41,0,0,1,.4-1.65A3,3,0,0,1,83.61,15a3.33,3.33,0,0,1,1.75-.45,3.36,3.36,0,0,1,1.76.45,3,3,0,0,1,1.16,1.19,3.41,3.41,0,0,1,.4,1.65,3.49,3.49,0,0,1-.4,1.67,3,3,0,0,1-1.16,1.19,3.36,3.36,0,0,1-1.76.45A3.33,3.33,0,0,1,83.61,20.7Zm2.92-1.55A2,2,0,0,0,87,17.84a2,2,0,0,0-.44-1.29,1.56,1.56,0,0,0-2.34,0,2,2,0,0,0-.43,1.29,2,2,0,0,0,.43,1.31,1.56,1.56,0,0,0,2.34,0Z" fill="#fff"/><path d="M89.87,23.36V14.71h1.65v.79a2.49,2.49,0,0,1,1.94-.95,2.59,2.59,0,0,1,2.42,1.52,4.2,4.2,0,0,1,.35,1.77,4.22,4.22,0,0,1-.35,1.78,2.58,2.58,0,0,1-2.42,1.53,2.43,2.43,0,0,1-1.07-.24,2.47,2.47,0,0,1-.87-.72v3.17Zm4.22-6.83A1.45,1.45,0,0,0,92.94,16a1.75,1.75,0,0,0-.81.21,1.65,1.65,0,0,0-.61.51V19a1.69,1.69,0,0,0,.62.51,1.74,1.74,0,0,0,.8.21,1.45,1.45,0,0,0,1.15-.51,2,2,0,0,0,.43-1.33A1.93,1.93,0,0,0,94.09,16.53Z" fill="#fff"/><path d="M98.26,20.7a1.7,1.7,0,0,1-.45-1.27V16.15h-1V14.71h1V13h1.66v1.71h1.27v1.44H99.47V19a.77.77,0,0,0,.15.49.53.53,0,0,0,.42.2,1.27,1.27,0,0,0,.34-.05.7.7,0,0,0,.23-.13l.35,1.24a2,2,0,0,1-1.38.41A1.79,1.79,0,0,1,98.26,20.7Z" fill="#fff"/><path d="M102,13.5a1,1,0,0,1-.29-.7.94.94,0,0,1,.29-.69,1,1,0,0,1,.7-.3,1,1,0,0,1,.7.29.94.94,0,0,1,.28.7,1,1,0,0,1-1.68.7Zm-.12,1.21h1.65V21h-1.65Z" fill="#fff"/><path d="M106.25,20.7a2.93,2.93,0,0,1-1.15-1.19,3.5,3.5,0,0,1-.41-1.67,3.42,3.42,0,0,1,.41-1.65A2.93,2.93,0,0,1,106.25,15a3.67,3.67,0,0,1,3.52,0,3,3,0,0,1,1.15,1.19,3.41,3.41,0,0,1,.4,1.65,3.49,3.49,0,0,1-.4,1.67,3,3,0,0,1-1.15,1.19,3.67,3.67,0,0,1-3.52,0Zm2.93-1.55a2,2,0,0,0,.43-1.31,2,2,0,0,0-.43-1.29,1.57,1.57,0,0,0-2.35,0,2,2,0,0,0-.42,1.29,2,2,0,0,0,.42,1.31,1.57,1.57,0,0,0,2.35,0Z" fill="#fff"/><path d="M116.75,17.19a1.16,1.16,0,0,0-.3-.9,1.25,1.25,0,0,0-.86-.27,1.64,1.64,0,0,0-.82.21,1.94,1.94,0,0,0-.6.53V21h-1.65V14.71h1.65v.82a2.69,2.69,0,0,1,.9-.69,2.85,2.85,0,0,1,1.29-.29,1.83,1.83,0,0,1,2,2V21h-1.65Z" fill="#fff"/><path d="M123.39,12.32h3.42a5.06,5.06,0,0,1,2.38.54,4,4,0,0,1,1.63,1.52,4.39,4.39,0,0,1,.58,2.28,4.32,4.32,0,0,1-.58,2.26,4,4,0,0,1-1.63,1.52,5.06,5.06,0,0,1-2.38.54h-3.42Zm3.42,7a2.8,2.8,0,0,0,1.44-.36,2.39,2.39,0,0,0,.94-1,2.81,2.81,0,0,0,.33-1.35,2.74,2.74,0,0,0-.72-2,2.61,2.61,0,0,0-2-.76h-1.57v5.41Z" fill="#fff"/><path d="M137.05,20.17a2.6,2.6,0,0,1-.87.72,2.32,2.32,0,0,1-1.07.26,2.63,2.63,0,0,1-1.42-.39,2.6,2.6,0,0,1-1-1.14,4,4,0,0,1-.35-1.76,4,4,0,0,1,.35-1.75,2.73,2.73,0,0,1,1-1.15,2.6,2.6,0,0,1,1.43-.41,2.51,2.51,0,0,1,1.07.25,2.55,2.55,0,0,1,.87.71v-.8h1.66V21h-1.66Zm0-3.42a1.66,1.66,0,0,0-.61-.52,1.87,1.87,0,0,0-.82-.2,1.45,1.45,0,0,0-1.14.5,1.93,1.93,0,0,0-.44,1.33,1.91,1.91,0,0,0,.44,1.31,1.43,1.43,0,0,0,1.14.51,1.87,1.87,0,0,0,.82-.2,1.66,1.66,0,0,0,.61-.52Z" fill="#fff"/><path d="M140.9,21.39a2.07,2.07,0,0,0,.83.59,2.93,2.93,0,0,0,1.06.19,1.77,1.77,0,0,0,1.24-.41,1.56,1.56,0,0,0,.44-1.2v-.65a2.93,2.93,0,0,1-2.2.95,2,2,0,0,1-1.52-.52,2,2,0,0,1-.51-1.45V14.71h1.65v3.53a1.15,1.15,0,0,0,.3.89,1.22,1.22,0,0,0,.85.26,1.74,1.74,0,0,0,.82-.2,1.93,1.93,0,0,0,.61-.51v-4h1.65v5.77a2.84,2.84,0,0,1-.9,2.24,3.54,3.54,0,0,1-2.43.8,3.86,3.86,0,0,1-2.63-.93Z" fill="#fff"/><path d="M147.92,19a3.35,3.35,0,0,0,1,.59,3,3,0,0,0,1.19.26,1.41,1.41,0,0,0,.78-.17.53.53,0,0,0,.27-.47.51.51,0,0,0-.31-.46,4.09,4.09,0,0,0-1-.28,9,9,0,0,1-1.25-.32,2,2,0,0,1-.85-.56,1.51,1.51,0,0,1-.37-1.08,1.68,1.68,0,0,1,.31-1,2.09,2.09,0,0,1,.89-.72,3.22,3.22,0,0,1,1.37-.27,4,4,0,0,1,2.53.86l-.66,1.13a2.26,2.26,0,0,0-.8-.52,2.67,2.67,0,0,0-1.06-.21,1.37,1.37,0,0,0-.72.16.47.47,0,0,0-.26.43.43.43,0,0,0,.29.4,4.12,4.12,0,0,0,.9.27,8.08,8.08,0,0,1,1.26.33,2.1,2.1,0,0,1,.88.6,1.61,1.61,0,0,1,.38,1.13,1.79,1.79,0,0,1-.32,1,2.1,2.1,0,0,1-.93.73,3.81,3.81,0,0,1-1.46.26,4.83,4.83,0,0,1-1.57-.26,3.59,3.59,0,0,1-1.24-.72Z" fill="#fff"/><path d="M12.48,30.89v5.38h-.83V29.6h.85l3.84,5.27V29.6h.83v6.67h-.8Z" fill="#fff"/><path d="M19.7,36.06a2.24,2.24,0,0,1-.83-.92,2.74,2.74,0,0,1-.3-1.28,2.72,2.72,0,0,1,.3-1.28,2.18,2.18,0,0,1,.83-.92,2.36,2.36,0,0,1,3.36.92,2.83,2.83,0,0,1,.29,1.28,2.87,2.87,0,0,1-.29,1.28,2.33,2.33,0,0,1-.84.92,2.5,2.5,0,0,1-2.52,0Zm2.12-.58a1.57,1.57,0,0,0,.55-.69,2.24,2.24,0,0,0,.19-.93,2.18,2.18,0,0,0-.19-.93,1.6,1.6,0,0,0-.55-.68A1.44,1.44,0,0,0,21,32a1.46,1.46,0,0,0-.86.26,1.62,1.62,0,0,0-.56.68,2.34,2.34,0,0,0-.19.93,2.41,2.41,0,0,0,.19.93,1.59,1.59,0,0,0,.56.69,1.45,1.45,0,0,0,.86.25A1.43,1.43,0,0,0,21.82,35.48Z" fill="#fff"/><path d="M23.83,31.44h.81l1.61,4,1.6-4h.82l-2,4.83h-.82Z" fill="#fff"/><path d="M29.08,35.46a.55.55,0,0,1,.78.78.55.55,0,0,1-.78-.78Z" fill="#fff"/><path d="M33.74,35.61c.92-.73,1.63-1.31,2.13-1.76A6.81,6.81,0,0,0,37,32.6a2.07,2.07,0,0,0,.41-1.14,1.09,1.09,0,0,0-.41-.92,1.64,1.64,0,0,0-1-.31,2.38,2.38,0,0,0-1,.23,2.08,2.08,0,0,0-.76.61l-.51-.53a2.46,2.46,0,0,1,1-.77,3.11,3.11,0,0,1,1.33-.28,2.87,2.87,0,0,1,1.09.22,2,2,0,0,1,.83.67,1.84,1.84,0,0,1,.32,1.08,2.49,2.49,0,0,1-.4,1.29A6.84,6.84,0,0,1,36.81,34c-.46.43-1,.92-1.76,1.49h3.27v.74H33.74Z" fill="#fff"/><path d="M39.19,33.52h5.33v.66H39.19Z" fill="#fff"/><path d="M45.12,35.61c.92-.73,1.63-1.31,2.13-1.76a6.81,6.81,0,0,0,1.16-1.25,2.07,2.07,0,0,0,.41-1.14,1.09,1.09,0,0,0-.41-.92,1.64,1.64,0,0,0-1-.31,2.38,2.38,0,0,0-1,.23,2.08,2.08,0,0,0-.76.61l-.51-.53a2.46,2.46,0,0,1,1-.77,3.11,3.11,0,0,1,1.33-.28,2.87,2.87,0,0,1,1.09.22,2,2,0,0,1,.83.67,1.84,1.84,0,0,1,.32,1.08,2.49,2.49,0,0,1-.4,1.29A6.84,6.84,0,0,1,48.19,34c-.46.43-1,.92-1.76,1.49H49.7v.74H45.12Z" fill="#fff"/><path d="M51,35.61c.92-.73,1.63-1.31,2.13-1.76a6.9,6.9,0,0,0,1.17-1.25,2,2,0,0,0,.4-1.14,1.09,1.09,0,0,0-.41-.92,1.61,1.61,0,0,0-1-.31,2.34,2.34,0,0,0-1,.23,2.11,2.11,0,0,0-.77.61l-.51-.53a2.49,2.49,0,0,1,1-.77,3.1,3.1,0,0,1,1.32-.28,2.83,2.83,0,0,1,1.09.22,2,2,0,0,1,.83.67,1.84,1.84,0,0,1,.32,1.08,2.4,2.4,0,0,1-.4,1.29A6.84,6.84,0,0,1,54,34c-.45.43-1,.92-1.76,1.49h3.27v.74H51Z" fill="#fff"/></g></g></g></svg>