<svg xmlns="http://www.w3.org/2000/svg" viewBox="0 0 320 50"><title>txt3</title><g id="Layer_2" data-name="Layer 2"><g id="Frame_3" data-name="Frame 3" style="isolation:isolate"><g id="rect"><rect width="320" height="50" fill="none"/></g><g id="Adopt_today_at_PetSmart." data-name="Adopt today at PetSmart."><path d="M17.24,26.48H13.37L12.83,28h-2l3.35-8.66h2.31L19.8,28h-2Zm-3.37-1.59h2.86l-1.42-4Z" fill="#fff"/><path d="M24.83,27.17a2.6,2.6,0,0,1-.87.72,2.32,2.32,0,0,1-1.07.26,2.7,2.7,0,0,1-1.43-.4,2.56,2.56,0,0,1-1-1.13,4.46,4.46,0,0,1,0-3.51,2.67,2.67,0,0,1,1-1.15,2.57,2.57,0,0,1,1.43-.41A2.37,2.37,0,0,1,24,21.8a2.55,2.55,0,0,1,.87.71V19.32h1.66V28H24.83Zm0-3.43a1.66,1.66,0,0,0-.61-.52,1.9,1.9,0,0,0-.82-.2,1.43,1.43,0,0,0-1.14.51,2.16,2.16,0,0,0,0,2.64,1.43,1.43,0,0,0,1.14.51,1.9,1.9,0,0,0,.82-.2,1.66,1.66,0,0,0,.61-.52Z" fill="#fff"/><path d="M29.24,27.7a3,3,0,0,1-1.16-1.19,3.49,3.49,0,0,1-.4-1.67,3.41,3.41,0,0,1,.4-1.65A3,3,0,0,1,29.24,22,3.42,3.42,0,0,1,31,21.55a3.46,3.46,0,0,1,1.76.44,3,3,0,0,1,1.16,1.2,3.41,3.41,0,0,1,.4,1.65,3.49,3.49,0,0,1-.4,1.67,3,3,0,0,1-1.16,1.19,3.36,3.36,0,0,1-1.76.45A3.33,3.33,0,0,1,29.24,27.7Zm2.92-1.55a2,2,0,0,0,.44-1.31,2,2,0,0,0-.44-1.29,1.56,1.56,0,0,0-2.34,0,2,2,0,0,0-.43,1.29,2,2,0,0,0,.43,1.31,1.56,1.56,0,0,0,2.34,0Z" fill="#fff"/><path d="M35.5,30.36V21.71h1.65v.79a2.51,2.51,0,0,1,.86-.7,2.35,2.35,0,0,1,1.08-.25,2.59,2.59,0,0,1,2.42,1.52,4.68,4.68,0,0,1,0,3.55,2.56,2.56,0,0,1-1,1.13,2.68,2.68,0,0,1-1.43.4A2.4,2.4,0,0,1,38,27.91a2.5,2.5,0,0,1-.87-.73v3.18Zm4.21-6.83A1.43,1.43,0,0,0,38.57,23a1.75,1.75,0,0,0-.81.21,1.65,1.65,0,0,0-.61.51V26a1.69,1.69,0,0,0,.62.51,1.74,1.74,0,0,0,.8.21,1.43,1.43,0,0,0,1.14-.51,2,2,0,0,0,.44-1.33A1.94,1.94,0,0,0,39.71,23.53Z" fill="#fff"/><path d="M43.89,27.7a1.7,1.7,0,0,1-.45-1.27V23.15h-1V21.71h1V20H45.1v1.71h1.27v1.44H45.1V26a.77.77,0,0,0,.15.49.52.52,0,0,0,.42.2,1.14,1.14,0,0,0,.33-.05.66.66,0,0,0,.24-.13l.35,1.24a2,2,0,0,1-1.38.41A1.79,1.79,0,0,1,43.89,27.7Z" fill="#fff"/><path d="M51.6,27.7a1.7,1.7,0,0,1-.46-1.27V23.15h-1V21.71h1V20h1.67v1.71h1.27v1.44H52.81V26a.77.77,0,0,0,.15.49.5.5,0,0,0,.42.2,1.14,1.14,0,0,0,.33-.05A.66.66,0,0,0,54,26.5l.35,1.24a2,2,0,0,1-1.38.41A1.79,1.79,0,0,1,51.6,27.7Z" fill="#fff"/><path d="M56.27,27.7a2.93,2.93,0,0,1-1.15-1.19,3.5,3.5,0,0,1-.41-1.67,3.42,3.42,0,0,1,.41-1.65A3,3,0,0,1,56.27,22a3.74,3.74,0,0,1,3.52,0,3.08,3.08,0,0,1,1.15,1.2,3.42,3.42,0,0,1,.41,1.65,3.5,3.5,0,0,1-.41,1.67,3,3,0,0,1-1.15,1.19,3.67,3.67,0,0,1-3.52,0Zm2.93-1.55a2,2,0,0,0,.43-1.31,2,2,0,0,0-.43-1.29,1.57,1.57,0,0,0-2.35,0,2,2,0,0,0-.42,1.29,2,2,0,0,0,.42,1.31,1.57,1.57,0,0,0,2.35,0Z" fill="#fff"/><path d="M66.9,27.17a2.57,2.57,0,0,1-.86.72,2.35,2.35,0,0,1-1.07.26,2.68,2.68,0,0,1-1.43-.4,2.44,2.44,0,0,1-1-1.13,4.46,4.46,0,0,1,0-3.51A2.6,2.6,0,0,1,65,21.55,2.33,2.33,0,0,1,66,21.8a2.38,2.38,0,0,1,.87.71V19.32h1.66V28H66.9Zm0-3.43a1.58,1.58,0,0,0-.61-.52,1.87,1.87,0,0,0-.82-.2,1.43,1.43,0,0,0-1.14.51,2.2,2.2,0,0,0,0,2.64,1.43,1.43,0,0,0,1.14.51,1.87,1.87,0,0,0,.82-.2A1.58,1.58,0,0,0,66.9,26Z" fill="#fff"/><path d="M74.5,27.17a2.57,2.57,0,0,1-.86.72,2.32,2.32,0,0,1-1.07.26,2.7,2.7,0,0,1-1.43-.4,2.56,2.56,0,0,1-1-1.13,4.46,4.46,0,0,1,0-3.51,2.67,2.67,0,0,1,1-1.15,2.57,2.57,0,0,1,1.43-.41,2.37,2.37,0,0,1,1.07.25,2.43,2.43,0,0,1,.86.71v-.8h1.67V28H74.5Zm0-3.42a1.51,1.51,0,0,0-.61-.52,1.83,1.83,0,0,0-.81-.2,1.45,1.45,0,0,0-1.14.5,2.16,2.16,0,0,0,0,2.64,1.43,1.43,0,0,0,1.14.51,1.83,1.83,0,0,0,.81-.2A1.51,1.51,0,0,0,74.5,26Z" fill="#fff"/><path d="M78.36,28.39a2,2,0,0,0,.83.59,2.91,2.91,0,0,0,1,.19,1.73,1.73,0,0,0,1.25-.42,1.55,1.55,0,0,0,.44-1.19v-.65a2.93,2.93,0,0,1-2.21.95,1.8,1.8,0,0,1-2-2V21.71h1.65v3.53a1.15,1.15,0,0,0,.3.89,1.27,1.27,0,0,0,.85.26,1.74,1.74,0,0,0,.82-.2,2,2,0,0,0,.61-.51v-4h1.65v5.77a2.84,2.84,0,0,1-.9,2.24,3.57,3.57,0,0,1-2.44.8,3.85,3.85,0,0,1-2.62-.93Z" fill="#fff"/><path d="M92.85,27.17a2.7,2.7,0,0,1-.87.72,2.32,2.32,0,0,1-1.07.26,2.7,2.7,0,0,1-1.43-.4,2.56,2.56,0,0,1-1-1.13,4.46,4.46,0,0,1,0-3.51,2.67,2.67,0,0,1,1-1.15,2.57,2.57,0,0,1,1.43-.41A2.37,2.37,0,0,1,92,21.8a2.55,2.55,0,0,1,.87.71v-.8h1.66V28H92.85Zm0-3.42a1.61,1.61,0,0,0-.62-.52,1.83,1.83,0,0,0-.81-.2,1.45,1.45,0,0,0-1.14.5,2.16,2.16,0,0,0,0,2.64,1.43,1.43,0,0,0,1.14.51,1.83,1.83,0,0,0,.81-.2,1.61,1.61,0,0,0,.62-.52Z" fill="#fff"/><path d="M96.89,27.7a1.66,1.66,0,0,1-.46-1.27V23.15h-1V21.71h1V20h1.66v1.71h1.28v1.44H98.09V26a.78.78,0,0,0,.16.49.5.5,0,0,0,.42.2,1.14,1.14,0,0,0,.33-.05.66.66,0,0,0,.24-.13l.35,1.24a2,2,0,0,1-1.38.41A1.79,1.79,0,0,1,96.89,27.7Z" fill="#fff"/><path d="M103.86,19.32h4a3.17,3.17,0,0,1,1.57.38,2.53,2.53,0,0,1,1,1,3,3,0,0,1,.33,1.41,2.87,2.87,0,0,1-.34,1.4,2.45,2.45,0,0,1-1,1,3.11,3.11,0,0,1-1.56.38H105.7V28h-1.84Zm4.71,1.91a1.31,1.31,0,0,0-.91-.33h-2v2.39h2a1.27,1.27,0,0,0,.91-.33,1.12,1.12,0,0,0,.36-.86A1.14,1.14,0,0,0,108.57,21.23Z" fill="#fff"/><path d="M111.76,23.18a3.17,3.17,0,0,1,2.83-1.63,3.1,3.1,0,0,1,1.64.44,3,3,0,0,1,1.11,1.22,4,4,0,0,1,.39,1.79v.37h-4.66a1.61,1.61,0,0,0,.56,1.05,1.83,1.83,0,0,0,1.25.41,2.69,2.69,0,0,0,.91-.16,2.27,2.27,0,0,0,.76-.46l.73,1.07a3.32,3.32,0,0,1-1.14.64,4.62,4.62,0,0,1-1.44.23,3.61,3.61,0,0,1-1.72-.41,3,3,0,0,1-1.2-1.16,3.4,3.4,0,0,1-.43-1.74A3.46,3.46,0,0,1,111.76,23.18Zm1.74.11a1.65,1.65,0,0,0-.45,1h3.09a1.62,1.62,0,0,0-.43-1,1.44,1.44,0,0,0-1.12-.43A1.38,1.38,0,0,0,113.5,23.29Z" fill="#fff"/><path d="M119.69,27.7a1.7,1.7,0,0,1-.45-1.27V23.15h-1V21.71h1V20h1.66v1.71h1.27v1.44H120.9V26a.72.72,0,0,0,.16.49.5.5,0,0,0,.41.2,1.21,1.21,0,0,0,.34-.05.7.7,0,0,0,.23-.13l.35,1.24a2,2,0,0,1-1.37.41A1.83,1.83,0,0,1,119.69,27.7Z" fill="#fff"/><path d="M123.89,25.37a3.86,3.86,0,0,0,1.2.84,3.62,3.62,0,0,0,1.55.33,1.86,1.86,0,0,0,1.11-.29.85.85,0,0,0,.4-.69.75.75,0,0,0-.43-.68,6.08,6.08,0,0,0-1.33-.43,16.2,16.2,0,0,1-1.64-.47,2.73,2.73,0,0,1-1.11-.76,2,2,0,0,1-.48-1.43,2.36,2.36,0,0,1,.4-1.32,2.72,2.72,0,0,1,1.15-.95,4.13,4.13,0,0,1,1.74-.34,4.79,4.79,0,0,1,3.37,1.2l-1,1.35a3.34,3.34,0,0,0-1.16-.7,3.74,3.74,0,0,0-1.31-.24,1.63,1.63,0,0,0-.95.24.77.77,0,0,0-.33.65.63.63,0,0,0,.41.59,7.28,7.28,0,0,0,1.32.41,11.94,11.94,0,0,1,1.64.48,3,3,0,0,1,1.13.78,2,2,0,0,1,.47,1.42,2.52,2.52,0,0,1-.89,2,3.83,3.83,0,0,1-2.57.77,4.94,4.94,0,0,1-3.67-1.38Z" fill="#fff"/><path d="M139,24a1.08,1.08,0,0,0-.23-.73.88.88,0,0,0-.71-.27,1.33,1.33,0,0,0-.74.22,1.94,1.94,0,0,0-.55.51V28h-1.67V24a1.08,1.08,0,0,0-.22-.73.88.88,0,0,0-.71-.27,1.33,1.33,0,0,0-.74.22,2,2,0,0,0-.56.52V28h-1.65V21.71h1.65v.82a2.31,2.31,0,0,1,.82-.66,2.56,2.56,0,0,1,1.23-.32,2,2,0,0,1,1.12.3,1.61,1.61,0,0,1,.62.84,2.69,2.69,0,0,1,2.16-1.14,1.85,1.85,0,0,1,1.36.48,1.91,1.91,0,0,1,.48,1.42V28H139Z" fill="#fff"/><path d="M146.59,27.17a2.6,2.6,0,0,1-.87.72,2.32,2.32,0,0,1-1.07.26,2.7,2.7,0,0,1-1.43-.4,2.56,2.56,0,0,1-1-1.13,4.58,4.58,0,0,1,0-3.51,2.67,2.67,0,0,1,1-1.15,2.6,2.6,0,0,1,1.43-.41,2.37,2.37,0,0,1,1.07.25,2.55,2.55,0,0,1,.87.71v-.8h1.66V28h-1.66Zm0-3.42a1.66,1.66,0,0,0-.61-.52,1.87,1.87,0,0,0-.82-.2,1.45,1.45,0,0,0-1.14.5,2.16,2.16,0,0,0,0,2.64,1.43,1.43,0,0,0,1.14.51,1.87,1.87,0,0,0,.82-.2,1.66,1.66,0,0,0,.61-.52Z" fill="#fff"/><path d="M149.81,21.71h1.64v.85a2.93,2.93,0,0,1,.89-.72,2.36,2.36,0,0,1,1.11-.29v1.61a2.3,2.3,0,0,0-.45-.05,2.13,2.13,0,0,0-.88.21,1.47,1.47,0,0,0-.67.51V28h-1.64Z" fill="#fff"/><path d="M155.5,27.7a1.7,1.7,0,0,1-.46-1.27V23.15h-1V21.71h1V20h1.67v1.71H158v1.44h-1.27V26a.77.77,0,0,0,.15.49.52.52,0,0,0,.42.2,1.14,1.14,0,0,0,.33-.05.66.66,0,0,0,.24-.13l.35,1.24a2,2,0,0,1-1.38.41A1.79,1.79,0,0,1,155.5,27.7Z" fill="#fff"/><path d="M159.46,26.35a1.05,1.05,0,0,1,.74-.31,1,1,0,0,1,.74.31,1,1,0,0,1,.31.74,1,1,0,0,1-.31.74,1,1,0,0,1-.74.32,1,1,0,0,1-.74-.32,1,1,0,0,1-.31-.74A1,1,0,0,1,159.46,26.35Z" fill="#fff"/></g></g></g></svg>