<svg xmlns="http://www.w3.org/2000/svg" viewBox="0 0 300 250"><title>txt3</title><g id="Layer_2" data-name="Layer 2"><g id="Frame_3" data-name="Frame 3" style="isolation:isolate"><g id="rect"><rect width="300" height="250" fill="none"/></g><g id="Adopt_today." data-name="Adopt today."><path d="M20.5,24.8H14.13l-.9,2.46H9.89L15.41,13h3.81l5.5,14.27H21.4Zm-5.56-2.63h4.73l-2.36-6.55Z" fill="#fff"/><path d="M33,25.93a4.25,4.25,0,0,1-1.42,1.19,3.85,3.85,0,0,1-1.77.42,4.31,4.31,0,0,1-4-2.51,6.73,6.73,0,0,1-.58-2.92,6.64,6.64,0,0,1,.58-2.88,4.61,4.61,0,0,1,1.63-1.9,4.3,4.3,0,0,1,2.36-.66,4,4,0,0,1,1.76.41A4.11,4.11,0,0,1,33,18.25V13h2.74V27.26H33Zm0-5.66a2.45,2.45,0,0,0-1-.85,3,3,0,0,0-1.34-.33,2.39,2.39,0,0,0-1.88.83A3.2,3.2,0,0,0,28,22.11a3.17,3.17,0,0,0,.73,2.17,2.36,2.36,0,0,0,1.88.84,3,3,0,0,0,1.34-.33,2.61,2.61,0,0,0,1-.85Z" fill="#fff"/><path d="M40.17,26.81a5.09,5.09,0,0,1-1.91-2,5.79,5.79,0,0,1-.66-2.75,5.73,5.73,0,0,1,.66-2.72,5,5,0,0,1,1.91-2,6.11,6.11,0,0,1,5.79,0,4.89,4.89,0,0,1,1.91,2,5.73,5.73,0,0,1,.66,2.72,5.79,5.79,0,0,1-.66,2.75,5,5,0,0,1-1.91,2,6.11,6.11,0,0,1-5.79,0ZM45,24.25a3.27,3.27,0,0,0,.72-2.16A3.23,3.23,0,0,0,45,20a2.38,2.38,0,0,0-1.94-.87,2.34,2.34,0,0,0-1.92.87,3.28,3.28,0,0,0-.71,2.13,3.32,3.32,0,0,0,.71,2.16,2.34,2.34,0,0,0,1.92.87A2.38,2.38,0,0,0,45,24.25Z" fill="#fff"/><path d="M50.44,31.19V16.93h2.72v1.3a4.13,4.13,0,0,1,1.42-1.15,4,4,0,0,1,1.77-.41,4.37,4.37,0,0,1,2.36.64,4.32,4.32,0,0,1,1.62,1.87,6.51,6.51,0,0,1,.59,2.91A6.63,6.63,0,0,1,60.33,25a4.32,4.32,0,0,1-1.62,1.87,4.38,4.38,0,0,1-2.36.65A3.93,3.93,0,0,1,53.16,26v5.24Zm6.94-11.27a2.38,2.38,0,0,0-1.89-.83,2.89,2.89,0,0,0-1.33.34,2.72,2.72,0,0,0-1,.84v3.67a2.76,2.76,0,0,0,1,.84,3,3,0,0,0,1.32.34,2.35,2.35,0,0,0,1.89-.84,3.25,3.25,0,0,0,.72-2.19A3.23,3.23,0,0,0,57.38,19.92Z" fill="#fff"/><path d="M64.21,26.81a2.81,2.81,0,0,1-.75-2.1V19.3H61.75V16.93h1.71V14.1H66.2v2.83h2.1V19.3H66.2V24a1.3,1.3,0,0,0,.26.82.84.84,0,0,0,.68.32A1.69,1.69,0,0,0,67.7,25a.9.9,0,0,0,.38-.21l.58,2.05a3.34,3.34,0,0,1-2.27.67A3,3,0,0,1,64.21,26.81Z" fill="#fff"/><path d="M76.92,26.81a2.81,2.81,0,0,1-.75-2.1V19.3H74.46V16.93h1.71V14.1h2.74v2.83H81V19.3H78.91V24a1.29,1.29,0,0,0,.25.82.85.85,0,0,0,.69.32A1.63,1.63,0,0,0,80.4,25a1,1,0,0,0,.39-.21l.58,2.05a3.36,3.36,0,0,1-2.27.67A3,3,0,0,1,76.92,26.81Z" fill="#fff"/><path d="M84.57,26.81a5,5,0,0,1-1.91-2A5.79,5.79,0,0,1,82,22.09a5.73,5.73,0,0,1,.66-2.72,4.89,4.89,0,0,1,1.91-2,6.11,6.11,0,0,1,5.79,0,5,5,0,0,1,1.91,2,5.73,5.73,0,0,1,.66,2.72,5.79,5.79,0,0,1-.66,2.75,5.09,5.09,0,0,1-1.91,2,6.11,6.11,0,0,1-5.79,0Zm4.82-2.56a3.27,3.27,0,0,0,.72-2.16A3.23,3.23,0,0,0,89.39,20a2.38,2.38,0,0,0-1.94-.87,2.34,2.34,0,0,0-1.92.87,3.28,3.28,0,0,0-.71,2.13,3.32,3.32,0,0,0,.71,2.16,2.34,2.34,0,0,0,1.92.87A2.38,2.38,0,0,0,89.39,24.25Z" fill="#fff"/><path d="M102,25.93a4.25,4.25,0,0,1-1.42,1.19,3.84,3.84,0,0,1-1.76.42,4.43,4.43,0,0,1-2.36-.65A4.3,4.3,0,0,1,94.86,25a6.59,6.59,0,0,1-.59-2.92,6.5,6.5,0,0,1,.59-2.88,4.52,4.52,0,0,1,1.62-1.9,4.31,4.31,0,0,1,2.37-.66A4,4,0,0,1,102,18.25V13h2.74V27.26H102Zm0-5.66a2.42,2.42,0,0,0-1-.85,3,3,0,0,0-1.35-.33,2.39,2.39,0,0,0-1.88.83,3.2,3.2,0,0,0-.73,2.19,3.17,3.17,0,0,0,.73,2.17,2.36,2.36,0,0,0,1.88.84,3,3,0,0,0,1.35-.33,2.57,2.57,0,0,0,1-.85Z" fill="#fff"/><path d="M114.51,25.93a4.25,4.25,0,0,1-1.42,1.19,3.85,3.85,0,0,1-1.77.42,4.4,4.4,0,0,1-2.35-.65A4.3,4.3,0,0,1,107.34,25a6.59,6.59,0,0,1-.59-2.92,6.5,6.5,0,0,1,.59-2.88,4.52,4.52,0,0,1,1.62-1.9,4.3,4.3,0,0,1,2.36-.66,4,4,0,0,1,1.76.41,4.11,4.11,0,0,1,1.43,1.17V16.93h2.74V27.26h-2.74Zm0-5.64a2.56,2.56,0,0,0-1-.85,3,3,0,0,0-1.35-.33,2.35,2.35,0,0,0-1.88.83,3.13,3.13,0,0,0-.73,2.17,3.17,3.17,0,0,0,.73,2.17,2.36,2.36,0,0,0,1.88.84,3,3,0,0,0,1.35-.33,2.65,2.65,0,0,0,1-.85Z" fill="#fff"/><path d="M120.81,27.94a3.28,3.28,0,0,0,1.37,1,4.7,4.7,0,0,0,1.73.33,2.88,2.88,0,0,0,2.06-.69,2.59,2.59,0,0,0,.72-2V25.5a4.66,4.66,0,0,1-1.52,1.12,4.8,4.8,0,0,1-2.11.45,3.34,3.34,0,0,1-2.5-.86,3.28,3.28,0,0,1-.84-2.4V16.93h2.72v5.81a1.87,1.87,0,0,0,.49,1.47,2.07,2.07,0,0,0,1.41.44,2.82,2.82,0,0,0,1.35-.34,3.2,3.2,0,0,0,1-.84V16.93h2.72v9.51a4.62,4.62,0,0,1-1.49,3.69,5.81,5.81,0,0,1-4,1.32,6.3,6.3,0,0,1-4.32-1.54Z" fill="#fff"/><path d="M132.25,24.58a1.69,1.69,0,1,1-.52,1.22A1.65,1.65,0,0,1,132.25,24.58Z" fill="#fff"/></g></g></g></svg>