<svg xmlns="http://www.w3.org/2000/svg" viewBox="0 0 728 90"><title>txt2</title><g id="Layer_2" data-name="Layer 2"><g id="animation_F2_v1" data-name="animation F2 v1" style="isolation:isolate"><g id="rect"><rect width="728" height="90" fill="none"/></g><g id="National_Adoption_Days_Nov._2_22" data-name="National Adoption Days Nov. 2–22"><path d="M167,42V52.29h-3.27V36.94h3.36l7.1,9.94V36.94h3.27V52.29h-3.15Z" fill="#fff"/><path d="M188.16,50.86a4.56,4.56,0,0,1-1.53,1.28,4.1,4.1,0,0,1-1.89.44,4.73,4.73,0,0,1-2.53-.69,4.59,4.59,0,0,1-1.76-2,7.92,7.92,0,0,1,0-6.24,4.77,4.77,0,0,1,1.74-2,4.6,4.6,0,0,1,2.55-.72,4.29,4.29,0,0,1,1.88.44,4.33,4.33,0,0,1,1.54,1.26V41.18h3V52.29h-3Zm0-6.07a2.66,2.66,0,0,0-1.08-.91,3.17,3.17,0,0,0-1.45-.36,2.57,2.57,0,0,0-2,.89,3.41,3.41,0,0,0-.78,2.34,3.44,3.44,0,0,0,.78,2.34,2.54,2.54,0,0,0,2,.9,3.17,3.17,0,0,0,1.45-.36,2.66,2.66,0,0,0,1.08-.91Z" fill="#fff"/><path d="M195.26,51.8a3,3,0,0,1-.81-2.26V43.73h-1.84V41.18h1.84v-3h3v3h2.25v2.55H197.4v5a1.38,1.38,0,0,0,.27.88.91.91,0,0,0,.74.35,1.72,1.72,0,0,0,.6-.1.94.94,0,0,0,.41-.23l.62,2.21a3.56,3.56,0,0,1-2.44.71A3.23,3.23,0,0,1,195.26,51.8Z" fill="#fff"/><path d="M201.81,39a1.75,1.75,0,0,1,1.23-3,1.75,1.75,0,0,1,1.24,3,1.67,1.67,0,0,1-1.24.51A1.71,1.71,0,0,1,201.81,39Zm-.22,2.15h2.92V52.29h-2.92Z" fill="#fff"/><path d="M209.29,51.8a5.36,5.36,0,0,1-2-2.12,6.44,6.44,0,0,1,0-5.88,5.42,5.42,0,0,1,2-2.12,6.61,6.61,0,0,1,6.23,0,5.42,5.42,0,0,1,2,2.12,6.44,6.44,0,0,1,0,5.88,5.36,5.36,0,0,1-2,2.12,6.61,6.61,0,0,1-6.23,0Zm5.19-2.75a3.85,3.85,0,0,0,0-4.62,2.57,2.57,0,0,0-2.08-.93,2.55,2.55,0,0,0-2.08.93,3.93,3.93,0,0,0,0,4.62,2.55,2.55,0,0,0,2.08.94A2.58,2.58,0,0,0,214.48,49.05Z" fill="#fff"/><path d="M227.83,45.57A2.07,2.07,0,0,0,227.3,44a2.2,2.2,0,0,0-1.52-.48,2.86,2.86,0,0,0-1.46.38,3.35,3.35,0,0,0-1.07.93v7.48h-2.92V41.18h2.92v1.45a4.75,4.75,0,0,1,1.61-1.22,5,5,0,0,1,2.28-.51,3.23,3.23,0,0,1,3.61,3.54v7.85h-2.92Z" fill="#fff"/><path d="M241.19,50.86a4.56,4.56,0,0,1-1.53,1.28,4.11,4.11,0,0,1-1.9.44,4.76,4.76,0,0,1-2.53-.69,4.66,4.66,0,0,1-1.76-2,8,8,0,0,1,0-6.24,4.79,4.79,0,0,1,1.75-2,4.57,4.57,0,0,1,2.54-.72,4.34,4.34,0,0,1,3.43,1.7V41.18h2.94V52.29h-2.94Zm0-6.07a2.8,2.8,0,0,0-1.08-.91,3.2,3.2,0,0,0-1.45-.36,2.6,2.6,0,0,0-2,.89,3.41,3.41,0,0,0-.78,2.34,3.44,3.44,0,0,0,.78,2.34,2.58,2.58,0,0,0,2,.9,3.2,3.2,0,0,0,1.45-.36,2.8,2.8,0,0,0,1.08-.91Z" fill="#fff"/><path d="M247.61,51.81a3.05,3.05,0,0,1-.79-2.27V36.94h2.92V48.76a1.33,1.33,0,0,0,.28.88.89.89,0,0,0,.73.35,1.64,1.64,0,0,0,.6-.1.72.72,0,0,0,.39-.23l.62,2.21a3.51,3.51,0,0,1-2.41.71A3.21,3.21,0,0,1,247.61,51.81Z" fill="#fff"/><path d="M269.41,49.64h-6.86l-1,2.65H258l5.93-15.35H268l5.91,15.35h-3.57Zm-6-2.83h5.08l-2.53-7Z" fill="#fff"/><path d="M282.78,50.86a4.56,4.56,0,0,1-1.53,1.28,4.11,4.11,0,0,1-1.9.44,4.6,4.6,0,0,1-4.29-2.69,8,8,0,0,1,0-6.24,4.86,4.86,0,0,1,1.75-2,4.6,4.6,0,0,1,2.54-.72,4.34,4.34,0,0,1,3.43,1.7V36.94h2.94V52.29h-2.94Zm0-6.09a2.73,2.73,0,0,0-1.08-.91,3.2,3.2,0,0,0-1.45-.36,2.54,2.54,0,0,0-2,.9,3.88,3.88,0,0,0,0,4.69,2.54,2.54,0,0,0,2,.9,3.2,3.2,0,0,0,1.45-.36,2.73,2.73,0,0,0,1.08-.91Z" fill="#fff"/><path d="M290.53,51.8a5.36,5.36,0,0,1-2-2.12,6.44,6.44,0,0,1,0-5.88,5.42,5.42,0,0,1,2-2.12,6.61,6.61,0,0,1,6.23,0,5.42,5.42,0,0,1,2.05,2.12,6.44,6.44,0,0,1,0,5.88,5.36,5.36,0,0,1-2.05,2.12,6.61,6.61,0,0,1-6.23,0Zm5.19-2.75a3.85,3.85,0,0,0,0-4.62,2.58,2.58,0,0,0-2.09-.93,2.54,2.54,0,0,0-2.07.93,3.93,3.93,0,0,0,0,4.62,2.55,2.55,0,0,0,2.07.94A2.59,2.59,0,0,0,295.72,49.05Z" fill="#fff"/><path d="M301.57,56.52V41.18h2.92v1.4A4.44,4.44,0,0,1,306,41.34a4.23,4.23,0,0,1,1.89-.44,4.75,4.75,0,0,1,2.55.69,4.65,4.65,0,0,1,1.74,2,7,7,0,0,1,.64,3.13,7.14,7.14,0,0,1-.64,3.15,4.65,4.65,0,0,1-1.74,2,4.75,4.75,0,0,1-2.55.69,4.28,4.28,0,0,1-1.88-.42,4.33,4.33,0,0,1-1.54-1.28v5.64ZM309,44.4a2.54,2.54,0,0,0-2-.9,3,3,0,0,0-1.42.37,2.89,2.89,0,0,0-1.08.9v3.95a2.93,2.93,0,0,0,1.09.9A3.16,3.16,0,0,0,307,50a2.54,2.54,0,0,0,2-.9,3.53,3.53,0,0,0,.77-2.36A3.48,3.48,0,0,0,309,44.4Z" fill="#fff"/><path d="M316.36,51.8a3,3,0,0,1-.8-2.26V43.73h-1.84V41.18h1.84v-3h2.94v3h2.26v2.55H318.5v5a1.33,1.33,0,0,0,.28.88.89.89,0,0,0,.73.35,1.64,1.64,0,0,0,.6-.1,1,1,0,0,0,.42-.23l.62,2.21a3.57,3.57,0,0,1-2.44.71A3.25,3.25,0,0,1,316.36,51.8Z" fill="#fff"/><path d="M322.92,39a1.75,1.75,0,0,1,1.23-3,1.71,1.71,0,0,1,1.24.5,1.79,1.79,0,0,1,0,2.48,1.75,1.75,0,0,1-2.47,0Zm-.22,2.15h2.92V52.29H322.7Z" fill="#fff"/><path d="M330.39,51.8a5.26,5.26,0,0,1-2-2.12,6.36,6.36,0,0,1,0-5.88,5.33,5.33,0,0,1,2-2.12,6.63,6.63,0,0,1,6.24,0,5.33,5.33,0,0,1,2,2.12,6.36,6.36,0,0,1,0,5.88,5.26,5.26,0,0,1-2,2.12,6.63,6.63,0,0,1-6.24,0Zm5.19-2.75a3.85,3.85,0,0,0,0-4.62,2.78,2.78,0,0,0-4.15,0,3.89,3.89,0,0,0,0,4.62,2.76,2.76,0,0,0,4.15,0Z" fill="#fff"/><path d="M348.93,45.57A2.07,2.07,0,0,0,348.4,44a2.18,2.18,0,0,0-1.52-.48,2.92,2.92,0,0,0-1.46.38,3.58,3.58,0,0,0-1.07.93v7.48h-2.92V41.18h2.92v1.45A4.86,4.86,0,0,1,346,41.41a5,5,0,0,1,2.28-.51,3.23,3.23,0,0,1,3.61,3.54v7.85h-2.92Z" fill="#fff"/><path d="M360.71,36.94h6a9,9,0,0,1,4.24,1,7.12,7.12,0,0,1,2.87,2.7,8.29,8.29,0,0,1,0,8A7.09,7.09,0,0,1,371,51.33a9,9,0,0,1-4.24,1h-6Zm6,12.47a5,5,0,0,0,2.57-.64A4.36,4.36,0,0,0,371,47a5.12,5.12,0,0,0,.57-2.4,4.85,4.85,0,0,0-1.26-3.46,4.64,4.64,0,0,0-3.55-1.35H364v9.59Z" fill="#fff"/><path d="M384.84,50.86a4.56,4.56,0,0,1-1.53,1.28,4.14,4.14,0,0,1-1.9.44,4.73,4.73,0,0,1-2.53-.69,4.66,4.66,0,0,1-1.76-2,8,8,0,0,1,0-6.24,4.72,4.72,0,0,1,1.75-2,4.57,4.57,0,0,1,2.54-.72,4.3,4.3,0,0,1,1.89.44,4.42,4.42,0,0,1,1.54,1.26V41.18h2.94V52.29h-2.94Zm0-6.07a2.8,2.8,0,0,0-1.08-.91,3.2,3.2,0,0,0-1.45-.36,2.59,2.59,0,0,0-2,.89,3.41,3.41,0,0,0-.78,2.34,3.44,3.44,0,0,0,.78,2.34,2.56,2.56,0,0,0,2,.9,3.2,3.2,0,0,0,1.45-.36,2.8,2.8,0,0,0,1.08-.91Z" fill="#fff"/><path d="M391.6,53a3.49,3.49,0,0,0,1.47,1,5.16,5.16,0,0,0,1.87.34,3.08,3.08,0,0,0,2.2-.73,2.76,2.76,0,0,0,.79-2.12V50.4a5.33,5.33,0,0,1-1.65,1.2,5.17,5.17,0,0,1-2.26.48,3.63,3.63,0,0,1-2.7-.92,3.56,3.56,0,0,1-.89-2.58v-7.4h2.92v6.25a2,2,0,0,0,.53,1.58,2.23,2.23,0,0,0,1.52.47,2.86,2.86,0,0,0,1.44-.37,3.35,3.35,0,0,0,1.09-.9v-7h2.92V51.41a5,5,0,0,1-1.6,4,6.3,6.3,0,0,1-4.31,1.41,6.82,6.82,0,0,1-4.65-1.65Z" fill="#fff"/><path d="M404,48.81a5.88,5.88,0,0,0,1.75,1.06,5.39,5.39,0,0,0,2.09.46,2.65,2.65,0,0,0,1.4-.3,1,1,0,0,0,.47-.84.89.89,0,0,0-.55-.81,6.78,6.78,0,0,0-1.68-.51,16.49,16.49,0,0,1-2.21-.55,3.58,3.58,0,0,1-1.52-1,2.73,2.73,0,0,1-.64-1.92,3.09,3.09,0,0,1,.54-1.75,3.67,3.67,0,0,1,1.57-1.28,5.9,5.9,0,0,1,2.44-.47,7,7,0,0,1,4.48,1.52l-1.17,2a4.11,4.11,0,0,0-1.41-.92,4.78,4.78,0,0,0-1.88-.37,2.44,2.44,0,0,0-1.27.28.83.83,0,0,0-.48.76.78.78,0,0,0,.52.72,8,8,0,0,0,1.6.47,14.49,14.49,0,0,1,2.23.58A3.94,3.94,0,0,1,411.81,47a2.9,2.9,0,0,1,.66,2,3.09,3.09,0,0,1-.56,1.83,3.63,3.63,0,0,1-1.66,1.28,6.57,6.57,0,0,1-2.58.46,8.36,8.36,0,0,1-2.78-.46,6,6,0,0,1-2.19-1.26Z" fill="#fff"/></g></g></g></svg>