<svg xmlns="http://www.w3.org/2000/svg" viewBox="0 0 728 90"><title>txt3</title><g id="Layer_2" data-name="Layer 2"><g id="animation_F3" data-name="animation F3" style="isolation:isolate"><g id="rect"><rect width="728" height="90" fill="none"/></g><g id="Adopt_today." data-name="Adopt today."><path d="M173.51,49.64h-6.85l-1,2.65h-3.58L168,36.94h4.09l5.92,15.35h-3.57Zm-6-2.83h5.09l-2.53-7Z" fill="#fff"/><path d="M186.89,50.86a4.56,4.56,0,0,1-1.53,1.28,4.24,4.24,0,0,1-1.9.44,4.76,4.76,0,0,1-2.53-.69,4.66,4.66,0,0,1-1.76-2,8,8,0,0,1,0-6.24,4.88,4.88,0,0,1,1.75-2,4.65,4.65,0,0,1,2.54-.71,4.34,4.34,0,0,1,3.43,1.7V36.94h2.94V52.29h-2.94Zm0-6.09a2.8,2.8,0,0,0-1.08-.91,3.2,3.2,0,0,0-1.45-.36,2.58,2.58,0,0,0-2,.9,3.45,3.45,0,0,0-.78,2.35,3.42,3.42,0,0,0,.78,2.33,2.56,2.56,0,0,0,2,.91,3.2,3.2,0,0,0,1.45-.36,2.88,2.88,0,0,0,1.08-.91Z" fill="#fff"/><path d="M194.64,51.8a5.36,5.36,0,0,1-2-2.12,6.44,6.44,0,0,1,0-5.88,5.42,5.42,0,0,1,2-2.12,6.61,6.61,0,0,1,6.23,0,5.42,5.42,0,0,1,2,2.12,6.44,6.44,0,0,1,0,5.88,5.36,5.36,0,0,1-2,2.12,6.61,6.61,0,0,1-6.23,0Zm5.18-2.75a3.85,3.85,0,0,0,0-4.62,2.78,2.78,0,0,0-4.15,0,3.89,3.89,0,0,0,0,4.62,2.76,2.76,0,0,0,4.15,0Z" fill="#fff"/><path d="M205.67,56.52V41.18h2.93v1.4A4.32,4.32,0,0,1,212,40.9a4.72,4.72,0,0,1,2.54.69,4.61,4.61,0,0,1,1.75,2,7.16,7.16,0,0,1,.63,3.13,7.32,7.32,0,0,1-.63,3.15,4.61,4.61,0,0,1-1.75,2,4.72,4.72,0,0,1-2.54.69,4.19,4.19,0,0,1-3.42-1.7v5.64Zm7.47-12.12a2.56,2.56,0,0,0-2-.9,3,3,0,0,0-1.42.37,2.8,2.8,0,0,0-1.08.9v3.95a2.93,2.93,0,0,0,1.09.9,3.16,3.16,0,0,0,1.41.37,2.53,2.53,0,0,0,2-.91,3.94,3.94,0,0,0,0-4.68Z" fill="#fff"/><path d="M220.47,51.8a3,3,0,0,1-.8-2.26V43.73h-1.84V41.18h1.84v-3h2.94v3h2.25v2.55h-2.25v5a1.33,1.33,0,0,0,.28.88.88.88,0,0,0,.73.35,1.64,1.64,0,0,0,.6-.1,1.05,1.05,0,0,0,.41-.23l.62,2.21a3.55,3.55,0,0,1-2.43.71A3.25,3.25,0,0,1,220.47,51.8Z" fill="#fff"/><path d="M234.13,51.8a3,3,0,0,1-.8-2.26V43.73h-1.84V41.18h1.84v-3h2.94v3h2.25v2.55h-2.25v5a1.33,1.33,0,0,0,.28.88.89.89,0,0,0,.73.35,1.64,1.64,0,0,0,.6-.1,1.05,1.05,0,0,0,.41-.23l.63,2.21a3.57,3.57,0,0,1-2.44.71A3.25,3.25,0,0,1,234.13,51.8Z" fill="#fff"/><path d="M242.35,51.8a5.29,5.29,0,0,1-2-2.12,6.36,6.36,0,0,1,0-5.88,5.35,5.35,0,0,1,2-2.12,6,6,0,0,1,3.1-.78,6.08,6.08,0,0,1,3.13.78,5.33,5.33,0,0,1,2,2.12,6.36,6.36,0,0,1,0,5.88,5.26,5.26,0,0,1-2,2.12,6.08,6.08,0,0,1-3.13.78A6,6,0,0,1,242.35,51.8Zm5.18-2.75a3.85,3.85,0,0,0,0-4.62,2.78,2.78,0,0,0-4.15,0,3.89,3.89,0,0,0,0,4.62,2.76,2.76,0,0,0,4.15,0Z" fill="#fff"/><path d="M261.11,50.86a4.43,4.43,0,0,1-1.52,1.28,4.31,4.31,0,0,1-1.9.44,4.73,4.73,0,0,1-2.53-.69,4.66,4.66,0,0,1-1.76-2,8,8,0,0,1,0-6.24,4.81,4.81,0,0,1,1.75-2,4.65,4.65,0,0,1,2.54-.71,4.34,4.34,0,0,1,3.42,1.7V36.94h2.95V52.29h-2.95Zm0-6.09a2.66,2.66,0,0,0-1.08-.91,3.14,3.14,0,0,0-1.45-.36,2.56,2.56,0,0,0-2,.9,3.45,3.45,0,0,0-.78,2.35,3.42,3.42,0,0,0,.78,2.33,2.54,2.54,0,0,0,2,.91,3.14,3.14,0,0,0,1.45-.36,2.74,2.74,0,0,0,1.08-.91Z" fill="#fff"/><path d="M274.52,50.86A4.56,4.56,0,0,1,273,52.14a4.23,4.23,0,0,1-1.89.44,4.73,4.73,0,0,1-2.53-.69,4.66,4.66,0,0,1-1.76-2,7.92,7.92,0,0,1,0-6.24,4.81,4.81,0,0,1,1.75-2,4.65,4.65,0,0,1,2.54-.71,4.25,4.25,0,0,1,1.88.44,4.33,4.33,0,0,1,1.54,1.26V41.18h3V52.29h-3Zm0-6.07a2.66,2.66,0,0,0-1.08-.91,3.17,3.17,0,0,0-1.45-.36,2.58,2.58,0,0,0-2,.89,3.89,3.89,0,0,0,0,4.67,2.54,2.54,0,0,0,2,.91,3.17,3.17,0,0,0,1.45-.36,2.74,2.74,0,0,0,1.08-.91Z" fill="#fff"/><path d="M281.29,53a3.49,3.49,0,0,0,1.47,1,5.15,5.15,0,0,0,1.86.34,3.1,3.1,0,0,0,2.21-.73,2.79,2.79,0,0,0,.78-2.12V50.4A5.1,5.1,0,0,1,286,51.59a5,5,0,0,1-2.27.49,3.62,3.62,0,0,1-2.69-.92,3.53,3.53,0,0,1-.89-2.58v-7.4H283v6.25a2,2,0,0,0,.53,1.58,2.2,2.2,0,0,0,1.51.47,2.9,2.9,0,0,0,1.45-.37,3.21,3.21,0,0,0,1.08-.9v-7h2.92V51.41a5,5,0,0,1-1.59,4,6.31,6.31,0,0,1-4.32,1.41A6.78,6.78,0,0,1,280,55.14Z" fill="#fff"/><path d="M293.57,49.41a1.79,1.79,0,0,1,1.31-.55,1.76,1.76,0,0,1,1.31.55,1.81,1.81,0,0,1,0,2.62,1.76,1.76,0,0,1-1.31.55,1.85,1.85,0,0,1-1.31-3.17Z" fill="#fff"/></g></g></g></svg>