<svg xmlns="http://www.w3.org/2000/svg" viewBox="0 0 300 600"><title>overlay</title><g id="Layer_2" data-name="Layer 2"><g id="rect"><rect width="300" height="600" fill="none"/></g><g id="CTA"><g id="Rounded_Rectangle_1" data-name="Rounded Rectangle 1"><rect x="195.53" y="551.91" width="87.97" height="30.38" rx="4" fill="#e52823"/></g><g id="Learn_More" data-name="Learn More"><path d="M205,562.26h2v7.55h3.93v1.74H205Z" fill="#fff"/><path d="M212.08,566.41a3.38,3.38,0,0,1,3-1.75,3.32,3.32,0,0,1,1.75.46,3.15,3.15,0,0,1,1.19,1.31,4.28,4.28,0,0,1,.43,1.93v.39h-5a1.7,1.7,0,0,0,.59,1.12,2,2,0,0,0,1.34.45,2.83,2.83,0,0,0,1-.18,2.43,2.43,0,0,0,.82-.48l.78,1.14a3.65,3.65,0,0,1-1.23.69,4.91,4.91,0,0,1-1.54.24,3.88,3.88,0,0,1-1.84-.44,3.21,3.21,0,0,1-1.29-1.24,3.67,3.67,0,0,1-.47-1.86A3.54,3.54,0,0,1,212.08,566.41Zm1.87.1a1.8,1.8,0,0,0-.49,1h3.31a1.69,1.69,0,0,0-.45-1,1.52,1.52,0,0,0-1.2-.46A1.49,1.49,0,0,0,214,566.51Z" fill="#fff"/><path d="M224.4,570.69a2.74,2.74,0,0,1-.93.77,2.53,2.53,0,0,1-1.15.27,2.89,2.89,0,0,1-1.53-.42,2.81,2.81,0,0,1-1.07-1.21,4.89,4.89,0,0,1,0-3.78,3,3,0,0,1,1.06-1.23,2.79,2.79,0,0,1,1.54-.43,2.51,2.51,0,0,1,1.14.26,2.58,2.58,0,0,1,.94.77v-.87h1.78v6.73H224.4Zm0-3.68a1.65,1.65,0,0,0-.66-.55,2,2,0,0,0-.87-.22,1.56,1.56,0,0,0-1.23.54,2.37,2.37,0,0,0,0,2.83,1.57,1.57,0,0,0,1.23.55,2,2,0,0,0,.87-.22,1.74,1.74,0,0,0,.66-.55Z" fill="#fff"/><path d="M227.85,564.82h1.77v.92a3,3,0,0,1,.94-.77,2.5,2.5,0,0,1,1.2-.31v1.72a2.81,2.81,0,0,0-.49,0,2.29,2.29,0,0,0-.94.22,1.59,1.59,0,0,0-.71.54v4.46h-1.77Z" fill="#fff"/><path d="M237.28,567.48a1.28,1.28,0,0,0-.32-1,1.35,1.35,0,0,0-.92-.29,1.79,1.79,0,0,0-.89.23,2.22,2.22,0,0,0-.65.56v4.53h-1.76v-6.73h1.76v.88a3.16,3.16,0,0,1,1-.74,3.11,3.11,0,0,1,1.38-.3A2,2,0,0,1,239,566.8v4.75h-1.76Z" fill="#fff"/><path d="M252.48,564.86l-2.61,6.69H249l-2.62-6.69v6.69h-2v-9.29h2.77l2.25,5.79,2.26-5.79h2.78v9.29h-2Z" fill="#fff"/><path d="M257.56,571.26a3.27,3.27,0,0,1-1.24-1.29,3.9,3.9,0,0,1,0-3.56,3.24,3.24,0,0,1,1.24-1.28,3.6,3.6,0,0,1,1.88-.47,3.63,3.63,0,0,1,1.89.47,3.24,3.24,0,0,1,1.24,1.28,3.9,3.9,0,0,1,0,3.56,3.27,3.27,0,0,1-1.24,1.29,3.73,3.73,0,0,1-1.89.47A3.69,3.69,0,0,1,257.56,571.26Zm3.14-1.67a2.32,2.32,0,0,0,0-2.8,1.56,1.56,0,0,0-1.26-.56,1.53,1.53,0,0,0-1.25.56,2.36,2.36,0,0,0,0,2.8,1.51,1.51,0,0,0,1.25.57A1.54,1.54,0,0,0,260.7,569.59Z" fill="#fff"/><path d="M264.28,564.82h1.77v.92A3.06,3.06,0,0,1,267,565a2.43,2.43,0,0,1,1.19-.31v1.72a2.7,2.7,0,0,0-.48,0,2.3,2.3,0,0,0-.95.22,1.59,1.59,0,0,0-.71.54v4.46h-1.77Z" fill="#fff"/><path d="M269.21,566.41a3.38,3.38,0,0,1,3-1.75,3.33,3.33,0,0,1,1.76.46,3.15,3.15,0,0,1,1.19,1.31,4.28,4.28,0,0,1,.42,1.93v.39h-5a1.7,1.7,0,0,0,.59,1.12,2,2,0,0,0,1.34.45,2.83,2.83,0,0,0,1-.18,2.43,2.43,0,0,0,.82-.48l.78,1.14a3.65,3.65,0,0,1-1.23.69,5,5,0,0,1-1.54.24,3.88,3.88,0,0,1-1.84-.44,3.21,3.21,0,0,1-1.29-1.24,3.67,3.67,0,0,1-.47-1.86A3.54,3.54,0,0,1,269.21,566.41Zm1.87.1a1.8,1.8,0,0,0-.49,1h3.31a1.74,1.74,0,0,0-.45-1,1.54,1.54,0,0,0-1.21-.46A1.48,1.48,0,0,0,271.08,566.51Z" fill="#fff"/></g></g><g id="logo"><path d="M31.13,552a11.32,11.32,0,0,0-7.85,3.66A15.46,15.46,0,0,0,19,566.89a13.88,13.88,0,0,0,7.6,11.78c4.18,1.92,10,1.11,12.5-1.78a1,1,0,0,0,.08-1.38c-.36-.46-.91-.29-1.42,0-2.45,1.38-7.37,1.29-10.58-.66-1.83-1.11-4.4-2.59-4.63-8.27-.18-4.54.81-7.12,3-9.47s4.3-2.84,5.65-2.89c2.69-.1,4.15,1.58,4.3,3,.19,1.94-.92,2.43-1.9,2.47-1.54.07-1.55-2-1.55-2.05-.06-.58-.18-.9-.76-.84s-1.16.62-1.29,1.69c0,.26-.33,2.38,1.06,3.51a4,4,0,0,0,2.94.71c2.57-.38,3.9-2.45,3.73-5.29A6.19,6.19,0,0,0,31.13,552Z" fill="#fff"/><path d="M44.89,554.29A19.45,19.45,0,0,0,42.45,562c-1.1.09-1.81.07-1.91.09a1.12,1.12,0,0,0-1,1c-.06.59.53.83,1.12.89,0,0,.26,0,1.43-.08-.28,2.88-.37,5.33-.9,11.55-.05.62-.32,2.15-.31,2.8a1.55,1.55,0,0,0,1.6,1.78c.84,0,1.27-.78,1.47-1.24.78-1.86,2.44-7,5-7.91.19.4,1.2,3.46,1.2,3.46,1.15,2.88,3,2.78,4,2.57a1.07,1.07,0,0,0-.42-2.09c-.28.06-.81-.52-1.29-1.72L52.19,572c-.27-1.33-.56-2.69-1.5-3.27a1.7,1.7,0,0,0-1.36-.18c-2.24.61-4.16,3-5.52,5.13.33-4.43.42-7.14.47-10a10.32,10.32,0,0,0,8.37-7.6,7.44,7.44,0,0,0,.31-2,3.27,3.27,0,0,0-1.83-3.27C49.14,549.91,46.57,551.37,44.89,554.29ZM47,555.46c1-1.59,1.79-2,2.45-1.73.3.13.78,1.12.31,2.76a8,8,0,0,1-4.49,5.29C45.84,558.55,46.21,556.9,47,555.46Z" fill="#fff"/><path d="M59.55,570.89A10.62,10.62,0,0,0,56.93,578a2.9,2.9,0,0,0,1.34,2.31c2.4,1.33,6.23-.9,7.2-2.89.44.62,1.06,2.22,2.93,2.41.59.06,1.44-.11,1.6-.68a1.41,1.41,0,0,0-.71-1.77c-2.41-.78-2.31-4.44-2.31-5.61,0-.33-.71-1.05-1-1.24v0a1.07,1.07,0,0,0-.12-.49,3.5,3.5,0,0,0-2.37-1.36C62.21,568.45,61,569.34,59.55,570.89Zm-.43,5.61a6.76,6.76,0,0,1,2-4.59c.88-.94,1.7-1.45,2.25-1.39A1,1,0,0,1,64,571a1.08,1.08,0,0,0,.32.32c-.6,4.18-2,5.78-3.11,6.38a2.49,2.49,0,0,1-1.78.32A3,3,0,0,1,59.12,576.5Z" fill="#fff"/><path d="M74.08,565.51a1,1,0,0,0-1,1.11l-.22,11.21a1.27,1.27,0,0,0,1.29,1.2c.55-.07,1.29-.09,1.29-1.12,0,0,.66-6.13,2.75-7.82.58-.49,1-.49,1.16-.4s.35,1.38,1.2,1.47a2,2,0,0,0,1.91-1.91,2,2,0,0,0-1.11-2c-1.47-.59-3.47,0-6.18,3.63-.07-2.25,0-4.39,0-4.39A1.1,1.1,0,0,0,74.08,565.51Z" fill="#fff"/><path d="M85.35,568.31c0,.28-1.73,6.48-1.24,10.05a1.55,1.55,0,0,0,2,1.15,1.35,1.35,0,0,0,1.07-1.6c-.44-3.22.35-9.54.37-9.6a.82.82,0,0,0-.72-1.07A1.44,1.44,0,0,0,85.35,568.31Z" fill="#fff"/><path d="M99.7,568.31a28.79,28.79,0,0,1-4.64.28,27.5,27.5,0,0,1,1.31-6c.21-.55,0-.88-.58-1.08a1.48,1.48,0,0,0-1.6.88,25.29,25.29,0,0,0-1.43,6.23,11.11,11.11,0,0,1-2.22-.62,1.14,1.14,0,0,0-1.51.44.94.94,0,0,0,.44,1.33,5.74,5.74,0,0,0,2.85,1.07,19.54,19.54,0,0,0,2,9.69,1.84,1.84,0,0,0,2.49.71,1.63,1.63,0,0,0,.54-2.13A16.81,16.81,0,0,1,95.16,571a23.82,23.82,0,0,0,4.63.18c.58-.06,1.51-.36,1.42-1.43A1.39,1.39,0,0,0,99.7,568.31Z" fill="#fff"/><path d="M106.11,561.59l-.89.8a1.41,1.41,0,0,0,0,1.78,1.59,1.59,0,0,0,1.89.09l.8-.71c.44-.4.21-1.52-.18-2A1.18,1.18,0,0,0,106.11,561.59Z" fill="#fff"/><path d="M87.16,561l-.89.8a1.43,1.43,0,0,0,0,1.78,1.58,1.58,0,0,0,1.89.09l.8-.71c.44-.39.22-1.52-.18-2A1.19,1.19,0,0,0,87.16,561Z" fill="#fff"/><path d="M104.26,567.87c-.06.25-1.87,5.84-1.51,10.58a1.37,1.37,0,0,0,1.78,1.24,1.56,1.56,0,0,0,1.15-1.6,53.1,53.1,0,0,1,.6-10.22c.13-.57,0-.85-.6-1A1.34,1.34,0,0,0,104.26,567.87Z" fill="#fff"/><path d="M126.55,567.33a5.62,5.62,0,0,0-3.56,2.58c-1.33,2.67.91,4.21,1.79,4.82l.39.29c1.12,1.12,1.07,1.64,1,2.36,0,.14,0,.56-.71,1.07-1.28,1-2.61-.22-3.11-.71a1.67,1.67,0,0,0-1.94,0,2.16,2.16,0,0,0-.37,2c.71,1.51,5.36,2.49,8,.45a3.22,3.22,0,0,0,1.34-2.58c.13-2-2.13-3.55-2.72-4.14L126,573c-.88-.61-1.65-1.22-.89-2.73a2,2,0,0,1,1.51-1,2.55,2.55,0,0,1,1.82.64,1,1,0,0,0,1.41,0,1.61,1.61,0,0,0-.27-1.87A3.35,3.35,0,0,0,126.55,567.33Z" fill="#fff"/><path d="M114.25,566.8c-2.24.85-5.33,4-5.33,7.29,0,6,6.81,6.34,7.11,6.31.89-.09,1.32-.49,1.43-1.07a1.5,1.5,0,0,0,0-.2,1.08,1.08,0,0,0-.87-1s-4.36-.93-5-3.16c3-.14,5.37-1.49,6.31-3.76a4.68,4.68,0,0,0,.37-1.8,2.72,2.72,0,0,0-.8-2.2A3.25,3.25,0,0,0,114.25,566.8Zm-2.31,5s.53-2.4,2-3,1.25.8,1.25.8a4.18,4.18,0,0,1-2.14,2.84C111.94,572.94,111.94,571.78,111.94,571.78Z" fill="#fff"/><path d="M130.34,579a1.17,1.17,0,1,1-1.16,1.17,1.15,1.15,0,0,1,1.16-1.17Zm0,.18a1,1,0,1,0,.94,1,1,1,0,0,0-.94-1Zm-.22,1.67h-.2v-1.3a1.82,1.82,0,0,1,.37,0,.75.75,0,0,1,.4.1.32.32,0,0,1,.12.27.32.32,0,0,1-.26.32h0c.12,0,.2.12.22.32a.76.76,0,0,0,.09.32h-.22a1.06,1.06,0,0,1-.09-.33.24.24,0,0,0-.28-.23h-.15Zm0-.72h.16c.17,0,.31-.07.31-.23s-.08-.22-.31-.22h-.16Z" fill="#fff"/><path d="M62.09,546.74a11.25,11.25,0,0,1,12.81,3.92s-2.7-9.1-12.81-3.92Z" fill="#fff"/><path d="M78.55,547.07s0-.27,0-.3a6.35,6.35,0,0,0-3.36,4.88,6.78,6.78,0,0,1,3.88-3.51,1.63,1.63,0,0,1-.52-1.07Z" fill="#fff"/><path d="M67.69,550.88s0,1.28,0,1.93c-.33,0-1.74-.09-2.36-.11,0,.35,0,.71,0,1,.75,0,1.52.11,2.26.1,0,.62,0,1.16,0,1.78-.75,0-1.49-.06-2.23-.07v1.14c.81,0,1.61.08,2.41.07,0,0,0,1.9,0,1.9-1.59,0-3.46-.13-5.24-.27l.12-7.92c.75.09,3.07.34,5.1.4Z" fill="#fff"/><path d="M68.36,550.89l0,2.07c.75,0,1.42,0,1.42,0v5.74a19.56,19.56,0,0,0,2.86,0l0-5.68,1.46-.08c0-.76,0-1.35,0-2.11a50.49,50.49,0,0,1-5.64.06Z" fill="#fff"/><path d="M106.56,549.63V552c.48,0,1,.13,1.51.17,0,2,0,3.51,0,5.51,1.35.16,2.3.32,2.67.39,0-2,.08-3.58.08-5.58,0,0,1.43.22,1.45.24,0-.82,0-1.64,0-2.46a45.63,45.63,0,0,0-5.67-.67Z" fill="#fff"/><path d="M58.48,553.49l-.25,0c0-.55,0-1.09,0-1.63l.24,0a.82.82,0,0,1,.83.87c0,.67-.42.8-.83.75Zm.62-3.82-3.38-.62,0,8.31c.87.17,1.67.31,2.51.4v-2.39l.92.1c1.47.13,3-.42,3-2.83,0-2.12-1.4-2.74-3-3Z" fill="#fff"/><path d="M87.38,557.38c.38-1,.76-1.91,1.14-2.9.06.94.1,1.8.16,2.75.94-.11,1.71-.16,2.66-.22-.25-2.52-.46-5.23-.71-7.75l-2.44.22c-.45,1.19-.91,2.64-1.37,3.83-.44-1.1-.88-2.39-1.32-3.5-.82.12-2.29.38-2.44.38-.28,2.57-.6,5.43-.89,8,.65-.11,2.24-.37,2.71-.43.08-1,.15-2,.22-2.94.37.91.74,1.83,1.1,2.74l1.18-.18Z" fill="#fff"/><path d="M102.42,553l-.25,0,0-1.6.24,0a.79.79,0,0,1,.83.84.69.69,0,0,1-.84.76Zm2.36,1.71a2.39,2.39,0,0,0,1.26-2.42,2.93,2.93,0,0,0-3-3.11c-1.14-.09-2.28-.15-3.41-.18,0,2.67-.05,5.11-.09,7.77.85,0,1.78.09,2.52.16,0-.76,0-1.31,0-2.06l1.36,2.22c1,.1,2.12.23,3.17.39-.66-1-1.25-1.82-1.9-2.77Z" fill="#fff"/><path d="M94.85,554.22c.18-.66.36-1.36.53-2,.21.67.41,1.33.61,2a8.93,8.93,0,0,1-1.14,0ZM96.71,549c-1,0-1.84,0-2.7.06-.7,2.58-1.52,5.35-2.21,8,.77,0,1.56-.07,2.33-.07l.22-.86,1.18,0s1,0,1,0,.13.38.26.83c.77,0,1.55,0,2.32,0-.84-2.74-1.68-5.37-2.44-7.86Z" fill="#fff"/><path d="M74.91,558a6.85,6.85,0,0,0,3.13.79c1.77,0,3.63-1.06,3.67-3,0-1.41-.87-2.08-2.13-2.36l-.67-.16c-.23-.05-.59-.09-.59-.4s.39-.45.65-.45a4.79,4.79,0,0,1,1.81.39c.25-.67.51-1.34.76-2a6,6,0,0,0-2.59-.62c-1.78,0-3.58,1.08-3.61,3.06a2.23,2.23,0,0,0,2.09,2.23l.6.11c.27.06.66.09.65.47s-.47.42-.76.42a3.52,3.52,0,0,1-2-.68l-1,2.25Z" fill="#fff"/><path d="M81.32,544.48a2,2,0,1,0,2,2A2,2,0,0,0,81.32,544.48Zm.72.73a2.4,2.4,0,0,0-2.14,1.26v0A1.41,1.41,0,0,1,81.6,545a1.25,1.25,0,0,1,.47.25Z" fill="#fff"/></g></g></svg>