<svg xmlns="http://www.w3.org/2000/svg" viewBox="0 0 300 600"><title>txt2</title><g id="Layer_2" data-name="Layer 2"><g id="Frame_2_v1" data-name="Frame 2 v1" style="isolation:isolate"><g id="rect"><rect width="300" height="600" fill="none"/></g><g id="National_Adoption_Days_Nov._2_22" data-name="National  Adoption Days Nov. 2–22"><path d="M24.82,28.26V40.8h-4V22.12h4.09l8.65,12.1V22.12h4V40.8H33.73Z" fill="#fff"/><path d="M50.54,39.06a5.43,5.43,0,0,1-1.86,1.56,5.09,5.09,0,0,1-2.31.54,5.79,5.79,0,0,1-3.08-.84,5.63,5.63,0,0,1-2.14-2.44,8.75,8.75,0,0,1-.77-3.81,8.77,8.77,0,0,1,.77-3.78,5.83,5.83,0,0,1,2.13-2.48,5.58,5.58,0,0,1,3.09-.87A5.22,5.22,0,0,1,50.54,29V27.28h3.59V40.8H50.54Zm0-7.38a3.22,3.22,0,0,0-1.31-1.11,3.93,3.93,0,0,0-1.77-.44A3.13,3.13,0,0,0,45,31.21a4.22,4.22,0,0,0-1,2.86,4.17,4.17,0,0,0,1,2.83A3.08,3.08,0,0,0,47.46,38a3.91,3.91,0,0,0,1.77-.43,3.38,3.38,0,0,0,1.31-1.11Z" fill="#fff"/><path d="M59.15,40.21a3.64,3.64,0,0,1-1-2.75V30.38H55.93v-3.1h2.24v-3.7h3.58v3.7h2.74v3.1H61.75v6.13a1.63,1.63,0,0,0,.34,1.07A1.08,1.08,0,0,0,63,38a2.43,2.43,0,0,0,.73-.11,1.37,1.37,0,0,0,.5-.28L65,40.3a4.35,4.35,0,0,1-3,.86A3.9,3.9,0,0,1,59.15,40.21Z" fill="#fff"/><path d="M67.09,24.66A2.13,2.13,0,0,1,68.58,21a2.07,2.07,0,0,1,1.52.62,2,2,0,0,1,.61,1.51,2.07,2.07,0,0,1-.61,1.5,2.11,2.11,0,0,1-3,0Zm-.27,2.62h3.56V40.8H66.82Z" fill="#fff"/><path d="M76.16,40.21a6.52,6.52,0,0,1-2.5-2.58,7.86,7.86,0,0,1,0-7.15,6.4,6.4,0,0,1,2.5-2.58,8,8,0,0,1,7.58,0,6.4,6.4,0,0,1,2.5,2.58,7.86,7.86,0,0,1,0,7.15,6.52,6.52,0,0,1-2.5,2.58,8,8,0,0,1-7.58,0Zm6.31-3.35a4.67,4.67,0,0,0,0-5.62,3.11,3.11,0,0,0-2.53-1.14,3.05,3.05,0,0,0-2.52,1.14,4.71,4.71,0,0,0,0,5.62A3.05,3.05,0,0,0,79.94,38,3.11,3.11,0,0,0,82.47,36.86Z" fill="#fff"/><path d="M98.68,32.62A2.51,2.51,0,0,0,98,30.69a2.67,2.67,0,0,0-1.85-.59,3.51,3.51,0,0,0-1.78.47,4.34,4.34,0,0,0-1.3,1.13v9.1H89.56V27.28h3.55V29a6.06,6.06,0,0,1,2-1.48,6.13,6.13,0,0,1,2.77-.62,3.94,3.94,0,0,1,4.4,4.31V40.8H98.68Z" fill="#fff"/><path d="M114.92,39.06a5.56,5.56,0,0,1-1.87,1.56,5.09,5.09,0,0,1-2.31.54,5.79,5.79,0,0,1-3.08-.84,5.63,5.63,0,0,1-2.14-2.44,8.75,8.75,0,0,1-.77-3.81,8.77,8.77,0,0,1,.77-3.78,5.83,5.83,0,0,1,2.13-2.48,5.6,5.6,0,0,1,3.09-.87,5.24,5.24,0,0,1,2.3.53A5.44,5.44,0,0,1,114.92,29V27.28h3.58V40.8h-3.58Zm0-7.38a3.33,3.33,0,0,0-1.32-1.11,3.92,3.92,0,0,0-1.76-.44,3.15,3.15,0,0,0-2.47,1.08,4.22,4.22,0,0,0-1,2.86,4.17,4.17,0,0,0,1,2.83,3.1,3.1,0,0,0,2.47,1.1,3.9,3.9,0,0,0,1.76-.43,3.49,3.49,0,0,0,1.32-1.11Z" fill="#fff"/><path d="M122.71,40.23a3.68,3.68,0,0,1-1-2.77V22.12h3.55V36.51a1.69,1.69,0,0,0,.34,1.07,1.08,1.08,0,0,0,.9.42,2.36,2.36,0,0,0,.72-.11,1.06,1.06,0,0,0,.48-.28l.76,2.69a4.34,4.34,0,0,1-2.94.86A3.93,3.93,0,0,1,122.71,40.23Z" fill="#fff"/><path d="M32.75,70.58H24.4L23.23,73.8H18.86l7.22-18.68h5L38.26,73.8H33.92Zm-7.28-3.44h6.19l-3.08-8.57Z" fill="#fff"/><path d="M49,72.06a5.43,5.43,0,0,1-1.86,1.56,5.09,5.09,0,0,1-2.31.54,5.77,5.77,0,0,1-3.08-.84,5.56,5.56,0,0,1-2.14-2.44,9.74,9.74,0,0,1,0-7.59,5.88,5.88,0,0,1,2.12-2.48,5.64,5.64,0,0,1,3.1-.87,5.2,5.2,0,0,1,2.29.53A5.35,5.35,0,0,1,49,62V55.12h3.58V73.8H49Zm0-7.41a3.33,3.33,0,0,0-1.32-1.11,3.85,3.85,0,0,0-1.76-.44,3.1,3.1,0,0,0-2.46,1.1,4.2,4.2,0,0,0-1,2.87,4.13,4.13,0,0,0,1,2.83A3.07,3.07,0,0,0,45.91,71a3.84,3.84,0,0,0,1.76-.43A3.49,3.49,0,0,0,49,69.46Z" fill="#fff"/><path d="M58.39,73.21a6.43,6.43,0,0,1-2.49-2.58,7.78,7.78,0,0,1,0-7.15,6.31,6.31,0,0,1,2.49-2.58,7.28,7.28,0,0,1,3.78-1,7.39,7.39,0,0,1,3.81,1,6.44,6.44,0,0,1,2.49,2.58,7.78,7.78,0,0,1,0,7.15A6.57,6.57,0,0,1,66,73.21a7.38,7.38,0,0,1-3.81,1A7.27,7.27,0,0,1,58.39,73.21Zm6.31-3.35a4.67,4.67,0,0,0,0-5.62,3.1,3.1,0,0,0-2.53-1.14,3.05,3.05,0,0,0-2.52,1.14,4.71,4.71,0,0,0,0,5.62A3.05,3.05,0,0,0,62.17,71,3.1,3.1,0,0,0,64.7,69.86Z" fill="#fff"/><path d="M71.79,79V60.28h3.55V62a5.65,5.65,0,0,1,1.87-1.51,5.16,5.16,0,0,1,2.31-.53,5.56,5.56,0,0,1,5.22,3.28,9.89,9.89,0,0,1,0,7.65,5.7,5.7,0,0,1-2.13,2.45,5.78,5.78,0,0,1-3.09.84,5.24,5.24,0,0,1-2.3-.51,5.53,5.53,0,0,1-1.88-1.56V79ZM80.87,64.2a3.09,3.09,0,0,0-2.47-1.1,3.76,3.76,0,0,0-1.74.45,3.57,3.57,0,0,0-1.32,1.1v4.81a3.59,3.59,0,0,0,1.33,1.09A3.81,3.81,0,0,0,78.4,71a3.06,3.06,0,0,0,2.47-1.1,4.79,4.79,0,0,0,0-5.7Z" fill="#fff"/><path d="M89.76,73.21a3.68,3.68,0,0,1-1-2.75V63.38H86.54v-3.1h2.24v-3.7h3.59v3.7h2.74v3.1H92.37v6.13a1.69,1.69,0,0,0,.33,1.07,1.11,1.11,0,0,0,.9.42,2.48,2.48,0,0,0,.73-.11,1.37,1.37,0,0,0,.5-.28l.76,2.69a4.39,4.39,0,0,1-3,.86A3.94,3.94,0,0,1,89.76,73.21Z" fill="#fff"/><path d="M97.7,57.66a2.13,2.13,0,1,1,3.63-1.5,2.08,2.08,0,0,1-.62,1.5,2,2,0,0,1-1.51.63A2,2,0,0,1,97.7,57.66Zm-.26,2.62H101V73.8H97.44Z" fill="#fff"/><path d="M106.77,73.21a6.57,6.57,0,0,1-2.49-2.58,7.78,7.78,0,0,1,0-7.15,6.44,6.44,0,0,1,2.49-2.58,8,8,0,0,1,7.59,0,6.44,6.44,0,0,1,2.49,2.58,7.78,7.78,0,0,1,0,7.15,6.57,6.57,0,0,1-2.49,2.58,8.05,8.05,0,0,1-7.59,0Zm6.32-3.35a4.71,4.71,0,0,0,0-5.62,3.12,3.12,0,0,0-2.54-1.14A3.08,3.08,0,0,0,108,64.24a4.75,4.75,0,0,0,0,5.62A3.08,3.08,0,0,0,110.55,71,3.12,3.12,0,0,0,113.09,69.86Z" fill="#fff"/><path d="M129.3,65.62a2.51,2.51,0,0,0-.64-1.93,2.67,2.67,0,0,0-1.85-.59,3.48,3.48,0,0,0-1.78.47,4.34,4.34,0,0,0-1.3,1.13v9.1h-3.56V60.28h3.56V62a6,6,0,0,1,2-1.48,6.13,6.13,0,0,1,2.77-.62,3.94,3.94,0,0,1,4.4,4.31V73.8H129.3Z" fill="#fff"/><path d="M143.64,55.12H151a11,11,0,0,1,5.15,1.17,8.48,8.48,0,0,1,3.5,3.29,10.12,10.12,0,0,1,0,9.78,8.59,8.59,0,0,1-3.5,3.28A11.07,11.07,0,0,1,151,73.8h-7.36ZM151,70.3a6,6,0,0,0,3.12-.78,5.24,5.24,0,0,0,2-2.12,6.11,6.11,0,0,0,.7-2.92,5.9,5.9,0,0,0-1.54-4.22A5.62,5.62,0,0,0,151,58.62h-3.39V70.3Z" fill="#fff"/><path d="M173,72.06a5.53,5.53,0,0,1-1.86,1.56,5.09,5.09,0,0,1-2.31.54,5.77,5.77,0,0,1-3.08-.84,5.65,5.65,0,0,1-2.15-2.44,9.85,9.85,0,0,1,0-7.59,6,6,0,0,1,2.13-2.48,5.64,5.64,0,0,1,3.1-.87,5.2,5.2,0,0,1,2.29.53A5.35,5.35,0,0,1,173,62V60.28h3.58V73.8H173Zm0-7.38a3.33,3.33,0,0,0-1.32-1.11,3.89,3.89,0,0,0-1.76-.44,3.15,3.15,0,0,0-2.47,1.08,4.22,4.22,0,0,0-1,2.86,4.17,4.17,0,0,0,1,2.83A3.1,3.1,0,0,0,169.9,71a3.87,3.87,0,0,0,1.76-.43A3.49,3.49,0,0,0,173,69.46Z" fill="#fff"/><path d="M181.18,74.7A4.23,4.23,0,0,0,183,76a6.26,6.26,0,0,0,2.27.42,3.79,3.79,0,0,0,2.69-.9,3.4,3.4,0,0,0,.95-2.58V71.5a6.47,6.47,0,0,1-2,1.46,6.35,6.35,0,0,1-2.76.59,4.38,4.38,0,0,1-3.28-1.12,4.3,4.3,0,0,1-1.09-3.14v-9h3.56v7.61a2.45,2.45,0,0,0,.64,1.92,2.7,2.7,0,0,0,1.85.57,3.56,3.56,0,0,0,1.76-.44,4.36,4.36,0,0,0,1.32-1.1V60.28h3.55V72.74a6.14,6.14,0,0,1-1.94,4.83,7.68,7.68,0,0,1-5.25,1.72,8.25,8.25,0,0,1-5.66-2Z" fill="#fff"/><path d="M196.19,69.57a7.16,7.16,0,0,0,2.13,1.29,6.73,6.73,0,0,0,2.55.56,3.09,3.09,0,0,0,1.69-.37,1.13,1.13,0,0,0,.58-1,1.07,1.07,0,0,0-.67-1,8.53,8.53,0,0,0-2.05-.63,18.43,18.43,0,0,1-2.69-.67,4.35,4.35,0,0,1-1.84-1.22,3.26,3.26,0,0,1-.79-2.33,3.72,3.72,0,0,1,.66-2.13,4.57,4.57,0,0,1,1.92-1.56,7.15,7.15,0,0,1,3-.57,8.53,8.53,0,0,1,5.46,1.85l-1.43,2.43A5.23,5.23,0,0,0,203,63.1a6.06,6.06,0,0,0-2.29-.44,3.1,3.1,0,0,0-1.55.33,1,1,0,0,0-.57.93,1,1,0,0,0,.63.88,9.55,9.55,0,0,0,1.94.57,17.88,17.88,0,0,1,2.72.71,4.6,4.6,0,0,1,1.9,1.29,3.51,3.51,0,0,1,.81,2.44,3.86,3.86,0,0,1-.68,2.23,4.43,4.43,0,0,1-2,1.56,8,8,0,0,1-3.15.56,10,10,0,0,1-3.37-.56,7.38,7.38,0,0,1-2.68-1.54Z" fill="#fff"/></g></g></g></svg>