<svg xmlns="http://www.w3.org/2000/svg" viewBox="0 0 160 600"><title>txt3</title><g id="Layer_2" data-name="Layer 2"><g id="frame_3" data-name="frame 3" style="isolation:isolate"><g id="rect"><rect width="160" height="600" fill="none"/></g><g id="Adopt_today_at_PetSmart._" data-name="Adopttoday at PetSmart."><path d="M26.9,34.12H18.26L17,37.46H12.52L20,18.12h5.16l7.45,19.34H28.12Zm-7.54-3.56h6.41l-3.19-8.88Z" fill="#fff"/><path d="M44,35.66A5.61,5.61,0,0,1,42,37.27a5.16,5.16,0,0,1-2.39.56A6,6,0,0,1,36.44,37a5.83,5.83,0,0,1-2.22-2.52,9.11,9.11,0,0,1-.79-4,9,9,0,0,1,.79-3.9A6,6,0,0,1,36.43,24a5.78,5.78,0,0,1,3.2-.9A5.41,5.41,0,0,1,44,25.25V18.12h3.71V37.46H44ZM44,28a3.47,3.47,0,0,0-1.36-1.15,4.05,4.05,0,0,0-1.83-.45,3.22,3.22,0,0,0-2.55,1.14,4.32,4.32,0,0,0-1,3,4.29,4.29,0,0,0,1,2.94,3.22,3.22,0,0,0,2.55,1.14,4.05,4.05,0,0,0,1.83-.45A3.47,3.47,0,0,0,44,33Z" fill="#fff"/><path d="M53.9,36.85a6.72,6.72,0,0,1-2.58-2.68,8.08,8.08,0,0,1,0-7.41,6.75,6.75,0,0,1,2.58-2.67,8.3,8.3,0,0,1,7.86,0,6.75,6.75,0,0,1,2.58,2.67,8.08,8.08,0,0,1,0,7.41,6.72,6.72,0,0,1-2.58,2.68,8.37,8.37,0,0,1-7.86,0Zm6.54-3.47a4.44,4.44,0,0,0,1-2.93,4.37,4.37,0,0,0-1-2.89,3.22,3.22,0,0,0-2.63-1.18,3.18,3.18,0,0,0-2.61,1.18,4.47,4.47,0,0,0-1,2.89,4.54,4.54,0,0,0,1,2.93,3.18,3.18,0,0,0,2.61,1.18A3.22,3.22,0,0,0,60.44,33.38Z" fill="#fff"/><path d="M68,42.79V23.45h3.69v1.77a5.6,5.6,0,0,1,1.93-1.57A5.41,5.41,0,0,1,76,23.1a5.77,5.77,0,0,1,5.41,3.4,9.07,9.07,0,0,1,.79,3.95,9.13,9.13,0,0,1-.79,4A5.87,5.87,0,0,1,79.17,37a6,6,0,0,1-3.2.87,5.32,5.32,0,0,1-2.38-.53,5.67,5.67,0,0,1-1.94-1.61v7.1Zm9.41-15.27a3.19,3.19,0,0,0-2.56-1.14,3.9,3.9,0,0,0-1.8.47A3.6,3.6,0,0,0,71.65,28v5A3.73,3.73,0,0,0,73,34.09a4,4,0,0,0,1.79.47,3.19,3.19,0,0,0,2.56-1.14,4.38,4.38,0,0,0,1-3A4.32,4.32,0,0,0,77.37,27.52Z" fill="#fff"/><path d="M86.67,36.85a3.79,3.79,0,0,1-1-2.85V26.67H83.33V23.45h2.32V19.62h3.72v3.83h2.84v3.22H89.37V33a1.72,1.72,0,0,0,.34,1.1,1.14,1.14,0,0,0,.93.44,2.37,2.37,0,0,0,.76-.12,1.34,1.34,0,0,0,.52-.29l.78,2.79a4.52,4.52,0,0,1-3.07.89A4.05,4.05,0,0,1,86.67,36.85Z" fill="#fff"/><path d="M16.23,66.85a3.79,3.79,0,0,1-1-2.85V56.67H12.89V53.45h2.32V49.62h3.72v3.83h2.84v3.22H18.93V63a1.72,1.72,0,0,0,.34,1.1,1.14,1.14,0,0,0,.93.44,2.37,2.37,0,0,0,.76-.12,1.34,1.34,0,0,0,.52-.29l.78,2.79a4.52,4.52,0,0,1-3.07.89A4.07,4.07,0,0,1,16.23,66.85Z" fill="#fff"/><path d="M26.87,66.85a6.72,6.72,0,0,1-2.58-2.68,8.08,8.08,0,0,1,0-7.41,6.75,6.75,0,0,1,2.58-2.67,7.59,7.59,0,0,1,3.92-1,7.63,7.63,0,0,1,3.94,1,6.75,6.75,0,0,1,2.58,2.67,8.08,8.08,0,0,1,0,7.41,6.72,6.72,0,0,1-2.58,2.68,7.63,7.63,0,0,1-3.94,1A7.58,7.58,0,0,1,26.87,66.85Zm6.54-3.47a4.44,4.44,0,0,0,1-2.93,4.37,4.37,0,0,0-1-2.89,3.21,3.21,0,0,0-2.62-1.18,3.15,3.15,0,0,0-2.61,1.18,4.42,4.42,0,0,0-1,2.89,4.49,4.49,0,0,0,1,2.93,3.15,3.15,0,0,0,2.61,1.18A3.21,3.21,0,0,0,33.41,63.38Z" fill="#fff"/><path d="M50.56,65.66a5.67,5.67,0,0,1-1.92,1.61,5.23,5.23,0,0,1-2.4.56,5.8,5.8,0,0,1-5.41-3.39,9.11,9.11,0,0,1-.79-4,9,9,0,0,1,.79-3.9A6.11,6.11,0,0,1,43,54a5.8,5.8,0,0,1,3.2-.9,5.41,5.41,0,0,1,4.32,2.15V48.12h3.72V67.46H50.56Zm0-7.68a3.47,3.47,0,0,0-1.36-1.15,4.05,4.05,0,0,0-1.83-.45,3.22,3.22,0,0,0-2.55,1.14,4.93,4.93,0,0,0,0,5.9,3.22,3.22,0,0,0,2.55,1.14,4.05,4.05,0,0,0,1.83-.45A3.47,3.47,0,0,0,50.56,63Z" fill="#fff"/><path d="M66.34,66a5,5,0,0,1-1.9,1.33,6.46,6.46,0,0,1-2.54.49,5.33,5.33,0,0,1-2.3-.52,4.52,4.52,0,0,1-1.84-1.58A4.38,4.38,0,0,1,57,63.18a4.21,4.21,0,0,1,.73-2.55,4.31,4.31,0,0,1,1.82-1.46,5.94,5.94,0,0,1,2.32-.47,7.5,7.5,0,0,1,2.58.43,4.28,4.28,0,0,1,1.86,1.28V58.47a2,2,0,0,0-.84-1.71,3.58,3.58,0,0,0-2.23-.64,5.88,5.88,0,0,0-4.09,1.65l-1.39-2.46a8.37,8.37,0,0,1,2.82-1.66,10.14,10.14,0,0,1,3.29-.55,7.31,7.31,0,0,1,4.41,1.25A4.69,4.69,0,0,1,70,58.41v9H66.34Zm0-3.65a2.75,2.75,0,0,0-1.23-.9,4.48,4.48,0,0,0-1.73-.32,3,3,0,0,0-1.88.57,1.84,1.84,0,0,0-.76,1.56,1.78,1.78,0,0,0,.76,1.52,3.08,3.08,0,0,0,1.88.55A4.67,4.67,0,0,0,65.11,65a2.76,2.76,0,0,0,1.23-.91Z" fill="#fff"/><path d="M74.9,69.87a2.63,2.63,0,0,0,1.21-.24,1.59,1.59,0,0,0,.73-.78l.52-1.19L71.68,53.45h3.94l3.65,9.74,3.66-9.74h4l-6.58,16.3a4.85,4.85,0,0,1-2,2.59,6.93,6.93,0,0,1-3.28.8,9.1,9.1,0,0,1-1-.06,6.09,6.09,0,0,1-.87-.14l.55-3.31A2.78,2.78,0,0,0,74.9,69.87Z" fill="#fff"/><path d="M104.39,66a5.12,5.12,0,0,1-1.9,1.33,6.46,6.46,0,0,1-2.54.49,5.4,5.4,0,0,1-2.31-.52,4.66,4.66,0,0,1-1.84-1.58,4.44,4.44,0,0,1-.72-2.55,4.27,4.27,0,0,1,.72-2.55,4.39,4.39,0,0,1,1.83-1.46A5.94,5.94,0,0,1,100,58.7a7.5,7.5,0,0,1,2.58.43,4.4,4.4,0,0,1,1.86,1.28V58.47a2,2,0,0,0-.84-1.71,3.59,3.59,0,0,0-2.24-.64,5.9,5.9,0,0,0-4.09,1.65l-1.39-2.46a8.42,8.42,0,0,1,2.83-1.66A10.1,10.1,0,0,1,102,53.1a7.31,7.31,0,0,1,4.41,1.25,4.69,4.69,0,0,1,1.71,4.06v9h-3.68Zm0-3.65a2.75,2.75,0,0,0-1.23-.9,4.51,4.51,0,0,0-1.73-.32,3.07,3.07,0,0,0-1.89.57,1.85,1.85,0,0,0-.75,1.56,1.79,1.79,0,0,0,.75,1.52,3.13,3.13,0,0,0,1.89.55,4.71,4.71,0,0,0,1.73-.32,2.76,2.76,0,0,0,1.23-.91Z" fill="#fff"/><path d="M113.46,66.85a3.83,3.83,0,0,1-1-2.85V56.67h-2.32V53.45h2.32V49.62h3.71v3.83H119v3.22h-2.84V63a1.72,1.72,0,0,0,.35,1.1,1.13,1.13,0,0,0,.93.44,2.27,2.27,0,0,0,.75-.12,1.27,1.27,0,0,0,.52-.29l.79,2.79a4.55,4.55,0,0,1-3.08.89A4.08,4.08,0,0,1,113.46,66.85Z" fill="#fff"/><path d="M14.58,78.12h9a7,7,0,0,1,3.51.84,5.68,5.68,0,0,1,2.24,2.24,6.6,6.6,0,0,1,.75,3.15,6.44,6.44,0,0,1-.77,3.12,5.63,5.63,0,0,1-2.23,2.23,7,7,0,0,1-3.5.83H18.69v6.93H14.58ZM25.1,82.39a2.92,2.92,0,0,0-2-.74H18.69V87h4.38a2.93,2.93,0,0,0,2.05-.74,2.73,2.73,0,0,0,0-3.86Z" fill="#fff"/><path d="M32.12,86.75a7.08,7.08,0,0,1,6.32-3.65,7,7,0,0,1,3.66,1,6.63,6.63,0,0,1,2.48,2.73,8.81,8.81,0,0,1,.88,4v.81H35.05A3.6,3.6,0,0,0,36.3,94a4.08,4.08,0,0,0,2.78.94,5.88,5.88,0,0,0,2-.38,4.67,4.67,0,0,0,1.7-1l1.63,2.38a7,7,0,0,1-2.56,1.44,10.1,10.1,0,0,1-3.22.5,8,8,0,0,1-3.82-.91,6.7,6.7,0,0,1-2.69-2.59,7.63,7.63,0,0,1-1-3.88A7.48,7.48,0,0,1,32.12,86.75ZM36,87a3.82,3.82,0,0,0-1,2.16h6.9A3.55,3.55,0,0,0,41,87a3.19,3.19,0,0,0-2.51-1A3.17,3.17,0,0,0,36,87Z" fill="#fff"/><path d="M49.87,96.85a3.79,3.79,0,0,1-1-2.85V86.67H46.53V83.45h2.32V79.62h3.71v3.83h2.85v3.22H52.56V93a1.72,1.72,0,0,0,.35,1.1,1.14,1.14,0,0,0,.93.44,2.27,2.27,0,0,0,.75-.12,1.32,1.32,0,0,0,.53-.29l.78,2.79a4.52,4.52,0,0,1-3.07.89A4.05,4.05,0,0,1,49.87,96.85Z" fill="#fff"/><path d="M58.94,91.63a8.6,8.6,0,0,0,2.69,1.88,8.1,8.1,0,0,0,3.46.73,4.21,4.21,0,0,0,2.48-.64,1.89,1.89,0,0,0,.89-1.55,1.62,1.62,0,0,0-1-1.5,12.77,12.77,0,0,0-3-1,31.45,31.45,0,0,1-3.68-1,6.07,6.07,0,0,1-2.48-1.7,4.54,4.54,0,0,1-1.06-3.18,5.22,5.22,0,0,1,.9-3,6,6,0,0,1,2.57-2.1,9,9,0,0,1,3.87-.77,10.7,10.7,0,0,1,7.54,2.69l-2.29,3a7.7,7.7,0,0,0-2.6-1.58,8.48,8.48,0,0,0-2.94-.54,3.5,3.5,0,0,0-2.1.54,1.69,1.69,0,0,0-.74,1.45,1.41,1.41,0,0,0,.89,1.33,17.17,17.17,0,0,0,3,.92,26.26,26.26,0,0,1,3.67,1.06,6.24,6.24,0,0,1,2.52,1.76,4.56,4.56,0,0,1,1.06,3.16,5.68,5.68,0,0,1-2,4.51,8.61,8.61,0,0,1-5.76,1.71,11.1,11.1,0,0,1-8.21-3.07Z" fill="#fff"/><path d="M92.7,88.61A2.46,2.46,0,0,0,92.19,87a2,2,0,0,0-1.58-.59,3,3,0,0,0-1.66.49A4.54,4.54,0,0,0,87.71,88v9.46H84V88.61A2.46,2.46,0,0,0,83.49,87a2,2,0,0,0-1.58-.59,3,3,0,0,0-1.65.49A4.37,4.37,0,0,0,79,88v9.43H75.33v-14H79v1.83a5.36,5.36,0,0,1,1.83-1.47,5.72,5.72,0,0,1,2.75-.71,4.41,4.41,0,0,1,2.5.67,3.51,3.51,0,0,1,1.39,1.88,5.63,5.63,0,0,1,2-1.79,5.53,5.53,0,0,1,2.82-.76,4.19,4.19,0,0,1,3,1.06,4.32,4.32,0,0,1,1.07,3.18V97.46H92.7Z" fill="#fff"/><path d="M108.45,96a5.12,5.12,0,0,1-1.9,1.33,6.5,6.5,0,0,1-2.54.49,5.4,5.4,0,0,1-2.31-.52,4.66,4.66,0,0,1-1.84-1.58,4.44,4.44,0,0,1-.72-2.55,4.27,4.27,0,0,1,.72-2.55,4.39,4.39,0,0,1,1.83-1.46A5.9,5.9,0,0,1,104,88.7a7.5,7.5,0,0,1,2.58.43,4.4,4.4,0,0,1,1.86,1.28V88.47a2,2,0,0,0-.84-1.71,3.61,3.61,0,0,0-2.24-.64,5.9,5.9,0,0,0-4.09,1.65l-1.39-2.46a8.42,8.42,0,0,1,2.83-1.66A10.1,10.1,0,0,1,106,83.1a7.31,7.31,0,0,1,4.41,1.25,4.69,4.69,0,0,1,1.71,4.06v9h-3.68Zm0-3.65a2.72,2.72,0,0,0-1.24-.9,4.43,4.43,0,0,0-1.72-.32,3.07,3.07,0,0,0-1.89.57,1.85,1.85,0,0,0-.75,1.56,1.79,1.79,0,0,0,.75,1.52,3.13,3.13,0,0,0,1.89.55,4.62,4.62,0,0,0,1.72-.32,2.74,2.74,0,0,0,1.24-.91Z" fill="#fff"/><path d="M115.78,83.45h3.69v1.92a6.08,6.08,0,0,1,2-1.61,5.16,5.16,0,0,1,2.49-.66v3.6a4.49,4.49,0,0,0-1-.12,4.83,4.83,0,0,0-2,.47,3.32,3.32,0,0,0-1.48,1.13v9.28h-3.69Z" fill="#fff"/><path d="M128,96.85A3.83,3.83,0,0,1,127,94V86.67h-2.32V83.45H127V79.62h3.71v3.83h2.84v3.22h-2.84V93a1.72,1.72,0,0,0,.35,1.1,1.13,1.13,0,0,0,.93.44,2.27,2.27,0,0,0,.75-.12,1.27,1.27,0,0,0,.52-.29l.79,2.79a4.55,4.55,0,0,1-3.08.89A4.08,4.08,0,0,1,128,96.85Z" fill="#fff"/><path d="M136.26,93.83a2.31,2.31,0,1,1-.7,1.66A2.25,2.25,0,0,1,136.26,93.83Z" fill="#fff"/></g></g></g></svg>