<svg xmlns="http://www.w3.org/2000/svg" xmlns:xlink="http://www.w3.org/1999/xlink" viewBox="0 0 300 250"><defs><linearGradient id="linear-gradient" x1="150" x2="150" y2="250" gradientUnits="userSpaceOnUse"><stop offset="0.7" stop-opacity="0"/><stop offset="1"/></linearGradient></defs><title>overlay</title><g id="Layer_2" data-name="Layer 2"><g id="rect"><rect width="300" height="250" fill="none"/></g><g id="grad"><rect width="300" height="250" fill="url(#linear-gradient)"/></g><g id="Rounded_Rectangle_1" data-name="Rounded Rectangle 1" style="isolation:isolate"><g id="Rounded_Rectangle_1-2" data-name="Rounded Rectangle 1"><rect x="197" y="207" width="88.97" height="31" rx="4" fill="#e52823"/></g></g><g id="Learn_More" data-name="Learn More"><path d="M206.55,217.55h2v7.7h4V227h-6Z" fill="#fff"/><path d="M213.76,221.78a3.53,3.53,0,0,1,4.85-1.31,3.16,3.16,0,0,1,1.2,1.33,4.32,4.32,0,0,1,.43,2v.4h-5.05a1.71,1.71,0,0,0,.6,1.14,2,2,0,0,0,1.35.46,3,3,0,0,0,1-.18,2.37,2.37,0,0,0,.82-.5l.79,1.16a3.34,3.34,0,0,1-1.24.71,5.09,5.09,0,0,1-1.56.25,3.82,3.82,0,0,1-1.86-.45,3.27,3.27,0,0,1-1.31-1.27,3.77,3.77,0,0,1-.47-1.9A3.68,3.68,0,0,1,213.76,221.78Zm1.89.11a1.8,1.8,0,0,0-.49,1.06h3.35a1.78,1.78,0,0,0-.46-1.06,1.53,1.53,0,0,0-1.22-.46A1.52,1.52,0,0,0,215.65,221.89Z" fill="#fff"/><path d="M226.22,226.14a2.94,2.94,0,0,1-.94.79,2.58,2.58,0,0,1-1.16.28,2.83,2.83,0,0,1-2.63-1.67,4.95,4.95,0,0,1,0-3.85,3,3,0,0,1,1.07-1.26,2.84,2.84,0,0,1,1.56-.44,2.56,2.56,0,0,1,1.15.27,2.73,2.73,0,0,1,.95.78v-.88H228V227h-1.8Zm0-3.75a1.79,1.79,0,0,0-.67-.56,1.88,1.88,0,0,0-.88-.22,1.55,1.55,0,0,0-1.24.55,2.4,2.4,0,0,0,0,2.88,1.53,1.53,0,0,0,1.24.56,1.88,1.88,0,0,0,.88-.22,1.79,1.79,0,0,0,.67-.56Z" fill="#fff"/><path d="M229.7,220.16h1.79v.94a3.13,3.13,0,0,1,1-.79,2.58,2.58,0,0,1,1.21-.32v1.76a2.09,2.09,0,0,0-.49-.05,2.37,2.37,0,0,0-1,.22,1.65,1.65,0,0,0-.72.56V227H229.7Z" fill="#fff"/><path d="M239.24,222.87a1.27,1.27,0,0,0-.33-1,1.35,1.35,0,0,0-.93-.29,1.69,1.69,0,0,0-.89.23,2.19,2.19,0,0,0-.66.58V227h-1.79v-6.86h1.79v.9a3,3,0,0,1,1-.76,3.15,3.15,0,0,1,1.39-.31,2.22,2.22,0,0,1,1.66.58,2.25,2.25,0,0,1,.55,1.61V227h-1.78Z" fill="#fff"/><path d="M254.62,220.2,252,227h-.87l-2.65-6.82V227h-2v-9.47h2.8l2.28,5.91,2.29-5.91h2.81V227h-2Z" fill="#fff"/><path d="M259.75,226.72a3.28,3.28,0,0,1-1.25-1.31,4,4,0,0,1,0-3.63,3.26,3.26,0,0,1,1.25-1.3,3.59,3.59,0,0,1,1.9-.49,3.66,3.66,0,0,1,1.92.49,3.26,3.26,0,0,1,1.25,1.3,4,4,0,0,1,0,3.63,3.28,3.28,0,0,1-1.25,1.31,3.75,3.75,0,0,1-1.92.49A3.68,3.68,0,0,1,259.75,226.72Zm3.18-1.7a2.4,2.4,0,0,0,0-2.85,1.58,1.58,0,0,0-1.28-.57,1.56,1.56,0,0,0-1.27.57,2.44,2.44,0,0,0,0,2.85,1.54,1.54,0,0,0,1.27.58A1.56,1.56,0,0,0,262.93,225Z" fill="#fff"/><path d="M266.55,220.16h1.78v.94a3.13,3.13,0,0,1,1-.79,2.58,2.58,0,0,1,1.21-.32v1.76a2.09,2.09,0,0,0-.49-.05,2.37,2.37,0,0,0-1,.22,1.71,1.71,0,0,0-.72.56V227h-1.78Z" fill="#fff"/><path d="M271.53,221.78A3.44,3.44,0,0,1,274.6,220a3.32,3.32,0,0,1,1.78.48,3.23,3.23,0,0,1,1.2,1.33,4.32,4.32,0,0,1,.43,2v.4H273a1.77,1.77,0,0,0,.61,1.14,2,2,0,0,0,1.35.46,2.88,2.88,0,0,0,1-.18,2.42,2.42,0,0,0,.83-.5l.79,1.16a3.34,3.34,0,0,1-1.24.71,5.11,5.11,0,0,1-1.57.25,3.88,3.88,0,0,1-1.86-.45,3.31,3.31,0,0,1-1.3-1.27,3.77,3.77,0,0,1-.47-1.9A3.68,3.68,0,0,1,271.53,221.78Zm1.89.11a1.87,1.87,0,0,0-.5,1.06h3.36a1.78,1.78,0,0,0-.46-1.06,1.55,1.55,0,0,0-1.22-.46A1.5,1.5,0,0,0,273.42,221.89Z" fill="#fff"/></g><g id="logo"><path d="M20,214.11a9.43,9.43,0,0,0-6.53,3,12.88,12.88,0,0,0-3.57,9.32,11.55,11.55,0,0,0,6.33,9.8c3.48,1.6,8.36.93,10.4-1.48a.81.81,0,0,0,.07-1.14c-.3-.39-.75-.24-1.18,0-2,1.14-6.14,1.07-8.81-.56-1.52-.92-3.66-2.15-3.85-6.88-.15-3.78.67-5.93,2.48-7.89a6.39,6.39,0,0,1,4.7-2.4c2.24-.08,3.46,1.31,3.58,2.53.16,1.61-.77,2-1.58,2.06-1.28,0-1.29-1.69-1.29-1.71-.05-.49-.15-.75-.63-.7s-1,.52-1.08,1.41a3.36,3.36,0,0,0,.89,2.92,3.27,3.27,0,0,0,2.44.59c2.14-.31,3.25-2,3.11-4.4A5.15,5.15,0,0,0,20,214.11Z" fill="#fff"/><path d="M31.41,216a16,16,0,0,0-2,6.45c-.92.08-1.51.06-1.59.07a1,1,0,0,0-.82.86c0,.48.44.68.93.74l1.2-.08c-.24,2.4-.31,4.44-.76,9.63,0,.51-.26,1.78-.26,2.33a1.3,1.3,0,0,0,1.34,1.48c.7,0,1-.65,1.22-1,.65-1.55,2-5.78,4.18-6.59.16.34,1,2.89,1,2.89,1,2.39,2.47,2.32,3.35,2.14a.89.89,0,0,0-.35-1.74c-.23.05-.68-.43-1.08-1.43l-.25-1c-.23-1.1-.47-2.24-1.26-2.72a1.42,1.42,0,0,0-1.12-.16c-1.87.51-3.47,2.48-4.6,4.28.28-3.69.35-6,.39-8.3a8.62,8.62,0,0,0,7-6.33,6.29,6.29,0,0,0,.26-1.7A2.72,2.72,0,0,0,36.6,213C34.94,212.34,32.81,213.56,31.41,216Zm1.78,1c.83-1.32,1.49-1.67,2-1.44.25.11.65.93.26,2.29a6.7,6.7,0,0,1-3.74,4.41C32.2,219.53,32.51,218.16,33.19,217Z" fill="#fff"/><path d="M43.62,229.81a8.85,8.85,0,0,0-2.19,5.88,2.45,2.45,0,0,0,1.11,1.93c2,1.11,5.2-.75,6-2.41.37.52.89,1.85,2.44,2,.49,0,1.2-.09,1.34-.57a1.19,1.19,0,0,0-.6-1.48c-2-.65-1.92-3.69-1.92-4.66,0-.28-.59-.88-.82-1v0a.85.85,0,0,0-.1-.4,2.91,2.91,0,0,0-2-1.13C45.83,227.77,44.79,228.51,43.62,229.81Zm-.36,4.67a5.6,5.6,0,0,1,1.64-3.82c.73-.79,1.41-1.21,1.87-1.16a.82.82,0,0,1,.55.39.87.87,0,0,0,.27.27c-.5,3.47-1.68,4.81-2.59,5.31a2.08,2.08,0,0,1-1.49.26A2.58,2.58,0,0,1,43.26,234.48Z" fill="#fff"/><path d="M55.71,225.33a.86.86,0,0,0-.82.92l-.18,9.33a1.05,1.05,0,0,0,1.07,1c.46-.06,1.08-.07,1.08-.93,0,0,.55-5.1,2.29-6.51.48-.41.85-.41,1-.33s.3,1.14,1,1.22a1.66,1.66,0,0,0,1.59-1.59,1.63,1.63,0,0,0-.92-1.63c-1.23-.49-2.89,0-5.15,3-.06-1.87,0-3.65,0-3.65A.92.92,0,0,0,55.71,225.33Z" fill="#fff"/><path d="M65.1,227.66c0,.23-1.45,5.39-1,8.36a1.31,1.31,0,0,0,1.63,1,1.14,1.14,0,0,0,.89-1.34,42,42,0,0,1,.3-8,.68.68,0,0,0-.6-.89A1.18,1.18,0,0,0,65.1,227.66Z" fill="#fff"/><path d="M77,227.66a24.34,24.34,0,0,1-3.87.23,22.26,22.26,0,0,1,1.1-5c.17-.46,0-.74-.49-.91a1.25,1.25,0,0,0-1.33.74,20.83,20.83,0,0,0-1.18,5.18,8.47,8.47,0,0,1-1.86-.52,1,1,0,0,0-1.25.37.79.79,0,0,0,.37,1.11,4.63,4.63,0,0,0,2.37.89,16.24,16.24,0,0,0,1.62,8.07,1.53,1.53,0,0,0,2.08.59,1.35,1.35,0,0,0,.44-1.77,14.08,14.08,0,0,1-1.78-6.74,19.31,19.31,0,0,0,3.85.15c.49-.05,1.26-.3,1.19-1.19A1.16,1.16,0,0,0,77,227.66Z" fill="#fff"/><path d="M82.38,222.07l-.74.66a1.17,1.17,0,0,0,0,1.48,1.32,1.32,0,0,0,1.57.08l.67-.6c.36-.32.18-1.26-.15-1.62A1,1,0,0,0,82.38,222.07Z" fill="#fff"/><path d="M66.6,221.57l-.74.66a1.2,1.2,0,0,0,0,1.49,1.34,1.34,0,0,0,1.58.07l.66-.59c.37-.33.18-1.27-.15-1.63A1,1,0,0,0,66.6,221.57Z" fill="#fff"/><path d="M80.84,227.29a27.54,27.54,0,0,0-1.26,8.81,1.13,1.13,0,0,0,1.48,1,1.29,1.29,0,0,0,1-1.33,43.42,43.42,0,0,1,.5-8.5c.11-.48,0-.71-.5-.82A1.11,1.11,0,0,0,80.84,227.29Z" fill="#fff"/><path d="M99.39,226.85a4.63,4.63,0,0,0-3,2.14c-1.11,2.22.76,3.51,1.49,4l.33.25c.93.93.89,1.36.85,2a1.25,1.25,0,0,1-.59.89c-1.07.82-2.18-.18-2.59-.59a1.4,1.4,0,0,0-1.62,0,1.8,1.8,0,0,0-.31,1.67c.59,1.26,4.46,2.07,6.66.37a2.6,2.6,0,0,0,1.11-2.15c.11-1.7-1.77-3-2.26-3.44l-.57-.45c-.73-.51-1.38-1-.74-2.28a1.62,1.62,0,0,1,1.26-.84A2.11,2.11,0,0,1,101,229a.8.8,0,0,0,1.17,0,1.31,1.31,0,0,0-.22-1.55A2.74,2.74,0,0,0,99.39,226.85Z" fill="#fff"/><path d="M89.15,226.4c-1.86.71-4.44,3.33-4.44,6.07,0,5,5.68,5.28,5.92,5.26.75-.08,1.11-.42,1.2-.9a.91.91,0,0,0,0-.17.89.89,0,0,0-.72-.87s-3.63-.77-4.2-2.62c2.51-.12,4.47-1.25,5.25-3.13a3.91,3.91,0,0,0,.31-1.5,2.24,2.24,0,0,0-.66-1.84A2.7,2.7,0,0,0,89.15,226.4Zm-1.92,4.15s.44-2,1.7-2.52,1,.67,1,.67a3.48,3.48,0,0,1-1.78,2.36C87.23,231.51,87.23,230.55,87.23,230.55Z" fill="#fff"/><path d="M102.55,236.56a1,1,0,0,1,0,1.95,1,1,0,0,1,0-1.95Zm0,.15a.83.83,0,1,0,.78.83.8.8,0,0,0-.78-.83Zm-.18,1.39h-.17V237l.31,0a.53.53,0,0,1,.33.08.25.25,0,0,1,.1.22.27.27,0,0,1-.21.27h0c.1,0,.16.1.18.26a1,1,0,0,0,.07.27h-.18a.78.78,0,0,1-.07-.28.21.21,0,0,0-.24-.19h-.12Zm0-.6h.13c.14,0,.26-.06.26-.19s-.07-.19-.26-.19h-.13Z" fill="#fff"/><path d="M45.73,209.7A9.36,9.36,0,0,1,56.4,213s-2.25-7.57-10.67-3.26Z" fill="#fff"/><path d="M59.43,210a2.26,2.26,0,0,1,0-.26,5.3,5.3,0,0,0-2.8,4.07,5.65,5.65,0,0,1,3.24-2.92,1.38,1.38,0,0,1-.44-.89Z" fill="#fff"/><path d="M50.39,213.14s0,1.08,0,1.62c-.27,0-1.44-.08-2-.1,0,.29,0,.59,0,.88.62,0,1.27.08,1.89.08,0,.52,0,1,0,1.48-.61,0-1.24,0-1.85-.06v1c.67,0,1.34.07,2,.06,0,0,0,1.58,0,1.58-1.32,0-2.89-.1-4.37-.23l.11-6.58c.62.07,2.55.27,4.24.32Z" fill="#fff"/><path d="M51,213.16l0,1.72c.62,0,1.18,0,1.18,0v4.78a15.81,15.81,0,0,0,2.38,0l0-4.73s1-.05,1.22-.07c0-.63,0-1.12,0-1.76a40.75,40.75,0,0,1-4.69.06Z" fill="#fff"/><path d="M82.75,212.11v2c.4,0,.86.1,1.26.14,0,1.66,0,2.92,0,4.59,1.12.13,1.92.26,2.22.31,0-1.66.07-3,.07-4.64l1.21.2v-2.05a35.93,35.93,0,0,0-4.72-.55Z" fill="#fff"/><path d="M42.72,215.32l-.21,0c0-.45,0-.9,0-1.35l.2,0a.69.69,0,0,1,.69.72c0,.56-.35.67-.69.63Zm.52-3.18-2.82-.52,0,6.92c.73.14,1.39.26,2.09.34v-2l.76.08c1.23.12,2.46-.34,2.48-2.34,0-1.78-1.17-2.29-2.48-2.48Z" fill="#fff"/><path d="M66.79,218.56c.31-.82.63-1.59.94-2.42,0,.79.09,1.5.14,2.29.78-.09,1.42-.13,2.21-.18-.21-2.1-.38-4.35-.59-6.45l-2,.18c-.38,1-.76,2.2-1.14,3.19-.37-.92-.73-2-1.1-2.91-.69.1-1.91.31-2,.31-.24,2.14-.51,4.52-.74,6.66l2.26-.36c.06-.79.12-1.65.18-2.45.3.77.61,1.53.91,2.29l1-.15Z" fill="#fff"/><path d="M79.31,214.94l-.21,0,0-1.33h.2a.66.66,0,0,1,.68.7c0,.56-.35.66-.69.64Zm2,1.42a2,2,0,0,0,1-2,2.44,2.44,0,0,0-2.46-2.59c-1-.08-1.89-.13-2.84-.15,0,2.22,0,4.25-.07,6.47.71,0,1.48.07,2.1.12,0-.62,0-1.08,0-1.71l1.14,1.85c.87.08,1.76.19,2.63.32l-1.58-2.3Z" fill="#fff"/><path d="M73,215.93c.14-.55.29-1.13.44-1.68.17.55.33,1.1.5,1.66l-.94,0Zm1.54-4.37c-.84,0-1.53,0-2.25,0-.58,2.16-1.26,4.46-1.84,6.62.65,0,1.3-.05,1.94-.05l.19-.72,1,0s.87,0,.87,0,.1.31.21.68c.65,0,1.29,0,1.93,0-.69-2.28-1.4-4.47-2-6.54Z" fill="#fff"/><path d="M56.4,219.07a5.81,5.81,0,0,0,2.61.67,2.8,2.8,0,0,0,3.05-2.54c0-1.18-.72-1.74-1.77-2l-.56-.13c-.19,0-.49-.08-.49-.34s.33-.37.54-.37a4,4,0,0,1,1.51.32l.63-1.66a5,5,0,0,0-2.15-.52,2.77,2.77,0,0,0-3,2.55,1.87,1.87,0,0,0,1.74,1.86l.5.09c.22.05.55.07.54.39s-.39.35-.63.34a2.94,2.94,0,0,1-1.7-.55l-.81,1.86Z" fill="#fff"/><path d="M61.74,207.81a1.67,1.67,0,1,0,1.64,1.69A1.66,1.66,0,0,0,61.74,207.81Zm.6.62a2,2,0,0,0-1.78,1s0,0,0,0a1.44,1.44,0,0,1,0-.46,1.14,1.14,0,0,1,1.39-.81,1,1,0,0,1,.39.21Z" fill="#fff"/></g></g></svg>