<svg xmlns="http://www.w3.org/2000/svg" viewBox="0 0 300 250"><title>txt3</title><g id="Layer_2" data-name="Layer 2"><g id="Frame_3" data-name="Frame 3" style="isolation:isolate"><g id="rect"><rect width="300" height="250" fill="none"/></g><g id="Adopt_today_at_PetSmart." data-name="Adopt today at PetSmart."><path d="M20.5,24.8H14.13l-.9,2.46H9.89L15.41,13h3.81l5.5,14.27H21.4Zm-5.56-2.63h4.73l-2.36-6.55Z" fill="#fff"/><path d="M33,25.93a4.25,4.25,0,0,1-1.42,1.19,3.85,3.85,0,0,1-1.77.42,4.31,4.31,0,0,1-4-2.51,6.73,6.73,0,0,1-.58-2.92,6.64,6.64,0,0,1,.58-2.88,4.61,4.61,0,0,1,1.63-1.9,4.3,4.3,0,0,1,2.36-.66,4,4,0,0,1,1.76.41A4.11,4.11,0,0,1,33,18.25V13h2.74V27.26H33Zm0-5.66a2.45,2.45,0,0,0-1-.85,3,3,0,0,0-1.34-.33,2.39,2.39,0,0,0-1.88.83A3.2,3.2,0,0,0,28,22.11a3.17,3.17,0,0,0,.73,2.17,2.36,2.36,0,0,0,1.88.84,3,3,0,0,0,1.34-.33,2.61,2.61,0,0,0,1-.85Z" fill="#fff"/><path d="M40.17,26.81a5.09,5.09,0,0,1-1.91-2,5.79,5.79,0,0,1-.66-2.75,5.73,5.73,0,0,1,.66-2.72,5,5,0,0,1,1.91-2,6.11,6.11,0,0,1,5.79,0,4.89,4.89,0,0,1,1.91,2,5.73,5.73,0,0,1,.66,2.72,5.79,5.79,0,0,1-.66,2.75,5,5,0,0,1-1.91,2,6.11,6.11,0,0,1-5.79,0ZM45,24.25a3.27,3.27,0,0,0,.72-2.16A3.23,3.23,0,0,0,45,20a2.38,2.38,0,0,0-1.94-.87,2.34,2.34,0,0,0-1.92.87,3.28,3.28,0,0,0-.71,2.13,3.32,3.32,0,0,0,.71,2.16,2.34,2.34,0,0,0,1.92.87A2.38,2.38,0,0,0,45,24.25Z" fill="#fff"/><path d="M50.44,31.19V16.93h2.72v1.3a4.13,4.13,0,0,1,1.42-1.15,4,4,0,0,1,1.77-.41,4.37,4.37,0,0,1,2.36.64,4.32,4.32,0,0,1,1.62,1.87,6.51,6.51,0,0,1,.59,2.91A6.63,6.63,0,0,1,60.33,25a4.32,4.32,0,0,1-1.62,1.87,4.38,4.38,0,0,1-2.36.65A3.93,3.93,0,0,1,53.16,26v5.24Zm6.94-11.27a2.38,2.38,0,0,0-1.89-.83,2.89,2.89,0,0,0-1.33.34,2.72,2.72,0,0,0-1,.84v3.67a2.76,2.76,0,0,0,1,.84,3,3,0,0,0,1.32.34,2.35,2.35,0,0,0,1.89-.84,3.25,3.25,0,0,0,.72-2.19A3.23,3.23,0,0,0,57.38,19.92Z" fill="#fff"/><path d="M64.21,26.81a2.81,2.81,0,0,1-.75-2.1V19.3H61.75V16.93h1.71V14.1H66.2v2.83h2.1V19.3H66.2V24a1.3,1.3,0,0,0,.26.82.84.84,0,0,0,.68.32A1.69,1.69,0,0,0,67.7,25a.9.9,0,0,0,.38-.21l.58,2.05a3.34,3.34,0,0,1-2.27.67A3,3,0,0,1,64.21,26.81Z" fill="#fff"/><path d="M76.92,26.81a2.81,2.81,0,0,1-.75-2.1V19.3H74.46V16.93h1.71V14.1h2.74v2.83H81V19.3H78.91V24a1.29,1.29,0,0,0,.25.82.85.85,0,0,0,.69.32A1.63,1.63,0,0,0,80.4,25a1,1,0,0,0,.39-.21l.58,2.05a3.36,3.36,0,0,1-2.27.67A3,3,0,0,1,76.92,26.81Z" fill="#fff"/><path d="M84.57,26.81a5,5,0,0,1-1.91-2A5.79,5.79,0,0,1,82,22.09a5.73,5.73,0,0,1,.66-2.72,4.89,4.89,0,0,1,1.91-2,6.11,6.11,0,0,1,5.79,0,5,5,0,0,1,1.91,2,5.73,5.73,0,0,1,.66,2.72,5.79,5.79,0,0,1-.66,2.75,5.09,5.09,0,0,1-1.91,2,6.11,6.11,0,0,1-5.79,0Zm4.82-2.56a3.27,3.27,0,0,0,.72-2.16A3.23,3.23,0,0,0,89.39,20a2.38,2.38,0,0,0-1.94-.87,2.34,2.34,0,0,0-1.92.87,3.28,3.28,0,0,0-.71,2.13,3.32,3.32,0,0,0,.71,2.16,2.34,2.34,0,0,0,1.92.87A2.38,2.38,0,0,0,89.39,24.25Z" fill="#fff"/><path d="M102,25.93a4.25,4.25,0,0,1-1.42,1.19,3.84,3.84,0,0,1-1.76.42,4.43,4.43,0,0,1-2.36-.65A4.3,4.3,0,0,1,94.86,25a6.59,6.59,0,0,1-.59-2.92,6.5,6.5,0,0,1,.59-2.88,4.52,4.52,0,0,1,1.62-1.9,4.31,4.31,0,0,1,2.37-.66A4,4,0,0,1,102,18.25V13h2.74V27.26H102Zm0-5.66a2.42,2.42,0,0,0-1-.85,3,3,0,0,0-1.35-.33,2.39,2.39,0,0,0-1.88.83,3.2,3.2,0,0,0-.73,2.19,3.17,3.17,0,0,0,.73,2.17,2.36,2.36,0,0,0,1.88.84,3,3,0,0,0,1.35-.33,2.57,2.57,0,0,0,1-.85Z" fill="#fff"/><path d="M114.51,25.93a4.25,4.25,0,0,1-1.42,1.19,3.85,3.85,0,0,1-1.77.42,4.4,4.4,0,0,1-2.35-.65A4.3,4.3,0,0,1,107.34,25a6.59,6.59,0,0,1-.59-2.92,6.5,6.5,0,0,1,.59-2.88,4.52,4.52,0,0,1,1.62-1.9,4.3,4.3,0,0,1,2.36-.66,4,4,0,0,1,1.76.41,4.11,4.11,0,0,1,1.43,1.17V16.93h2.74V27.26h-2.74Zm0-5.64a2.56,2.56,0,0,0-1-.85,3,3,0,0,0-1.35-.33,2.35,2.35,0,0,0-1.88.83,3.13,3.13,0,0,0-.73,2.17,3.17,3.17,0,0,0,.73,2.17,2.36,2.36,0,0,0,1.88.84,3,3,0,0,0,1.35-.33,2.65,2.65,0,0,0,1-.85Z" fill="#fff"/><path d="M120.81,27.94a3.28,3.28,0,0,0,1.37,1,4.7,4.7,0,0,0,1.73.33,2.88,2.88,0,0,0,2.06-.69,2.59,2.59,0,0,0,.72-2V25.5a4.66,4.66,0,0,1-1.52,1.12,4.8,4.8,0,0,1-2.11.45,3.34,3.34,0,0,1-2.5-.86,3.28,3.28,0,0,1-.84-2.4V16.93h2.72v5.81a1.87,1.87,0,0,0,.49,1.47,2.07,2.07,0,0,0,1.41.44,2.82,2.82,0,0,0,1.35-.34,3.2,3.2,0,0,0,1-.84V16.93h2.72v9.51a4.62,4.62,0,0,1-1.49,3.69,5.81,5.81,0,0,1-4,1.32,6.3,6.3,0,0,1-4.32-1.54Z" fill="#fff"/><path d="M144.68,25.93a4.25,4.25,0,0,1-1.42,1.19,3.84,3.84,0,0,1-1.76.42,4.43,4.43,0,0,1-2.36-.65A4.3,4.3,0,0,1,137.51,25a6.59,6.59,0,0,1-.59-2.92,6.5,6.5,0,0,1,.59-2.88,4.52,4.52,0,0,1,1.62-1.9,4.31,4.31,0,0,1,2.37-.66,4,4,0,0,1,3.18,1.58V16.93h2.74V27.26h-2.74Zm0-5.64a2.49,2.49,0,0,0-1-.85,3,3,0,0,0-1.35-.33,2.35,2.35,0,0,0-1.88.83,3.13,3.13,0,0,0-.73,2.17,3.17,3.17,0,0,0,.73,2.17,2.36,2.36,0,0,0,1.88.84,3,3,0,0,0,1.35-.33,2.57,2.57,0,0,0,1-.85Z" fill="#fff"/><path d="M151.29,26.81a2.81,2.81,0,0,1-.75-2.1V19.3h-1.71V16.93h1.71V14.1h2.74v2.83h2.1V19.3h-2.1V24a1.3,1.3,0,0,0,.26.82.84.84,0,0,0,.68.32,1.69,1.69,0,0,0,.56-.09.9.9,0,0,0,.38-.21l.58,2.05a3.34,3.34,0,0,1-2.27.67A3,3,0,0,1,151.29,26.81Z" fill="#fff"/><path d="M11.41,38.2h6.67a5.17,5.17,0,0,1,2.59.62,4.12,4.12,0,0,1,1.65,1.66,4.82,4.82,0,0,1,.56,2.32,4.7,4.7,0,0,1-.57,2.3,4.13,4.13,0,0,1-1.65,1.64,5.13,5.13,0,0,1-2.58.61H14.45v5.12h-3Zm7.77,3.15a2.16,2.16,0,0,0-1.5-.54H14.45v3.93h3.23a2.17,2.17,0,0,0,1.51-.54,2,2,0,0,0,0-2.85Z" fill="#fff"/><path d="M24.38,44.57a5.24,5.24,0,0,1,4.67-2.69,5,5,0,0,1,2.69.72,4.7,4.7,0,0,1,1.83,2,6.42,6.42,0,0,1,.65,3v.6H26.54a2.69,2.69,0,0,0,.92,1.72,3,3,0,0,0,2.06.69A4.5,4.5,0,0,0,31,50.31a3.75,3.75,0,0,0,1.25-.75l1.19,1.75a5,5,0,0,1-1.88,1.06,7.49,7.49,0,0,1-2.37.37,5.94,5.94,0,0,1-2.83-.67,4.89,4.89,0,0,1-2-1.91,5.93,5.93,0,0,1,0-5.59Zm2.87.16a2.8,2.8,0,0,0-.75,1.6h5.09a2.62,2.62,0,0,0-.69-1.59,2.35,2.35,0,0,0-1.85-.7A2.34,2.34,0,0,0,27.25,44.73Z" fill="#fff"/><path d="M37.41,52a2.82,2.82,0,0,1-.75-2.11v-5.4H35V42.14h1.71V39.31H39.4v2.83h2.09v2.37H39.4v4.68a1.29,1.29,0,0,0,.25.82.85.85,0,0,0,.69.32,1.63,1.63,0,0,0,.55-.09,1,1,0,0,0,.39-.21l.57,2a3.32,3.32,0,0,1-2.26.66A3,3,0,0,1,37.41,52Z" fill="#fff"/><path d="M44.27,48.17a6.35,6.35,0,0,0,2,1.39,6.17,6.17,0,0,0,2.56.53,3.08,3.08,0,0,0,1.82-.47,1.39,1.39,0,0,0,.66-1.14,1.2,1.2,0,0,0-.71-1.11,9.61,9.61,0,0,0-2.18-.72,25.83,25.83,0,0,1-2.72-.77,4.57,4.57,0,0,1-1.83-1.26,3.38,3.38,0,0,1-.78-2.35,3.77,3.77,0,0,1,.67-2.18,4.45,4.45,0,0,1,1.89-1.56A6.71,6.71,0,0,1,48.48,38a7.93,7.93,0,0,1,5.57,2l-1.69,2.23A5.73,5.73,0,0,0,50.44,41a6.34,6.34,0,0,0-2.17-.39,2.56,2.56,0,0,0-1.55.4,1.25,1.25,0,0,0-.54,1.06,1,1,0,0,0,.66,1,11.94,11.94,0,0,0,2.18.68,19.08,19.08,0,0,1,2.71.78,4.73,4.73,0,0,1,1.86,1.3,3.39,3.39,0,0,1,.78,2.34,4.16,4.16,0,0,1-1.47,3.32,6.31,6.31,0,0,1-4.24,1.26,8.19,8.19,0,0,1-6.06-2.26Z" fill="#fff"/><path d="M69.14,45.94a1.83,1.83,0,0,0-.38-1.21,1.45,1.45,0,0,0-1.16-.43,2.21,2.21,0,0,0-1.23.36,3.33,3.33,0,0,0-.91.83v7H62.72V45.94a1.88,1.88,0,0,0-.37-1.21,1.46,1.46,0,0,0-1.17-.43,2.28,2.28,0,0,0-1.22.36,3.28,3.28,0,0,0-.92.85v7H56.32V42.14H59v1.34a3.93,3.93,0,0,1,1.35-1.08,4.17,4.17,0,0,1,2-.52,3.21,3.21,0,0,1,1.84.49,2.66,2.66,0,0,1,1,1.39,4.34,4.34,0,0,1,3.55-1.88,3,3,0,0,1,2.24.78A3.14,3.14,0,0,1,71.87,45v7.47H69.14Z" fill="#fff"/><path d="M81.57,51.14a4.25,4.25,0,0,1-1.42,1.19,3.84,3.84,0,0,1-1.77.41A4.39,4.39,0,0,1,76,52.1a4.3,4.3,0,0,1-1.63-1.86,6.59,6.59,0,0,1-.59-2.92,6.5,6.5,0,0,1,.59-2.88A4.52,4.52,0,0,1,76,42.54a4.3,4.3,0,0,1,2.36-.66,3.86,3.86,0,0,1,1.76.41,4.11,4.11,0,0,1,1.43,1.17V42.14h2.74V52.47H81.57Zm0-5.64a2.48,2.48,0,0,0-1-.85,3,3,0,0,0-1.35-.33,2.38,2.38,0,0,0-1.88.82,3.61,3.61,0,0,0,0,4.35,2.36,2.36,0,0,0,1.88.84A2.91,2.91,0,0,0,80.57,50a2.54,2.54,0,0,0,1-.84Z" fill="#fff"/><path d="M86.83,42.14h2.71v1.41A4.56,4.56,0,0,1,91,42.36a3.86,3.86,0,0,1,1.84-.48v2.65a3.3,3.3,0,0,0-.75-.08,3.59,3.59,0,0,0-1.46.34,2.55,2.55,0,0,0-1.09.83v6.85H86.83Z" fill="#fff"/><path d="M96.17,52a2.82,2.82,0,0,1-.75-2.11v-5.4H93.71V42.14h1.71V39.31h2.73v2.83h2.1v2.37h-2.1v4.68a1.3,1.3,0,0,0,.26.82.85.85,0,0,0,.69.32,1.67,1.67,0,0,0,.55-.09A1,1,0,0,0,100,50l.57,2a3.33,3.33,0,0,1-2.26.66A3,3,0,0,1,96.17,52Z" fill="#fff"/><path d="M102.65,49.79a1.71,1.71,0,1,1-.51,1.22A1.67,1.67,0,0,1,102.65,49.79Z" fill="#fff"/></g></g></g></svg>