<svg xmlns="http://www.w3.org/2000/svg" viewBox="0 0 300 600"><title>txt1</title><g id="Layer_2" data-name="Layer 2"><g id="rect"><rect width="300" height="600" fill="none"/></g><g id="_1_in_5_pets_are_adopted_through_PetSmart_Charities." data-name="1 in 5 pets are adopted through PetSmart Charities."><path d="M25.68,27.25l-3.1,3.16L20.31,28l5.88-5.91h3.47V40.8h-4Z" fill="#fff"/><path d="M40.71,24.66a2.1,2.1,0,0,1,0-3A2,2,0,0,1,42.2,21a2.07,2.07,0,0,1,1.52.62,2,2,0,0,1,.61,1.51,2.07,2.07,0,0,1-.61,1.5,2.11,2.11,0,0,1-3,0Zm-.27,2.62H44V40.8H40.44Z" fill="#fff"/><path d="M56.39,32.62a2.51,2.51,0,0,0-.64-1.93,2.67,2.67,0,0,0-1.85-.59,3.51,3.51,0,0,0-1.78.47,4.34,4.34,0,0,0-1.3,1.13v9.1H47.27V27.28h3.55V29a6.06,6.06,0,0,1,2-1.48,6.13,6.13,0,0,1,2.77-.62A3.94,3.94,0,0,1,60,31.25V40.8H56.39Z" fill="#fff"/><path d="M72.44,35.65a6.42,6.42,0,0,0,2.22,1.52,7.18,7.18,0,0,0,2.76.52,3.76,3.76,0,0,0,2.54-.8,2.53,2.53,0,0,0,.93-2A2.62,2.62,0,0,0,80,32.8,3.59,3.59,0,0,0,77.53,32a5.49,5.49,0,0,0-3.92,1.54l-2.77-.76V22.12H83.67v3.42H74.73v4.68a6.3,6.3,0,0,1,1.88-1.14,6.39,6.39,0,0,1,5.29.31,5.67,5.67,0,0,1,2.2,2.12,6.1,6.1,0,0,1,.83,3.2A6.21,6.21,0,0,1,84,38.13a5.91,5.91,0,0,1-2.62,2.25,10.52,10.52,0,0,1-11.13-2Z" fill="#fff"/><path d="M94.84,46V27.28h3.55V29a5.65,5.65,0,0,1,1.87-1.51,5.16,5.16,0,0,1,2.31-.53,5.56,5.56,0,0,1,5.22,3.28,8.79,8.79,0,0,1,.77,3.82,8.87,8.87,0,0,1-.77,3.83,5.55,5.55,0,0,1-5.22,3.29,5.24,5.24,0,0,1-2.3-.51,5.44,5.44,0,0,1-1.88-1.56V46Zm9.08-14.75a3.09,3.09,0,0,0-2.47-1.1,3.76,3.76,0,0,0-1.74.45,3.57,3.57,0,0,0-1.32,1.1v4.81a3.59,3.59,0,0,0,1.33,1.09,3.81,3.81,0,0,0,1.73.45,3.06,3.06,0,0,0,2.47-1.1,4.21,4.21,0,0,0,.94-2.86A4.2,4.2,0,0,0,103.92,31.2Z" fill="#fff"/><path d="M111.17,30.46a6.8,6.8,0,0,1,2.49-2.56,6.89,6.89,0,0,1,3.61-1,6.61,6.61,0,0,1,3.53.94,6.31,6.31,0,0,1,2.4,2.63,8.49,8.49,0,0,1,.85,3.88v.78H114a3.44,3.44,0,0,0,1.2,2.26,3.91,3.91,0,0,0,2.69.91,5.54,5.54,0,0,0,2-.37,4.56,4.56,0,0,0,1.64-1l1.57,2.3a6.53,6.53,0,0,1-2.46,1.38,9.78,9.78,0,0,1-3.11.49,7.72,7.72,0,0,1-3.7-.88,6.49,6.49,0,0,1-2.59-2.5,7.34,7.34,0,0,1-.94-3.74A7.24,7.24,0,0,1,111.17,30.46Zm3.75.22a3.7,3.7,0,0,0-1,2.08h6.67a3.47,3.47,0,0,0-.91-2.07,3.11,3.11,0,0,0-2.43-.92A3,3,0,0,0,114.92,30.68Z" fill="#fff"/><path d="M128.17,40.21a3.64,3.64,0,0,1-1-2.75V30.38H125v-3.1h2.24v-3.7h3.58v3.7h2.74v3.1h-2.74v6.13a1.63,1.63,0,0,0,.34,1.07A1.08,1.08,0,0,0,132,38a2.43,2.43,0,0,0,.73-.11,1.37,1.37,0,0,0,.5-.28L134,40.3a4.35,4.35,0,0,1-3,.86A3.9,3.9,0,0,1,128.17,40.21Z" fill="#fff"/><path d="M136.56,36.57a6.92,6.92,0,0,0,2.13,1.29,6.73,6.73,0,0,0,2.55.56,3.12,3.12,0,0,0,1.69-.37,1.15,1.15,0,0,0,.58-1,1.06,1.06,0,0,0-.68-1,8.28,8.28,0,0,0-2-.63,18.43,18.43,0,0,1-2.69-.67,4.44,4.44,0,0,1-1.85-1.22,3.3,3.3,0,0,1-.78-2.33,3.72,3.72,0,0,1,.66-2.13,4.57,4.57,0,0,1,1.92-1.56,7.14,7.14,0,0,1,3-.57,8.53,8.53,0,0,1,5.46,1.85l-1.42,2.43a5.18,5.18,0,0,0-1.73-1.12,6,6,0,0,0-2.28-.44,3.1,3.1,0,0,0-1.55.33,1,1,0,0,0-.58.93,1,1,0,0,0,.63.88,9.69,9.69,0,0,0,2,.57,17.88,17.88,0,0,1,2.72.71,4.67,4.67,0,0,1,1.9,1.29,3.51,3.51,0,0,1,.81,2.44,3.86,3.86,0,0,1-.68,2.23,4.43,4.43,0,0,1-2,1.56,8,8,0,0,1-3.15.56,10,10,0,0,1-3.37-.56A7.38,7.38,0,0,1,135,39.06Z" fill="#fff"/><path d="M166,39.06a5.43,5.43,0,0,1-1.86,1.56,5.09,5.09,0,0,1-2.31.54,5.77,5.77,0,0,1-3.08-.84,5.65,5.65,0,0,1-2.15-2.44,8.75,8.75,0,0,1-.76-3.81,8.77,8.77,0,0,1,.76-3.78,6,6,0,0,1,2.13-2.48,5.64,5.64,0,0,1,3.1-.87,5.2,5.2,0,0,1,2.29.53A5.35,5.35,0,0,1,166,29V27.28h3.58V40.8H166Zm0-7.38a3.33,3.33,0,0,0-1.32-1.11,3.89,3.89,0,0,0-1.76-.44,3.15,3.15,0,0,0-2.47,1.08,4.22,4.22,0,0,0-.95,2.86,4.17,4.17,0,0,0,.95,2.83,3.1,3.1,0,0,0,2.47,1.1,3.87,3.87,0,0,0,1.76-.43A3.49,3.49,0,0,0,166,36.46Z" fill="#fff"/><path d="M172.85,27.28h3.55v1.84a6,6,0,0,1,1.91-1.55,5,5,0,0,1,2.41-.63v3.47a4.9,4.9,0,0,0-1-.11,4.69,4.69,0,0,0-1.91.45,3.21,3.21,0,0,0-1.43,1.09v9h-3.55Z" fill="#fff"/><path d="M182.64,30.46a6.8,6.8,0,0,1,2.49-2.56,6.9,6.9,0,0,1,3.62-1,6.57,6.57,0,0,1,3.52.94,6.31,6.31,0,0,1,2.4,2.63,8.49,8.49,0,0,1,.85,3.88v.78H185.47a3.44,3.44,0,0,0,1.2,2.26,3.91,3.91,0,0,0,2.69.91,5.63,5.63,0,0,0,2-.37A4.6,4.6,0,0,0,193,37l1.57,2.3a6.53,6.53,0,0,1-2.46,1.38,9.78,9.78,0,0,1-3.11.49,7.75,7.75,0,0,1-3.7-.88,6.49,6.49,0,0,1-2.59-2.5,7.33,7.33,0,0,1-.93-3.74A7.23,7.23,0,0,1,182.64,30.46Zm3.75.22a3.7,3.7,0,0,0-1,2.08h6.67a3.47,3.47,0,0,0-.91-2.07,3.1,3.1,0,0,0-2.42-.92A3,3,0,0,0,186.39,30.68Z" fill="#fff"/><path d="M31.06,72.06a5.43,5.43,0,0,1-1.86,1.56,5.09,5.09,0,0,1-2.31.54,5.77,5.77,0,0,1-3.08-.84,5.56,5.56,0,0,1-2.14-2.44,9.74,9.74,0,0,1,0-7.59,5.88,5.88,0,0,1,2.12-2.48,5.64,5.64,0,0,1,3.1-.87,5.2,5.2,0,0,1,2.29.53A5.35,5.35,0,0,1,31.06,62V60.28h3.58V73.8H31.06Zm0-7.38a3.33,3.33,0,0,0-1.32-1.11A3.85,3.85,0,0,0,28,63.13a3.11,3.11,0,0,0-2.46,1.08,4.17,4.17,0,0,0-1,2.86,4.13,4.13,0,0,0,1,2.83A3.07,3.07,0,0,0,28,71a3.84,3.84,0,0,0,1.76-.43,3.49,3.49,0,0,0,1.32-1.11Z" fill="#fff"/><path d="M47.35,72.06a5.63,5.63,0,0,1-1.86,1.56,5.09,5.09,0,0,1-2.31.54,5.77,5.77,0,0,1-3.08-.84A5.65,5.65,0,0,1,38,70.88a9.74,9.74,0,0,1,0-7.59,6,6,0,0,1,2.13-2.48,5.64,5.64,0,0,1,3.1-.87,5.23,5.23,0,0,1,2.29.53A5.44,5.44,0,0,1,47.35,62V55.12h3.58V73.8H47.35Zm0-7.41A3.33,3.33,0,0,0,46,63.54a3.92,3.92,0,0,0-1.76-.44,3.13,3.13,0,0,0-2.47,1.1,4.25,4.25,0,0,0-.95,2.87,4.17,4.17,0,0,0,.95,2.83A3.1,3.1,0,0,0,44.27,71,3.9,3.9,0,0,0,46,70.57a3.49,3.49,0,0,0,1.32-1.11Z" fill="#fff"/><path d="M56.74,73.21a6.57,6.57,0,0,1-2.49-2.58,7.78,7.78,0,0,1,0-7.15,6.44,6.44,0,0,1,2.49-2.58,8,8,0,0,1,7.59,0,6.31,6.31,0,0,1,2.49,2.58,7.78,7.78,0,0,1,0,7.15,6.43,6.43,0,0,1-2.49,2.58,8.05,8.05,0,0,1-7.59,0Zm6.32-3.35a4.67,4.67,0,0,0,0-5.62,3.12,3.12,0,0,0-2.54-1.14A3.08,3.08,0,0,0,58,64.24a4.75,4.75,0,0,0,0,5.62A3.08,3.08,0,0,0,60.52,71,3.12,3.12,0,0,0,63.06,69.86Z" fill="#fff"/><path d="M70.15,79V60.28H73.7V62a5.51,5.51,0,0,1,1.86-1.51,5.22,5.22,0,0,1,2.31-.53,5.56,5.56,0,0,1,5.23,3.28,9.89,9.89,0,0,1,0,7.65,5.55,5.55,0,0,1-5.23,3.29,5.22,5.22,0,0,1-2.29-.51,5.44,5.44,0,0,1-1.88-1.56V79ZM79.23,64.2a3.1,3.1,0,0,0-2.48-1.1,3.72,3.72,0,0,0-1.73.45,3.57,3.57,0,0,0-1.32,1.1v4.81A3.51,3.51,0,0,0,75,70.55a3.77,3.77,0,0,0,1.72.45,3.07,3.07,0,0,0,2.48-1.1,4.79,4.79,0,0,0,0-5.7Z" fill="#fff"/><path d="M88.12,73.21a3.68,3.68,0,0,1-1-2.75V63.38H84.9v-3.1h2.24v-3.7h3.59v3.7h2.74v3.1H90.73v6.13a1.69,1.69,0,0,0,.33,1.07A1.1,1.1,0,0,0,92,71a2.48,2.48,0,0,0,.73-.11,1.37,1.37,0,0,0,.5-.28L94,73.3a4.39,4.39,0,0,1-3,.86A3.92,3.92,0,0,1,88.12,73.21Z" fill="#fff"/><path d="M95.62,63.46a6.8,6.8,0,0,1,2.49-2.56,6.89,6.89,0,0,1,3.61-1,6.61,6.61,0,0,1,3.53.94,6.31,6.31,0,0,1,2.4,2.63,8.62,8.62,0,0,1,.85,3.88v.78h-10a3.44,3.44,0,0,0,1.2,2.26,3.91,3.91,0,0,0,2.69.91,5.54,5.54,0,0,0,2-.37A4.56,4.56,0,0,0,106,70l1.57,2.3a6.6,6.6,0,0,1-2.46,1.38,9.78,9.78,0,0,1-3.11.49,7.69,7.69,0,0,1-3.7-.88,6.49,6.49,0,0,1-2.59-2.5A7.34,7.34,0,0,1,94.72,67,7.24,7.24,0,0,1,95.62,63.46Zm3.75.22a3.63,3.63,0,0,0-1,2.08h6.67a3.47,3.47,0,0,0-.91-2.07,3.12,3.12,0,0,0-2.43-.92A3,3,0,0,0,99.37,63.68Z" fill="#fff"/><path d="M120.28,72.06a5.56,5.56,0,0,1-1.87,1.56,5,5,0,0,1-2.31.54,5.82,5.82,0,0,1-3.08-.84,5.69,5.69,0,0,1-2.14-2.44,9.74,9.74,0,0,1,0-7.59A5.9,5.9,0,0,1,113,60.81a5.63,5.63,0,0,1,3.09-.87,5.24,5.24,0,0,1,2.3.53A5.44,5.44,0,0,1,120.28,62V55.12h3.58V73.8h-3.58Zm0-7.41A3.33,3.33,0,0,0,119,63.54a3.92,3.92,0,0,0-1.76-.44,3.13,3.13,0,0,0-2.47,1.1,4.25,4.25,0,0,0-1,2.87,4.17,4.17,0,0,0,1,2.83A3.1,3.1,0,0,0,117.2,71a3.9,3.9,0,0,0,1.76-.43,3.49,3.49,0,0,0,1.32-1.11Z" fill="#fff"/><path d="M136.24,73.21a3.64,3.64,0,0,1-1-2.75V63.38H133v-3.1h2.24v-3.7h3.58v3.7h2.74v3.1h-2.74v6.13a1.63,1.63,0,0,0,.34,1.07,1.08,1.08,0,0,0,.89.42,2.43,2.43,0,0,0,.73-.11,1.37,1.37,0,0,0,.5-.28l.76,2.69a4.35,4.35,0,0,1-3,.86A3.9,3.9,0,0,1,136.24,73.21Z" fill="#fff"/><path d="M153.08,65.57a2.43,2.43,0,0,0-.65-1.91,2.78,2.78,0,0,0-1.87-.56,3.5,3.5,0,0,0-1.77.47,4.14,4.14,0,0,0-1.31,1.13v9.1h-3.56V55.12h3.56V62a5.89,5.89,0,0,1,2-1.48,6.22,6.22,0,0,1,2.79-.62,4.43,4.43,0,0,1,3.29,1.12,4.3,4.3,0,0,1,1.1,3.14v9.6h-3.55Z" fill="#fff"/><path d="M159.87,60.28h3.56v1.84a6,6,0,0,1,1.9-1.55,5,5,0,0,1,2.41-.63v3.47a4.82,4.82,0,0,0-1-.11,4.73,4.73,0,0,0-1.91.45,3.17,3.17,0,0,0-1.42,1.09v9h-3.56Z" fill="#fff"/><path d="M172.14,73.21a6.57,6.57,0,0,1-2.49-2.58,7.86,7.86,0,0,1,0-7.15,6.44,6.44,0,0,1,2.49-2.58,8,8,0,0,1,7.59,0,6.31,6.31,0,0,1,2.49,2.58,7.78,7.78,0,0,1,0,7.15,6.43,6.43,0,0,1-2.49,2.58,8.05,8.05,0,0,1-7.59,0Zm6.32-3.35a4.67,4.67,0,0,0,0-5.62,3.12,3.12,0,0,0-2.54-1.14,3.08,3.08,0,0,0-2.52,1.14,4.75,4.75,0,0,0,0,5.62A3.08,3.08,0,0,0,175.92,71,3.12,3.12,0,0,0,178.46,69.86Z" fill="#fff"/><path d="M194.62,72.09a6.41,6.41,0,0,1-2,1.47,6.14,6.14,0,0,1-2.75.6A4.38,4.38,0,0,1,186.59,73a4.3,4.3,0,0,1-1.09-3.14V60.28h3.55V68.5a2.5,2.5,0,0,0,.65,1.93,2.68,2.68,0,0,0,1.84.57,3.58,3.58,0,0,0,1.77-.45,4.17,4.17,0,0,0,1.31-1.09V60.28h3.56V73.8h-3.56Z" fill="#fff"/><path d="M202.92,74.7a5.4,5.4,0,0,0,4.23,1.68,4.33,4.33,0,0,0,2.61-.8A3,3,0,0,0,210.87,73V71.59A6.17,6.17,0,0,1,209,73.16a4.92,4.92,0,0,1-2.3.56,6,6,0,0,1-3.07-.8,5.54,5.54,0,0,1-2.13-2.35,8.43,8.43,0,0,1-.76-3.74,8.3,8.3,0,0,1,.76-3.71,5.58,5.58,0,0,1,2.12-2.37,5.83,5.83,0,0,1,3.08-.81,5.15,5.15,0,0,1,2.3.53A5.8,5.8,0,0,1,210.87,62V60.28h3.59v12.6q0,3.5-2.15,5a9,9,0,0,1-5.16,1.46,10.24,10.24,0,0,1-3.18-.46,7.8,7.8,0,0,1-2.65-1.56Zm8-10a3.33,3.33,0,0,0-1.3-1.11,3.81,3.81,0,0,0-1.75-.44,3.24,3.24,0,0,0-2.48,1,4.39,4.39,0,0,0,0,5.43,3.21,3.21,0,0,0,2.48,1,3.69,3.69,0,0,0,1.73-.45A3.46,3.46,0,0,0,210.87,69Z" fill="#fff"/><path d="M226.86,65.57a2.43,2.43,0,0,0-.65-1.91,2.78,2.78,0,0,0-1.87-.56,3.5,3.5,0,0,0-1.77.47,4.14,4.14,0,0,0-1.31,1.13v9.1H217.7V55.12h3.56V62a5.89,5.89,0,0,1,2-1.48,6.22,6.22,0,0,1,2.79-.62,4.43,4.43,0,0,1,3.29,1.12,4.3,4.3,0,0,1,1.1,3.14v9.6h-3.55Z" fill="#fff"/><path d="M21.85,88.12h8.73a6.75,6.75,0,0,1,3.39.82,5.43,5.43,0,0,1,2.16,2.17,6.35,6.35,0,0,1,.73,3,6.07,6.07,0,0,1-.75,3A5.38,5.38,0,0,1,34,99.31a6.79,6.79,0,0,1-3.38.8H25.82v6.69h-4ZM32,92.25a2.81,2.81,0,0,0-2-.71H25.82v5.15h4.23A2.84,2.84,0,0,0,32,96a2.62,2.62,0,0,0,0-3.73Z" fill="#fff"/><path d="M38.78,96.46a6.65,6.65,0,0,1,2.49-2.56,6.86,6.86,0,0,1,3.61-1,6.61,6.61,0,0,1,3.53.94,6.35,6.35,0,0,1,2.39,2.63,8.49,8.49,0,0,1,.86,3.88v.78H41.6a3.5,3.5,0,0,0,1.21,2.26,3.9,3.9,0,0,0,2.69.91,5.54,5.54,0,0,0,2-.37,4.65,4.65,0,0,0,1.64-1l1.57,2.3a6.65,6.65,0,0,1-2.47,1.38,9.74,9.74,0,0,1-3.11.49,7.68,7.68,0,0,1-3.69-.88,6.43,6.43,0,0,1-2.59-2.5,7.74,7.74,0,0,1,0-7.32Zm3.75.22a3.63,3.63,0,0,0-1,2.08h6.66a3.41,3.41,0,0,0-.91-2.07,3.1,3.1,0,0,0-2.42-.92A3,3,0,0,0,42.53,96.68Z" fill="#fff"/><path d="M55.77,106.21a3.68,3.68,0,0,1-1-2.75V96.38H52.55v-3.1h2.24v-3.7h3.59v3.7h2.74v3.1H58.38v6.13a1.69,1.69,0,0,0,.33,1.07,1.1,1.1,0,0,0,.9.42,2.48,2.48,0,0,0,.73-.11,1.37,1.37,0,0,0,.5-.28l.76,2.69a4.39,4.39,0,0,1-3,.86A3.94,3.94,0,0,1,55.77,106.21Z" fill="#fff"/><path d="M64.71,101.17A8.11,8.11,0,0,0,67.3,103a7.88,7.88,0,0,0,3.35.7,4,4,0,0,0,2.39-.62,1.8,1.8,0,0,0,.85-1.49,1.55,1.55,0,0,0-.92-1.45,12.87,12.87,0,0,0-2.86-.95,28.56,28.56,0,0,1-3.55-1,5.9,5.9,0,0,1-2.4-1.64,4.43,4.43,0,0,1-1-3.07A5,5,0,0,1,64,90.6a5.8,5.8,0,0,1,2.48-2,8.76,8.76,0,0,1,3.74-.74,10.33,10.33,0,0,1,7.28,2.6l-2.22,2.91a7.28,7.28,0,0,0-2.5-1.52A8.09,8.09,0,0,0,70,91.29a3.36,3.36,0,0,0-2,.52,1.64,1.64,0,0,0-.72,1.4,1.34,1.34,0,0,0,.87,1.28,16.54,16.54,0,0,0,2.86.89,27.11,27.11,0,0,1,3.54,1,6.24,6.24,0,0,1,2.43,1.7,4.46,4.46,0,0,1,1,3.06A5.47,5.47,0,0,1,76,105.51a8.29,8.29,0,0,1-5.56,1.65,10.68,10.68,0,0,1-7.92-3Z" fill="#fff"/><path d="M97.21,98.26a2.39,2.39,0,0,0-.49-1.58,1.92,1.92,0,0,0-1.53-.58,2.89,2.89,0,0,0-1.61.48,4.49,4.49,0,0,0-1.19,1.09v9.13H88.81V98.26a2.39,2.39,0,0,0-.49-1.58,1.92,1.92,0,0,0-1.53-.58,3,3,0,0,0-1.6.48A4.18,4.18,0,0,0,84,97.7v9.1H80.43V93.28H84V95a5,5,0,0,1,1.76-1.41,5.47,5.47,0,0,1,2.66-.69,4.28,4.28,0,0,1,2.41.64,3.48,3.48,0,0,1,1.35,1.82,5.3,5.3,0,0,1,1.91-1.73,5.37,5.37,0,0,1,2.73-.73,4,4,0,0,1,2.94,1,4.15,4.15,0,0,1,1,3.07v9.77H97.21Z" fill="#fff"/><path d="M113.44,105.06a5.53,5.53,0,0,1-1.86,1.56,5.09,5.09,0,0,1-2.31.54,5.77,5.77,0,0,1-3.08-.84,5.65,5.65,0,0,1-2.15-2.44,9.74,9.74,0,0,1,0-7.59,6,6,0,0,1,2.13-2.48,5.64,5.64,0,0,1,3.1-.87,5.23,5.23,0,0,1,2.29.53A5.35,5.35,0,0,1,113.44,95V93.28H117V106.8h-3.58Zm0-7.38a3.33,3.33,0,0,0-1.32-1.11,3.89,3.89,0,0,0-1.76-.44,3.15,3.15,0,0,0-2.47,1.08,4.22,4.22,0,0,0-1,2.86,4.17,4.17,0,0,0,1,2.83,3.1,3.1,0,0,0,2.47,1.1,3.87,3.87,0,0,0,1.76-.43,3.49,3.49,0,0,0,1.32-1.11Z" fill="#fff"/><path d="M120.27,93.28h3.55v1.84a6,6,0,0,1,1.91-1.55,5,5,0,0,1,2.41-.63v3.47a4.9,4.9,0,0,0-1-.11,4.69,4.69,0,0,0-1.91.45,3.21,3.21,0,0,0-1.43,1.09v9h-3.55Z" fill="#fff"/><path d="M132.45,106.21a3.64,3.64,0,0,1-1-2.75V96.38h-2.24v-3.1h2.24v-3.7h3.58v3.7h2.74v3.1h-2.74v6.13a1.63,1.63,0,0,0,.34,1.07,1.08,1.08,0,0,0,.89.42,2.43,2.43,0,0,0,.73-.11,1.52,1.52,0,0,0,.51-.28l.75,2.69a4.35,4.35,0,0,1-3,.86A3.9,3.9,0,0,1,132.45,106.21Z" fill="#fff"/><path d="M151.43,105.94a9,9,0,0,1-3.54-3.43,10.34,10.34,0,0,1,0-10A9,9,0,0,1,151.43,89a10.13,10.13,0,0,1,5-1.22,8.67,8.67,0,0,1,4.87,1.27,9.61,9.61,0,0,1,3.08,3.29l-3.42,1.68a5.16,5.16,0,0,0-1.83-2,5,5,0,0,0-2.7-.77,5.55,5.55,0,0,0-2.92.8,5.6,5.6,0,0,0-2.05,2.21,6.95,6.95,0,0,0,0,6.28,5.6,5.6,0,0,0,2.05,2.21,5.55,5.55,0,0,0,2.92.8,5,5,0,0,0,2.71-.76,4.89,4.89,0,0,0,1.82-2l3.42,1.65a8.62,8.62,0,0,1-8,4.59A10.13,10.13,0,0,1,151.43,105.94Z" fill="#fff"/><path d="M175.43,98.57a2.43,2.43,0,0,0-.64-1.91,2.81,2.81,0,0,0-1.88-.56,3.49,3.49,0,0,0-1.76.47,4.3,4.3,0,0,0-1.32,1.13v9.1h-3.55V88.12h3.55V95a6,6,0,0,1,2-1.48,6.2,6.2,0,0,1,2.78-.62,4.4,4.4,0,0,1,3.29,1.12A4.27,4.27,0,0,1,179,97.2v9.6h-3.56Z" fill="#fff"/><path d="M191.65,105.06a5.53,5.53,0,0,1-1.86,1.56,5.09,5.09,0,0,1-2.31.54,5.77,5.77,0,0,1-3.08-.84,5.65,5.65,0,0,1-2.15-2.44,9.85,9.85,0,0,1,0-7.59,6,6,0,0,1,2.13-2.48,5.64,5.64,0,0,1,3.1-.87,5.23,5.23,0,0,1,2.29.53A5.35,5.35,0,0,1,191.65,95V93.28h3.58V106.8h-3.58Zm0-7.38a3.33,3.33,0,0,0-1.32-1.11,3.89,3.89,0,0,0-1.76-.44,3.15,3.15,0,0,0-2.47,1.08,4.22,4.22,0,0,0-.95,2.86,4.17,4.17,0,0,0,.95,2.83,3.1,3.1,0,0,0,2.47,1.1,3.87,3.87,0,0,0,1.76-.43,3.49,3.49,0,0,0,1.32-1.11Z" fill="#fff"/><path d="M198.48,93.28H202v1.84a6,6,0,0,1,1.9-1.55,5,5,0,0,1,2.41-.63v3.47a4.9,4.9,0,0,0-1-.11,4.69,4.69,0,0,0-1.91.45A3.12,3.12,0,0,0,202,97.84v9h-3.56Z" fill="#fff"/><path d="M208.46,90.66a2.1,2.1,0,0,1,0-3A2,2,0,0,1,210,87a2.05,2.05,0,0,1,1.51.62,2,2,0,0,1,.62,1.51,2.11,2.11,0,0,1-3.62,1.5Zm-.27,2.62h3.56V106.8h-3.56Z" fill="#fff"/><path d="M216.71,106.21a3.68,3.68,0,0,1-1-2.75V96.38h-2.24v-3.1h2.24v-3.7h3.59v3.7h2.74v3.1h-2.74v6.13a1.69,1.69,0,0,0,.33,1.07,1.11,1.11,0,0,0,.9.42,2.48,2.48,0,0,0,.73-.11,1.37,1.37,0,0,0,.5-.28l.76,2.69a4.37,4.37,0,0,1-3,.86A3.94,3.94,0,0,1,216.71,106.21Z" fill="#fff"/><path d="M224.66,90.66A2.13,2.13,0,0,1,226.15,87a2.09,2.09,0,0,1,1.52.62,2,2,0,0,1,.61,1.51,2.12,2.12,0,0,1-2.13,2.13A2,2,0,0,1,224.66,90.66Zm-.27,2.62H228V106.8h-3.56Z" fill="#fff"/><path d="M231.26,96.46a6.8,6.8,0,0,1,2.49-2.56,6.9,6.9,0,0,1,3.62-1,6.57,6.57,0,0,1,3.52.94,6.31,6.31,0,0,1,2.4,2.63,8.49,8.49,0,0,1,.85,3.88v.78h-10a3.44,3.44,0,0,0,1.2,2.26,3.91,3.91,0,0,0,2.69.91,5.63,5.63,0,0,0,2-.37,4.6,4.6,0,0,0,1.63-1l1.57,2.3a6.53,6.53,0,0,1-2.46,1.38,9.78,9.78,0,0,1-3.11.49,7.72,7.72,0,0,1-3.7-.88,6.49,6.49,0,0,1-2.59-2.5,7.33,7.33,0,0,1-.93-3.74A7.23,7.23,0,0,1,231.26,96.46Zm3.75.22a3.7,3.7,0,0,0-1,2.08h6.67a3.47,3.47,0,0,0-.91-2.07,3.1,3.1,0,0,0-2.42-.92A3,3,0,0,0,235,96.68Z" fill="#fff"/><path d="M246.85,102.57a7.16,7.16,0,0,0,2.13,1.29,6.73,6.73,0,0,0,2.55.56,3.09,3.09,0,0,0,1.69-.37,1.13,1.13,0,0,0,.58-1,1.07,1.07,0,0,0-.67-1,8.53,8.53,0,0,0-2-.63,18.43,18.43,0,0,1-2.69-.67,4.35,4.35,0,0,1-1.84-1.22,3.26,3.26,0,0,1-.79-2.33,3.72,3.72,0,0,1,.66-2.13,4.57,4.57,0,0,1,1.92-1.56,7.15,7.15,0,0,1,3-.57,8.53,8.53,0,0,1,5.46,1.85l-1.43,2.43a5.23,5.23,0,0,0-1.72-1.12,6.06,6.06,0,0,0-2.29-.44,3.1,3.1,0,0,0-1.55.33,1,1,0,0,0-.57.93,1,1,0,0,0,.63.88,9.55,9.55,0,0,0,1.94.57,17.88,17.88,0,0,1,2.72.71,4.6,4.6,0,0,1,1.9,1.29,3.51,3.51,0,0,1,.81,2.44,3.86,3.86,0,0,1-.68,2.23,4.43,4.43,0,0,1-2,1.56,8,8,0,0,1-3.15.56,10,10,0,0,1-3.37-.56,7.38,7.38,0,0,1-2.68-1.54Z" fill="#fff"/><path d="M260.05,103.3a2.15,2.15,0,0,1,1.59-.67,2.27,2.27,0,0,1,0,4.53,2.29,2.29,0,0,1-2.26-2.26A2.18,2.18,0,0,1,260.05,103.3Z" fill="#fff"/></g></g></svg>