<svg xmlns="http://www.w3.org/2000/svg" viewBox="0 0 300 600"><title>txt3</title><g id="Layer_2" data-name="Layer 2"><g id="Frame_3" data-name="Frame 3" style="isolation:isolate"><g id="Adopt_today_at_PetSmart." data-name="Adopt today at PetSmart."><path d="M32.75,37.58H24.4L23.23,40.8H18.86l7.22-18.68h5L38.26,40.8H33.92Zm-7.28-3.44h6.19l-3.08-8.57Z" fill="#fff"/><path d="M49,39.06a5.43,5.43,0,0,1-1.86,1.56,5.09,5.09,0,0,1-2.31.54,5.77,5.77,0,0,1-3.08-.84,5.56,5.56,0,0,1-2.14-2.44,8.61,8.61,0,0,1-.77-3.81,8.62,8.62,0,0,1,.77-3.78,5.88,5.88,0,0,1,2.12-2.48,5.64,5.64,0,0,1,3.1-.87,5.2,5.2,0,0,1,2.29.53A5.35,5.35,0,0,1,49,29V22.12h3.58V40.8H49Zm0-7.41a3.33,3.33,0,0,0-1.32-1.11,3.85,3.85,0,0,0-1.76-.44,3.1,3.1,0,0,0-2.46,1.1,4.2,4.2,0,0,0-1,2.87,4.13,4.13,0,0,0,1,2.83A3.07,3.07,0,0,0,45.91,38a3.84,3.84,0,0,0,1.76-.43A3.49,3.49,0,0,0,49,36.46Z" fill="#fff"/><path d="M58.39,40.21a6.43,6.43,0,0,1-2.49-2.58,7.78,7.78,0,0,1,0-7.15,6.31,6.31,0,0,1,2.49-2.58,7.28,7.28,0,0,1,3.78-1,7.39,7.39,0,0,1,3.81,1,6.44,6.44,0,0,1,2.49,2.58,7.78,7.78,0,0,1,0,7.15A6.57,6.57,0,0,1,66,40.21a7.38,7.38,0,0,1-3.81.95A7.27,7.27,0,0,1,58.39,40.21Zm6.31-3.35a4.67,4.67,0,0,0,0-5.62,3.1,3.1,0,0,0-2.53-1.14,3.05,3.05,0,0,0-2.52,1.14,4.71,4.71,0,0,0,0,5.62A3.05,3.05,0,0,0,62.17,38,3.1,3.1,0,0,0,64.7,36.86Z" fill="#fff"/><path d="M71.79,46V27.28h3.55V29a5.65,5.65,0,0,1,1.87-1.51,5.16,5.16,0,0,1,2.31-.53,5.56,5.56,0,0,1,5.22,3.28A8.79,8.79,0,0,1,85.51,34a8.87,8.87,0,0,1-.77,3.83,5.7,5.7,0,0,1-2.13,2.45,5.78,5.78,0,0,1-3.09.84,5.24,5.24,0,0,1-2.3-.51,5.53,5.53,0,0,1-1.88-1.56V46ZM80.87,31.2a3.09,3.09,0,0,0-2.47-1.1,3.76,3.76,0,0,0-1.74.45,3.57,3.57,0,0,0-1.32,1.1v4.81a3.59,3.59,0,0,0,1.33,1.09A3.81,3.81,0,0,0,78.4,38a3.06,3.06,0,0,0,2.47-1.1A4.21,4.21,0,0,0,81.81,34,4.2,4.2,0,0,0,80.87,31.2Z" fill="#fff"/><path d="M89.76,40.21a3.68,3.68,0,0,1-1-2.75V30.38H86.54v-3.1h2.24v-3.7h3.59v3.7h2.74v3.1H92.37v6.13a1.69,1.69,0,0,0,.33,1.07,1.11,1.11,0,0,0,.9.42,2.48,2.48,0,0,0,.73-.11,1.37,1.37,0,0,0,.5-.28l.76,2.69a4.39,4.39,0,0,1-3,.86A3.94,3.94,0,0,1,89.76,40.21Z" fill="#fff"/><path d="M106.4,40.21a3.64,3.64,0,0,1-1-2.75V30.38h-2.24v-3.1h2.24v-3.7H109v3.7h2.74v3.1H109v6.13a1.63,1.63,0,0,0,.34,1.07,1.08,1.08,0,0,0,.89.42,2.43,2.43,0,0,0,.73-.11,1.37,1.37,0,0,0,.5-.28l.76,2.69a4.35,4.35,0,0,1-3,.86A3.9,3.9,0,0,1,106.4,40.21Z" fill="#fff"/><path d="M116.36,40.21a6.43,6.43,0,0,1-2.49-2.58,7.78,7.78,0,0,1,0-7.15,6.31,6.31,0,0,1,2.49-2.58,7.28,7.28,0,0,1,3.78-1,7.39,7.39,0,0,1,3.81,1,6.44,6.44,0,0,1,2.49,2.58,7.78,7.78,0,0,1,0,7.15A6.57,6.57,0,0,1,124,40.21a7.38,7.38,0,0,1-3.81.95A7.27,7.27,0,0,1,116.36,40.21Zm6.31-3.35a4.67,4.67,0,0,0,0-5.62,3.1,3.1,0,0,0-2.53-1.14,3.05,3.05,0,0,0-2.52,1.14,4.71,4.71,0,0,0,0,5.62A3.05,3.05,0,0,0,120.14,38,3.1,3.1,0,0,0,122.67,36.86Z" fill="#fff"/><path d="M139.17,39.06a5.43,5.43,0,0,1-1.86,1.56,5.09,5.09,0,0,1-2.31.54,5.77,5.77,0,0,1-3.08-.84,5.56,5.56,0,0,1-2.14-2.44,8.61,8.61,0,0,1-.77-3.81,8.62,8.62,0,0,1,.77-3.78,5.83,5.83,0,0,1,2.13-2.48,5.58,5.58,0,0,1,3.09-.87,5.27,5.27,0,0,1,2.3.53A5.41,5.41,0,0,1,139.17,29V22.12h3.59V40.8h-3.59Zm0-7.41a3.36,3.36,0,0,0-1.31-1.11,3.93,3.93,0,0,0-1.77-.44,3.1,3.1,0,0,0-2.46,1.1,4.2,4.2,0,0,0-.95,2.87,4.12,4.12,0,0,0,.95,2.83,3.07,3.07,0,0,0,2.46,1.1,3.91,3.91,0,0,0,1.77-.43,3.54,3.54,0,0,0,1.31-1.11Z" fill="#fff"/><path d="M155.46,39.06a5.43,5.43,0,0,1-1.86,1.56,5.09,5.09,0,0,1-2.31.54,5.77,5.77,0,0,1-3.08-.84,5.56,5.56,0,0,1-2.14-2.44,8.61,8.61,0,0,1-.77-3.81,8.62,8.62,0,0,1,.77-3.78,5.88,5.88,0,0,1,2.12-2.48,5.64,5.64,0,0,1,3.1-.87,5.2,5.2,0,0,1,2.29.53A5.35,5.35,0,0,1,155.46,29V27.28H159V40.8h-3.58Zm0-7.38a3.33,3.33,0,0,0-1.32-1.11,3.89,3.89,0,0,0-1.76-.44,3.11,3.11,0,0,0-2.46,1.08,4.17,4.17,0,0,0-1,2.86,4.13,4.13,0,0,0,1,2.83,3.07,3.07,0,0,0,2.46,1.1,3.87,3.87,0,0,0,1.76-.43,3.49,3.49,0,0,0,1.32-1.11Z" fill="#fff"/><path d="M163.66,41.7A4.23,4.23,0,0,0,165.45,43a6.26,6.26,0,0,0,2.27.42,3.77,3.77,0,0,0,2.69-.9,3.4,3.4,0,0,0,1-2.58V38.5a6.36,6.36,0,0,1-4.76,2,4.38,4.38,0,0,1-3.28-1.12,4.3,4.3,0,0,1-1.09-3.14v-9h3.56v7.61a2.45,2.45,0,0,0,.64,1.92,2.71,2.71,0,0,0,1.85.57,3.56,3.56,0,0,0,1.76-.44,4.36,4.36,0,0,0,1.32-1.1V27.28h3.56V39.74A6.11,6.11,0,0,1,173,44.57a7.68,7.68,0,0,1-5.25,1.72,8.25,8.25,0,0,1-5.66-2Z" fill="#fff"/><path d="M178.57,37.3a2.25,2.25,0,0,1,3.2,0,2.23,2.23,0,0,1,0,3.19,2.25,2.25,0,0,1-3.2,0,2.23,2.23,0,0,1,0-3.19Z" fill="#fff"/></g></g><g id="rect"><rect width="300" height="600" fill="none"/></g></g></svg>