<svg xmlns="http://www.w3.org/2000/svg" viewBox="0 0 320 50"><title>txt1</title><g id="Layer_2" data-name="Layer 2"><g id="rect"><rect width="320" height="50" fill="none"/><path d="M188.94,18.77a5.34,5.34,0,0,0-3.7,1.72,7.32,7.32,0,0,0-2,5.26,6.57,6.57,0,0,0,3.57,5.54c2,.9,4.73.52,5.88-.84a.47.47,0,0,0,0-.65c-.17-.22-.43-.13-.67,0a5.62,5.62,0,0,1-5-.31c-.86-.52-2.07-1.22-2.18-3.89a5.55,5.55,0,0,1,1.4-4.45A3.61,3.61,0,0,1,189,19.8a1.79,1.79,0,0,1,2,1.42c.09.91-.44,1.15-.9,1.17-.72,0-.72-1-.72-1,0-.27-.09-.42-.36-.39s-.54.29-.61.79a1.92,1.92,0,0,0,.5,1.65,1.88,1.88,0,0,0,1.38.34A2.12,2.12,0,0,0,192,21.32,2.92,2.92,0,0,0,188.94,18.77Z" fill="#fff"/><path d="M195.4,19.83a9.07,9.07,0,0,0-1.14,3.64c-.52,0-.86,0-.9,0a.53.53,0,0,0-.46.48c0,.28.25.39.52.42l.68,0c-.14,1.36-.18,2.51-.43,5.43,0,.29-.15,1-.14,1.32a.73.73,0,0,0,.75.84c.39,0,.59-.37.69-.59.37-.88,1.14-3.26,2.36-3.72.09.19.56,1.63.56,1.63.54,1.35,1.4,1.31,1.89,1.21a.5.5,0,1,0-.2-1c-.13,0-.38-.25-.6-.81l-.15-.57c-.13-.62-.26-1.27-.7-1.54a.76.76,0,0,0-.64-.08,5.21,5.21,0,0,0-2.6,2.41c.16-2.08.2-3.36.22-4.69a4.85,4.85,0,0,0,3.94-3.57,3.64,3.64,0,0,0,.15-1,1.56,1.56,0,0,0-.87-1.54C197.4,17.77,196.19,18.46,195.4,19.83Zm1,.55c.46-.75.84-.95,1.15-.81.14.06.37.52.14,1.29a3.75,3.75,0,0,1-2.11,2.49A8.74,8.74,0,0,1,196.41,20.38Z" fill="#fff"/><path d="M202.29,27.63A5,5,0,0,0,201.06,31a1.38,1.38,0,0,0,.63,1.09c1.13.63,2.93-.42,3.38-1.36.21.29.5,1.05,1.38,1.13.28,0,.68,0,.75-.31a.67.67,0,0,0-.33-.84c-1.14-.37-1.09-2.09-1.09-2.63,0-.16-.33-.5-.46-.59h0a.64.64,0,0,0,0-.23,1.74,1.74,0,0,0-1.12-.64C203.54,26.48,203,26.9,202.29,27.63Zm-.2,2.64a3.15,3.15,0,0,1,.93-2.16c.41-.44.8-.68,1-.65a.45.45,0,0,1,.31.21.49.49,0,0,0,.16.16c-.29,2-.95,2.71-1.47,3a1.22,1.22,0,0,1-.84.15A1.46,1.46,0,0,1,202.09,30.27Z" fill="#fff"/><path d="M209.12,25.1a.49.49,0,0,0-.46.52l-.11,5.27a.6.6,0,0,0,.61.56c.26,0,.61,0,.61-.52,0,0,.31-2.88,1.29-3.68.27-.23.48-.23.54-.18s.17.64.57.69a1,1,0,0,0,.9-.9.92.92,0,0,0-.53-.92c-.69-.28-1.62,0-2.9,1.71,0-1.06,0-2.07,0-2.07A.52.52,0,0,0,209.12,25.1Z" fill="#fff"/><path d="M214.42,26.42a15.9,15.9,0,0,0-.59,4.72.74.74,0,0,0,.92.54.62.62,0,0,0,.5-.75,23.81,23.81,0,0,1,.18-4.51.39.39,0,0,0-.34-.5A.66.66,0,0,0,214.42,26.42Z" fill="#fff"/><path d="M221.16,26.42a13.69,13.69,0,0,1-2.18.13,12.69,12.69,0,0,1,.62-2.84c.09-.26,0-.41-.28-.51a.7.7,0,0,0-.75.42,11.57,11.57,0,0,0-.67,2.92,4.27,4.27,0,0,1-1-.29.54.54,0,0,0-.71.21.45.45,0,0,0,.2.63,2.71,2.71,0,0,0,1.34.5,9.21,9.21,0,0,0,.92,4.55.86.86,0,0,0,1.17.34.77.77,0,0,0,.25-1,7.8,7.8,0,0,1-1-3.8,11.24,11.24,0,0,0,2.17.09c.28,0,.71-.17.67-.67A.65.65,0,0,0,221.16,26.42Z" fill="#fff"/><path d="M224.17,23.26l-.42.38a.68.68,0,0,0,0,.83.74.74,0,0,0,.89,0l.38-.33c.2-.19.1-.71-.09-.92A.55.55,0,0,0,224.17,23.26Z" fill="#fff"/><path d="M215.27,23l-.42.38a.65.65,0,0,0,0,.83.73.73,0,0,0,.89,0l.37-.33c.21-.19.11-.71-.08-.92A.54.54,0,0,0,215.27,23Z" fill="#fff"/><path d="M223.3,26.21a15.8,15.8,0,0,0-.71,5,.65.65,0,0,0,.84.59A.74.74,0,0,0,224,31a25,25,0,0,1,.28-4.8c.07-.27,0-.4-.28-.46A.64.64,0,0,0,223.3,26.21Z" fill="#fff"/><path d="M233.78,26a2.61,2.61,0,0,0-1.67,1.21,1.68,1.68,0,0,0,.84,2.26l.18.14c.53.53.5.77.48,1.11,0,.07,0,.26-.33.5-.6.47-1.23-.1-1.46-.33a.78.78,0,0,0-.92,0,1,1,0,0,0-.17.94c.33.71,2.52,1.17,3.76.21a1.53,1.53,0,0,0,.63-1.21c.06-1-1-1.67-1.28-1.95l-.32-.25c-.42-.29-.78-.57-.42-1.29a.91.91,0,0,1,.71-.47,1.16,1.16,0,0,1,.85.3.45.45,0,0,0,.66,0,.73.73,0,0,0-.12-.88A1.58,1.58,0,0,0,233.78,26Z" fill="#fff"/><path d="M228,25.71a4.22,4.22,0,0,0-2.51,3.42c0,2.85,3.2,3,3.34,3,.42,0,.63-.23.68-.5,0,0,0-.07,0-.1a.51.51,0,0,0-.41-.49s-2.05-.44-2.37-1.48a3.17,3.17,0,0,0,3-1.77,2.16,2.16,0,0,0,.18-.85,1.29,1.29,0,0,0-.38-1A1.54,1.54,0,0,0,228,25.71Zm-1.09,2.34s.25-1.13,1-1.42.59.37.59.37a2,2,0,0,1-1,1.34C226.91,28.59,226.91,28.05,226.91,28.05Z" fill="#fff"/><path d="M235.56,31.44a.55.55,0,0,1,.54.55.54.54,0,0,1-.54.55A.55.55,0,0,1,235,32a.55.55,0,0,1,.55-.55Zm0,.09a.45.45,0,0,0-.44.46.44.44,0,1,0,.88,0,.45.45,0,0,0-.44-.46Zm-.11.78h-.09V31.7l.17,0a.31.31,0,0,1,.19.05.15.15,0,0,1,.06.13.16.16,0,0,1-.12.15h0c.05,0,.09.06.1.15a.4.4,0,0,0,0,.15h-.1a.49.49,0,0,1,0-.16c0-.07-.05-.1-.13-.1h-.07Zm0-.34h.08c.08,0,.14,0,.14-.1s0-.11-.14-.11h-.08Z" fill="#fff"/><path d="M203.48,16.28a5.3,5.3,0,0,1,6,1.84s-1.27-4.28-6-1.84Z" fill="#fff"/><path d="M211.22,16.44v-.15a3,3,0,0,0-1.58,2.3,3.19,3.19,0,0,1,1.83-1.65.75.75,0,0,1-.25-.5Z" fill="#fff"/><path d="M206.12,18.22s0,.61,0,.91c-.16,0-.82,0-1.11-.05,0,.16,0,.33,0,.5.35,0,.71,0,1.06,0,0,.29,0,.55,0,.84-.35,0-.7,0-1.05,0V21c.38,0,.75,0,1.13,0,0,0,0,.9,0,.9-.75,0-1.63-.06-2.47-.13l.06-3.72c.35,0,1.44.16,2.4.18Z" fill="#fff"/><path d="M206.43,18.23v1l.66,0v2.7a8.58,8.58,0,0,0,1.34,0V19.23l.68,0c0-.35,0-.63,0-1a23.4,23.4,0,0,1-2.65,0Z" fill="#fff"/><path d="M224.38,17.64v1.13c.23,0,.49.06.72.08,0,.94,0,1.65,0,2.59.63.07,1.08.15,1.26.18,0-.94,0-1.68,0-2.62,0,0,.67.1.69.11V18a22.06,22.06,0,0,0-2.67-.31Z" fill="#fff"/><path d="M201.79,19.45h-.12c0-.25,0-.51,0-.76h.11a.39.39,0,0,1,.39.41c0,.31-.2.37-.39.35Zm.29-1.79-1.59-.29v3.9c.41.08.78.15,1.18.19V20.33l.43.05c.69.07,1.39-.2,1.4-1.33s-.66-1.29-1.4-1.39Z" fill="#fff"/><path d="M215.37,21.28l.54-1.36c0,.44,0,.84.07,1.29.45-.05.8-.08,1.25-.1-.12-1.19-.21-2.46-.33-3.65l-1.15.11c-.21.56-.43,1.24-.64,1.8-.21-.52-.42-1.13-.62-1.64-.39.05-1.08.17-1.15.17-.13,1.21-.28,2.55-.42,3.76l1.28-.2c0-.45.07-.93.1-1.38l.52,1.29.55-.09Z" fill="#fff"/><path d="M222.44,19.24h-.12v-.75h.12a.37.37,0,0,1,.38.4c0,.31-.2.37-.39.36Zm1.11.8c.34-.15.58-.48.59-1.14a1.39,1.39,0,0,0-1.39-1.46c-.53,0-1.07-.07-1.6-.08,0,1.25,0,2.4,0,3.65.4,0,.84,0,1.19.07,0-.35,0-.61,0-1l.64,1.05c.49,0,1,.11,1.49.18-.31-.46-.59-.85-.89-1.3Z" fill="#fff"/><path d="M218.88,19.8l.25-.95c.1.31.19.62.29.93l-.54,0Zm.87-2.47c-.47,0-.86,0-1.26,0-.33,1.21-.72,2.51-1,3.73l1.09,0c0-.13.07-.28.11-.41h.55l.49,0c0,.05.06.18.12.39.37,0,.73,0,1.09,0-.39-1.29-.79-2.52-1.15-3.69Z" fill="#fff"/><path d="M209.51,21.57a3.3,3.3,0,0,0,1.47.37,1.57,1.57,0,0,0,1.73-1.43,1.08,1.08,0,0,0-1-1.11l-.32-.07c-.11,0-.28,0-.28-.19s.19-.21.31-.21a2.13,2.13,0,0,1,.85.18c.12-.32.24-.63.35-.94a2.73,2.73,0,0,0-1.21-.29,1.57,1.57,0,0,0-1.7,1.44,1.06,1.06,0,0,0,1,1.05l.28.05c.12,0,.31,0,.3.22s-.22.19-.36.19a1.66,1.66,0,0,1-.95-.31c-.15.32-.32.73-.46,1.05Z" fill="#fff"/><path d="M212.52,15.22a.94.94,0,1,0,.93,1A.94.94,0,0,0,212.52,15.22Zm.34.34a1.12,1.12,0,0,0-1,.59s0,0,0,0a.57.57,0,0,1,0-.26.64.64,0,0,1,.78-.46.53.53,0,0,1,.22.12Z" fill="#fff"/></g><g id="_1_in_5_pets_are_adopted_through_PetSmart_Charities." data-name="1 in 5 pets are adopted through PetSmart Charities."><path d="M13.5,14.7l-1.44,1.46L11,15.06l2.73-2.74h1.61V21H13.5Z" fill="#fff"/><path d="M20.47,13.5a1,1,0,0,1-.3-.7,1,1,0,0,1,1-1,1,1,0,0,1,1,1,1,1,0,0,1-.29.7,1,1,0,0,1-1.39,0Zm-.13,1.21H22V21H20.34Z" fill="#fff"/><path d="M27.79,17.19a1.2,1.2,0,0,0-.29-.9,1.25,1.25,0,0,0-.86-.27,1.68,1.68,0,0,0-.83.21,2.2,2.2,0,0,0-.6.53V21H23.56V14.71h1.65v.82a2.9,2.9,0,0,1,2.19-1,1.82,1.82,0,0,1,2,2V21H27.79Z" fill="#fff"/><path d="M35.23,18.59a2.9,2.9,0,0,0,1,.7,3.21,3.21,0,0,0,1.28.25,1.78,1.78,0,0,0,1.17-.37,1.26,1.26,0,0,0,0-1.9,1.61,1.61,0,0,0-1.14-.37,2.55,2.55,0,0,0-1.82.72l-1.28-.35V12.32h5.94V13.9H36.29v2.17a3.14,3.14,0,0,1,.87-.52,2.81,2.81,0,0,1,1.08-.21,2.89,2.89,0,0,1,1.38.35,2.64,2.64,0,0,1,1,1A2.8,2.8,0,0,1,41,18.15a2.87,2.87,0,0,1-.43,1.59,2.8,2.8,0,0,1-1.21,1,4.39,4.39,0,0,1-1.83.37,4.27,4.27,0,0,1-3.33-1.31Z" fill="#fff"/><path d="M45.61,23.36V14.71h1.65v.79a2.51,2.51,0,0,1,.86-.7,2.47,2.47,0,0,1,1.07-.25,2.68,2.68,0,0,1,1.44.39,2.59,2.59,0,0,1,1,1.13A4.05,4.05,0,0,1,52,17.84a4.07,4.07,0,0,1-.36,1.78,2.56,2.56,0,0,1-1,1.14,2.68,2.68,0,0,1-1.44.39,2.39,2.39,0,0,1-1.06-.24,2.47,2.47,0,0,1-.87-.72v3.17Zm4.21-6.83A1.43,1.43,0,0,0,48.67,16a1.74,1.74,0,0,0-.8.21,1.65,1.65,0,0,0-.61.51V19a1.61,1.61,0,0,0,.62.51,1.7,1.7,0,0,0,.79.21,1.43,1.43,0,0,0,1.15-.51,2,2,0,0,0,.44-1.33A1.94,1.94,0,0,0,49.82,16.53Z" fill="#fff"/><path d="M53.24,16.19A3.06,3.06,0,0,1,54.39,15a3.14,3.14,0,0,1,1.67-.45A3.1,3.1,0,0,1,57.7,15a2.86,2.86,0,0,1,1.11,1.22,4,4,0,0,1,.4,1.8v.36H54.55a1.6,1.6,0,0,0,.55,1.05,1.83,1.83,0,0,0,1.25.41,2.74,2.74,0,0,0,.92-.16,2.22,2.22,0,0,0,.75-.46l.73,1.07a3.14,3.14,0,0,1-1.14.64,4.62,4.62,0,0,1-1.44.23,3.6,3.6,0,0,1-1.71-.41,3,3,0,0,1-1.2-1.16,3.41,3.41,0,0,1-.44-1.74A3.29,3.29,0,0,1,53.24,16.19Zm1.74.1a1.66,1.66,0,0,0-.46,1h3.09a1.66,1.66,0,0,0-.42-1,1.46,1.46,0,0,0-1.13-.43A1.36,1.36,0,0,0,55,16.29Z" fill="#fff"/><path d="M61.17,20.7a1.7,1.7,0,0,1-.46-1.27V16.15h-1V14.71h1V13h1.67v1.71h1.27v1.44H62.38V19a.77.77,0,0,0,.15.49.5.5,0,0,0,.42.2,1.14,1.14,0,0,0,.33-.05.66.66,0,0,0,.24-.13l.35,1.24a2,2,0,0,1-1.38.41A1.79,1.79,0,0,1,61.17,20.7Z" fill="#fff"/><path d="M65.11,19a3.28,3.28,0,0,0,1,.59,2.9,2.9,0,0,0,1.18.26,1.41,1.41,0,0,0,.78-.17.53.53,0,0,0,.27-.47.51.51,0,0,0-.31-.46,4.09,4.09,0,0,0-1-.28,9,9,0,0,1-1.25-.32,2,2,0,0,1-.85-.56,1.51,1.51,0,0,1-.37-1.08,1.68,1.68,0,0,1,.31-1,2.09,2.09,0,0,1,.89-.72,3.25,3.25,0,0,1,1.37-.27,3.93,3.93,0,0,1,2.53.86L69,16.54a2.26,2.26,0,0,0-.8-.52,2.66,2.66,0,0,0-1-.21,1.33,1.33,0,0,0-.72.16.47.47,0,0,0-.27.43.43.43,0,0,0,.29.4,4.3,4.3,0,0,0,.9.27,7.79,7.79,0,0,1,1.26.33,2.1,2.1,0,0,1,.88.6,1.56,1.56,0,0,1,.38,1.13,1.72,1.72,0,0,1-.32,1,2.1,2.1,0,0,1-.93.73,3.81,3.81,0,0,1-1.46.26,4.83,4.83,0,0,1-1.57-.26,3.45,3.45,0,0,1-1.23-.72Z" fill="#fff"/><path d="M78.76,20.17a2.57,2.57,0,0,1-.86.72,2.32,2.32,0,0,1-1.07.26,2.58,2.58,0,0,1-2.42-1.53,4,4,0,0,1-.36-1.76,4,4,0,0,1,.36-1.75,2.71,2.71,0,0,1,1-1.15,2.61,2.61,0,0,1,1.44-.41,2.43,2.43,0,0,1,1.06.25,2.38,2.38,0,0,1,.87.71v-.8h1.66V21H78.76Zm0-3.42a1.58,1.58,0,0,0-.61-.52,1.87,1.87,0,0,0-.82-.2,1.48,1.48,0,0,0-1.14.5,2.2,2.2,0,0,0,0,2.64,1.45,1.45,0,0,0,1.14.51,1.87,1.87,0,0,0,.82-.2,1.58,1.58,0,0,0,.61-.52Z" fill="#fff"/><path d="M82,14.71h1.65v.86a2.62,2.62,0,0,1,.88-.72,2.32,2.32,0,0,1,1.12-.3v1.61a2.49,2.49,0,0,0-.46-.05,2.17,2.17,0,0,0-.88.21,1.49,1.49,0,0,0-.66.51V21H82Z" fill="#fff"/><path d="M86.58,16.19A3.06,3.06,0,0,1,87.73,15a3.18,3.18,0,0,1,1.68-.45A3.06,3.06,0,0,1,91,15a2.86,2.86,0,0,1,1.11,1.22,3.85,3.85,0,0,1,.4,1.8v.36H87.89a1.61,1.61,0,0,0,.56,1.05,1.8,1.8,0,0,0,1.24.41,2.7,2.7,0,0,0,.92-.16,2.37,2.37,0,0,0,.76-.46l.72,1.07a3.14,3.14,0,0,1-1.14.64,4.62,4.62,0,0,1-1.44.23,3.6,3.6,0,0,1-1.71-.41,3,3,0,0,1-1.2-1.16,3.41,3.41,0,0,1-.44-1.74A3.29,3.29,0,0,1,86.58,16.19Zm1.74.1a1.73,1.73,0,0,0-.46,1H91a1.54,1.54,0,0,0-.42-1,1.45,1.45,0,0,0-1.12-.43A1.38,1.38,0,0,0,88.32,16.29Z" fill="#fff"/><path d="M101.37,20.17a2.57,2.57,0,0,1-.86.72,2.32,2.32,0,0,1-1.07.26A2.69,2.69,0,0,1,98,20.76a2.64,2.64,0,0,1-1-1.14,4,4,0,0,1-.36-1.76A4,4,0,0,1,97,16.11,2.78,2.78,0,0,1,98,15a2.61,2.61,0,0,1,1.44-.41,2.43,2.43,0,0,1,1.06.25,2.38,2.38,0,0,1,.87.71v-.8H103V21h-1.66Zm0-3.42a1.58,1.58,0,0,0-.61-.52A1.86,1.86,0,0,0,100,16a1.48,1.48,0,0,0-1.15.5,2.2,2.2,0,0,0,0,2.64,1.46,1.46,0,0,0,1.15.51,1.86,1.86,0,0,0,.81-.2,1.58,1.58,0,0,0,.61-.52Z" fill="#fff"/><path d="M109,20.17a2.51,2.51,0,0,1-.87.72,2.32,2.32,0,0,1-1.07.26,2.66,2.66,0,0,1-1.42-.39,2.6,2.6,0,0,1-1-1.14,4.58,4.58,0,0,1,0-3.51,2.73,2.73,0,0,1,1-1.15,2.6,2.6,0,0,1,1.43-.41,2.47,2.47,0,0,1,1.07.25,2.38,2.38,0,0,1,.87.71V12.32h1.66V21H109Zm0-3.43a1.58,1.58,0,0,0-.61-.52,1.87,1.87,0,0,0-.82-.2,1.43,1.43,0,0,0-1.14.51,1.93,1.93,0,0,0-.44,1.33,1.91,1.91,0,0,0,.44,1.31,1.43,1.43,0,0,0,1.14.51,1.87,1.87,0,0,0,.82-.2A1.58,1.58,0,0,0,109,19Z" fill="#fff"/><path d="M113.39,20.7a3,3,0,0,1-1.16-1.19,3.61,3.61,0,0,1-.4-1.67,3.53,3.53,0,0,1,.4-1.65A3,3,0,0,1,113.39,15a3.33,3.33,0,0,1,1.75-.45,3.4,3.4,0,0,1,1.77.45,3,3,0,0,1,1.15,1.19,3.41,3.41,0,0,1,.4,1.65,3.49,3.49,0,0,1-.4,1.67,3,3,0,0,1-1.15,1.19,3.4,3.4,0,0,1-1.77.45A3.33,3.33,0,0,1,113.39,20.7Zm2.93-1.55a2,2,0,0,0,.43-1.31,2,2,0,0,0-.43-1.29,1.46,1.46,0,0,0-1.18-.53,1.44,1.44,0,0,0-1.17.53,2,2,0,0,0-.43,1.29,2,2,0,0,0,.43,1.31,1.44,1.44,0,0,0,1.17.53A1.46,1.46,0,0,0,116.32,19.15Z" fill="#fff"/><path d="M119.66,23.36V14.71h1.64v.79a2.54,2.54,0,0,1,.87-.7,2.44,2.44,0,0,1,1.07-.25,2.59,2.59,0,0,1,2.42,1.52,4.05,4.05,0,0,1,.36,1.77,4.07,4.07,0,0,1-.36,1.78,2.58,2.58,0,0,1-2.42,1.53,2.43,2.43,0,0,1-1.07-.24,2.56,2.56,0,0,1-.87-.72v3.17Zm4.21-6.83a1.45,1.45,0,0,0-1.15-.51,1.86,1.86,0,0,0-1.42.72V19a1.69,1.69,0,0,0,.62.51,1.74,1.74,0,0,0,.8.21,1.45,1.45,0,0,0,1.15-.51,2,2,0,0,0,.43-1.33A1.93,1.93,0,0,0,123.87,16.53Z" fill="#fff"/><path d="M128,20.7a1.7,1.7,0,0,1-.45-1.27V16.15h-1V14.71h1V13h1.66v1.71h1.27v1.44h-1.27V19a.77.77,0,0,0,.15.49.53.53,0,0,0,.42.2,1.27,1.27,0,0,0,.34-.05.7.7,0,0,0,.23-.13l.35,1.24a2,2,0,0,1-1.37.41A1.81,1.81,0,0,1,128,20.7Z" fill="#fff"/><path d="M131.57,16.19A3.08,3.08,0,0,1,132.73,15a3.14,3.14,0,0,1,1.67-.45A3.1,3.1,0,0,1,136,15a3,3,0,0,1,1.11,1.22,4,4,0,0,1,.39,1.8v.36h-4.66a1.65,1.65,0,0,0,.56,1.05,1.83,1.83,0,0,0,1.25.41,2.65,2.65,0,0,0,.91-.16,2.27,2.27,0,0,0,.76-.46l.73,1.07a3.23,3.23,0,0,1-1.14.64,4.62,4.62,0,0,1-1.44.23,3.61,3.61,0,0,1-1.72-.41,3,3,0,0,1-1.2-1.16,3.63,3.63,0,0,1,0-3.39Zm1.74.1a1.65,1.65,0,0,0-.45,1H136a1.62,1.62,0,0,0-.43-1,1.42,1.42,0,0,0-1.12-.43A1.38,1.38,0,0,0,133.31,16.29Z" fill="#fff"/><path d="M143.05,20.17a2.57,2.57,0,0,1-.86.72,2.32,2.32,0,0,1-1.07.26,2.69,2.69,0,0,1-1.43-.39,2.64,2.64,0,0,1-1-1.14,4,4,0,0,1-.36-1.76,4,4,0,0,1,.36-1.75,2.73,2.73,0,0,1,1-1.15,2.57,2.57,0,0,1,1.43-.41,2.51,2.51,0,0,1,1.07.25,2.43,2.43,0,0,1,.86.71V12.32h1.67V21h-1.67Zm0-3.43a1.51,1.51,0,0,0-.61-.52,1.83,1.83,0,0,0-.81-.2,1.46,1.46,0,0,0-1.15.51,2.2,2.2,0,0,0,0,2.64,1.46,1.46,0,0,0,1.15.51,1.83,1.83,0,0,0,.81-.2,1.51,1.51,0,0,0,.61-.52Z" fill="#fff"/><path d="M12.46,36A1.72,1.72,0,0,1,12,34.72V31.44H11V30h1V28.29h1.66V30h1.27v1.44H13.67v2.84a.75.75,0,0,0,.16.5.49.49,0,0,0,.41.19.93.93,0,0,0,.34,0,.56.56,0,0,0,.23-.13L15.16,36a2,2,0,0,1-1.37.4A1.87,1.87,0,0,1,12.46,36Z" fill="#fff"/><path d="M20.32,32.46a1.14,1.14,0,0,0-.3-.89,1.26,1.26,0,0,0-.86-.26,1.65,1.65,0,0,0-.82.22,2,2,0,0,0-.61.52v4.22H16.08V27.62h1.65v3.2a2.73,2.73,0,0,1,.91-.69,2.9,2.9,0,0,1,1.29-.28,2,2,0,0,1,1.53.52A2,2,0,0,1,22,31.82v4.45H20.32Z" fill="#fff"/><path d="M23.53,30h1.65v.86a2.64,2.64,0,0,1,.88-.72,2.36,2.36,0,0,1,1.11-.29v1.61a1.73,1.73,0,0,0-.45-.05,2.28,2.28,0,0,0-.88.2,1.49,1.49,0,0,0-.66.51v4.15H23.53Z" fill="#fff"/><path d="M29.28,36a3,3,0,0,1-1.16-1.2,3.62,3.62,0,0,1,0-3.31,3,3,0,0,1,1.16-1.2A3.42,3.42,0,0,1,31,29.85a3.46,3.46,0,0,1,1.76.44A3,3,0,0,1,34,31.49a3.62,3.62,0,0,1,0,3.31A3,3,0,0,1,32.79,36a3.46,3.46,0,0,1-1.76.44A3.42,3.42,0,0,1,29.28,36Zm2.92-1.55a2.16,2.16,0,0,0,0-2.61,1.56,1.56,0,0,0-2.34,0,2.2,2.2,0,0,0,0,2.61,1.58,1.58,0,0,0,2.34,0Z" fill="#fff"/><path d="M39.75,35.48a2.87,2.87,0,0,1-.93.68,2.77,2.77,0,0,1-1.28.28,1.8,1.8,0,0,1-2-2V30h1.65v3.82a1.15,1.15,0,0,0,.3.89,1.22,1.22,0,0,0,.85.26,1.63,1.63,0,0,0,.82-.2,1.93,1.93,0,0,0,.61-.51V30H41.4v6.27H39.75Z" fill="#fff"/><path d="M43.65,36.69a2.5,2.5,0,0,0,2,.78,2,2,0,0,0,1.21-.37,1.41,1.41,0,0,0,.51-1.22v-.63a2.78,2.78,0,0,1-.86.72,2.2,2.2,0,0,1-1.07.26A2.71,2.71,0,0,1,44,35.86a2.51,2.51,0,0,1-1-1.09,4.43,4.43,0,0,1,0-3.45,2.54,2.54,0,0,1,2.41-1.47,2.43,2.43,0,0,1,1.07.24,2.78,2.78,0,0,1,.86.72V30H49v5.84a2.55,2.55,0,0,1-1,2.3,4.15,4.15,0,0,1-2.39.68,4.41,4.41,0,0,1-1.47-.22,3.54,3.54,0,0,1-1.23-.72ZM47.33,32a1.39,1.39,0,0,0-.6-.51,1.69,1.69,0,0,0-.81-.21,1.5,1.5,0,0,0-1.15.47,2.06,2.06,0,0,0,0,2.52,1.5,1.5,0,0,0,1.15.47,1.75,1.75,0,0,0,.81-.21,1.61,1.61,0,0,0,.6-.51Z" fill="#fff"/><path d="M54.8,32.46a1.14,1.14,0,0,0-.3-.89,1.31,1.31,0,0,0-.87-.26,1.68,1.68,0,0,0-.82.22,2.08,2.08,0,0,0-.61.52v4.22H50.55V27.62H52.2v3.2a2.78,2.78,0,0,1,.92-.69,2.84,2.84,0,0,1,1.29-.28,2,2,0,0,1,1.52.52,1.94,1.94,0,0,1,.52,1.45v4.45H54.8Z" fill="#fff"/><path d="M61.44,27.62h4a3.12,3.12,0,0,1,1.57.37,2.49,2.49,0,0,1,1,1,2.88,2.88,0,0,1,.34,1.41,3,3,0,0,1-.34,1.39,2.6,2.6,0,0,1-1,1,3.12,3.12,0,0,1-1.57.37h-2.2v3.1H61.44Zm4.71,1.91a1.28,1.28,0,0,0-.9-.33h-2v2.39h2a1.29,1.29,0,0,0,.91-.33,1.12,1.12,0,0,0,.36-.87A1.09,1.09,0,0,0,66.15,29.53Z" fill="#fff"/><path d="M69.35,31.48a3.2,3.2,0,0,1,1.15-1.19,3.26,3.26,0,0,1,1.68-.44,3.05,3.05,0,0,1,1.63.43,2.92,2.92,0,0,1,1.11,1.22,3.91,3.91,0,0,1,.4,1.8v.36H70.66a1.61,1.61,0,0,0,.56,1.05,1.81,1.81,0,0,0,1.24.42,2.72,2.72,0,0,0,.92-.17,2.1,2.1,0,0,0,.76-.45l.72,1.06a3,3,0,0,1-1.14.64,4.34,4.34,0,0,1-1.44.23A3.6,3.6,0,0,1,70.57,36a3,3,0,0,1-1.2-1.16,3.56,3.56,0,0,1,0-3.39Zm1.74.1a1.73,1.73,0,0,0-.46,1h3.09a1.5,1.5,0,0,0-.42-1,1.65,1.65,0,0,0-2.21,0Z" fill="#fff"/><path d="M77.28,36a1.72,1.72,0,0,1-.45-1.28V31.44h-1V30h1V28.29h1.66V30h1.27v1.44H78.49v2.84a.8.8,0,0,0,.15.5.52.52,0,0,0,.42.19,1,1,0,0,0,.34,0,.56.56,0,0,0,.23-.13L80,36a2,2,0,0,1-1.38.4A1.83,1.83,0,0,1,77.28,36Z" fill="#fff"/><path d="M81.48,33.66a3.66,3.66,0,0,0,1.2.85,3.74,3.74,0,0,0,1.55.32,1.83,1.83,0,0,0,1.11-.29.84.84,0,0,0,.39-.69.72.72,0,0,0-.43-.67A5.7,5.7,0,0,0,84,32.74a12.44,12.44,0,0,1-1.65-.47,2.76,2.76,0,0,1-1.11-.76,2.06,2.06,0,0,1-.47-1.42,2.31,2.31,0,0,1,.4-1.33,2.7,2.7,0,0,1,1.15-.94A4.08,4.08,0,0,1,84,27.47a4.83,4.83,0,0,1,3.38,1.21l-1,1.35a3.46,3.46,0,0,0-1.16-.71,3.84,3.84,0,0,0-1.32-.24,1.59,1.59,0,0,0-.94.24.78.78,0,0,0-.33.65.63.63,0,0,0,.4.6,8.39,8.39,0,0,0,1.33.41,11.13,11.13,0,0,1,1.64.47,2.94,2.94,0,0,1,1.13.79,2.08,2.08,0,0,1,.47,1.42,2.53,2.53,0,0,1-.89,2,3.78,3.78,0,0,1-2.57.77,5,5,0,0,1-3.68-1.37Z" fill="#fff"/><path d="M96.59,32.31a1.1,1.1,0,0,0-.22-.73.88.88,0,0,0-.71-.27,1.35,1.35,0,0,0-.75.23,1.9,1.9,0,0,0-.55.5v4.23H92.7v-4a1.1,1.1,0,0,0-.23-.73.86.86,0,0,0-.7-.27,1.34,1.34,0,0,0-.74.23,1.85,1.85,0,0,0-.56.51v4.22H88.82V30h1.65v.82a2.32,2.32,0,0,1,.82-.65,2.46,2.46,0,0,1,1.23-.32,2,2,0,0,1,1.12.3,1.61,1.61,0,0,1,.62.84,2.69,2.69,0,0,1,2.15-1.14,1.9,1.9,0,0,1,1.37.47,1.92,1.92,0,0,1,.48,1.42v4.53H96.59Z" fill="#fff"/><path d="M104.17,35.47a2.57,2.57,0,0,1-.86.72,2.31,2.31,0,0,1-1.07.25,2.59,2.59,0,0,1-2.42-1.52,4.48,4.48,0,0,1,0-3.52,2.71,2.71,0,0,1,1-1.15,2.6,2.6,0,0,1,1.44-.4,2.45,2.45,0,0,1,1.06.24,2.51,2.51,0,0,1,.87.72V30h1.66v6.27h-1.66Zm0-3.43a1.56,1.56,0,0,0-.61-.51,1.87,1.87,0,0,0-.82-.2,1.48,1.48,0,0,0-1.14.5,1.93,1.93,0,0,0-.44,1.32,2,2,0,0,0,.44,1.32,1.45,1.45,0,0,0,1.14.5,1.74,1.74,0,0,0,.82-.2,1.48,1.48,0,0,0,.61-.51Z" fill="#fff"/><path d="M107.39,30H109v.86a2.75,2.75,0,0,1,.88-.72,2.43,2.43,0,0,1,1.12-.29v1.61a1.85,1.85,0,0,0-.46-.05,2.32,2.32,0,0,0-.88.2,1.49,1.49,0,0,0-.66.51v4.15h-1.65Z" fill="#fff"/><path d="M113.08,36a1.72,1.72,0,0,1-.45-1.28V31.44h-1V30h1V28.29h1.66V30h1.27v1.44h-1.27v2.84a.75.75,0,0,0,.16.5.49.49,0,0,0,.41.19.93.93,0,0,0,.34,0,.56.56,0,0,0,.23-.13l.35,1.25a2,2,0,0,1-1.37.4A1.87,1.87,0,0,1,113.08,36Z" fill="#fff"/><path d="M121.88,35.88a4.2,4.2,0,0,1-1.64-1.6,4.8,4.8,0,0,1,0-4.65A4.25,4.25,0,0,1,121.88,28a4.72,4.72,0,0,1,2.3-.57,4.06,4.06,0,0,1,2.26.59,4.55,4.55,0,0,1,1.43,1.53l-1.59.78a2.22,2.22,0,0,0-.85-.9,2.25,2.25,0,0,0-1.25-.36,2.54,2.54,0,0,0-1.35.37,2.59,2.59,0,0,0-1,1,3.06,3.06,0,0,0-.35,1.46,3,3,0,0,0,.35,1.45,2.56,2.56,0,0,0,1,1,2.63,2.63,0,0,0,1.35.37,2.33,2.33,0,0,0,2.1-1.26l1.59.76a4,4,0,0,1-3.69,2.13A4.83,4.83,0,0,1,121.88,35.88Z" fill="#fff"/><path d="M133.07,32.46a1.14,1.14,0,0,0-.3-.89,1.31,1.31,0,0,0-.87-.26,1.65,1.65,0,0,0-.82.22,2.08,2.08,0,0,0-.61.52v4.22h-1.65V27.62h1.65v3.2a2.78,2.78,0,0,1,.92-.69,2.84,2.84,0,0,1,1.29-.28,2,2,0,0,1,1.52.52,2,2,0,0,1,.51,1.45v4.45h-1.64Z" fill="#fff"/><path d="M140.64,35.47a2.51,2.51,0,0,1-.87.72,2.31,2.31,0,0,1-1.07.25,2.66,2.66,0,0,1-1.42-.39,2.63,2.63,0,0,1-1-1.13,4.6,4.6,0,0,1,0-3.52,2.73,2.73,0,0,1,1-1.15,2.59,2.59,0,0,1,1.43-.4,2.46,2.46,0,0,1,1.07.24,2.51,2.51,0,0,1,.87.72V30h1.66v6.27h-1.66Zm0-3.43a1.56,1.56,0,0,0-.61-.51,1.87,1.87,0,0,0-.82-.2,1.45,1.45,0,0,0-1.14.5,1.88,1.88,0,0,0-.44,1.32,1.92,1.92,0,0,0,.44,1.32,1.42,1.42,0,0,0,1.14.5,1.74,1.74,0,0,0,.82-.2,1.48,1.48,0,0,0,.61-.51Z" fill="#fff"/><path d="M143.86,30h1.65v.86a2.64,2.64,0,0,1,.88-.72,2.36,2.36,0,0,1,1.11-.29v1.61a1.73,1.73,0,0,0-.45-.05,2.28,2.28,0,0,0-.88.2,1.49,1.49,0,0,0-.66.51v4.15h-1.65Z" fill="#fff"/><path d="M148.54,28.79a.92.92,0,0,1-.29-.69,1,1,0,1,1,2,0,1,1,0,0,1-.29.69,1,1,0,0,1-1.39,0ZM148.41,30h1.65v6.27h-1.65Z" fill="#fff"/><path d="M152.42,36a1.72,1.72,0,0,1-.45-1.28V31.44h-1V30h1V28.29h1.66V30h1.27v1.44h-1.27v2.84a.8.8,0,0,0,.15.5.52.52,0,0,0,.42.19,1,1,0,0,0,.34,0,.56.56,0,0,0,.23-.13l.35,1.25a2,2,0,0,1-1.38.4A1.84,1.84,0,0,1,152.42,36Z" fill="#fff"/><path d="M156.15,28.79a1,1,0,0,1-.29-.69,1,1,0,0,1,1-1,1,1,0,0,1,.7.29,1,1,0,0,1,0,1.39.93.93,0,0,1-.7.29A.94.94,0,0,1,156.15,28.79ZM156,30h1.65v6.27H156Z" fill="#fff"/><path d="M159.27,31.48a3.2,3.2,0,0,1,1.15-1.19,3.26,3.26,0,0,1,1.68-.44,3.05,3.05,0,0,1,1.63.43,2.92,2.92,0,0,1,1.11,1.22,3.91,3.91,0,0,1,.4,1.8v.36h-4.66a1.61,1.61,0,0,0,.56,1.05,1.81,1.81,0,0,0,1.24.42,2.72,2.72,0,0,0,.92-.17,2.1,2.1,0,0,0,.76-.45l.72,1.06a3,3,0,0,1-1.14.64,4.34,4.34,0,0,1-1.44.23,3.6,3.6,0,0,1-1.71-.41,3,3,0,0,1-1.2-1.16,3.56,3.56,0,0,1,0-3.39Zm1.74.1a1.73,1.73,0,0,0-.46,1h3.09a1.55,1.55,0,0,0-.42-1,1.65,1.65,0,0,0-2.21,0Z" fill="#fff"/><path d="M166.55,34.31a3.62,3.62,0,0,0,2.17.86,1.48,1.48,0,0,0,.78-.17.53.53,0,0,0,.27-.47.49.49,0,0,0-.31-.46,4,4,0,0,0-1-.29,9.1,9.1,0,0,1-1.25-.31,2,2,0,0,1-.85-.57,1.54,1.54,0,0,1-.37-1.08,1.81,1.81,0,0,1,.31-1,2.09,2.09,0,0,1,.89-.72,3.42,3.42,0,0,1,1.37-.26,3.88,3.88,0,0,1,2.53.86l-.66,1.12a2.41,2.41,0,0,0-.8-.52,2.84,2.84,0,0,0-1.05-.2,1.43,1.43,0,0,0-.72.15.49.49,0,0,0-.27.43.44.44,0,0,0,.29.41,5,5,0,0,0,.9.27,7.62,7.62,0,0,1,1.26.32,2.13,2.13,0,0,1,.89.6,1.64,1.64,0,0,1,.37,1.13,1.75,1.75,0,0,1-.32,1,2,2,0,0,1-.93.72,3.81,3.81,0,0,1-1.46.26,4.73,4.73,0,0,1-1.56-.26,3.48,3.48,0,0,1-1.24-.71Z" fill="#fff"/><path d="M172.72,34.65a1,1,0,0,1,.74-.31,1.05,1.05,0,0,1,0,2.1,1,1,0,0,1-.74-.31,1,1,0,0,1,0-1.48Z" fill="#fff"/></g></g></svg>