<svg xmlns="http://www.w3.org/2000/svg" viewBox="0 0 320 50"><title>txt3</title><g id="Layer_2" data-name="Layer 2"><g id="Frame_3" data-name="Frame 3" style="isolation:isolate"><g id="rect"><rect width="320" height="50" fill="none"/></g><g id="Adopt_today." data-name="Adopt today."><path d="M17.24,26.48H13.37L12.83,28h-2l3.35-8.66h2.31L19.8,28h-2Zm-3.37-1.59h2.86l-1.42-4Z" fill="#fff"/><path d="M24.83,27.17a2.6,2.6,0,0,1-.87.72,2.32,2.32,0,0,1-1.07.26,2.7,2.7,0,0,1-1.43-.4,2.56,2.56,0,0,1-1-1.13,4.46,4.46,0,0,1,0-3.51,2.67,2.67,0,0,1,1-1.15,2.57,2.57,0,0,1,1.43-.41A2.37,2.37,0,0,1,24,21.8a2.55,2.55,0,0,1,.87.71V19.32h1.66V28H24.83Zm0-3.43a1.66,1.66,0,0,0-.61-.52,1.9,1.9,0,0,0-.82-.2,1.43,1.43,0,0,0-1.14.51,2.16,2.16,0,0,0,0,2.64,1.43,1.43,0,0,0,1.14.51,1.9,1.9,0,0,0,.82-.2,1.66,1.66,0,0,0,.61-.52Z" fill="#fff"/><path d="M29.24,27.7a3,3,0,0,1-1.16-1.19,3.49,3.49,0,0,1-.4-1.67,3.41,3.41,0,0,1,.4-1.65A3,3,0,0,1,29.24,22,3.42,3.42,0,0,1,31,21.55a3.46,3.46,0,0,1,1.76.44,3,3,0,0,1,1.16,1.2,3.41,3.41,0,0,1,.4,1.65,3.49,3.49,0,0,1-.4,1.67,3,3,0,0,1-1.16,1.19,3.36,3.36,0,0,1-1.76.45A3.33,3.33,0,0,1,29.24,27.7Zm2.92-1.55a2,2,0,0,0,.44-1.31,2,2,0,0,0-.44-1.29,1.56,1.56,0,0,0-2.34,0,2,2,0,0,0-.43,1.29,2,2,0,0,0,.43,1.31,1.56,1.56,0,0,0,2.34,0Z" fill="#fff"/><path d="M35.5,30.36V21.71h1.65v.79a2.51,2.51,0,0,1,.86-.7,2.35,2.35,0,0,1,1.08-.25,2.59,2.59,0,0,1,2.42,1.52,4.68,4.68,0,0,1,0,3.55,2.56,2.56,0,0,1-1,1.13,2.68,2.68,0,0,1-1.43.4A2.4,2.4,0,0,1,38,27.91a2.5,2.5,0,0,1-.87-.73v3.18Zm4.21-6.83A1.43,1.43,0,0,0,38.57,23a1.75,1.75,0,0,0-.81.21,1.65,1.65,0,0,0-.61.51V26a1.69,1.69,0,0,0,.62.51,1.74,1.74,0,0,0,.8.21,1.43,1.43,0,0,0,1.14-.51,2,2,0,0,0,.44-1.33A1.94,1.94,0,0,0,39.71,23.53Z" fill="#fff"/><path d="M43.89,27.7a1.7,1.7,0,0,1-.45-1.27V23.15h-1V21.71h1V20H45.1v1.71h1.27v1.44H45.1V26a.77.77,0,0,0,.15.49.52.52,0,0,0,.42.2,1.14,1.14,0,0,0,.33-.05.66.66,0,0,0,.24-.13l.35,1.24a2,2,0,0,1-1.38.41A1.79,1.79,0,0,1,43.89,27.7Z" fill="#fff"/><path d="M51.6,27.7a1.7,1.7,0,0,1-.46-1.27V23.15h-1V21.71h1V20h1.67v1.71h1.27v1.44H52.81V26a.77.77,0,0,0,.15.49.5.5,0,0,0,.42.2,1.14,1.14,0,0,0,.33-.05A.66.66,0,0,0,54,26.5l.35,1.24a2,2,0,0,1-1.38.41A1.79,1.79,0,0,1,51.6,27.7Z" fill="#fff"/><path d="M56.27,27.7a2.93,2.93,0,0,1-1.15-1.19,3.5,3.5,0,0,1-.41-1.67,3.42,3.42,0,0,1,.41-1.65A3,3,0,0,1,56.27,22a3.74,3.74,0,0,1,3.52,0,3.08,3.08,0,0,1,1.15,1.2,3.42,3.42,0,0,1,.41,1.65,3.5,3.5,0,0,1-.41,1.67,3,3,0,0,1-1.15,1.19,3.67,3.67,0,0,1-3.52,0Zm2.93-1.55a2,2,0,0,0,.43-1.31,2,2,0,0,0-.43-1.29,1.57,1.57,0,0,0-2.35,0,2,2,0,0,0-.42,1.29,2,2,0,0,0,.42,1.31,1.57,1.57,0,0,0,2.35,0Z" fill="#fff"/><path d="M66.9,27.17a2.57,2.57,0,0,1-.86.72,2.35,2.35,0,0,1-1.07.26,2.68,2.68,0,0,1-1.43-.4,2.44,2.44,0,0,1-1-1.13,4.46,4.46,0,0,1,0-3.51A2.6,2.6,0,0,1,65,21.55,2.33,2.33,0,0,1,66,21.8a2.38,2.38,0,0,1,.87.71V19.32h1.66V28H66.9Zm0-3.43a1.58,1.58,0,0,0-.61-.52,1.87,1.87,0,0,0-.82-.2,1.43,1.43,0,0,0-1.14.51,2.2,2.2,0,0,0,0,2.64,1.43,1.43,0,0,0,1.14.51,1.87,1.87,0,0,0,.82-.2A1.58,1.58,0,0,0,66.9,26Z" fill="#fff"/><path d="M74.5,27.17a2.57,2.57,0,0,1-.86.72,2.32,2.32,0,0,1-1.07.26,2.7,2.7,0,0,1-1.43-.4,2.56,2.56,0,0,1-1-1.13,4.46,4.46,0,0,1,0-3.51,2.67,2.67,0,0,1,1-1.15,2.57,2.57,0,0,1,1.43-.41,2.37,2.37,0,0,1,1.07.25,2.43,2.43,0,0,1,.86.71v-.8h1.67V28H74.5Zm0-3.42a1.51,1.51,0,0,0-.61-.52,1.83,1.83,0,0,0-.81-.2,1.45,1.45,0,0,0-1.14.5,2.16,2.16,0,0,0,0,2.64,1.43,1.43,0,0,0,1.14.51,1.83,1.83,0,0,0,.81-.2A1.51,1.51,0,0,0,74.5,26Z" fill="#fff"/><path d="M78.36,28.39a2,2,0,0,0,.83.59,2.91,2.91,0,0,0,1,.19,1.73,1.73,0,0,0,1.25-.42,1.55,1.55,0,0,0,.44-1.19v-.65a2.93,2.93,0,0,1-2.21.95,1.8,1.8,0,0,1-2-2V21.71h1.65v3.53a1.15,1.15,0,0,0,.3.89,1.27,1.27,0,0,0,.85.26,1.74,1.74,0,0,0,.82-.2,2,2,0,0,0,.61-.51v-4h1.65v5.77a2.84,2.84,0,0,1-.9,2.24,3.57,3.57,0,0,1-2.44.8,3.85,3.85,0,0,1-2.62-.93Z" fill="#fff"/><path d="M85.33,26.35a1.05,1.05,0,0,1,.74-.31,1,1,0,0,1,.74.31,1,1,0,0,1,.31.74,1,1,0,0,1-.31.74,1,1,0,0,1-.74.32,1,1,0,0,1-.74-.32,1,1,0,0,1-.31-.74A1,1,0,0,1,85.33,26.35Z" fill="#fff"/></g></g></g></svg>