<svg xmlns="http://www.w3.org/2000/svg" viewBox="0 0 728 90"><title>overlay</title><g id="Layer_2" data-name="Layer 2"><g id="rect"><rect width="728" height="90" fill="none"/></g><g id="button"><g id="Rounded_Rectangle_1" data-name="Rounded Rectangle 1"><rect x="622.53" y="30.91" width="87.97" height="30.38" rx="4" fill="#fa0005"/></g><g id="Learn_More" data-name="Learn More"><path d="M632,41.26h2v7.55h3.93v1.74H632Z" fill="#fff"/><path d="M639.08,45.41a3.38,3.38,0,0,1,3-1.75,3.32,3.32,0,0,1,1.75.46,3.15,3.15,0,0,1,1.19,1.31,4.28,4.28,0,0,1,.43,1.93v.39h-5a1.7,1.7,0,0,0,.59,1.12,2,2,0,0,0,1.34.45,2.83,2.83,0,0,0,1-.18,2.43,2.43,0,0,0,.82-.48L645,49.8a3.65,3.65,0,0,1-1.23.69,4.91,4.91,0,0,1-1.54.24,3.88,3.88,0,0,1-1.84-.44,3.21,3.21,0,0,1-1.29-1.24,3.67,3.67,0,0,1-.47-1.86A3.54,3.54,0,0,1,639.08,45.41Zm1.87.1a1.8,1.8,0,0,0-.49,1h3.31a1.69,1.69,0,0,0-.45-1,1.52,1.52,0,0,0-1.2-.46A1.49,1.49,0,0,0,641,45.51Z" fill="#fff"/><path d="M651.4,49.69a2.74,2.74,0,0,1-.93.77,2.53,2.53,0,0,1-1.15.27,2.89,2.89,0,0,1-1.53-.42,2.81,2.81,0,0,1-1.07-1.21,4.89,4.89,0,0,1,0-3.78,3,3,0,0,1,1.06-1.23,2.79,2.79,0,0,1,1.54-.43,2.51,2.51,0,0,1,1.14.26,2.58,2.58,0,0,1,.94.77v-.87h1.78v6.73H651.4Zm0-3.68a1.65,1.65,0,0,0-.66-.55,2,2,0,0,0-.87-.22,1.56,1.56,0,0,0-1.23.54,2.37,2.37,0,0,0,0,2.83,1.57,1.57,0,0,0,1.23.55,2,2,0,0,0,.87-.22,1.74,1.74,0,0,0,.66-.55Z" fill="#fff"/><path d="M654.85,43.82h1.77v.92a3,3,0,0,1,.94-.77,2.5,2.5,0,0,1,1.2-.31v1.72a2.81,2.81,0,0,0-.49-.05,2.29,2.29,0,0,0-.94.22,1.59,1.59,0,0,0-.71.54v4.46h-1.77Z" fill="#fff"/><path d="M664.28,46.48a1.28,1.28,0,0,0-.32-1,1.35,1.35,0,0,0-.92-.29,1.79,1.79,0,0,0-.89.23,2.22,2.22,0,0,0-.65.56v4.53h-1.76V43.82h1.76v.88a3.16,3.16,0,0,1,1-.74,3.11,3.11,0,0,1,1.38-.3A2,2,0,0,1,666,45.8v4.75h-1.76Z" fill="#fff"/><path d="M679.48,43.86l-2.61,6.69H676l-2.62-6.69v6.69h-2V41.26h2.77l2.25,5.79,2.26-5.79h2.78v9.29h-2Z" fill="#fff"/><path d="M684.56,50.26A3.27,3.27,0,0,1,683.32,49a3.9,3.9,0,0,1,0-3.56,3.24,3.24,0,0,1,1.24-1.28,3.6,3.6,0,0,1,1.88-.47,3.63,3.63,0,0,1,1.89.47,3.24,3.24,0,0,1,1.24,1.28,3.9,3.9,0,0,1,0,3.56,3.27,3.27,0,0,1-1.24,1.29,3.73,3.73,0,0,1-1.89.47A3.69,3.69,0,0,1,684.56,50.26Zm3.14-1.67a2.32,2.32,0,0,0,0-2.8,1.56,1.56,0,0,0-1.26-.56,1.53,1.53,0,0,0-1.25.56,2.36,2.36,0,0,0,0,2.8,1.51,1.51,0,0,0,1.25.57A1.54,1.54,0,0,0,687.7,48.59Z" fill="#fff"/><path d="M691.28,43.82h1.77v.92a3.06,3.06,0,0,1,1-.77,2.43,2.43,0,0,1,1.19-.31v1.72a2.7,2.7,0,0,0-.48-.05,2.3,2.3,0,0,0-1,.22,1.59,1.59,0,0,0-.71.54v4.46h-1.77Z" fill="#fff"/><path d="M696.21,45.41a3.38,3.38,0,0,1,3-1.75,3.33,3.33,0,0,1,1.76.46,3.15,3.15,0,0,1,1.19,1.31,4.28,4.28,0,0,1,.42,1.93v.39h-5a1.7,1.7,0,0,0,.59,1.12,2,2,0,0,0,1.34.45,2.83,2.83,0,0,0,1-.18,2.43,2.43,0,0,0,.82-.48l.78,1.14a3.65,3.65,0,0,1-1.23.69,5,5,0,0,1-1.54.24,3.88,3.88,0,0,1-1.84-.44,3.21,3.21,0,0,1-1.29-1.24,3.67,3.67,0,0,1-.47-1.86A3.54,3.54,0,0,1,696.21,45.41Zm1.87.1a1.8,1.8,0,0,0-.49,1h3.31a1.74,1.74,0,0,0-.45-1,1.54,1.54,0,0,0-1.21-.46A1.48,1.48,0,0,0,698.08,45.51Z" fill="#fff"/></g></g><g id="logo"><path d="M485.28,30.83a13,13,0,0,0-9,4.21,17.89,17.89,0,0,0-4.94,12.9c.26,5.74,3.79,11.3,8.76,13.58,4.82,2.22,11.58,1.28,14.41-2.05a1.15,1.15,0,0,0,.1-1.59c-.42-.53-1.05-.33-1.64,0-2.82,1.59-8.5,1.49-12.2-.76-2.1-1.29-5.07-3-5.33-9.53-.2-5.23.93-8.2,3.44-10.92s4.95-3.27,6.5-3.33c3.11-.11,4.79,1.83,5,3.51.22,2.23-1.06,2.79-2.19,2.84-1.78.09-1.78-2.33-1.78-2.36-.07-.67-.21-1-.89-1s-1.33.72-1.48,2c0,.29-.37,2.75,1.23,4a4.6,4.6,0,0,0,3.38.82c3-.44,4.5-2.83,4.3-6.1S489.6,30.68,485.28,30.83Z" fill="#fff"/><path d="M501.14,33.43c-1.16,2-2.12,4.14-2.81,8.93-1.28.1-2.09.08-2.2.1A1.28,1.28,0,0,0,495,43.64c-.08.67.61,1,1.28,1,0,0,.31,0,1.66-.1-.33,3.33-.43,6.15-1,13.32-.07.71-.37,2.48-.36,3.23a1.78,1.78,0,0,0,1.84,2c1,0,1.46-.9,1.69-1.43.91-2.15,2.81-8,5.79-9.12.22.46,1.39,4,1.39,4,1.32,3.32,3.42,3.21,4.63,3a1.24,1.24,0,0,0,1-1.45,1.23,1.23,0,0,0-1.45-1c-.32.06-.93-.6-1.48-2l-.35-1.4c-.32-1.52-.66-3.1-1.74-3.76a1.93,1.93,0,0,0-1.56-.21c-2.59.7-4.8,3.42-6.37,5.92.39-5.11.49-8.24.54-11.49a12,12,0,0,0,9.66-8.77,9,9,0,0,0,.35-2.35,3.79,3.79,0,0,0-2.11-3.77C506,28.38,503.08,30.06,501.14,33.43Zm2.47,1.35c1.14-1.84,2.05-2.32,2.82-2,.35.15.9,1.29.35,3.17a9.26,9.26,0,0,1-5.17,6.1C502.23,38.33,502.66,36.43,503.61,34.78Z" fill="#fff"/><path d="M518,52.56a12.21,12.21,0,0,0-3,8.14,3.34,3.34,0,0,0,1.53,2.67c2.77,1.53,7.19-1,8.3-3.33.52.71,1.23,2.56,3.38,2.77.68.07,1.66-.12,1.85-.78a1.62,1.62,0,0,0-.82-2c-2.78-.9-2.66-5.12-2.66-6.46,0-.39-.82-1.21-1.14-1.44,0,0,0,0,0,0a1.25,1.25,0,0,0-.14-.56,4.05,4.05,0,0,0-2.73-1.57C521.1,49.74,519.67,50.77,518,52.56Zm-.5,6.47a7.79,7.79,0,0,1,2.27-5.29c1-1.1,2-1.68,2.59-1.61a1.14,1.14,0,0,1,.76.54,1.12,1.12,0,0,0,.38.37c-.7,4.81-2.33,6.66-3.59,7.36a2.92,2.92,0,0,1-2.06.36A3.52,3.52,0,0,1,517.54,59Z" fill="#fff"/><path d="M534.78,46.36a1.19,1.19,0,0,0-1.13,1.28l-.26,12.91a1.47,1.47,0,0,0,1.49,1.38c.64-.08,1.49-.1,1.49-1.28,0-.07.76-7.07,3.17-9,.67-.56,1.18-.56,1.33-.46s.42,1.59,1.39,1.69a2.31,2.31,0,0,0,2.2-2.2,2.26,2.26,0,0,0-1.28-2.25c-1.69-.68-4-.06-7.12,4.18-.08-2.6.05-5.06.05-5.06A1.27,1.27,0,0,0,534.78,46.36Z" fill="#fff"/><path d="M547.78,49.58c-.07.32-2,7.46-1.44,11.58a1.8,1.8,0,0,0,2.25,1.34,1.55,1.55,0,0,0,1.23-1.85c-.51-3.71.41-11,.42-11.07a.94.94,0,0,0-.82-1.23A1.64,1.64,0,0,0,547.78,49.58Z" fill="#fff"/><path d="M564.31,49.58a34.87,34.87,0,0,1-5.35.33,31.31,31.31,0,0,1,1.51-7c.24-.64,0-1-.67-1.26a1.71,1.71,0,0,0-1.84,1,28.38,28.38,0,0,0-1.65,7.17,11.85,11.85,0,0,1-2.56-.72,1.33,1.33,0,0,0-1.74.52,1.09,1.09,0,0,0,.51,1.53c.1.06.66.72,3.28,1.23a22.54,22.54,0,0,0,2.26,11.17,2.11,2.11,0,0,0,2.87.82,1.88,1.88,0,0,0,.61-2.46,19.24,19.24,0,0,1-2.46-9.32,26.91,26.91,0,0,0,5.33.2c.68-.06,1.74-.41,1.64-1.64A1.61,1.61,0,0,0,564.31,49.58Z" fill="#fff"/><path d="M571.7,41.84l-1,.92a1.65,1.65,0,0,0,0,2.05,1.82,1.82,0,0,0,2.18.1l.93-.82c.5-.45.24-1.75-.21-2.25A1.36,1.36,0,0,0,571.7,41.84Z" fill="#fff"/><path d="M549.86,41.15l-1,.92a1.64,1.64,0,0,0,0,2,1.82,1.82,0,0,0,2.18.1l.92-.82c.5-.45.25-1.75-.21-2.25A1.36,1.36,0,0,0,549.86,41.15Z" fill="#fff"/><path d="M569.57,49.07c-.07.29-2.16,6.74-1.74,12.2a1.57,1.57,0,0,0,2,1.43,1.81,1.81,0,0,0,1.33-1.84,60.85,60.85,0,0,1,.68-11.78c.16-.66,0-1-.68-1.14A1.56,1.56,0,0,0,569.57,49.07Z" fill="#fff"/><path d="M595.26,48.46a6.36,6.36,0,0,0-4.1,3c-1.54,3.07,1,4.85,2.05,5.55l.46.34c1.29,1.29,1.23,1.89,1.18,2.72a1.77,1.77,0,0,1-.82,1.23c-1.48,1.14-3-.25-3.59-.82a1.92,1.92,0,0,0-2.24,0,2.51,2.51,0,0,0-.43,2.3c.82,1.75,6.18,2.87,9.23.52a3.71,3.71,0,0,0,1.54-3c.15-2.35-2.46-4.08-3.13-4.76l-.8-.62c-1-.71-1.9-1.41-1-3.16a2.27,2.27,0,0,1,1.75-1.17,3,3,0,0,1,2.09.74,1.11,1.11,0,0,0,1.63.06,1.83,1.83,0,0,0-.31-2.15A3.83,3.83,0,0,0,595.26,48.46Z" fill="#fff"/><path d="M581.08,47.84c-2.58,1-6.15,4.61-6.15,8.4,0,7,7.86,7.32,8.2,7.28,1-.1,1.52-.57,1.65-1.24a.9.9,0,0,0,0-.23,1.24,1.24,0,0,0-1-1.21s-5-1.06-5.81-3.63c3.48-.17,6.19-1.73,7.27-4.34a5.37,5.37,0,0,0,.43-2.07,3.14,3.14,0,0,0-.92-2.55A3.74,3.74,0,0,0,581.08,47.84Zm-2.67,5.74s.62-2.77,2.36-3.48,1.44.92,1.44.92a4.85,4.85,0,0,1-2.46,3.28C578.41,54.91,578.41,53.58,578.41,53.58Z" fill="#fff"/><path d="M599.62,61.9a1.35,1.35,0,1,1-1.34,1.35,1.34,1.34,0,0,1,1.34-1.35Zm0,.21a1.14,1.14,0,0,0,0,2.28,1.1,1.1,0,0,0,1.08-1.14,1.11,1.11,0,0,0-1.08-1.14ZM599.36,64h-.24v-1.5a2.63,2.63,0,0,1,.43,0,.77.77,0,0,1,.47.11.39.39,0,0,1-.16.67v0c.13,0,.22.14.25.36a1.16,1.16,0,0,0,.1.37H600a1,1,0,0,1-.11-.38.27.27,0,0,0-.32-.26h-.17Zm0-.83h.18c.19,0,.36-.07.36-.26s-.09-.26-.36-.26h-.18Z" fill="#fff"/><path d="M521,24.72c9.81-3,14.77,4.52,14.77,4.52S532.62,18.75,521,24.72Z" fill="#fff"/><path d="M539.93,25.11s0-.32,0-.36a7.31,7.31,0,0,0-3.87,5.63,7.77,7.77,0,0,1,4.47-4,1.89,1.89,0,0,1-.6-1.23Z" fill="#fff"/><path d="M527.41,29.49s0,1.48,0,2.23c-.37,0-2-.1-2.72-.13,0,.4,0,.81,0,1.21.86,0,1.75.12,2.61.11,0,.72,0,1.34,0,2.06-.86,0-1.71-.07-2.57-.08,0,.43,0,.87,0,1.31.92,0,1.85.09,2.77.08,0,0,0,2.19,0,2.19-1.83,0-4-.14-6-.31l.14-9.13c.86.1,3.54.39,5.87.46Z" fill="#fff"/><path d="M528.19,29.51l0,2.38c.86,0,1.63.05,1.63.05v6.61a21.34,21.34,0,0,0,3.29,0L533,32s1.45-.06,1.68-.08c0-.88,0-1.56,0-2.44a56.34,56.34,0,0,1-6.5.08Z" fill="#fff"/><path d="M572.22,28.06c0,1,0,1.82,0,2.76.56,0,1.19.15,1.75.19,0,2.31-.06,4.05-.06,6.36,1.55.18,2.65.36,3.08.44,0-2.3.09-4.12.09-6.43,0,0,1.65.26,1.67.28,0-.94,0-1.89,0-2.84a50.27,50.27,0,0,0-6.53-.76Z" fill="#fff"/><path d="M516.8,32.51l-.29,0c0-.62,0-1.25,0-1.87l.28,0a1,1,0,0,1,1,1c0,.77-.48.93-1,.88Zm.72-4.42-3.91-.7,0,9.57c1,.19,1.92.36,2.89.46V34.66l1,.12c1.7.16,3.4-.48,3.43-3.25,0-2.46-1.62-3.17-3.43-3.44Z" fill="#fff"/><path d="M550.11,37c.44-1.14.88-2.2,1.32-3.34.06,1.09.11,2.08.18,3.17,1.09-.12,2-.19,3.06-.25-.28-2.91-.53-6-.81-8.93l-2.81.25c-.53,1.37-1.06,3-1.58,4.42-.51-1.28-1-2.77-1.53-4-1,.14-2.64.44-2.81.44-.33,3-.7,6.25-1,9.22l3.12-.5c.09-1.1.17-2.28.26-3.39l1.26,3.16,1.36-.21Z" fill="#fff"/><path d="M567.45,32l-.29,0,0-1.85.28,0a.93.93,0,0,1,.95,1,.79.79,0,0,1-1,.87Zm2.71,2c.84-.37,1.44-1.18,1.46-2.79a3.38,3.38,0,0,0-3.41-3.58c-1.31-.11-2.62-.17-3.93-.21,0,3.07-.06,5.89-.1,9,1,0,2.06.1,2.91.17,0-.86,0-1.5,0-2.37l1.58,2.57c1.2.11,2.43.26,3.64.44-.75-1.13-1.44-2.09-2.19-3.19Z" fill="#fff"/><path d="M558.72,33.34l.61-2.32c.24.76.47,1.53.7,2.29a12,12,0,0,1-1.31,0Zm2.14-6.05c-1.16,0-2.12,0-3.11.07-.8,3-1.74,6.17-2.55,9.16.89,0,1.8-.08,2.69-.08.08-.31.17-.68.26-1l1.35,0s1.2,0,1.2,0,.15.42.3.95c.89,0,1.78,0,2.67,0-1-3.16-1.93-6.19-2.81-9.06Z" fill="#fff"/><path d="M535.73,37.7a8.06,8.06,0,0,0,3.62.91c2,0,4.18-1.22,4.23-3.51,0-1.63-1-2.41-2.46-2.73l-.77-.18c-.26-.06-.69-.11-.68-.47s.45-.5.75-.51a5.67,5.67,0,0,1,2.09.44l.87-2.3a6.9,6.9,0,0,0-3-.71c-2.06,0-4.13,1.25-4.17,3.53a2.59,2.59,0,0,0,2.42,2.57l.68.13c.32.06.76.1.76.53s-.54.49-.88.49a4.13,4.13,0,0,1-2.35-.78c-.35.8-.77,1.79-1.13,2.59Z" fill="#fff"/><path d="M543.13,22.11a2.3,2.3,0,1,0,2.27,2.33A2.29,2.29,0,0,0,543.13,22.11ZM544,23a2.76,2.76,0,0,0-2.47,1.44s0,0,0,0a1.76,1.76,0,0,1,.06-.64,1.57,1.57,0,0,1,1.91-1.12A1.53,1.53,0,0,1,544,23Z" fill="#fff"/></g></g></svg>