<svg xmlns="http://www.w3.org/2000/svg" viewBox="0 0 728 90"><title>txt1</title><g id="Layer_2" data-name="Layer 2"><g id="rect"><rect width="728" height="90" fill="none"/></g><g id="_1_in_5_pets_are_adopted_through_PetSmart_Charities." data-name="1 in 5 pets are adopted through PetSmart Charities."><path d="M166.89,27.15l-2.55,2.6-1.87-1.95,4.83-4.86h2.86V38.29h-3.27Z" fill="#fff"/><path d="M179.23,25a1.75,1.75,0,0,1,1.23-3,1.75,1.75,0,0,1,1.24,3,1.75,1.75,0,0,1-2.47,0ZM179,27.18h2.92V38.29H179Z" fill="#fff"/><path d="M192.15,31.57a2.07,2.07,0,0,0-.53-1.59,2.2,2.2,0,0,0-1.52-.48,2.89,2.89,0,0,0-1.46.38,3.46,3.46,0,0,0-1.07.93v7.48h-2.92V27.18h2.92v1.45a4.75,4.75,0,0,1,1.61-1.22,5,5,0,0,1,2.28-.51,3.23,3.23,0,0,1,3.61,3.54v7.85h-2.92Z" fill="#fff"/><path d="M205.32,34.05a5.43,5.43,0,0,0,1.83,1.25,5.88,5.88,0,0,0,2.27.43,3.09,3.09,0,0,0,2.08-.66,2.09,2.09,0,0,0,.77-1.65,2.14,2.14,0,0,0-.74-1.71,3,3,0,0,0-2-.65,4.53,4.53,0,0,0-3.22,1.27L204,31.71V22.94h10.54v2.81h-7.34v3.84a5.23,5.23,0,0,1,1.54-.93,5.21,5.21,0,0,1,4.35.25,4.65,4.65,0,0,1,1.8,1.75,4.9,4.9,0,0,1,.68,2.62,5.13,5.13,0,0,1-.76,2.82,4.93,4.93,0,0,1-2.15,1.84,8.63,8.63,0,0,1-9.14-1.67Z" fill="#fff"/><path d="M223.72,42.52V27.18h2.93v1.4a4.32,4.32,0,0,1,3.42-1.68,4.72,4.72,0,0,1,2.54.69,4.61,4.61,0,0,1,1.75,2,7.16,7.16,0,0,1,.63,3.13,7.28,7.28,0,0,1-.63,3.15,4.61,4.61,0,0,1-1.75,2,4.72,4.72,0,0,1-2.54.69,4.19,4.19,0,0,1-3.42-1.7v5.64Zm7.47-12.12a2.56,2.56,0,0,0-2-.9,3,3,0,0,0-1.42.37,2.89,2.89,0,0,0-1.08.9v3.95a2.85,2.85,0,0,0,1.09.9,3.16,3.16,0,0,0,1.41.37,2.56,2.56,0,0,0,2-.9,3.53,3.53,0,0,0,.77-2.36A3.48,3.48,0,0,0,231.19,30.4Z" fill="#fff"/><path d="M237.17,29.79a5.61,5.61,0,0,1,2.05-2.11,5.67,5.67,0,0,1,3-.78,5.49,5.49,0,0,1,2.9.77,5.35,5.35,0,0,1,2,2.16,7,7,0,0,1,.7,3.19v.64h-8.26a2.84,2.84,0,0,0,1,1.86,3.26,3.26,0,0,0,2.21.74,4.64,4.64,0,0,0,1.62-.3,3.81,3.81,0,0,0,1.35-.8L246.94,37a5.5,5.5,0,0,1-2,1.14,8,8,0,0,1-2.55.4,6.4,6.4,0,0,1-3-.72,5.38,5.38,0,0,1-2.13-2,6.07,6.07,0,0,1-.77-3.08A6,6,0,0,1,237.17,29.79Zm3.08.18a3,3,0,0,0-.8,1.71h5.47a2.82,2.82,0,0,0-.75-1.7,2.54,2.54,0,0,0-2-.76A2.5,2.5,0,0,0,240.25,30Z" fill="#fff"/><path d="M251.16,37.8a3,3,0,0,1-.8-2.26V29.73h-1.84V27.18h1.84v-3h2.94v3h2.25v2.55H253.3v5a1.33,1.33,0,0,0,.28.88.88.88,0,0,0,.73.35,1.64,1.64,0,0,0,.6-.1.94.94,0,0,0,.41-.23l.62,2.21a3.53,3.53,0,0,1-2.43.71A3.25,3.25,0,0,1,251.16,37.8Z" fill="#fff"/><path d="M258.08,34.81a6,6,0,0,0,1.75,1.06,5.42,5.42,0,0,0,2.09.46,2.65,2.65,0,0,0,1.4-.3,1,1,0,0,0,.47-.84.89.89,0,0,0-.55-.81,6.78,6.78,0,0,0-1.68-.51,16.49,16.49,0,0,1-2.21-.55,3.64,3.64,0,0,1-1.52-1,2.73,2.73,0,0,1-.64-1.92,3.09,3.09,0,0,1,.54-1.75,3.67,3.67,0,0,1,1.57-1.28,5.93,5.93,0,0,1,2.44-.47,7,7,0,0,1,4.49,1.52l-1.18,2a4.11,4.11,0,0,0-1.41-.92,4.78,4.78,0,0,0-1.88-.37,2.44,2.44,0,0,0-1.27.28.82.82,0,0,0-.47.76.77.77,0,0,0,.51.72,8,8,0,0,0,1.6.47,14.49,14.49,0,0,1,2.23.58A3.94,3.94,0,0,1,265.93,33a2.9,2.9,0,0,1,.66,2,3.09,3.09,0,0,1-.56,1.83,3.63,3.63,0,0,1-1.66,1.28,6.54,6.54,0,0,1-2.58.46,8.26,8.26,0,0,1-2.77-.46,6,6,0,0,1-2.2-1.26Z" fill="#fff"/><path d="M282.28,36.86a4.56,4.56,0,0,1-1.53,1.28,4.11,4.11,0,0,1-1.9.44,4.76,4.76,0,0,1-2.53-.69,4.66,4.66,0,0,1-1.76-2,7.21,7.21,0,0,1-.63-3.14,7.18,7.18,0,0,1,.63-3.1,4.79,4.79,0,0,1,1.75-2,4.57,4.57,0,0,1,2.54-.72,4.34,4.34,0,0,1,3.43,1.7V27.18h2.94V38.29h-2.94Zm0-6.07a2.8,2.8,0,0,0-1.08-.91,3.2,3.2,0,0,0-1.45-.36,2.6,2.6,0,0,0-2,.89,3.41,3.41,0,0,0-.78,2.34,3.44,3.44,0,0,0,.78,2.34,2.58,2.58,0,0,0,2,.9,3.2,3.2,0,0,0,1.45-.36,2.8,2.8,0,0,0,1.08-.91Z" fill="#fff"/><path d="M287.92,27.18h2.92v1.51a4.94,4.94,0,0,1,1.56-1.27,4.07,4.07,0,0,1,2-.52v2.85a3.86,3.86,0,0,0-.81-.09A3.77,3.77,0,0,0,292,30a2.67,2.67,0,0,0-1.17.9v7.36h-2.92Z" fill="#fff"/><path d="M296,29.79a5.61,5.61,0,0,1,5-2.89,5.51,5.51,0,0,1,2.9.77,5.33,5.33,0,0,1,2,2.16,7,7,0,0,1,.7,3.19v.64h-8.25a2.84,2.84,0,0,0,1,1.86,3.23,3.23,0,0,0,2.2.74,4.64,4.64,0,0,0,1.62-.3,3.72,3.72,0,0,0,1.35-.8L305.77,37a5.54,5.54,0,0,1-2,1.14,8,8,0,0,1-2.55.4,6.34,6.34,0,0,1-3-.72,5.26,5.26,0,0,1-2.13-2,6.42,6.42,0,0,1,0-6Zm3.09.18a3,3,0,0,0-.81,1.71h5.47A2.81,2.81,0,0,0,303,30a2.57,2.57,0,0,0-2-.76A2.49,2.49,0,0,0,299.08,30Z" fill="#fff"/><path d="M322.21,36.86a4.56,4.56,0,0,1-1.53,1.28,4.1,4.1,0,0,1-1.89.44,4.73,4.73,0,0,1-2.53-.69,4.59,4.59,0,0,1-1.76-2,7.07,7.07,0,0,1-.64-3.14,7,7,0,0,1,.64-3.1,4.77,4.77,0,0,1,1.74-2,4.6,4.6,0,0,1,2.55-.72,4.29,4.29,0,0,1,1.88.44,4.33,4.33,0,0,1,1.54,1.26V27.18h3V38.29h-3Zm0-6.07a2.66,2.66,0,0,0-1.08-.91,3.17,3.17,0,0,0-1.45-.36,2.57,2.57,0,0,0-2,.89,3.41,3.41,0,0,0-.78,2.34,3.44,3.44,0,0,0,.78,2.34,2.54,2.54,0,0,0,2,.9,3.17,3.17,0,0,0,1.45-.36,2.66,2.66,0,0,0,1.08-.91Z" fill="#fff"/><path d="M335.62,36.86a4.56,4.56,0,0,1-1.53,1.28,4.1,4.1,0,0,1-1.89.44,4.73,4.73,0,0,1-2.53-.69,4.59,4.59,0,0,1-1.76-2,7.07,7.07,0,0,1-.64-3.14,7,7,0,0,1,.64-3.1,4.77,4.77,0,0,1,1.74-2,4.6,4.6,0,0,1,2.55-.72,4.29,4.29,0,0,1,1.88.44,4.33,4.33,0,0,1,1.54,1.26V22.94h2.95V38.29h-2.95Zm0-6.09a2.66,2.66,0,0,0-1.08-.91,3.17,3.17,0,0,0-1.45-.36,2.54,2.54,0,0,0-2,.9,3.92,3.92,0,0,0,0,4.69,2.54,2.54,0,0,0,2,.9,3.17,3.17,0,0,0,1.45-.36,2.66,2.66,0,0,0,1.08-.91Z" fill="#fff"/><path d="M343.37,37.8a5.36,5.36,0,0,1-2.05-2.12,6.44,6.44,0,0,1,0-5.88,5.42,5.42,0,0,1,2.05-2.12,6.61,6.61,0,0,1,6.23,0,5.35,5.35,0,0,1,2,2.12,6.44,6.44,0,0,1,0,5.88,5.29,5.29,0,0,1-2,2.12,6.61,6.61,0,0,1-6.23,0Zm5.19-2.75a3.85,3.85,0,0,0,0-4.62,2.57,2.57,0,0,0-2.08-.93,2.51,2.51,0,0,0-2.07.93,3.89,3.89,0,0,0,0,4.62,2.52,2.52,0,0,0,2.07.94A2.58,2.58,0,0,0,348.56,35.05Z" fill="#fff"/><path d="M354.41,42.52V27.18h2.92v1.4a4.44,4.44,0,0,1,1.53-1.24,4.24,4.24,0,0,1,1.9-.44,4.56,4.56,0,0,1,4.29,2.7,7.16,7.16,0,0,1,.63,3.13,7.28,7.28,0,0,1-.63,3.15,4.56,4.56,0,0,1-4.29,2.7,4.19,4.19,0,0,1-3.43-1.7v5.64Zm7.46-12.12a2.54,2.54,0,0,0-2-.9,3,3,0,0,0-1.43.37,2.89,2.89,0,0,0-1.08.9v3.95a2.93,2.93,0,0,0,1.09.9,3.2,3.2,0,0,0,1.42.37,2.54,2.54,0,0,0,2-.9,3.48,3.48,0,0,0,.77-2.36A3.43,3.43,0,0,0,361.87,30.4Z" fill="#fff"/><path d="M369.2,37.8a3,3,0,0,1-.8-2.26V29.73h-1.84V27.18h1.84v-3h2.94v3h2.26v2.55h-2.26v5a1.33,1.33,0,0,0,.28.88.89.89,0,0,0,.73.35,1.64,1.64,0,0,0,.6-.1,1,1,0,0,0,.42-.23l.62,2.21a3.57,3.57,0,0,1-2.44.71A3.25,3.25,0,0,1,369.2,37.8Z" fill="#fff"/><path d="M375.39,29.79a5.61,5.61,0,0,1,5-2.89,5.45,5.45,0,0,1,2.89.77,5.28,5.28,0,0,1,2,2.16A7,7,0,0,1,386,33v.64h-8.25a2.84,2.84,0,0,0,1,1.86,3.23,3.23,0,0,0,2.2.74,4.64,4.64,0,0,0,1.62-.3,3.72,3.72,0,0,0,1.35-.8L385.17,37a5.54,5.54,0,0,1-2,1.14,8,8,0,0,1-2.55.4,6.4,6.4,0,0,1-3-.72,5.29,5.29,0,0,1-2.12-2,6.42,6.42,0,0,1,0-6Zm3.08.18a3,3,0,0,0-.8,1.71h5.47a2.81,2.81,0,0,0-.74-1.7,2.57,2.57,0,0,0-2-.76A2.51,2.51,0,0,0,378.47,30Z" fill="#fff"/><path d="M395.67,36.86a4.56,4.56,0,0,1-1.53,1.28,4.1,4.1,0,0,1-1.89.44,4.73,4.73,0,0,1-2.53-.69,4.66,4.66,0,0,1-1.76-2,7.21,7.21,0,0,1-.63-3.14,7.18,7.18,0,0,1,.63-3.1,4.72,4.72,0,0,1,1.75-2,4.57,4.57,0,0,1,2.54-.72,4.22,4.22,0,0,1,1.88.44,4.33,4.33,0,0,1,1.54,1.26V22.94h2.95V38.29h-2.95Zm0-6.09a2.66,2.66,0,0,0-1.08-.91,3.17,3.17,0,0,0-1.45-.36,2.56,2.56,0,0,0-2,.9,3.92,3.92,0,0,0,0,4.69,2.56,2.56,0,0,0,2,.9,3.17,3.17,0,0,0,1.45-.36,2.66,2.66,0,0,0,1.08-.91Z" fill="#fff"/><path d="M165.05,65.8a3,3,0,0,1-.8-2.26V57.73h-1.84V55.18h1.84v-3h2.94v3h2.25v2.55h-2.25v5a1.33,1.33,0,0,0,.28.88.88.88,0,0,0,.73.35,1.64,1.64,0,0,0,.6-.1,1.05,1.05,0,0,0,.41-.23l.62,2.21a3.55,3.55,0,0,1-2.43.71A3.25,3.25,0,0,1,165.05,65.8Z" fill="#fff"/><path d="M178.91,59.52a2,2,0,0,0-.53-1.56,2.25,2.25,0,0,0-1.54-.46,2.93,2.93,0,0,0-1.45.38,3.5,3.5,0,0,0-1.08.93v7.48h-2.92V50.94h2.92v5.68a4.91,4.91,0,0,1,1.62-1.21,5.1,5.1,0,0,1,2.29-.51,3.63,3.63,0,0,1,2.7.92,3.49,3.49,0,0,1,.91,2.58v7.89h-2.92Z" fill="#fff"/><path d="M184.52,55.18h2.92v1.51A4.87,4.87,0,0,1,189,55.42a4.06,4.06,0,0,1,2-.52v2.85a3.7,3.7,0,0,0-.8-.09,3.77,3.77,0,0,0-1.56.37,2.65,2.65,0,0,0-1.18.9v7.36h-2.92Z" fill="#fff"/><path d="M194.64,65.8a5.36,5.36,0,0,1-2-2.12,6.44,6.44,0,0,1,0-5.88,5.42,5.42,0,0,1,2-2.12,6.61,6.61,0,0,1,6.23,0,5.42,5.42,0,0,1,2,2.12,6.44,6.44,0,0,1,0,5.88,5.36,5.36,0,0,1-2,2.12,6.61,6.61,0,0,1-6.23,0Zm5.19-2.75a3.85,3.85,0,0,0,0-4.62,2.58,2.58,0,0,0-2.09-.93,2.54,2.54,0,0,0-2.07.93,3.93,3.93,0,0,0,0,4.62,2.55,2.55,0,0,0,2.07.94A2.59,2.59,0,0,0,199.83,63.05Z" fill="#fff"/><path d="M213.14,64.88a5.35,5.35,0,0,1-1.65,1.21,5,5,0,0,1-2.26.49,3.17,3.17,0,0,1-3.59-3.5v-7.9h2.92v6.75a2,2,0,0,0,.53,1.58,2.18,2.18,0,0,0,1.52.48,3,3,0,0,0,1.44-.37,3.62,3.62,0,0,0,1.09-.9V55.18h2.92V66.29h-2.92Z" fill="#fff"/><path d="M220,67a4.43,4.43,0,0,0,3.47,1.38,3.6,3.6,0,0,0,2.15-.65,2.48,2.48,0,0,0,.91-2.16V64.47A5.08,5.08,0,0,1,225,65.76a4.06,4.06,0,0,1-1.89.46,4.89,4.89,0,0,1-2.52-.66,4.49,4.49,0,0,1-1.74-1.93,7.64,7.64,0,0,1,0-6.12,4.56,4.56,0,0,1,1.73-1.94,4.76,4.76,0,0,1,2.53-.67,4.17,4.17,0,0,1,1.89.44,4.7,4.7,0,0,1,1.54,1.26V55.18h2.94V65.53a4.55,4.55,0,0,1-1.76,4.07,7.39,7.39,0,0,1-4.24,1.19,8.06,8.06,0,0,1-2.61-.38,6.3,6.3,0,0,1-2.17-1.27Zm6.53-8.26a2.74,2.74,0,0,0-1.07-.9A3.13,3.13,0,0,0,224,57.5a2.65,2.65,0,0,0-2,.83,3.61,3.61,0,0,0,0,4.46,2.65,2.65,0,0,0,2,.83,3.17,3.17,0,0,0,1.43-.37,3,3,0,0,0,1.08-.9Z" fill="#fff"/><path d="M239.67,59.52a2,2,0,0,0-.53-1.56,2.27,2.27,0,0,0-1.54-.46,2.91,2.91,0,0,0-1.45.38,3.29,3.29,0,0,0-1.08.93v7.48h-2.92V50.94h2.92v5.68a4.91,4.91,0,0,1,1.62-1.21A5,5,0,0,1,239,54.9a3.66,3.66,0,0,1,2.7.92,3.49,3.49,0,0,1,.91,2.58v7.89h-2.92Z" fill="#fff"/><path d="M251.44,50.94h7.18a5.58,5.58,0,0,1,2.78.67,4.52,4.52,0,0,1,1.77,1.78,5.22,5.22,0,0,1,.6,2.5,5,5,0,0,1-.61,2.47,4.31,4.31,0,0,1-1.77,1.77,5.51,5.51,0,0,1-2.77.66h-3.91v5.5h-3.27Zm8.35,3.4a2.3,2.3,0,0,0-1.61-.59h-3.47V58h3.47a2.28,2.28,0,0,0,1.62-.58,2.14,2.14,0,0,0,0-3.06Z" fill="#fff"/><path d="M265.38,57.79a5.61,5.61,0,0,1,5-2.89,5.51,5.51,0,0,1,2.9.77,5.26,5.26,0,0,1,2,2.16A7,7,0,0,1,276,61v.64h-8.25a2.86,2.86,0,0,0,1,1.86,3.23,3.23,0,0,0,2.2.74,4.64,4.64,0,0,0,1.62-.3,3.87,3.87,0,0,0,1.35-.8L275.16,65a5.54,5.54,0,0,1-2,1.14,8,8,0,0,1-2.55.4,6.34,6.34,0,0,1-3-.72,5.32,5.32,0,0,1-2.13-2,6.42,6.42,0,0,1,0-6Zm3.09.18a3,3,0,0,0-.81,1.71h5.47a2.81,2.81,0,0,0-.74-1.7,2.57,2.57,0,0,0-2-.76A2.49,2.49,0,0,0,268.47,58Z" fill="#fff"/><path d="M279.37,65.8a3,3,0,0,1-.8-2.26V57.73h-1.84V55.18h1.84v-3h2.94v3h2.26v2.55h-2.26v5a1.38,1.38,0,0,0,.28.88.9.9,0,0,0,.74.35,1.63,1.63,0,0,0,.59-.1,1,1,0,0,0,.42-.23l.62,2.21a3.57,3.57,0,0,1-2.44.71A3.25,3.25,0,0,1,279.37,65.8Z" fill="#fff"/><path d="M286.74,61.66a6.87,6.87,0,0,0,2.13,1.5,6.57,6.57,0,0,0,2.75.57,3.32,3.32,0,0,0,2-.51,1.5,1.5,0,0,0,.7-1.22,1.3,1.3,0,0,0-.76-1.2,10.49,10.49,0,0,0-2.35-.77,25.28,25.28,0,0,1-2.92-.83,5,5,0,0,1-2-1.35,3.61,3.61,0,0,1-.83-2.52,4.1,4.1,0,0,1,.71-2.36,4.84,4.84,0,0,1,2-1.67,7.25,7.25,0,0,1,3.07-.61,8.45,8.45,0,0,1,6,2.14l-1.81,2.39A6.13,6.13,0,0,0,293.38,54a6.86,6.86,0,0,0-2.34-.43,2.81,2.81,0,0,0-1.66.43,1.37,1.37,0,0,0-.59,1.15,1.1,1.1,0,0,0,.71,1.05,12.85,12.85,0,0,0,2.35.73,21.13,21.13,0,0,1,2.91.84,5.16,5.16,0,0,1,2,1.4,3.64,3.64,0,0,1,.84,2.51A4.47,4.47,0,0,1,296,65.22a6.77,6.77,0,0,1-4.56,1.36A8.8,8.8,0,0,1,285,64.15Z" fill="#fff"/><path d="M313.47,59.27a2,2,0,0,0-.4-1.3,1.59,1.59,0,0,0-1.26-.47,2.42,2.42,0,0,0-1.32.39,3.56,3.56,0,0,0-1,.9v7.5h-2.94v-7a2,2,0,0,0-.4-1.3,1.59,1.59,0,0,0-1.26-.47,2.44,2.44,0,0,0-1.31.39,3.51,3.51,0,0,0-1,.92v7.48h-2.92V55.18h2.92v1.44a4.34,4.34,0,0,1,1.45-1.16,4.57,4.57,0,0,1,2.19-.56,3.52,3.52,0,0,1,2,.53,2.84,2.84,0,0,1,1.1,1.49,4.73,4.73,0,0,1,3.82-2,3.29,3.29,0,0,1,2.41.84,3.38,3.38,0,0,1,.85,2.52v8h-2.94Z" fill="#fff"/><path d="M326.83,64.86a4.56,4.56,0,0,1-1.53,1.28,4.23,4.23,0,0,1-1.89.44,4.73,4.73,0,0,1-2.53-.69,4.59,4.59,0,0,1-1.76-2,7.92,7.92,0,0,1,0-6.24,4.85,4.85,0,0,1,1.74-2,4.68,4.68,0,0,1,2.55-.71,4.29,4.29,0,0,1,1.88.44,4.33,4.33,0,0,1,1.54,1.26V55.18h2.95V66.29h-2.95Zm0-6.07a2.66,2.66,0,0,0-1.08-.91,3.17,3.17,0,0,0-1.45-.36,2.57,2.57,0,0,0-2,.89,3.89,3.89,0,0,0,0,4.67,2.52,2.52,0,0,0,2,.91,3.17,3.17,0,0,0,1.45-.36,2.74,2.74,0,0,0,1.08-.91Z" fill="#fff"/><path d="M332.47,55.18h2.92v1.51A4.94,4.94,0,0,1,337,55.42a4.13,4.13,0,0,1,2-.52v2.85a3.7,3.7,0,0,0-.8-.09,3.85,3.85,0,0,0-1.57.37,2.67,2.67,0,0,0-1.17.9v7.36h-2.92Z" fill="#fff"/><path d="M342.5,65.8a3,3,0,0,1-.81-2.26V57.73h-1.84V55.18h1.84v-3h2.95v3h2.25v2.55h-2.25v5a1.38,1.38,0,0,0,.27.88.91.91,0,0,0,.74.35,1.72,1.72,0,0,0,.6-.1,1.05,1.05,0,0,0,.41-.23l.62,2.21a3.55,3.55,0,0,1-2.43.71A3.25,3.25,0,0,1,342.5,65.8Z" fill="#fff"/><path d="M358.09,65.58a7.58,7.58,0,0,1-2.91-2.82,8.49,8.49,0,0,1,0-8.25,7.58,7.58,0,0,1,2.91-2.82,8.49,8.49,0,0,1,4.07-1,7.14,7.14,0,0,1,4,1.05,8,8,0,0,1,2.53,2.7l-2.81,1.38a4.2,4.2,0,0,0-1.51-1.6,4,4,0,0,0-2.22-.63,4.56,4.56,0,0,0-4.08,2.47,5.46,5.46,0,0,0-.61,2.58,5.52,5.52,0,0,0,.61,2.58A4.61,4.61,0,0,0,359.77,63a4.5,4.5,0,0,0,2.39.66,4.17,4.17,0,0,0,2.24-.62,4.25,4.25,0,0,0,1.49-1.61l2.81,1.35a7.09,7.09,0,0,1-6.54,3.77A8.37,8.37,0,0,1,358.09,65.58Z" fill="#fff"/><path d="M377.84,59.52a2,2,0,0,0-.53-1.56,2.25,2.25,0,0,0-1.54-.46,2.93,2.93,0,0,0-1.45.38,3.5,3.5,0,0,0-1.08.93v7.48h-2.92V50.94h2.92v5.68a4.91,4.91,0,0,1,1.62-1.21,5.07,5.07,0,0,1,2.29-.51,3.63,3.63,0,0,1,2.7.92,3.49,3.49,0,0,1,.91,2.58v7.89h-2.92Z" fill="#fff"/><path d="M391.19,64.86a4.56,4.56,0,0,1-1.53,1.28,4.23,4.23,0,0,1-1.89.44,4.73,4.73,0,0,1-2.53-.69,4.59,4.59,0,0,1-1.76-2,7.92,7.92,0,0,1,0-6.24,4.85,4.85,0,0,1,1.74-2,4.68,4.68,0,0,1,2.55-.71,4.29,4.29,0,0,1,1.88.44,4.33,4.33,0,0,1,1.54,1.26V55.18h2.95V66.29h-2.95Zm0-6.07a2.66,2.66,0,0,0-1.08-.91,3.17,3.17,0,0,0-1.45-.36,2.57,2.57,0,0,0-2,.89,3.89,3.89,0,0,0,0,4.67,2.52,2.52,0,0,0,2,.91,3.17,3.17,0,0,0,1.45-.36,2.74,2.74,0,0,0,1.08-.91Z" fill="#fff"/><path d="M396.83,55.18h2.92v1.51a4.94,4.94,0,0,1,1.56-1.27,4.13,4.13,0,0,1,2-.52v2.85a3.7,3.7,0,0,0-.8-.09,3.81,3.81,0,0,0-1.57.37,2.67,2.67,0,0,0-1.17.9v7.36h-2.92Z" fill="#fff"/><path d="M405.06,53a1.75,1.75,0,0,1,1.23-3,1.71,1.71,0,0,1,1.24.5,1.67,1.67,0,0,1,.5,1.24,1.71,1.71,0,0,1-.5,1.24,1.75,1.75,0,0,1-2.47,0Zm-.22,2.15h2.92V66.29h-2.92Z" fill="#fff"/><path d="M411.87,65.8a3,3,0,0,1-.81-2.26V57.73h-1.84V55.18h1.84v-3H414v3h2.25v2.55H414v5a1.38,1.38,0,0,0,.27.88A.91.91,0,0,0,415,64a1.72,1.72,0,0,0,.6-.1,1.05,1.05,0,0,0,.41-.23l.62,2.21a3.56,3.56,0,0,1-2.44.71A3.23,3.23,0,0,1,411.87,65.8Z" fill="#fff"/><path d="M418.42,53a1.75,1.75,0,0,1,1.23-3,1.72,1.72,0,0,1,1.75,1.74,1.71,1.71,0,0,1-.51,1.24,1.67,1.67,0,0,1-1.24.51A1.71,1.71,0,0,1,418.42,53Zm-.22,2.15h2.92V66.29H418.2Z" fill="#fff"/><path d="M423.88,57.79a5.66,5.66,0,0,1,2-2.11,5.73,5.73,0,0,1,3-.78,5.51,5.51,0,0,1,2.9.77,5.2,5.2,0,0,1,2,2.16,7,7,0,0,1,.71,3.19v.64H426.2a2.86,2.86,0,0,0,1,1.86,3.24,3.24,0,0,0,2.21.74A4.72,4.72,0,0,0,431,64a3.92,3.92,0,0,0,1.34-.8L433.65,65a5.58,5.58,0,0,1-2,1.14,8.11,8.11,0,0,1-2.56.4,6.34,6.34,0,0,1-3-.72,5.32,5.32,0,0,1-2.13-2,6.07,6.07,0,0,1-.77-3.08A5.89,5.89,0,0,1,423.88,57.79ZM427,58a3,3,0,0,0-.81,1.71h5.48a2.88,2.88,0,0,0-.75-1.7,2.55,2.55,0,0,0-2-.76A2.49,2.49,0,0,0,427,58Z" fill="#fff"/><path d="M436.71,62.81a6,6,0,0,0,1.75,1.06,5.42,5.42,0,0,0,2.09.46A2.65,2.65,0,0,0,442,64a1,1,0,0,0,.47-.84.89.89,0,0,0-.55-.81,6.78,6.78,0,0,0-1.68-.51,16.49,16.49,0,0,1-2.21-.55,3.74,3.74,0,0,1-1.52-1,2.73,2.73,0,0,1-.64-1.92,3.09,3.09,0,0,1,.54-1.75,3.67,3.67,0,0,1,1.57-1.28,5.93,5.93,0,0,1,2.44-.47,7,7,0,0,1,4.49,1.52l-1.18,2a4,4,0,0,0-1.41-.92,4.78,4.78,0,0,0-1.88-.37,2.44,2.44,0,0,0-1.27.28.82.82,0,0,0-.47.76.77.77,0,0,0,.51.72,8,8,0,0,0,1.6.47,14.49,14.49,0,0,1,2.23.58A3.84,3.84,0,0,1,444.56,61a2.9,2.9,0,0,1,.66,2,3.12,3.12,0,0,1-.56,1.83A3.63,3.63,0,0,1,443,66.12a6.54,6.54,0,0,1-2.58.46,8.26,8.26,0,0,1-2.77-.46,6,6,0,0,1-2.2-1.26Z" fill="#fff"/><path d="M447.58,63.41a1.84,1.84,0,1,1-.55,1.31A1.79,1.79,0,0,1,447.58,63.41Z" fill="#fff"/></g></g></svg>