<svg xmlns="http://www.w3.org/2000/svg" viewBox="0 0 728 90"><title>txt3</title><g id="Layer_2" data-name="Layer 2"><g id="animation_F3" data-name="animation F3" style="isolation:isolate"><g id="rect"><rect width="728" height="90" fill="none"/></g><g id="Adopt_today_at_PetSmart." data-name="Adopt today at PetSmart."><path d="M173.51,49.64h-6.85l-1,2.65h-3.58L168,36.94h4.09l5.92,15.35h-3.57Zm-6-2.83h5.09l-2.53-7Z" fill="#fff"/><path d="M186.89,50.86a4.56,4.56,0,0,1-1.53,1.28,4.24,4.24,0,0,1-1.9.44,4.76,4.76,0,0,1-2.53-.69,4.66,4.66,0,0,1-1.76-2,8,8,0,0,1,0-6.24,4.88,4.88,0,0,1,1.75-2,4.65,4.65,0,0,1,2.54-.71,4.34,4.34,0,0,1,3.43,1.7V36.94h2.94V52.29h-2.94Zm0-6.09a2.8,2.8,0,0,0-1.08-.91,3.2,3.2,0,0,0-1.45-.36,2.58,2.58,0,0,0-2,.9,3.45,3.45,0,0,0-.78,2.35,3.42,3.42,0,0,0,.78,2.33,2.56,2.56,0,0,0,2,.91,3.2,3.2,0,0,0,1.45-.36,2.88,2.88,0,0,0,1.08-.91Z" fill="#fff"/><path d="M194.64,51.8a5.36,5.36,0,0,1-2-2.12,6.44,6.44,0,0,1,0-5.88,5.42,5.42,0,0,1,2-2.12,6.61,6.61,0,0,1,6.23,0,5.42,5.42,0,0,1,2,2.12,6.44,6.44,0,0,1,0,5.88,5.36,5.36,0,0,1-2,2.12,6.61,6.61,0,0,1-6.23,0Zm5.18-2.75a3.85,3.85,0,0,0,0-4.62,2.78,2.78,0,0,0-4.15,0,3.89,3.89,0,0,0,0,4.62,2.76,2.76,0,0,0,4.15,0Z" fill="#fff"/><path d="M205.67,56.52V41.18h2.93v1.4A4.32,4.32,0,0,1,212,40.9a4.72,4.72,0,0,1,2.54.69,4.61,4.61,0,0,1,1.75,2,7.16,7.16,0,0,1,.63,3.13,7.32,7.32,0,0,1-.63,3.15,4.61,4.61,0,0,1-1.75,2,4.72,4.72,0,0,1-2.54.69,4.19,4.19,0,0,1-3.42-1.7v5.64Zm7.47-12.12a2.56,2.56,0,0,0-2-.9,3,3,0,0,0-1.42.37,2.8,2.8,0,0,0-1.08.9v3.95a2.93,2.93,0,0,0,1.09.9,3.16,3.16,0,0,0,1.41.37,2.53,2.53,0,0,0,2-.91,3.94,3.94,0,0,0,0-4.68Z" fill="#fff"/><path d="M220.47,51.8a3,3,0,0,1-.8-2.26V43.73h-1.84V41.18h1.84v-3h2.94v3h2.25v2.55h-2.25v5a1.33,1.33,0,0,0,.28.88.88.88,0,0,0,.73.35,1.64,1.64,0,0,0,.6-.1,1.05,1.05,0,0,0,.41-.23l.62,2.21a3.55,3.55,0,0,1-2.43.71A3.25,3.25,0,0,1,220.47,51.8Z" fill="#fff"/><path d="M234.13,51.8a3,3,0,0,1-.8-2.26V43.73h-1.84V41.18h1.84v-3h2.94v3h2.25v2.55h-2.25v5a1.33,1.33,0,0,0,.28.88.89.89,0,0,0,.73.35,1.64,1.64,0,0,0,.6-.1,1.05,1.05,0,0,0,.41-.23l.63,2.21a3.57,3.57,0,0,1-2.44.71A3.25,3.25,0,0,1,234.13,51.8Z" fill="#fff"/><path d="M242.35,51.8a5.29,5.29,0,0,1-2-2.12,6.36,6.36,0,0,1,0-5.88,5.35,5.35,0,0,1,2-2.12,6,6,0,0,1,3.1-.78,6.08,6.08,0,0,1,3.13.78,5.33,5.33,0,0,1,2,2.12,6.36,6.36,0,0,1,0,5.88,5.26,5.26,0,0,1-2,2.12,6.08,6.08,0,0,1-3.13.78A6,6,0,0,1,242.35,51.8Zm5.18-2.75a3.85,3.85,0,0,0,0-4.62,2.78,2.78,0,0,0-4.15,0,3.89,3.89,0,0,0,0,4.62,2.76,2.76,0,0,0,4.15,0Z" fill="#fff"/><path d="M261.11,50.86a4.43,4.43,0,0,1-1.52,1.28,4.31,4.31,0,0,1-1.9.44,4.73,4.73,0,0,1-2.53-.69,4.66,4.66,0,0,1-1.76-2,8,8,0,0,1,0-6.24,4.81,4.81,0,0,1,1.75-2,4.65,4.65,0,0,1,2.54-.71,4.34,4.34,0,0,1,3.42,1.7V36.94h2.95V52.29h-2.95Zm0-6.09a2.66,2.66,0,0,0-1.08-.91,3.14,3.14,0,0,0-1.45-.36,2.56,2.56,0,0,0-2,.9,3.45,3.45,0,0,0-.78,2.35,3.42,3.42,0,0,0,.78,2.33,2.54,2.54,0,0,0,2,.91,3.14,3.14,0,0,0,1.45-.36,2.74,2.74,0,0,0,1.08-.91Z" fill="#fff"/><path d="M274.52,50.86A4.56,4.56,0,0,1,273,52.14a4.23,4.23,0,0,1-1.89.44,4.73,4.73,0,0,1-2.53-.69,4.66,4.66,0,0,1-1.76-2,7.92,7.92,0,0,1,0-6.24,4.81,4.81,0,0,1,1.75-2,4.65,4.65,0,0,1,2.54-.71,4.25,4.25,0,0,1,1.88.44,4.33,4.33,0,0,1,1.54,1.26V41.18h3V52.29h-3Zm0-6.07a2.66,2.66,0,0,0-1.08-.91,3.17,3.17,0,0,0-1.45-.36,2.58,2.58,0,0,0-2,.89,3.89,3.89,0,0,0,0,4.67,2.54,2.54,0,0,0,2,.91,3.17,3.17,0,0,0,1.45-.36,2.74,2.74,0,0,0,1.08-.91Z" fill="#fff"/><path d="M281.29,53a3.49,3.49,0,0,0,1.47,1,5.15,5.15,0,0,0,1.86.34,3.1,3.1,0,0,0,2.21-.73,2.79,2.79,0,0,0,.78-2.12V50.4A5.1,5.1,0,0,1,286,51.59a5,5,0,0,1-2.27.49,3.62,3.62,0,0,1-2.69-.92,3.53,3.53,0,0,1-.89-2.58v-7.4H283v6.25a2,2,0,0,0,.53,1.58,2.2,2.2,0,0,0,1.51.47,2.9,2.9,0,0,0,1.45-.37,3.21,3.21,0,0,0,1.08-.9v-7h2.92V51.41a5,5,0,0,1-1.59,4,6.31,6.31,0,0,1-4.32,1.41A6.78,6.78,0,0,1,280,55.14Z" fill="#fff"/><path d="M307,50.86a4.56,4.56,0,0,1-1.53,1.28,4.27,4.27,0,0,1-1.9.44,4.73,4.73,0,0,1-2.53-.69,4.66,4.66,0,0,1-1.76-2,8,8,0,0,1,0-6.24,4.81,4.81,0,0,1,1.75-2,4.65,4.65,0,0,1,2.54-.71,4.3,4.3,0,0,1,1.89.44A4.42,4.42,0,0,1,307,42.6V41.18h2.94V52.29H307Zm0-6.07a2.8,2.8,0,0,0-1.08-.91,3.2,3.2,0,0,0-1.45-.36,2.59,2.59,0,0,0-2,.89,3.89,3.89,0,0,0,0,4.67,2.54,2.54,0,0,0,2,.91,3.2,3.2,0,0,0,1.45-.36,2.88,2.88,0,0,0,1.08-.91Z" fill="#fff"/><path d="M314.05,51.8a3,3,0,0,1-.8-2.26V43.73h-1.84V41.18h1.84v-3h2.94v3h2.25v2.55h-2.25v5a1.33,1.33,0,0,0,.28.88.89.89,0,0,0,.73.35,1.64,1.64,0,0,0,.6-.1,1.05,1.05,0,0,0,.41-.23l.63,2.21a3.57,3.57,0,0,1-2.44.71A3.25,3.25,0,0,1,314.05,51.8Z" fill="#fff"/><path d="M326.4,36.94h7.18a5.58,5.58,0,0,1,2.78.67,4.52,4.52,0,0,1,1.77,1.78,5.22,5.22,0,0,1,.6,2.5,5,5,0,0,1-.61,2.47,4.43,4.43,0,0,1-1.77,1.77,5.51,5.51,0,0,1-2.77.66h-3.91v5.5H326.4Zm8.35,3.4a2.3,2.3,0,0,0-1.61-.59h-3.47V44h3.47a2.28,2.28,0,0,0,1.62-.58,2,2,0,0,0,.64-1.53A2,2,0,0,0,334.75,40.34Z" fill="#fff"/><path d="M340.34,43.79a5.61,5.61,0,0,1,5-2.89,5.45,5.45,0,0,1,2.89.77,5.22,5.22,0,0,1,2,2.16,7,7,0,0,1,.7,3.19v.64h-8.25a2.89,2.89,0,0,0,1,1.86,3.28,3.28,0,0,0,2.21.74,4.64,4.64,0,0,0,1.62-.3,3.87,3.87,0,0,0,1.35-.8L350.12,51a5.54,5.54,0,0,1-2,1.14,8,8,0,0,1-2.55.4,6.4,6.4,0,0,1-3-.72,5.36,5.36,0,0,1-2.12-2,6.42,6.42,0,0,1,0-6Zm3.08.18a3,3,0,0,0-.8,1.71h5.47a2.81,2.81,0,0,0-.74-1.7,2.57,2.57,0,0,0-2-.76A2.51,2.51,0,0,0,343.42,44Z" fill="#fff"/><path d="M354.33,51.8a3,3,0,0,1-.8-2.26V43.73h-1.84V41.18h1.84v-3h2.94v3h2.26v2.55h-2.26v5a1.33,1.33,0,0,0,.28.88.89.89,0,0,0,.73.35,1.64,1.64,0,0,0,.6-.1,1.1,1.1,0,0,0,.42-.23l.62,2.21a3.57,3.57,0,0,1-2.44.71A3.25,3.25,0,0,1,354.33,51.8Z" fill="#fff"/><path d="M361.7,47.66a6.76,6.76,0,0,0,2.13,1.5,6.57,6.57,0,0,0,2.75.57,3.27,3.27,0,0,0,2-.51,1.49,1.49,0,0,0,.71-1.22,1.3,1.3,0,0,0-.76-1.2,10.49,10.49,0,0,0-2.35-.77,25.28,25.28,0,0,1-2.92-.83,5,5,0,0,1-2-1.35,3.62,3.62,0,0,1-.84-2.52,4.11,4.11,0,0,1,.72-2.36,4.84,4.84,0,0,1,2-1.67,7.38,7.38,0,0,1,3.07-.61,8.46,8.46,0,0,1,6,2.14l-1.81,2.39A6.13,6.13,0,0,0,368.34,40a6.86,6.86,0,0,0-2.34-.43,2.81,2.81,0,0,0-1.66.43,1.34,1.34,0,0,0-.59,1.15,1.1,1.1,0,0,0,.71,1.05,12.85,12.85,0,0,0,2.35.73,21.13,21.13,0,0,1,2.91.84,5.16,5.16,0,0,1,2,1.4,3.64,3.64,0,0,1,.84,2.51A4.47,4.47,0,0,1,371,51.22a6.77,6.77,0,0,1-4.56,1.36,8.8,8.8,0,0,1-6.51-2.43Z" fill="#fff"/><path d="M388.43,45.27A2,2,0,0,0,388,44a1.55,1.55,0,0,0-1.25-.47,2.4,2.4,0,0,0-1.32.39,3.56,3.56,0,0,0-1,.9v7.5h-2.94v-7a2,2,0,0,0-.41-1.3,1.55,1.55,0,0,0-1.25-.47,2.41,2.41,0,0,0-1.31.39,3.51,3.51,0,0,0-1,.92v7.48h-2.92V41.18h2.92v1.44A4.34,4.34,0,0,1,379,41.46a4.57,4.57,0,0,1,2.19-.56,3.46,3.46,0,0,1,2,.53,2.86,2.86,0,0,1,1.11,1.49,4.73,4.73,0,0,1,3.82-2,3.29,3.29,0,0,1,2.41.84,3.38,3.38,0,0,1,.85,2.52v8h-2.94Z" fill="#fff"/><path d="M401.79,50.86a4.56,4.56,0,0,1-1.53,1.28,4.24,4.24,0,0,1-1.9.44,4.6,4.6,0,0,1-4.29-2.69,8,8,0,0,1,0-6.24,5,5,0,0,1,1.75-2,4.67,4.67,0,0,1,2.54-.71,4.34,4.34,0,0,1,3.43,1.7V41.18h2.94V52.29h-2.94Zm0-6.07a2.8,2.8,0,0,0-1.08-.91,3.2,3.2,0,0,0-1.45-.36,2.57,2.57,0,0,0-2,.89,3.85,3.85,0,0,0,0,4.67,2.52,2.52,0,0,0,2,.91,3.2,3.2,0,0,0,1.45-.36,2.88,2.88,0,0,0,1.08-.91Z" fill="#fff"/><path d="M407.43,41.18h2.92v1.51a4.94,4.94,0,0,1,1.56-1.27,4.13,4.13,0,0,1,2-.52v2.85a3.54,3.54,0,0,0-2.37.28,2.54,2.54,0,0,0-1.17.9v7.36h-2.92Z" fill="#fff"/><path d="M417.46,51.8a3,3,0,0,1-.81-2.26V43.73h-1.84V41.18h1.84v-3h3v3h2.25v2.55H419.6v5a1.38,1.38,0,0,0,.27.88.91.91,0,0,0,.74.35,1.72,1.72,0,0,0,.6-.1,1.05,1.05,0,0,0,.41-.23l.62,2.21a3.57,3.57,0,0,1-2.44.71A3.23,3.23,0,0,1,417.46,51.8Z" fill="#fff"/><path d="M424.42,49.41a1.84,1.84,0,1,1-.55,1.31A1.79,1.79,0,0,1,424.42,49.41Z" fill="#fff"/></g></g></g></svg>