<svg xmlns="http://www.w3.org/2000/svg" viewBox="0 0 300 600"><title>txt3</title><g id="Layer_2" data-name="Layer 2"><g id="Frame_3" data-name="Frame 3" style="isolation:isolate"><g id="rect"><rect width="300" height="600" fill="none"/></g><g id="Adopt_today_at_PetSmart." data-name="Adopt today at PetSmart."><path d="M32.75,37.58H24.4L23.23,40.8H18.86l7.22-18.68h5L38.26,40.8H33.92Zm-7.28-3.44h6.19l-3.08-8.57Z" fill="#fff"/><path d="M49,39.06a5.43,5.43,0,0,1-1.86,1.56,5.09,5.09,0,0,1-2.31.54,5.77,5.77,0,0,1-3.08-.84,5.56,5.56,0,0,1-2.14-2.44,8.61,8.61,0,0,1-.77-3.81,8.62,8.62,0,0,1,.77-3.78,5.88,5.88,0,0,1,2.12-2.48,5.64,5.64,0,0,1,3.1-.87,5.2,5.2,0,0,1,2.29.53A5.35,5.35,0,0,1,49,29V22.12h3.58V40.8H49Zm0-7.41a3.33,3.33,0,0,0-1.32-1.11,3.85,3.85,0,0,0-1.76-.44,3.1,3.1,0,0,0-2.46,1.1,4.2,4.2,0,0,0-1,2.87,4.13,4.13,0,0,0,1,2.83A3.07,3.07,0,0,0,45.91,38a3.84,3.84,0,0,0,1.76-.43A3.49,3.49,0,0,0,49,36.46Z" fill="#fff"/><path d="M58.39,40.21a6.43,6.43,0,0,1-2.49-2.58,7.78,7.78,0,0,1,0-7.15,6.31,6.31,0,0,1,2.49-2.58,7.28,7.28,0,0,1,3.78-1,7.39,7.39,0,0,1,3.81,1,6.44,6.44,0,0,1,2.49,2.58,7.78,7.78,0,0,1,0,7.15A6.57,6.57,0,0,1,66,40.21a7.38,7.38,0,0,1-3.81.95A7.27,7.27,0,0,1,58.39,40.21Zm6.31-3.35a4.67,4.67,0,0,0,0-5.62,3.1,3.1,0,0,0-2.53-1.14,3.05,3.05,0,0,0-2.52,1.14,4.71,4.71,0,0,0,0,5.62A3.05,3.05,0,0,0,62.17,38,3.1,3.1,0,0,0,64.7,36.86Z" fill="#fff"/><path d="M71.79,46V27.28h3.55V29a5.65,5.65,0,0,1,1.87-1.51,5.16,5.16,0,0,1,2.31-.53,5.56,5.56,0,0,1,5.22,3.28A8.79,8.79,0,0,1,85.51,34a8.87,8.87,0,0,1-.77,3.83,5.7,5.7,0,0,1-2.13,2.45,5.78,5.78,0,0,1-3.09.84,5.24,5.24,0,0,1-2.3-.51,5.53,5.53,0,0,1-1.88-1.56V46ZM80.87,31.2a3.09,3.09,0,0,0-2.47-1.1,3.76,3.76,0,0,0-1.74.45,3.57,3.57,0,0,0-1.32,1.1v4.81a3.59,3.59,0,0,0,1.33,1.09A3.81,3.81,0,0,0,78.4,38a3.06,3.06,0,0,0,2.47-1.1A4.21,4.21,0,0,0,81.81,34,4.2,4.2,0,0,0,80.87,31.2Z" fill="#fff"/><path d="M89.76,40.21a3.68,3.68,0,0,1-1-2.75V30.38H86.54v-3.1h2.24v-3.7h3.59v3.7h2.74v3.1H92.37v6.13a1.69,1.69,0,0,0,.33,1.07,1.11,1.11,0,0,0,.9.42,2.48,2.48,0,0,0,.73-.11,1.37,1.37,0,0,0,.5-.28l.76,2.69a4.39,4.39,0,0,1-3,.86A3.94,3.94,0,0,1,89.76,40.21Z" fill="#fff"/><path d="M106.4,40.21a3.64,3.64,0,0,1-1-2.75V30.38h-2.24v-3.1h2.24v-3.7H109v3.7h2.74v3.1H109v6.13a1.63,1.63,0,0,0,.34,1.07,1.08,1.08,0,0,0,.89.42,2.43,2.43,0,0,0,.73-.11,1.37,1.37,0,0,0,.5-.28l.76,2.69a4.35,4.35,0,0,1-3,.86A3.9,3.9,0,0,1,106.4,40.21Z" fill="#fff"/><path d="M116.36,40.21a6.43,6.43,0,0,1-2.49-2.58,7.78,7.78,0,0,1,0-7.15,6.31,6.31,0,0,1,2.49-2.58,7.28,7.28,0,0,1,3.78-1,7.39,7.39,0,0,1,3.81,1,6.44,6.44,0,0,1,2.49,2.58,7.78,7.78,0,0,1,0,7.15A6.57,6.57,0,0,1,124,40.21a7.38,7.38,0,0,1-3.81.95A7.27,7.27,0,0,1,116.36,40.21Zm6.31-3.35a4.67,4.67,0,0,0,0-5.62,3.1,3.1,0,0,0-2.53-1.14,3.05,3.05,0,0,0-2.52,1.14,4.71,4.71,0,0,0,0,5.62A3.05,3.05,0,0,0,120.14,38,3.1,3.1,0,0,0,122.67,36.86Z" fill="#fff"/><path d="M139.17,39.06a5.43,5.43,0,0,1-1.86,1.56,5.09,5.09,0,0,1-2.31.54,5.77,5.77,0,0,1-3.08-.84,5.56,5.56,0,0,1-2.14-2.44,8.61,8.61,0,0,1-.77-3.81,8.62,8.62,0,0,1,.77-3.78,5.83,5.83,0,0,1,2.13-2.48,5.58,5.58,0,0,1,3.09-.87,5.27,5.27,0,0,1,2.3.53A5.41,5.41,0,0,1,139.17,29V22.12h3.59V40.8h-3.59Zm0-7.41a3.36,3.36,0,0,0-1.31-1.11,3.93,3.93,0,0,0-1.77-.44,3.1,3.1,0,0,0-2.46,1.1,4.2,4.2,0,0,0-.95,2.87,4.12,4.12,0,0,0,.95,2.83,3.07,3.07,0,0,0,2.46,1.1,3.91,3.91,0,0,0,1.77-.43,3.54,3.54,0,0,0,1.31-1.11Z" fill="#fff"/><path d="M155.46,39.06a5.43,5.43,0,0,1-1.86,1.56,5.09,5.09,0,0,1-2.31.54,5.77,5.77,0,0,1-3.08-.84,5.56,5.56,0,0,1-2.14-2.44,8.61,8.61,0,0,1-.77-3.81,8.62,8.62,0,0,1,.77-3.78,5.88,5.88,0,0,1,2.12-2.48,5.64,5.64,0,0,1,3.1-.87,5.2,5.2,0,0,1,2.29.53A5.35,5.35,0,0,1,155.46,29V27.28H159V40.8h-3.58Zm0-7.38a3.33,3.33,0,0,0-1.32-1.11,3.89,3.89,0,0,0-1.76-.44,3.11,3.11,0,0,0-2.46,1.08,4.17,4.17,0,0,0-1,2.86,4.13,4.13,0,0,0,1,2.83,3.07,3.07,0,0,0,2.46,1.1,3.87,3.87,0,0,0,1.76-.43,3.49,3.49,0,0,0,1.32-1.11Z" fill="#fff"/><path d="M163.66,41.7A4.23,4.23,0,0,0,165.45,43a6.26,6.26,0,0,0,2.27.42,3.77,3.77,0,0,0,2.69-.9,3.4,3.4,0,0,0,1-2.58V38.5a6.36,6.36,0,0,1-4.76,2,4.38,4.38,0,0,1-3.28-1.12,4.3,4.3,0,0,1-1.09-3.14v-9h3.56v7.61a2.45,2.45,0,0,0,.64,1.92,2.71,2.71,0,0,0,1.85.57,3.56,3.56,0,0,0,1.76-.44,4.36,4.36,0,0,0,1.32-1.1V27.28h3.56V39.74A6.11,6.11,0,0,1,173,44.57a7.68,7.68,0,0,1-5.25,1.72,8.25,8.25,0,0,1-5.66-2Z" fill="#fff"/><path d="M30.06,72.06a5.43,5.43,0,0,1-1.86,1.56,5.09,5.09,0,0,1-2.31.54,5.77,5.77,0,0,1-3.08-.84,5.56,5.56,0,0,1-2.14-2.44,9.74,9.74,0,0,1,0-7.59,5.88,5.88,0,0,1,2.12-2.48,5.64,5.64,0,0,1,3.1-.87,5.2,5.2,0,0,1,2.29.53A5.35,5.35,0,0,1,30.06,62V60.28h3.58V73.8H30.06Zm0-7.38a3.33,3.33,0,0,0-1.32-1.11A3.85,3.85,0,0,0,27,63.13a3.11,3.11,0,0,0-2.46,1.08,4.17,4.17,0,0,0-1,2.86,4.13,4.13,0,0,0,1,2.83A3.07,3.07,0,0,0,27,71a3.84,3.84,0,0,0,1.76-.43,3.49,3.49,0,0,0,1.32-1.11Z" fill="#fff"/><path d="M38.66,73.21a3.68,3.68,0,0,1-1-2.75V63.38H35.44v-3.1h2.24v-3.7h3.59v3.7H44v3.1H41.27v6.13a1.69,1.69,0,0,0,.33,1.07,1.1,1.1,0,0,0,.9.42,2.48,2.48,0,0,0,.73-.11,1.37,1.37,0,0,0,.5-.28l.76,2.69a4.39,4.39,0,0,1-3,.86A3.92,3.92,0,0,1,38.66,73.21Z" fill="#fff"/><path d="M53.7,55.12h8.73a6.75,6.75,0,0,1,3.39.82A5.43,5.43,0,0,1,68,58.11a6.35,6.35,0,0,1,.73,3,6.07,6.07,0,0,1-.75,3,5.38,5.38,0,0,1-2.15,2.16,6.81,6.81,0,0,1-3.38.8H57.67V73.8h-4Zm10.16,4.13a2.81,2.81,0,0,0-2-.71H57.67v5.15H61.9a2.84,2.84,0,0,0,2-.71,2.62,2.62,0,0,0,0-3.73Z" fill="#fff"/><path d="M70.63,63.46a6.65,6.65,0,0,1,2.49-2.56,6.86,6.86,0,0,1,3.61-1,6.61,6.61,0,0,1,3.53.94,6.35,6.35,0,0,1,2.39,2.63,8.49,8.49,0,0,1,.86,3.88v.78H73.45a3.5,3.5,0,0,0,1.21,2.26,3.9,3.9,0,0,0,2.69.91,5.54,5.54,0,0,0,2-.37A4.65,4.65,0,0,0,81,70l1.57,2.3a6.65,6.65,0,0,1-2.47,1.38,9.74,9.74,0,0,1-3.11.49,7.68,7.68,0,0,1-3.69-.88,6.43,6.43,0,0,1-2.59-2.5,7.74,7.74,0,0,1,0-7.32Zm3.75.22a3.63,3.63,0,0,0-1,2.08h6.66a3.41,3.41,0,0,0-.91-2.07,3.1,3.1,0,0,0-2.42-.92A3,3,0,0,0,74.38,63.68Z" fill="#fff"/><path d="M87.62,73.21a3.68,3.68,0,0,1-1-2.75V63.38H84.4v-3.1h2.24v-3.7h3.59v3.7H93v3.1H90.23v6.13a1.69,1.69,0,0,0,.33,1.07,1.1,1.1,0,0,0,.9.42,2.48,2.48,0,0,0,.73-.11,1.37,1.37,0,0,0,.5-.28l.76,2.69a4.39,4.39,0,0,1-3,.86A3.94,3.94,0,0,1,87.62,73.21Z" fill="#fff"/><path d="M96.56,68.17A8.11,8.11,0,0,0,99.15,70a7.88,7.88,0,0,0,3.35.7,4,4,0,0,0,2.39-.62,1.8,1.8,0,0,0,.85-1.49,1.55,1.55,0,0,0-.92-1.45,12.87,12.87,0,0,0-2.86-.95,28.56,28.56,0,0,1-3.55-1A5.83,5.83,0,0,1,96,63.53a4.43,4.43,0,0,1-1-3.07,5,5,0,0,1,.87-2.86,5.8,5.8,0,0,1,2.48-2,8.76,8.76,0,0,1,3.74-.74,10.33,10.33,0,0,1,7.28,2.6l-2.22,2.91a7.28,7.28,0,0,0-2.5-1.52,8.13,8.13,0,0,0-2.84-.52,3.36,3.36,0,0,0-2,.52,1.64,1.64,0,0,0-.72,1.4,1.34,1.34,0,0,0,.87,1.28,16.54,16.54,0,0,0,2.86.89,27.11,27.11,0,0,1,3.54,1,6.24,6.24,0,0,1,2.43,1.7,4.46,4.46,0,0,1,1,3.06,5.47,5.47,0,0,1-1.92,4.35,8.29,8.29,0,0,1-5.56,1.65,10.68,10.68,0,0,1-7.92-3Z" fill="#fff"/><path d="M129.06,65.26a2.39,2.39,0,0,0-.49-1.58A1.92,1.92,0,0,0,127,63.1a2.89,2.89,0,0,0-1.61.48,4.49,4.49,0,0,0-1.19,1.09V73.8h-3.58V65.26a2.39,2.39,0,0,0-.49-1.58,1.92,1.92,0,0,0-1.53-.58,3,3,0,0,0-1.6.48,4.18,4.18,0,0,0-1.2,1.12v9.1h-3.56V60.28h3.56V62a5,5,0,0,1,1.76-1.41,5.47,5.47,0,0,1,2.66-.69,4.28,4.28,0,0,1,2.41.64A3.48,3.48,0,0,1,124,62.4a5.3,5.3,0,0,1,1.91-1.73,5.37,5.37,0,0,1,2.73-.73,4,4,0,0,1,2.94,1,4.15,4.15,0,0,1,1,3.07V73.8h-3.58Z" fill="#fff"/><path d="M145.29,72.06a5.63,5.63,0,0,1-1.86,1.56,5.09,5.09,0,0,1-2.31.54,5.77,5.77,0,0,1-3.08-.84,5.65,5.65,0,0,1-2.15-2.44,9.74,9.74,0,0,1,0-7.59A6,6,0,0,1,138,60.81a5.64,5.64,0,0,1,3.1-.87,5.23,5.23,0,0,1,2.29.53A5.44,5.44,0,0,1,145.29,62V60.28h3.58V73.8h-3.58Zm0-7.38A3.33,3.33,0,0,0,144,63.57a3.92,3.92,0,0,0-1.76-.44,3.15,3.15,0,0,0-2.47,1.08,4.22,4.22,0,0,0-1,2.86,4.17,4.17,0,0,0,1,2.83,3.1,3.1,0,0,0,2.47,1.1,3.9,3.9,0,0,0,1.76-.43,3.49,3.49,0,0,0,1.32-1.11Z" fill="#fff"/><path d="M152.12,60.28h3.55v1.84a6,6,0,0,1,1.91-1.55,5,5,0,0,1,2.41-.63v3.47a4.9,4.9,0,0,0-1-.11,4.69,4.69,0,0,0-1.91.45,3.21,3.21,0,0,0-1.43,1.09v9h-3.55Z" fill="#fff"/><path d="M164.3,73.21a3.64,3.64,0,0,1-1-2.75V63.38h-2.24v-3.1h2.24v-3.7h3.58v3.7h2.75v3.1H166.9v6.13a1.63,1.63,0,0,0,.34,1.07,1.08,1.08,0,0,0,.89.42,2.43,2.43,0,0,0,.73-.11,1.42,1.42,0,0,0,.51-.28l.75,2.69a4.35,4.35,0,0,1-3,.86A3.9,3.9,0,0,1,164.3,73.21Z" fill="#fff"/><path d="M172.74,70.3a2.18,2.18,0,0,1,1.6-.67,2.15,2.15,0,0,1,1.59.67,2.21,2.21,0,0,1,0,3.19,2.15,2.15,0,0,1-1.59.67,2.26,2.26,0,0,1-1.6-3.86Z" fill="#fff"/></g></g></g></svg>