<svg xmlns="http://www.w3.org/2000/svg" viewBox="0 0 300 250"><title>txt1</title><g id="Layer_2" data-name="Layer 2"><g id="rect"><rect width="300" height="250" fill="none"/></g><g id="_1_in_5_pets_are_adopted_through_PetSmart_Charities." data-name="1 in 5 pets are adopted through PetSmart Charities."><path d="M14.34,16.91,12,19.32,10.24,17.5,14.73,13h2.65V27.26h-3Z" fill="#fff"/><path d="M25.82,14.93a1.58,1.58,0,0,1-.48-1.15,1.63,1.63,0,0,1,2.78-1.15,1.58,1.58,0,0,1,.47,1.15,1.61,1.61,0,0,1-.47,1.15,1.62,1.62,0,0,1-2.3,0Zm-.21,2h2.72V27.26H25.61Z" fill="#fff"/><path d="M37.84,21a1.9,1.9,0,0,0-.49-1.47,2,2,0,0,0-1.41-.45,2.63,2.63,0,0,0-1.36.35,3.11,3.11,0,0,0-1,.87v7H30.87V16.93h2.72v1.34a4.61,4.61,0,0,1,1.49-1.13,4.75,4.75,0,0,1,2.12-.47,3.31,3.31,0,0,1,2.51.88A3.3,3.3,0,0,1,40.56,20v7.3H37.84Z" fill="#fff"/><path d="M50.1,23.32a4.73,4.73,0,0,0,1.7,1.16,5.43,5.43,0,0,0,2.11.4,2.86,2.86,0,0,0,1.93-.61,1.94,1.94,0,0,0,.72-1.54,2,2,0,0,0-.69-1.59,2.74,2.74,0,0,0-1.88-.6,4.15,4.15,0,0,0-3,1.18l-2.12-.58V13h9.79V15.6H51.85v3.57a5,5,0,0,1,1.43-.86A4.81,4.81,0,0,1,55.06,18a4.68,4.68,0,0,1,2.27.56A4.35,4.35,0,0,1,59,20.16a4.68,4.68,0,0,1,.63,2.45,4.77,4.77,0,0,1-.71,2.61,4.62,4.62,0,0,1-2,1.72,7,7,0,0,1-3,.6,7.08,7.08,0,0,1-5.5-2.15Z" fill="#fff"/><path d="M67.21,31.19V16.93h2.72v1.3a4,4,0,0,1,1.42-1.15,3.92,3.92,0,0,1,1.76-.41,4.41,4.41,0,0,1,2.37.64,4.32,4.32,0,0,1,1.62,1.87,6.65,6.65,0,0,1,.59,2.91A6.78,6.78,0,0,1,77.1,25a4.32,4.32,0,0,1-1.62,1.87,4.42,4.42,0,0,1-2.37.65,4,4,0,0,1-1.75-.4A4,4,0,0,1,69.93,26v5.24Zm6.94-11.27a2.39,2.39,0,0,0-1.89-.83,2.83,2.83,0,0,0-1.33.34,2.64,2.64,0,0,0-1,.84v3.67a2.6,2.6,0,0,0,1,.84,3,3,0,0,0,1.32.34,2.37,2.37,0,0,0,1.89-.84,3.25,3.25,0,0,0,.72-2.19A3.23,3.23,0,0,0,74.15,19.92Z" fill="#fff"/><path d="M79.72,19.36a5.14,5.14,0,0,1,1.91-2,5.22,5.22,0,0,1,2.76-.73,5,5,0,0,1,2.69.72,4.7,4.7,0,0,1,1.83,2,6.42,6.42,0,0,1,.65,3V23H81.88a2.74,2.74,0,0,0,.92,1.73,3,3,0,0,0,2.06.69,4.52,4.52,0,0,0,1.51-.28,3.75,3.75,0,0,0,1.25-.75l1.19,1.75a5,5,0,0,1-1.88,1.06,7.49,7.49,0,0,1-2.37.38,6,6,0,0,1-2.83-.68,4.89,4.89,0,0,1-2-1.91,5.93,5.93,0,0,1,0-5.59Zm2.87.17a2.75,2.75,0,0,0-.75,1.59h5.09a2.57,2.57,0,0,0-.69-1.58,2.36,2.36,0,0,0-1.85-.71A2.31,2.31,0,0,0,82.59,19.53Z" fill="#fff"/><path d="M92.75,26.81a2.81,2.81,0,0,1-.75-2.1V19.3H90.29V16.93H92V14.1h2.73v2.83h2.1V19.3h-2.1V24a1.3,1.3,0,0,0,.26.82.85.85,0,0,0,.69.32,1.63,1.63,0,0,0,.55-.09,1,1,0,0,0,.39-.21l.57,2.05a3.32,3.32,0,0,1-2.26.67A3,3,0,0,1,92.75,26.81Z" fill="#fff"/><path d="M99.19,24a5.33,5.33,0,0,0,1.63,1,5,5,0,0,0,1.94.43,2.41,2.41,0,0,0,1.3-.28.89.89,0,0,0,.44-.78.8.8,0,0,0-.52-.75,6,6,0,0,0-1.56-.48,16.49,16.49,0,0,1-2-.51A3.48,3.48,0,0,1,99,21.71a2.55,2.55,0,0,1-.6-1.79,2.87,2.87,0,0,1,.5-1.62,3.39,3.39,0,0,1,1.47-1.19,5.42,5.42,0,0,1,2.26-.44,6.49,6.49,0,0,1,4.17,1.41l-1.09,1.86a3.86,3.86,0,0,0-1.31-.85,4.47,4.47,0,0,0-1.75-.34,2.33,2.33,0,0,0-1.18.25.78.78,0,0,0-.44.71.71.71,0,0,0,.48.67,7.23,7.23,0,0,0,1.49.44,14.19,14.19,0,0,1,2.07.54,3.66,3.66,0,0,1,1.46,1,2.7,2.7,0,0,1,.62,1.87,3,3,0,0,1-.53,1.71A3.49,3.49,0,0,1,105,27.11a6.27,6.27,0,0,1-2.4.43,7.94,7.94,0,0,1-2.58-.43,5.8,5.8,0,0,1-2-1.18Z" fill="#fff"/><path d="M121.69,25.93a4.25,4.25,0,0,1-1.42,1.19,3.84,3.84,0,0,1-1.76.42,4.43,4.43,0,0,1-2.36-.65A4.3,4.3,0,0,1,114.52,25a6.59,6.59,0,0,1-.59-2.92,6.5,6.5,0,0,1,.59-2.88,4.52,4.52,0,0,1,1.62-1.9,4.31,4.31,0,0,1,2.37-.66,4,4,0,0,1,3.18,1.58V16.93h2.74V27.26h-2.74Zm0-5.64a2.49,2.49,0,0,0-1-.85,3,3,0,0,0-1.35-.33,2.35,2.35,0,0,0-1.88.83,3.13,3.13,0,0,0-.73,2.17,3.17,3.17,0,0,0,.73,2.17,2.36,2.36,0,0,0,1.88.84,3,3,0,0,0,1.35-.33,2.57,2.57,0,0,0,1-.85Z" fill="#fff"/><path d="M127,16.93h2.72v1.41a4.52,4.52,0,0,1,1.45-1.19,3.86,3.86,0,0,1,1.84-.48v2.65a4,4,0,0,0-.75-.08,3.51,3.51,0,0,0-1.45.34,2.38,2.38,0,0,0-1.09.84v6.84H127Z" fill="#fff"/><path d="M134.47,19.36a5.18,5.18,0,0,1,1.9-2,5.27,5.27,0,0,1,2.76-.73,5.07,5.07,0,0,1,2.7.72,4.83,4.83,0,0,1,1.83,2,6.54,6.54,0,0,1,.65,3V23h-7.68a2.69,2.69,0,0,0,.92,1.73,3,3,0,0,0,2,.69,4.47,4.47,0,0,0,1.51-.28,3.56,3.56,0,0,0,1.25-.75l1.2,1.75a5.13,5.13,0,0,1-1.88,1.06,7.56,7.56,0,0,1-2.38.38,5.88,5.88,0,0,1-2.82-.68,5,5,0,0,1-2-1.91,5.54,5.54,0,0,1-.71-2.86A5.48,5.48,0,0,1,134.47,19.36Zm2.87.17a2.75,2.75,0,0,0-.75,1.59h5.09a2.59,2.59,0,0,0-.7-1.58,2.35,2.35,0,0,0-1.85-.71A2.29,2.29,0,0,0,137.34,19.53Z" fill="#fff"/><path d="M158.86,25.93a4.28,4.28,0,0,1-1.43,1.19,3.84,3.84,0,0,1-1.76.42,4.37,4.37,0,0,1-2.35-.65A4.32,4.32,0,0,1,151.68,25a6.73,6.73,0,0,1-.59-2.92,6.64,6.64,0,0,1,.59-2.88,4.52,4.52,0,0,1,1.62-1.9,4.34,4.34,0,0,1,2.37-.66,4,4,0,0,1,1.75.41,4,4,0,0,1,1.44,1.17V16.93h2.73V27.26h-2.73Zm0-5.64a2.6,2.6,0,0,0-1-.85,3,3,0,0,0-1.35-.33,2.35,2.35,0,0,0-1.88.83,3.13,3.13,0,0,0-.73,2.17,3.17,3.17,0,0,0,.73,2.17,2.36,2.36,0,0,0,1.88.84,3,3,0,0,0,1.35-.33,2.68,2.68,0,0,0,1-.85Z" fill="#fff"/><path d="M171.33,25.93a4.25,4.25,0,0,1-1.42,1.19,3.84,3.84,0,0,1-1.76.42,4.43,4.43,0,0,1-2.36-.65A4.3,4.3,0,0,1,164.16,25a6.59,6.59,0,0,1-.59-2.92,6.5,6.5,0,0,1,.59-2.88,4.52,4.52,0,0,1,1.62-1.9,4.31,4.31,0,0,1,2.37-.66,4,4,0,0,1,3.18,1.58V13h2.74V27.26h-2.74Zm0-5.66a2.42,2.42,0,0,0-1-.85,3,3,0,0,0-1.35-.33,2.39,2.39,0,0,0-1.88.83,3.2,3.2,0,0,0-.73,2.19,3.17,3.17,0,0,0,.73,2.17,2.36,2.36,0,0,0,1.88.84,3,3,0,0,0,1.35-.33,2.57,2.57,0,0,0,1-.85Z" fill="#fff"/><path d="M178.55,26.81a5,5,0,0,1-1.9-2,5.68,5.68,0,0,1-.67-2.75,5.62,5.62,0,0,1,.67-2.72,4.87,4.87,0,0,1,1.9-2,6.13,6.13,0,0,1,5.8,0,4.93,4.93,0,0,1,1.9,2,5.73,5.73,0,0,1,.66,2.72,5.79,5.79,0,0,1-.66,2.75,5.06,5.06,0,0,1-1.9,2,6.13,6.13,0,0,1-5.8,0Zm4.82-2.56a3.27,3.27,0,0,0,.72-2.16,3.23,3.23,0,0,0-.72-2.13,2.58,2.58,0,0,0-3.86,0,3.27,3.27,0,0,0-.7,2.13,3.32,3.32,0,0,0,.7,2.16,2.58,2.58,0,0,0,3.86,0Z" fill="#fff"/><path d="M188.83,31.19V16.93h2.71v1.3A4.22,4.22,0,0,1,193,17.08a4,4,0,0,1,1.77-.41,4.24,4.24,0,0,1,4,2.51,6.65,6.65,0,0,1,.59,2.91,6.78,6.78,0,0,1-.59,2.93,4.27,4.27,0,0,1-4,2.52,4.05,4.05,0,0,1-1.76-.4A4.11,4.11,0,0,1,191.54,26v5.24Zm6.94-11.27a2.4,2.4,0,0,0-1.9-.83,2.82,2.82,0,0,0-1.32.34,2.68,2.68,0,0,0-1,.84v3.67a2.71,2.71,0,0,0,1,.84,3,3,0,0,0,1.31.34,2.38,2.38,0,0,0,1.9-.84,3.29,3.29,0,0,0,.71-2.19A3.28,3.28,0,0,0,195.77,19.92Z" fill="#fff"/><path d="M202.6,26.81a2.81,2.81,0,0,1-.75-2.1V19.3h-1.71V16.93h1.71V14.1h2.73v2.83h2.1V19.3h-2.1V24a1.3,1.3,0,0,0,.26.82.85.85,0,0,0,.69.32,1.63,1.63,0,0,0,.55-.09,1,1,0,0,0,.39-.21l.57,2.05a3.33,3.33,0,0,1-2.26.67A3,3,0,0,1,202.6,26.81Z" fill="#fff"/><path d="M208.36,19.36a5.14,5.14,0,0,1,1.91-2,5.22,5.22,0,0,1,2.76-.73,5,5,0,0,1,2.69.72,4.83,4.83,0,0,1,1.83,2,6.54,6.54,0,0,1,.65,3V23h-7.68a2.69,2.69,0,0,0,.92,1.73,3,3,0,0,0,2.06.69,4.46,4.46,0,0,0,1.5-.28,3.56,3.56,0,0,0,1.25-.75l1.2,1.75a5,5,0,0,1-1.88,1.06,7.54,7.54,0,0,1-2.37.38,5.92,5.92,0,0,1-2.83-.68,5,5,0,0,1-2-1.91,5.64,5.64,0,0,1-.71-2.86A5.58,5.58,0,0,1,208.36,19.36Zm2.87.17a2.75,2.75,0,0,0-.75,1.59h5.09a2.57,2.57,0,0,0-.69-1.58,2.37,2.37,0,0,0-1.85-.71A2.3,2.3,0,0,0,211.23,19.53Z" fill="#fff"/><path d="M227.23,25.93a4.25,4.25,0,0,1-1.42,1.19,3.84,3.84,0,0,1-1.76.42,4.43,4.43,0,0,1-2.36-.65A4.37,4.37,0,0,1,220.06,25a6.73,6.73,0,0,1-.59-2.92,6.64,6.64,0,0,1,.59-2.88,4.52,4.52,0,0,1,1.62-1.9,4.34,4.34,0,0,1,2.37-.66,4,4,0,0,1,1.75.41,4,4,0,0,1,1.43,1.17V13H230V27.26h-2.74Zm0-5.66a2.42,2.42,0,0,0-1-.85,3,3,0,0,0-1.35-.33,2.39,2.39,0,0,0-1.88.83,3.2,3.2,0,0,0-.73,2.19,3.17,3.17,0,0,0,.73,2.17,2.36,2.36,0,0,0,1.88.84,3,3,0,0,0,1.35-.33,2.57,2.57,0,0,0,1-.85Z" fill="#fff"/><path d="M12.63,52a2.82,2.82,0,0,1-.75-2.11v-5.4H10.17V42.14h1.71V39.31h2.74v2.83h2.1v2.37h-2.1v4.68a1.3,1.3,0,0,0,.26.82.84.84,0,0,0,.68.32,1.69,1.69,0,0,0,.56-.09A.9.9,0,0,0,16.5,50l.58,2a3.36,3.36,0,0,1-2.27.66A3,3,0,0,1,12.63,52Z" fill="#fff"/><path d="M25.53,46.18A1.85,1.85,0,0,0,25,44.72a2.16,2.16,0,0,0-1.43-.42,2.62,2.62,0,0,0-1.35.35,3.27,3.27,0,0,0-1,.86v7H18.54V38.2h2.71v5.28a4.71,4.71,0,0,1,1.51-1.13,4.82,4.82,0,0,1,2.13-.47,3.37,3.37,0,0,1,2.51.85,3.24,3.24,0,0,1,.85,2.4v7.34H25.53Z" fill="#fff"/><path d="M30.76,42.14h2.72v1.41a4.52,4.52,0,0,1,1.45-1.19,3.89,3.89,0,0,1,1.84-.48v2.65a3.19,3.19,0,0,0-.75-.08,3.55,3.55,0,0,0-1.45.34,2.49,2.49,0,0,0-1.09.83v6.85H30.76Z" fill="#fff"/><path d="M40.18,52a5,5,0,0,1-1.91-2,6,6,0,0,1,0-5.46,5,5,0,0,1,1.91-2,6.11,6.11,0,0,1,5.79,0,4.89,4.89,0,0,1,1.91,2,6,6,0,0,1,0,5.46A5,5,0,0,1,46,52a6.18,6.18,0,0,1-5.79,0ZM45,49.46a3.27,3.27,0,0,0,.72-2.16A3.21,3.21,0,0,0,45,45.17a2.38,2.38,0,0,0-1.94-.87,2.34,2.34,0,0,0-1.92.87,3.26,3.26,0,0,0-.71,2.13,3.32,3.32,0,0,0,.71,2.16,2.34,2.34,0,0,0,1.92.87A2.38,2.38,0,0,0,45,49.46Z" fill="#fff"/><path d="M57.39,51.16a5,5,0,0,1-1.53,1.12,4.64,4.64,0,0,1-2.11.46,3.35,3.35,0,0,1-2.5-.85,3.27,3.27,0,0,1-.83-2.4V42.14h2.71v6.28a1.94,1.94,0,0,0,.49,1.47,2.08,2.08,0,0,0,1.42.44A2.71,2.71,0,0,0,56.38,50a3.09,3.09,0,0,0,1-.83v-7H60.1V52.47H57.39Z" fill="#fff"/><path d="M63.76,53.15A4.11,4.11,0,0,0,67,54.43a3.3,3.3,0,0,0,2-.61,2.29,2.29,0,0,0,.84-2v-1A4.49,4.49,0,0,1,68.4,52a3.63,3.63,0,0,1-1.75.43,4.49,4.49,0,0,1-2.34-.61A4.06,4.06,0,0,1,62.68,50a6.46,6.46,0,0,1-.59-2.86,6.32,6.32,0,0,1,.59-2.83A4.21,4.21,0,0,1,64.3,42.5a4.46,4.46,0,0,1,2.35-.62,3.73,3.73,0,0,1,1.75.41,4.29,4.29,0,0,1,1.43,1.17V42.14h2.74v9.62a4.26,4.26,0,0,1-1.63,3.79,6.87,6.87,0,0,1-4,1.11,7.87,7.87,0,0,1-2.43-.35,6.21,6.21,0,0,1-2-1.19Zm6.07-7.68a2.44,2.44,0,0,0-1-.84,2.92,2.92,0,0,0-1.34-.33,2.44,2.44,0,0,0-1.89.77,2.9,2.9,0,0,0-.72,2.07,2.94,2.94,0,0,0,.72,2.08A2.48,2.48,0,0,0,67.5,50a2.84,2.84,0,0,0,1.33-.35,2.53,2.53,0,0,0,1-.83Z" fill="#fff"/><path d="M82.08,46.18a1.85,1.85,0,0,0-.49-1.46,2.14,2.14,0,0,0-1.43-.42,2.64,2.64,0,0,0-1.35.35,3.12,3.12,0,0,0-1,.86v7H75.09V38.2h2.72v5.28a4.55,4.55,0,0,1,1.5-1.13,4.82,4.82,0,0,1,2.13-.47,3.4,3.4,0,0,1,2.52.85,3.28,3.28,0,0,1,.84,2.4v7.34H82.08Z" fill="#fff"/><path d="M93,38.2h6.67a5.2,5.2,0,0,1,2.59.62,4.15,4.15,0,0,1,1.64,1.66,4.82,4.82,0,0,1,.56,2.32,4.7,4.7,0,0,1-.57,2.3,4,4,0,0,1-1.64,1.64,5.13,5.13,0,0,1-2.58.61H96.07v5.12H93Zm7.76,3.15a2.16,2.16,0,0,0-1.5-.54H96.07v3.93H99.3a2.13,2.13,0,0,0,1.51-.54,2,2,0,0,0,0-2.85Z" fill="#fff"/><path d="M106,44.57a5.11,5.11,0,0,1,1.9-2,5.22,5.22,0,0,1,2.76-.73,5.1,5.1,0,0,1,2.7.72,4.74,4.74,0,0,1,1.82,2,6.42,6.42,0,0,1,.66,3v.6h-7.68a2.6,2.6,0,0,0,.92,1.72,3,3,0,0,0,2,.69,4.5,4.5,0,0,0,1.51-.27,3.65,3.65,0,0,0,1.25-.75l1.2,1.75a5.13,5.13,0,0,1-1.88,1.06,7.55,7.55,0,0,1-2.38.37,5.87,5.87,0,0,1-2.82-.67,5,5,0,0,1-2-1.91,5.55,5.55,0,0,1-.72-2.86A5.48,5.48,0,0,1,106,44.57Zm2.86.16a2.85,2.85,0,0,0-.74,1.6h5.09a2.7,2.7,0,0,0-.7-1.59,2.74,2.74,0,0,0-3.65,0Z" fill="#fff"/><path d="M119,52a2.82,2.82,0,0,1-.75-2.11v-5.4h-1.71V42.14h1.71V39.31H121v2.83h2.1v2.37H121v4.68a1.24,1.24,0,0,0,.26.82.83.83,0,0,0,.68.32,1.69,1.69,0,0,0,.56-.09.9.9,0,0,0,.38-.21l.58,2a3.36,3.36,0,0,1-2.27.66A3,3,0,0,1,119,52Z" fill="#fff"/><path d="M125.9,48.17a6.42,6.42,0,0,0,2,1.39,6.17,6.17,0,0,0,2.56.53,3.13,3.13,0,0,0,1.83-.47,1.4,1.4,0,0,0,.65-1.14,1.19,1.19,0,0,0-.7-1.11,9.73,9.73,0,0,0-2.19-.72,25.56,25.56,0,0,1-2.71-.77,4.57,4.57,0,0,1-1.83-1.26,3.38,3.38,0,0,1-.78-2.35,3.83,3.83,0,0,1,.66-2.18,4.45,4.45,0,0,1,1.89-1.56,6.76,6.76,0,0,1,2.86-.57,7.91,7.91,0,0,1,5.56,2L134,42.18A5.69,5.69,0,0,0,132.07,41a6.38,6.38,0,0,0-2.17-.39,2.59,2.59,0,0,0-1.56.4,1.25,1.25,0,0,0-.54,1.06,1,1,0,0,0,.66,1,11.94,11.94,0,0,0,2.18.68,18.7,18.7,0,0,1,2.71.78,4.73,4.73,0,0,1,1.86,1.3,3.39,3.39,0,0,1,.78,2.34,4.19,4.19,0,0,1-1.46,3.32,6.36,6.36,0,0,1-4.25,1.26,8.18,8.18,0,0,1-6-2.26Z" fill="#fff"/><path d="M150.76,45.94a1.88,1.88,0,0,0-.37-1.21,1.46,1.46,0,0,0-1.17-.43,2.26,2.26,0,0,0-1.23.36,3.33,3.33,0,0,0-.91.83v7h-2.74V45.94a1.82,1.82,0,0,0-.37-1.21,1.46,1.46,0,0,0-1.17-.43,2.3,2.3,0,0,0-1.22.36,3.28,3.28,0,0,0-.92.85v7H138V42.14h2.71v1.34A3.93,3.93,0,0,1,142,42.4a4.17,4.17,0,0,1,2-.52,3.17,3.17,0,0,1,1.84.49,2.61,2.61,0,0,1,1,1.39,4.26,4.26,0,0,1,1.47-1.33,4.1,4.1,0,0,1,2.08-.55,3.08,3.08,0,0,1,2.25.78A3.18,3.18,0,0,1,153.5,45v7.47h-2.74Z" fill="#fff"/><path d="M163.2,51.14a4.28,4.28,0,0,1-1.43,1.19,3.8,3.8,0,0,1-1.76.41,4.28,4.28,0,0,1-4-2.5,6.73,6.73,0,0,1-.59-2.92,6.64,6.64,0,0,1,.59-2.88,4.47,4.47,0,0,1,1.63-1.9,4.28,4.28,0,0,1,2.36-.66,3.81,3.81,0,0,1,1.75.41,4,4,0,0,1,1.44,1.17V42.14h2.73V52.47H163.2Zm0-5.64a2.51,2.51,0,0,0-1-.85,3,3,0,0,0-1.35-.33,2.39,2.39,0,0,0-1.88.82,3.61,3.61,0,0,0,0,4.35,2.38,2.38,0,0,0,1.88.84,2.88,2.88,0,0,0,1.35-.34,2.58,2.58,0,0,0,1-.84Z" fill="#fff"/><path d="M168.45,42.14h2.72v1.41a4.52,4.52,0,0,1,1.45-1.19,3.86,3.86,0,0,1,1.84-.48v2.65a3.19,3.19,0,0,0-.75-.08,3.55,3.55,0,0,0-1.45.34,2.49,2.49,0,0,0-1.09.83v6.85h-2.72Z" fill="#fff"/><path d="M177.79,52a2.82,2.82,0,0,1-.75-2.11v-5.4h-1.71V42.14H177V39.31h2.74v2.83h2.1v2.37h-2.1v4.68A1.3,1.3,0,0,0,180,50a.83.83,0,0,0,.68.32,1.69,1.69,0,0,0,.56-.09.9.9,0,0,0,.38-.21l.58,2a3.36,3.36,0,0,1-2.27.66A3,3,0,0,1,177.79,52Z" fill="#fff"/><path d="M192.29,51.81a6.87,6.87,0,0,1-2.7-2.62,7.85,7.85,0,0,1,0-7.67,6.87,6.87,0,0,1,2.7-2.62,7.8,7.8,0,0,1,3.79-.94,6.6,6.6,0,0,1,3.72,1,7.25,7.25,0,0,1,2.35,2.51l-2.61,1.28a3.88,3.88,0,0,0-1.4-1.48,3.8,3.8,0,0,0-2.06-.59,4.18,4.18,0,0,0-2.23.61A4.31,4.31,0,0,0,192.28,43a5.36,5.36,0,0,0,0,4.81,4.31,4.31,0,0,0,1.57,1.68,4.18,4.18,0,0,0,2.23.61,3.76,3.76,0,0,0,2.07-.58,3.64,3.64,0,0,0,1.39-1.5l2.61,1.27a6.57,6.57,0,0,1-6.07,3.5A7.79,7.79,0,0,1,192.29,51.81Z" fill="#fff"/><path d="M210.67,46.18a1.85,1.85,0,0,0-.5-1.46,2.12,2.12,0,0,0-1.43-.42,2.67,2.67,0,0,0-1.35.35,3.23,3.23,0,0,0-1,.86v7h-2.72V38.2h2.72v5.28a4.5,4.5,0,0,1,1.51-1.13,4.76,4.76,0,0,1,2.13-.47,3.39,3.39,0,0,1,2.51.85,3.28,3.28,0,0,1,.84,2.4v7.34h-2.71Z" fill="#fff"/><path d="M223.09,51.14a4.25,4.25,0,0,1-1.42,1.19,3.84,3.84,0,0,1-1.77.41,4.39,4.39,0,0,1-2.35-.64,4.3,4.3,0,0,1-1.63-1.86,6.59,6.59,0,0,1-.59-2.92,6.5,6.5,0,0,1,.59-2.88,4.52,4.52,0,0,1,1.62-1.9,4.3,4.3,0,0,1,2.36-.66,3.86,3.86,0,0,1,1.76.41,4.11,4.11,0,0,1,1.43,1.17V42.14h2.74V52.47h-2.74Zm0-5.64a2.48,2.48,0,0,0-1-.85,3.05,3.05,0,0,0-1.35-.33,2.38,2.38,0,0,0-1.88.82,3.61,3.61,0,0,0,0,4.35,2.36,2.36,0,0,0,1.88.84,2.94,2.94,0,0,0,1.35-.34,2.54,2.54,0,0,0,1-.84Z" fill="#fff"/><path d="M228.35,42.14h2.71v1.41a4.56,4.56,0,0,1,1.46-1.19,3.86,3.86,0,0,1,1.84-.48v2.65a3.3,3.3,0,0,0-.75-.08,3.59,3.59,0,0,0-1.46.34,2.55,2.55,0,0,0-1.09.83v6.85h-2.71Z" fill="#fff"/><path d="M236,40.14a1.6,1.6,0,0,1-.48-1.15,1.63,1.63,0,0,1,2.78-1.15,1.58,1.58,0,0,1,.47,1.15,1.63,1.63,0,0,1-.47,1.15,1.62,1.62,0,0,1-2.3,0Zm-.21,2h2.72V52.47H235.8Z" fill="#fff"/><path d="M242.35,52a2.82,2.82,0,0,1-.75-2.11v-5.4h-1.71V42.14h1.71V39.31h2.74v2.83h2.1v2.37h-2.1v4.68a1.3,1.3,0,0,0,.26.82.84.84,0,0,0,.68.32,1.69,1.69,0,0,0,.56-.09.9.9,0,0,0,.38-.21l.58,2a3.34,3.34,0,0,1-2.27.66A3,3,0,0,1,242.35,52Z" fill="#fff"/><path d="M248.46,40.14A1.6,1.6,0,0,1,248,39a1.63,1.63,0,0,1,2.78-1.15,1.58,1.58,0,0,1,.47,1.15,1.63,1.63,0,0,1-.47,1.15,1.62,1.62,0,0,1-2.3,0Zm-.21,2H251V52.47h-2.72Z" fill="#fff"/><path d="M253.54,44.57a5.18,5.18,0,0,1,1.9-2,5.27,5.27,0,0,1,2.76-.73,5.07,5.07,0,0,1,2.7.72,4.83,4.83,0,0,1,1.83,2,6.54,6.54,0,0,1,.65,3v.6H255.7a2.65,2.65,0,0,0,.92,1.72,3,3,0,0,0,2.05.69,4.46,4.46,0,0,0,1.51-.27,3.56,3.56,0,0,0,1.25-.75l1.2,1.75a5.13,5.13,0,0,1-1.88,1.06,7.53,7.53,0,0,1-2.37.37,5.89,5.89,0,0,1-2.83-.67,5,5,0,0,1-2-1.91,5.54,5.54,0,0,1-.71-2.86A5.48,5.48,0,0,1,253.54,44.57Zm2.87.16a2.8,2.8,0,0,0-.75,1.6h5.09a2.64,2.64,0,0,0-.7-1.59,2.34,2.34,0,0,0-1.85-.7A2.31,2.31,0,0,0,256.41,44.73Z" fill="#fff"/><path d="M265.49,49.24a5.33,5.33,0,0,0,1.63,1,5,5,0,0,0,1.94.43,2.54,2.54,0,0,0,1.3-.28.88.88,0,0,0,.43-.78.83.83,0,0,0-.51-.76,6.54,6.54,0,0,0-1.56-.47,16.49,16.49,0,0,1-2.05-.51,3.35,3.35,0,0,1-1.41-.93,2.55,2.55,0,0,1-.6-1.79,2.85,2.85,0,0,1,.5-1.63,3.41,3.41,0,0,1,1.46-1.18,5.35,5.35,0,0,1,2.27-.44,6.49,6.49,0,0,1,4.17,1.41L272,45.15a3.72,3.72,0,0,0-1.31-.85,4.48,4.48,0,0,0-1.75-.35,2.32,2.32,0,0,0-1.18.26.78.78,0,0,0-.44.71.71.71,0,0,0,.48.67,7.1,7.1,0,0,0,1.48.44,14.47,14.47,0,0,1,2.08.53,3.58,3.58,0,0,1,1.45,1,2.66,2.66,0,0,1,.63,1.87,2.9,2.9,0,0,1-.53,1.7,3.44,3.44,0,0,1-1.54,1.2,6.3,6.3,0,0,1-2.41.42,7.91,7.91,0,0,1-2.57-.42,5.94,5.94,0,0,1-2.05-1.18Z" fill="#fff"/><path d="M275.61,49.79a1.69,1.69,0,1,1-.52,1.22A1.67,1.67,0,0,1,275.61,49.79Z" fill="#fff"/></g></g></svg>