<svg xmlns="http://www.w3.org/2000/svg" viewBox="0 0 300 250"><title>txt2</title><g id="Layer_2" data-name="Layer 2"><g id="Frame_2_v1" data-name="Frame 2 v1" style="isolation:isolate"><g id="rect"><rect width="300" height="250" fill="none"/></g><g id="National_Adoption_Days_Nov._2_22" data-name="National Adoption Days Nov. 2–22"><path d="M14.45,17.68v9.58h-3V13h3.12l6.61,9.24V13h3V27.26H21.25Z" fill="#fff"/><path d="M34.14,25.93a4.28,4.28,0,0,1-1.43,1.19,3.81,3.81,0,0,1-1.76.42,4.37,4.37,0,0,1-2.35-.65A4.32,4.32,0,0,1,27,25a6.73,6.73,0,0,1-.59-2.92A6.64,6.64,0,0,1,27,19.23a4.52,4.52,0,0,1,1.62-1.9A4.34,4.34,0,0,1,31,16.67a4,4,0,0,1,1.75.41,4,4,0,0,1,1.44,1.17V16.93h2.73V27.26H34.14Zm0-5.64a2.6,2.6,0,0,0-1-.85,3,3,0,0,0-1.35-.33,2.35,2.35,0,0,0-1.88.83,3.18,3.18,0,0,0-.73,2.17,3.22,3.22,0,0,0,.73,2.17,2.36,2.36,0,0,0,1.88.84,3,3,0,0,0,1.35-.33,2.68,2.68,0,0,0,1-.85Z" fill="#fff"/><path d="M40.74,26.81a2.84,2.84,0,0,1-.74-2.1V19.3H38.28V16.93H40V14.1h2.73v2.83h2.1V19.3h-2.1V24a1.3,1.3,0,0,0,.26.82.84.84,0,0,0,.68.32,1.69,1.69,0,0,0,.56-.09,1,1,0,0,0,.39-.21l.57,2.05a3.33,3.33,0,0,1-2.26.67A3,3,0,0,1,40.74,26.81Z" fill="#fff"/><path d="M46.85,14.93a1.58,1.58,0,0,1-.48-1.15,1.63,1.63,0,0,1,2.78-1.15,1.58,1.58,0,0,1,.47,1.15,1.61,1.61,0,0,1-.47,1.15,1.62,1.62,0,0,1-2.3,0Zm-.2,2h2.71V27.26H46.65Z" fill="#fff"/><path d="M53.81,26.81a5.06,5.06,0,0,1-1.9-2,5.79,5.79,0,0,1-.66-2.75,5.73,5.73,0,0,1,.66-2.72,4.93,4.93,0,0,1,1.9-2,6.13,6.13,0,0,1,5.8,0,5,5,0,0,1,1.91,2,5.73,5.73,0,0,1,.66,2.72,5.79,5.79,0,0,1-.66,2.75,5.09,5.09,0,0,1-1.91,2,6.13,6.13,0,0,1-5.8,0Zm4.83-2.56a3.27,3.27,0,0,0,.71-2.16A3.22,3.22,0,0,0,58.64,20a2.38,2.38,0,0,0-1.94-.87,2.34,2.34,0,0,0-1.92.87,3.28,3.28,0,0,0-.71,2.13,3.32,3.32,0,0,0,.71,2.16,2.34,2.34,0,0,0,1.92.87A2.38,2.38,0,0,0,58.64,24.25Z" fill="#fff"/><path d="M71.06,21a1.9,1.9,0,0,0-.49-1.47,2,2,0,0,0-1.41-.45,2.63,2.63,0,0,0-1.36.35,3.22,3.22,0,0,0-1,.87v7H64.09V16.93h2.72v1.34a4.61,4.61,0,0,1,1.49-1.13,4.75,4.75,0,0,1,2.12-.47,3.31,3.31,0,0,1,2.51.88A3.3,3.3,0,0,1,73.78,20v7.3H71.06Z" fill="#fff"/><path d="M83.5,25.93a4.25,4.25,0,0,1-1.42,1.19,3.85,3.85,0,0,1-1.77.42A4.4,4.4,0,0,1,78,26.89,4.32,4.32,0,0,1,76.32,25a6.73,6.73,0,0,1-.59-2.92,6.64,6.64,0,0,1,.59-2.88A4.54,4.54,0,0,1,78,17.33a4.3,4.3,0,0,1,2.36-.66,4,4,0,0,1,1.76.41,4.11,4.11,0,0,1,1.43,1.17V16.93h2.74V27.26H83.5Zm0-5.64a2.53,2.53,0,0,0-1-.85,3,3,0,0,0-1.34-.33,2.39,2.39,0,0,0-1.89.83,3.18,3.18,0,0,0-.72,2.17,3.21,3.21,0,0,0,.72,2.17,2.4,2.4,0,0,0,1.89.84,3,3,0,0,0,1.34-.33,2.61,2.61,0,0,0,1-.85Z" fill="#fff"/><path d="M89.49,26.82a2.82,2.82,0,0,1-.74-2.11V13h2.72V24a1.29,1.29,0,0,0,.25.82.85.85,0,0,0,.69.32A1.63,1.63,0,0,0,93,25a.8.8,0,0,0,.37-.21l.57,2.05a3.28,3.28,0,0,1-2.24.67A3,3,0,0,1,89.49,26.82Z" fill="#fff"/><path d="M109.75,24.8h-6.37l-.9,2.46H99.14L104.66,13h3.81L114,27.26h-3.32Zm-5.56-2.63h4.73l-2.35-6.55Z" fill="#fff"/><path d="M122.2,25.93a4.25,4.25,0,0,1-1.42,1.19,3.85,3.85,0,0,1-1.77.42,4.4,4.4,0,0,1-2.35-.65A4.3,4.3,0,0,1,115,25a6.59,6.59,0,0,1-.59-2.92,6.5,6.5,0,0,1,.59-2.88,4.52,4.52,0,0,1,1.62-1.9,4.3,4.3,0,0,1,2.36-.66,4,4,0,0,1,1.76.41,4.11,4.11,0,0,1,1.43,1.17V13h2.74V27.26H122.2Zm0-5.66a2.48,2.48,0,0,0-1-.85,3,3,0,0,0-1.35-.33,2.39,2.39,0,0,0-1.88.83,3.2,3.2,0,0,0-.73,2.19,3.17,3.17,0,0,0,.73,2.17,2.36,2.36,0,0,0,1.88.84,3,3,0,0,0,1.35-.33,2.65,2.65,0,0,0,1-.85Z" fill="#fff"/><path d="M129.42,26.81a5,5,0,0,1-1.9-2,5.68,5.68,0,0,1-.67-2.75,5.62,5.62,0,0,1,.67-2.72,4.87,4.87,0,0,1,1.9-2,6.13,6.13,0,0,1,5.8,0,4.93,4.93,0,0,1,1.9,2,5.73,5.73,0,0,1,.66,2.72,5.79,5.79,0,0,1-.66,2.75,5.06,5.06,0,0,1-1.9,2,6.13,6.13,0,0,1-5.8,0Zm4.82-2.56a3.27,3.27,0,0,0,.72-2.16,3.23,3.23,0,0,0-.72-2.13,2.37,2.37,0,0,0-1.93-.87,2.35,2.35,0,0,0-1.93.87,3.27,3.27,0,0,0-.7,2.13,3.32,3.32,0,0,0,.7,2.16,2.35,2.35,0,0,0,1.93.87A2.37,2.37,0,0,0,134.24,24.25Z" fill="#fff"/><path d="M139.69,31.19V16.93h2.72v1.3a4.13,4.13,0,0,1,1.42-1.15,4,4,0,0,1,1.77-.41,4.24,4.24,0,0,1,4,2.51,6.65,6.65,0,0,1,.58,2.91,6.78,6.78,0,0,1-.58,2.93,4.27,4.27,0,0,1-4,2.52A3.93,3.93,0,0,1,142.41,26v5.24Zm6.94-11.27a2.36,2.36,0,0,0-1.89-.83,2.82,2.82,0,0,0-1.32.34,2.68,2.68,0,0,0-1,.84v3.67a2.71,2.71,0,0,0,1,.84,3,3,0,0,0,1.31.34,2.34,2.34,0,0,0,1.89-.84,3.25,3.25,0,0,0,.72-2.19A3.23,3.23,0,0,0,146.63,19.92Z" fill="#fff"/><path d="M153.46,26.81a2.81,2.81,0,0,1-.75-2.1V19.3H151V16.93h1.71V14.1h2.74v2.83h2.1V19.3h-2.1V24a1.3,1.3,0,0,0,.26.82.84.84,0,0,0,.68.32A1.69,1.69,0,0,0,157,25a.9.9,0,0,0,.38-.21l.58,2.05a3.33,3.33,0,0,1-2.26.67A3,3,0,0,1,153.46,26.81Z" fill="#fff"/><path d="M159.57,14.93a1.58,1.58,0,0,1-.48-1.15,1.63,1.63,0,0,1,2.78-1.15,1.58,1.58,0,0,1,.47,1.15,1.61,1.61,0,0,1-.47,1.15,1.62,1.62,0,0,1-2.3,0Zm-.2,2h2.71V27.26h-2.71Z" fill="#fff"/><path d="M166.53,26.81a5.06,5.06,0,0,1-1.9-2,5.79,5.79,0,0,1-.66-2.75,5.73,5.73,0,0,1,.66-2.72,4.93,4.93,0,0,1,1.9-2,6.13,6.13,0,0,1,5.8,0,4.87,4.87,0,0,1,1.9,2,5.62,5.62,0,0,1,.67,2.72,5.68,5.68,0,0,1-.67,2.75,5,5,0,0,1-1.9,2,6.13,6.13,0,0,1-5.8,0Zm4.83-2.56a3.32,3.32,0,0,0,.71-2.16,3.28,3.28,0,0,0-.71-2.13,2.39,2.39,0,0,0-1.94-.87,2.34,2.34,0,0,0-1.92.87,3.28,3.28,0,0,0-.71,2.13,3.32,3.32,0,0,0,.71,2.16,2.34,2.34,0,0,0,1.92.87A2.39,2.39,0,0,0,171.36,24.25Z" fill="#fff"/><path d="M183.78,21a1.9,1.9,0,0,0-.49-1.47,2,2,0,0,0-1.41-.45,2.63,2.63,0,0,0-1.36.35,3.11,3.11,0,0,0-1,.87v7h-2.72V16.93h2.72v1.34A4.61,4.61,0,0,1,181,17.14a4.75,4.75,0,0,1,2.12-.47,3.31,3.31,0,0,1,2.51.88A3.3,3.3,0,0,1,186.5,20v7.3h-2.72Z" fill="#fff"/><path d="M194.73,13h5.63a8.43,8.43,0,0,1,3.93.89A6.56,6.56,0,0,1,207,16.39a7.24,7.24,0,0,1,1,3.75,7.17,7.17,0,0,1-1,3.73,6.6,6.6,0,0,1-2.68,2.5,8.43,8.43,0,0,1-3.93.89h-5.63Zm5.63,11.59a4.67,4.67,0,0,0,2.38-.59,4,4,0,0,0,1.55-1.62,4.68,4.68,0,0,0,.54-2.23,4.47,4.47,0,0,0-1.18-3.22,4.27,4.27,0,0,0-3.29-1.25h-2.59v8.91Z" fill="#fff"/><path d="M217.18,25.93a4.25,4.25,0,0,1-1.42,1.19,3.84,3.84,0,0,1-1.76.42,4.43,4.43,0,0,1-2.36-.65A4.3,4.3,0,0,1,210,25a6.59,6.59,0,0,1-.59-2.92,6.5,6.5,0,0,1,.59-2.88,4.52,4.52,0,0,1,1.62-1.9,4.31,4.31,0,0,1,2.37-.66,4,4,0,0,1,3.18,1.58V16.93h2.74V27.26h-2.74Zm0-5.64a2.49,2.49,0,0,0-1-.85,3,3,0,0,0-1.35-.33,2.35,2.35,0,0,0-1.88.83,3.13,3.13,0,0,0-.73,2.17,3.17,3.17,0,0,0,.73,2.17,2.36,2.36,0,0,0,1.88.84,3,3,0,0,0,1.35-.33,2.57,2.57,0,0,0,1-.85Z" fill="#fff"/><path d="M223.49,27.94a3.19,3.19,0,0,0,1.36,1,4.72,4.72,0,0,0,1.74.33,2.86,2.86,0,0,0,2-.69,2.6,2.6,0,0,0,.73-2V25.5a4.84,4.84,0,0,1-3.64,1.57,3.35,3.35,0,0,1-2.5-.86,3.28,3.28,0,0,1-.84-2.4V16.93h2.72v5.81a1.87,1.87,0,0,0,.49,1.47,2.07,2.07,0,0,0,1.41.44,2.82,2.82,0,0,0,1.35-.34,3.24,3.24,0,0,0,1-.84V16.93h2.71v9.51a4.65,4.65,0,0,1-1.48,3.69,5.82,5.82,0,0,1-4,1.32,6.3,6.3,0,0,1-4.32-1.54Z" fill="#fff"/><path d="M235,24a5.33,5.33,0,0,0,1.63,1,5,5,0,0,0,1.94.43,2.41,2.41,0,0,0,1.3-.28.89.89,0,0,0,.44-.78.82.82,0,0,0-.52-.75,6,6,0,0,0-1.56-.48,16.49,16.49,0,0,1-2.05-.51,3.48,3.48,0,0,1-1.41-.93,2.55,2.55,0,0,1-.6-1.79,2.87,2.87,0,0,1,.5-1.62,3.42,3.42,0,0,1,1.46-1.19,5.5,5.5,0,0,1,2.27-.44,6.49,6.49,0,0,1,4.17,1.41l-1.09,1.86a3.86,3.86,0,0,0-1.31-.85,4.47,4.47,0,0,0-1.75-.34,2.35,2.35,0,0,0-1.18.25.78.78,0,0,0-.44.71.71.71,0,0,0,.48.67,7.23,7.23,0,0,0,1.49.44,14.19,14.19,0,0,1,2.07.54,3.66,3.66,0,0,1,1.46,1,2.7,2.7,0,0,1,.62,1.87,3,3,0,0,1-.53,1.71,3.49,3.49,0,0,1-1.54,1.19,6.27,6.27,0,0,1-2.4.43,7.94,7.94,0,0,1-2.58-.43,5.8,5.8,0,0,1-2-1.18Z" fill="#fff"/><path d="M12.74,43.32v9.15H11.33V41.13h1.44l6.53,9v-9h1.41V52.47H19.35Z" fill="#fff"/><path d="M24.84,52.11a4,4,0,0,1-1.42-1.57,5,5,0,0,1,0-4.36,3.89,3.89,0,0,1,1.42-1.56,4.32,4.32,0,0,1,4.29,0,3.89,3.89,0,0,1,1.42,1.56,5,5,0,0,1,0,4.36,4.1,4.1,0,0,1-5.71,1.57Zm3.61-1A2.73,2.73,0,0,0,29.38,50a3.84,3.84,0,0,0,.33-1.59,3.79,3.79,0,0,0-.33-1.58,2.79,2.79,0,0,0-.93-1.16,2.71,2.71,0,0,0-2.93,0,2.84,2.84,0,0,0-.95,1.16,4,4,0,0,0-.32,1.58A4,4,0,0,0,24.57,50a2.78,2.78,0,0,0,.95,1.16,2.66,2.66,0,0,0,2.93,0Z" fill="#fff"/><path d="M31.67,44.26h1.38L35.79,51l2.72-6.73H39.9l-3.42,8.21H35.09Z" fill="#fff"/><path d="M40.39,51.09a.93.93,0,0,1,.66-.27.92.92,0,0,1,.93.93.93.93,0,0,1-.27.66.91.91,0,0,1-.66.28,1,1,0,0,1-.94-.94A.91.91,0,0,1,40.39,51.09Z" fill="#fff"/><path d="M48.31,51.34c1.56-1.23,2.77-2.23,3.63-3a12.43,12.43,0,0,0,2-2.14,3.45,3.45,0,0,0,.69-1.94,1.82,1.82,0,0,0-.7-1.55,2.63,2.63,0,0,0-1.67-.53,4.07,4.07,0,0,0-1.77.38,3.53,3.53,0,0,0-1.3,1.05l-.87-.9A4.2,4.2,0,0,1,50,41.41a5.5,5.5,0,0,1,2.25-.47,4.82,4.82,0,0,1,1.86.37,3.4,3.4,0,0,1,1.41,1.14A3,3,0,0,1,56,44.28a4.16,4.16,0,0,1-.68,2.2,10.79,10.79,0,0,1-1.83,2.19c-.78.73-1.77,1.57-3,2.54h5.56v1.26H48.31Z" fill="#fff"/><path d="M57.38,47.79h9.06v1.12H57.38Z" fill="#fff"/><path d="M67.25,51.34c1.56-1.23,2.77-2.23,3.63-3a12.43,12.43,0,0,0,2-2.14,3.45,3.45,0,0,0,.69-1.94,1.82,1.82,0,0,0-.7-1.55,2.65,2.65,0,0,0-1.67-.53,4.07,4.07,0,0,0-1.77.38,3.53,3.53,0,0,0-1.3,1.05l-.87-.9a4.2,4.2,0,0,1,1.69-1.32,5.5,5.5,0,0,1,2.25-.47,4.82,4.82,0,0,1,1.86.37,3.4,3.4,0,0,1,1.41,1.14A3,3,0,0,1,75,44.28a4.16,4.16,0,0,1-.68,2.2,10.79,10.79,0,0,1-1.83,2.19c-.78.73-1.77,1.57-3,2.54H75v1.26H67.25Z" fill="#fff"/><path d="M77,51.34c1.56-1.23,2.77-2.23,3.63-3a12,12,0,0,0,2-2.14,3.45,3.45,0,0,0,.69-1.94,1.8,1.8,0,0,0-.7-1.55,2.62,2.62,0,0,0-1.66-.53,4.11,4.11,0,0,0-1.78.38,3.53,3.53,0,0,0-1.3,1.05l-.87-.9a4.27,4.27,0,0,1,1.69-1.32,5.51,5.51,0,0,1,2.26-.47,4.81,4.81,0,0,1,1.85.37,3.28,3.28,0,0,1,1.41,1.14,3.05,3.05,0,0,1,.55,1.83,4.16,4.16,0,0,1-.68,2.2,11.2,11.2,0,0,1-1.84,2.19c-.77.73-1.77,1.57-3,2.54h5.56v1.26H77Z" fill="#fff"/></g></g></g></svg>