<svg xmlns="http://www.w3.org/2000/svg" viewBox="0 0 160 600"><title>txt1</title><g id="Layer_2" data-name="Layer 2"><g id="rect"><rect width="160" height="600" fill="none"/></g><g id="_1_in_5_pets_are_adopted_through_PetSmart_Charities." data-name="1 in 5  pets are  adopted through PetSmart Charities."><path d="M18.55,23.42,15.33,26.7,13,24.23l6.09-6.11h3.6V37.46H18.55Z" fill="#fff"/><path d="M34.11,20.74a2.19,2.19,0,1,1,1.55.65A2.11,2.11,0,0,1,34.11,20.74Zm-.28,2.71h3.68v14H33.83Z" fill="#fff"/><path d="M50.62,29A2.62,2.62,0,0,0,50,27,2.75,2.75,0,0,0,48,26.38a3.58,3.58,0,0,0-1.84.48A4.53,4.53,0,0,0,44.85,28v9.43H41.17v-14h3.68v1.83a6.29,6.29,0,0,1,2-1.54,6.41,6.41,0,0,1,2.87-.64,4.53,4.53,0,0,1,3.41,1.19,4.55,4.55,0,0,1,1.15,3.28v9.89H50.62Z" fill="#fff"/><path d="M67.24,32.12a6.76,6.76,0,0,0,2.3,1.58,7.51,7.51,0,0,0,2.86.54A4,4,0,0,0,75,33.41a2.66,2.66,0,0,0,1-2.09,2.71,2.71,0,0,0-.93-2.15,3.71,3.71,0,0,0-2.55-.82A5.65,5.65,0,0,0,68.46,30l-2.87-.79v-11H78.87v3.53H69.62V26.5a6.38,6.38,0,0,1,1.94-1.18A6.45,6.45,0,0,1,74,24.87a6.39,6.39,0,0,1,3.07.77,5.94,5.94,0,0,1,2.28,2.2,6.3,6.3,0,0,1,.85,3.31,6.56,6.56,0,0,1-1,3.55A6.27,6.27,0,0,1,76.5,37a9.6,9.6,0,0,1-4.07.81A9.6,9.6,0,0,1,65,34.92Z" fill="#fff"/><path d="M14.49,72.79V53.45h3.68v1.77a5.69,5.69,0,0,1,1.93-1.57,5.41,5.41,0,0,1,2.39-.55,5.74,5.74,0,0,1,5.41,3.4,10.2,10.2,0,0,1,0,7.92A5.91,5.91,0,0,1,25.7,67a6,6,0,0,1-3.21.87,5.35,5.35,0,0,1-2.38-.53,5.67,5.67,0,0,1-1.94-1.61v7.1ZM23.9,57.52a3.21,3.21,0,0,0-2.57-1.14,3.9,3.9,0,0,0-1.8.47A3.68,3.68,0,0,0,18.17,58v5a3.69,3.69,0,0,0,1.38,1.13,3.92,3.92,0,0,0,1.78.47,3.21,3.21,0,0,0,2.57-1.14,4.37,4.37,0,0,0,1-3A4.32,4.32,0,0,0,23.9,57.52Z" fill="#fff"/><path d="M31.48,56.75a7.08,7.08,0,0,1,2.58-2.66,7.16,7.16,0,0,1,3.74-1,7,7,0,0,1,3.66,1,6.63,6.63,0,0,1,2.48,2.73,8.81,8.81,0,0,1,.88,4v.81H34.41A3.6,3.6,0,0,0,35.66,64a4.08,4.08,0,0,0,2.78.94,6,6,0,0,0,2.05-.38,4.71,4.71,0,0,0,1.69-1l1.63,2.38a7,7,0,0,1-2.55,1.44,10.18,10.18,0,0,1-3.22.5,8,8,0,0,1-3.83-.91,6.62,6.62,0,0,1-2.68-2.59,8,8,0,0,1-.05-7.58Zm3.89.22a3.82,3.82,0,0,0-1,2.16h6.91A3.56,3.56,0,0,0,40.31,57a3.18,3.18,0,0,0-2.51-1A3.17,3.17,0,0,0,35.37,57Z" fill="#fff"/><path d="M49.23,66.85a3.79,3.79,0,0,1-1-2.85V56.67H45.9V53.45h2.31V49.62h3.72v3.83h2.84v3.22H51.93V63a1.72,1.72,0,0,0,.34,1.1,1.16,1.16,0,0,0,.93.44,2.33,2.33,0,0,0,.76-.12,1.34,1.34,0,0,0,.52-.29l.78,2.79a4.52,4.52,0,0,1-3.07.89A4.07,4.07,0,0,1,49.23,66.85Z" fill="#fff"/><path d="M57.67,63.08a7.25,7.25,0,0,0,2.2,1.33,6.83,6.83,0,0,0,2.64.58,3.26,3.26,0,0,0,1.76-.38,1.19,1.19,0,0,0,.59-1,1.12,1.12,0,0,0-.69-1,9.57,9.57,0,0,0-2.12-.64,19.42,19.42,0,0,1-2.79-.7,4.57,4.57,0,0,1-1.91-1.26,3.44,3.44,0,0,1-.81-2.42,3.81,3.81,0,0,1,.68-2.2,4.54,4.54,0,0,1,2-1.61,7.28,7.28,0,0,1,3.07-.6A8.83,8.83,0,0,1,67.94,55l-1.48,2.52a5.28,5.28,0,0,0-1.79-1.16,6.05,6.05,0,0,0-2.36-.46,3.21,3.21,0,0,0-1.61.34,1.07,1.07,0,0,0-.6,1,1,1,0,0,0,.66.91,9.16,9.16,0,0,0,2,.6,19,19,0,0,1,2.82.73,4.82,4.82,0,0,1,2,1.33,3.67,3.67,0,0,1,.84,2.54,4,4,0,0,1-.71,2.31,4.6,4.6,0,0,1-2.09,1.61,8.33,8.33,0,0,1-3.26.58,10.53,10.53,0,0,1-3.5-.58,7.72,7.72,0,0,1-2.77-1.59Z" fill="#fff"/><path d="M87,66a5.12,5.12,0,0,1-1.9,1.33,6.46,6.46,0,0,1-2.54.49,5.33,5.33,0,0,1-2.3-.52,4.62,4.62,0,0,1-1.85-1.58,4.44,4.44,0,0,1-.72-2.55,4.27,4.27,0,0,1,.72-2.55,4.39,4.39,0,0,1,1.83-1.46,5.94,5.94,0,0,1,2.32-.47,7.5,7.5,0,0,1,2.58.43A4.34,4.34,0,0,1,87,60.41V58.47a2,2,0,0,0-.84-1.71,3.59,3.59,0,0,0-2.24-.64,5.86,5.86,0,0,0-4.08,1.65l-1.4-2.46a8.42,8.42,0,0,1,2.83-1.66,10.14,10.14,0,0,1,3.29-.55,7.31,7.31,0,0,1,4.41,1.25,4.69,4.69,0,0,1,1.71,4.06v9H87Zm0-3.65a2.75,2.75,0,0,0-1.23-.9A4.51,4.51,0,0,0,84,61.14a3,3,0,0,0-1.88.57,1.84,1.84,0,0,0-.76,1.56,1.78,1.78,0,0,0,.76,1.52,3.08,3.08,0,0,0,1.88.55A4.71,4.71,0,0,0,85.73,65,2.76,2.76,0,0,0,87,64.11Z" fill="#fff"/><path d="M94.29,53.45H98v1.92a6.08,6.08,0,0,1,2-1.61,5.16,5.16,0,0,1,2.49-.66v3.6a4.42,4.42,0,0,0-1-.12,4.83,4.83,0,0,0-2,.47A3.32,3.32,0,0,0,98,58.18v9.28H94.29Z" fill="#fff"/><path d="M104.76,56.75a7.08,7.08,0,0,1,2.58-2.66,7.16,7.16,0,0,1,3.74-1,7,7,0,0,1,3.66,1,6.63,6.63,0,0,1,2.48,2.73,8.81,8.81,0,0,1,.88,4v.81H107.69A3.6,3.6,0,0,0,108.94,64a4.08,4.08,0,0,0,2.78.94,6,6,0,0,0,2-.38,4.71,4.71,0,0,0,1.69-1l1.63,2.38a7,7,0,0,1-2.55,1.44,10.18,10.18,0,0,1-3.22.5,8,8,0,0,1-3.83-.91,6.62,6.62,0,0,1-2.68-2.59,8,8,0,0,1,0-7.58Zm3.89.22a3.82,3.82,0,0,0-1,2.16h6.91a3.56,3.56,0,0,0-1-2.14,3.69,3.69,0,0,0-4.94,0Z" fill="#fff"/><path d="M22.9,96A5,5,0,0,1,21,97.34a6.46,6.46,0,0,1-2.54.49,5.33,5.33,0,0,1-2.3-.52,4.62,4.62,0,0,1-1.85-1.58,4.44,4.44,0,0,1-.72-2.55,4.27,4.27,0,0,1,.72-2.55,4.39,4.39,0,0,1,1.83-1.46,5.94,5.94,0,0,1,2.32-.47,7.5,7.5,0,0,1,2.58.43,4.34,4.34,0,0,1,1.86,1.28V88.47a2,2,0,0,0-.84-1.71,3.59,3.59,0,0,0-2.24-.64,5.86,5.86,0,0,0-4.08,1.65l-1.4-2.46a8.42,8.42,0,0,1,2.83-1.66,10.1,10.1,0,0,1,3.29-.55,7.31,7.31,0,0,1,4.41,1.25,4.69,4.69,0,0,1,1.71,4.06v9H22.9Zm0-3.65a2.75,2.75,0,0,0-1.23-.9,4.51,4.51,0,0,0-1.73-.32,3,3,0,0,0-1.88.57,1.84,1.84,0,0,0-.76,1.56,1.78,1.78,0,0,0,.76,1.52,3.08,3.08,0,0,0,1.88.55A4.71,4.71,0,0,0,21.67,95a2.76,2.76,0,0,0,1.23-.91Z" fill="#fff"/><path d="M39.86,95.66a5.67,5.67,0,0,1-1.92,1.61,5.23,5.23,0,0,1-2.4.56,5.8,5.8,0,0,1-5.41-3.39,9.11,9.11,0,0,1-.79-4,9,9,0,0,1,.79-3.9A6.11,6.11,0,0,1,32.34,84a5.8,5.8,0,0,1,3.2-.9,5.41,5.41,0,0,1,4.32,2.15V78.12h3.72V97.46H39.86Zm0-7.68a3.47,3.47,0,0,0-1.36-1.15,4.05,4.05,0,0,0-1.83-.45,3.22,3.22,0,0,0-2.55,1.14,4.93,4.93,0,0,0,0,5.9,3.22,3.22,0,0,0,2.55,1.14,4.05,4.05,0,0,0,1.83-.45A3.47,3.47,0,0,0,39.86,93Z" fill="#fff"/><path d="M49.81,96.85a6.72,6.72,0,0,1-2.58-2.68,8.08,8.08,0,0,1,0-7.41,6.75,6.75,0,0,1,2.58-2.67,8.3,8.3,0,0,1,7.86,0,6.75,6.75,0,0,1,2.58,2.67,8.08,8.08,0,0,1,0,7.41,6.72,6.72,0,0,1-2.58,2.68,8.37,8.37,0,0,1-7.86,0Zm6.54-3.47a4.44,4.44,0,0,0,1-2.93,4.37,4.37,0,0,0-1-2.89,3.21,3.21,0,0,0-2.62-1.18,3.15,3.15,0,0,0-2.61,1.18,4.42,4.42,0,0,0-1,2.89,4.49,4.49,0,0,0,1,2.93,3.15,3.15,0,0,0,2.61,1.18A3.21,3.21,0,0,0,56.35,93.38Z" fill="#fff"/><path d="M63.88,102.79V83.45h3.68v1.77a5.6,5.6,0,0,1,1.93-1.57,5.41,5.41,0,0,1,2.39-.55,5.77,5.77,0,0,1,5.41,3.4,10.2,10.2,0,0,1,0,7.92A5.87,5.87,0,0,1,75.08,97a5.93,5.93,0,0,1-3.2.87,5.35,5.35,0,0,1-2.38-.53,5.67,5.67,0,0,1-1.94-1.61v7.1Zm9.41-15.27a3.22,3.22,0,0,0-2.57-1.14,3.9,3.9,0,0,0-1.8.47A3.6,3.6,0,0,0,67.56,88v5a3.69,3.69,0,0,0,1.38,1.13,3.88,3.88,0,0,0,1.78.47,3.22,3.22,0,0,0,2.57-1.14,4.42,4.42,0,0,0,1-3A4.37,4.37,0,0,0,73.29,87.52Z" fill="#fff"/><path d="M82.58,96.85a3.79,3.79,0,0,1-1-2.85V86.67H79.25V83.45h2.31V79.62h3.72v3.83h2.84v3.22H85.28V93a1.72,1.72,0,0,0,.34,1.1,1.16,1.16,0,0,0,.93.44,2.37,2.37,0,0,0,.76-.12,1.34,1.34,0,0,0,.52-.29l.78,2.79a4.5,4.5,0,0,1-3.07.89A4.07,4.07,0,0,1,82.58,96.85Z" fill="#fff"/><path d="M90.67,86.75A7.08,7.08,0,0,1,97,83.1a7,7,0,0,1,3.66,1,6.63,6.63,0,0,1,2.48,2.73,8.81,8.81,0,0,1,.88,4v.81H93.6A3.6,3.6,0,0,0,94.85,94a4.08,4.08,0,0,0,2.78.94,6,6,0,0,0,2.05-.38,4.71,4.71,0,0,0,1.69-1L103,95.89a7,7,0,0,1-2.56,1.44,10.08,10.08,0,0,1-3.21.5,8,8,0,0,1-3.83-.91,6.7,6.7,0,0,1-2.69-2.59,7.63,7.63,0,0,1-1-3.88A7.48,7.48,0,0,1,90.67,86.75Zm3.89.22a3.82,3.82,0,0,0-1,2.16h6.9A3.49,3.49,0,0,0,99.5,87a3.69,3.69,0,0,0-4.94,0Z" fill="#fff"/><path d="M116.31,95.66a5.7,5.7,0,0,1-1.93,1.61,5.19,5.19,0,0,1-2.39.56A6,6,0,0,1,108.8,97a5.83,5.83,0,0,1-2.22-2.52,9.11,9.11,0,0,1-.8-4,9,9,0,0,1,.8-3.9,6,6,0,0,1,2.2-2.58,5.84,5.84,0,0,1,3.21-.9,5.44,5.44,0,0,1,4.32,2.15V78.12H120V97.46h-3.71Zm0-7.68a3.5,3.5,0,0,0-1.37-1.15,4,4,0,0,0-1.82-.45,3.19,3.19,0,0,0-2.55,1.14,4.89,4.89,0,0,0,0,5.9,3.19,3.19,0,0,0,2.55,1.14,4,4,0,0,0,1.82-.45A3.5,3.5,0,0,0,116.31,93Z" fill="#fff"/><path d="M16.23,126.85a3.79,3.79,0,0,1-1-2.85v-7.33H12.89v-3.22h2.32v-3.83h3.72v3.83h2.84v3.22H18.93V123a1.72,1.72,0,0,0,.34,1.1,1.14,1.14,0,0,0,.93.44,2.37,2.37,0,0,0,.76-.12,1.34,1.34,0,0,0,.52-.29l.78,2.79a4.52,4.52,0,0,1-3.07.89A4.07,4.07,0,0,1,16.23,126.85Z" fill="#fff"/><path d="M33.77,118.93a2.51,2.51,0,0,0-.66-2,2.89,2.89,0,0,0-1.95-.58,3.62,3.62,0,0,0-1.82.48A4.5,4.5,0,0,0,28,118v9.43H24.29V108.12H28v7.16A6.38,6.38,0,0,1,30,113.74a6.48,6.48,0,0,1,2.88-.64,4.6,4.6,0,0,1,3.41,1.16,4.46,4.46,0,0,1,1.15,3.25v9.95H33.77Z" fill="#fff"/><path d="M41.11,113.45h3.68v1.92a6.12,6.12,0,0,1,2-1.61,5.16,5.16,0,0,1,2.49-.66v3.6a4.57,4.57,0,0,0-1-.12,4.87,4.87,0,0,0-2,.47,3.37,3.37,0,0,0-1.48,1.13v9.28H41.11Z" fill="#fff"/><path d="M54.13,126.85a6.72,6.72,0,0,1-2.58-2.68,8.08,8.08,0,0,1,0-7.41,6.75,6.75,0,0,1,2.58-2.67,8.3,8.3,0,0,1,7.86,0,6.75,6.75,0,0,1,2.58,2.67,8.08,8.08,0,0,1,0,7.41A6.72,6.72,0,0,1,62,126.85a8.37,8.37,0,0,1-7.86,0Zm6.54-3.47a4.44,4.44,0,0,0,1-2.93,4.37,4.37,0,0,0-1-2.89,3.21,3.21,0,0,0-2.62-1.18,3.15,3.15,0,0,0-2.61,1.18,4.42,4.42,0,0,0-1,2.89,4.49,4.49,0,0,0,1,2.93,3.15,3.15,0,0,0,2.61,1.18A3.21,3.21,0,0,0,60.67,123.38Z" fill="#fff"/><path d="M77.65,125.69a6.7,6.7,0,0,1-2.07,1.52,6.35,6.35,0,0,1-2.86.62,4.5,4.5,0,0,1-3.39-1.16,4.43,4.43,0,0,1-1.13-3.25v-10h3.68V122a2.58,2.58,0,0,0,.66,2,2.8,2.8,0,0,0,1.92.6,3.72,3.72,0,0,0,1.83-.47A4.49,4.49,0,0,0,77.65,123v-9.51h3.68v14H77.65Z" fill="#fff"/><path d="M86.35,128.39a5.58,5.58,0,0,0,4.38,1.74,4.52,4.52,0,0,0,2.71-.83,3.13,3.13,0,0,0,1.14-2.71v-1.42a6.22,6.22,0,0,1-1.94,1.62,5,5,0,0,1-2.38.58,6.05,6.05,0,0,1-3.17-.83,5.69,5.69,0,0,1-2.21-2.43,9.83,9.83,0,0,1,0-7.72,5.89,5.89,0,0,1,2.19-2.45,6.08,6.08,0,0,1,3.19-.84,5.34,5.34,0,0,1,2.38.55,5.78,5.78,0,0,1,1.94,1.6v-1.8H98.3v13q0,3.63-2.22,5.13a9.25,9.25,0,0,1-5.35,1.51,10.32,10.32,0,0,1-3.29-.48,8,8,0,0,1-2.74-1.61ZM94.58,118a3.32,3.32,0,0,0-1.34-1.15,4,4,0,0,0-1.82-.45,3.34,3.34,0,0,0-2.56,1,4.57,4.57,0,0,0,0,5.63,3.3,3.3,0,0,0,2.56,1,3.88,3.88,0,0,0,1.8-.46,3.61,3.61,0,0,0,1.36-1.13Z" fill="#fff"/><path d="M111.43,118.93a2.51,2.51,0,0,0-.66-2,2.89,2.89,0,0,0-2-.58,3.62,3.62,0,0,0-1.82.48,4.5,4.5,0,0,0-1.37,1.17v9.43H102V108.12h3.68v7.16a6.38,6.38,0,0,1,2.05-1.54,6.48,6.48,0,0,1,2.88-.64,4.6,4.6,0,0,1,3.41,1.16,4.42,4.42,0,0,1,1.15,3.25v9.95h-3.69Z" fill="#fff"/><path d="M14.58,138.12h9a7,7,0,0,1,3.51.84,5.68,5.68,0,0,1,2.24,2.24,6.6,6.6,0,0,1,.75,3.15,6.44,6.44,0,0,1-.77,3.12,5.63,5.63,0,0,1-2.23,2.23,7,7,0,0,1-3.5.83H18.69v6.93H14.58Zm10.52,4.27a2.92,2.92,0,0,0-2-.74H18.69V147h4.38a2.93,2.93,0,0,0,2.05-.74,2.73,2.73,0,0,0,0-3.86Z" fill="#fff"/><path d="M32.12,146.75a7.08,7.08,0,0,1,6.32-3.65,7,7,0,0,1,3.66,1,6.63,6.63,0,0,1,2.48,2.73,8.81,8.81,0,0,1,.88,4v.81H35.05A3.6,3.6,0,0,0,36.3,154a4.08,4.08,0,0,0,2.78.94,5.88,5.88,0,0,0,2-.38,4.67,4.67,0,0,0,1.7-1l1.63,2.38a7,7,0,0,1-2.56,1.44,10.1,10.1,0,0,1-3.22.5,8,8,0,0,1-3.82-.91,6.7,6.7,0,0,1-2.69-2.59,7.63,7.63,0,0,1-1-3.88A7.48,7.48,0,0,1,32.12,146.75ZM36,147a3.82,3.82,0,0,0-1,2.16h6.9A3.55,3.55,0,0,0,41,147a3.19,3.19,0,0,0-2.51-1A3.17,3.17,0,0,0,36,147Z" fill="#fff"/><path d="M49.87,156.85a3.79,3.79,0,0,1-1-2.85v-7.33H46.53v-3.22h2.32v-3.83h3.71v3.83h2.85v3.22H52.56V153a1.72,1.72,0,0,0,.35,1.1,1.14,1.14,0,0,0,.93.44,2.27,2.27,0,0,0,.75-.12,1.32,1.32,0,0,0,.53-.29l.78,2.79a4.52,4.52,0,0,1-3.07.89A4.05,4.05,0,0,1,49.87,156.85Z" fill="#fff"/><path d="M58.94,151.63a8.6,8.6,0,0,0,2.69,1.88,8.1,8.1,0,0,0,3.46.73,4.21,4.21,0,0,0,2.48-.64,1.89,1.89,0,0,0,.89-1.55,1.62,1.62,0,0,0-1-1.5,12.77,12.77,0,0,0-3-1,31.45,31.45,0,0,1-3.68-1,6.07,6.07,0,0,1-2.48-1.7,4.54,4.54,0,0,1-1.06-3.18,5.22,5.22,0,0,1,.9-3,6,6,0,0,1,2.57-2.1,9,9,0,0,1,3.87-.77,10.7,10.7,0,0,1,7.54,2.69l-2.29,3a7.7,7.7,0,0,0-2.6-1.58,8.48,8.48,0,0,0-2.94-.54,3.5,3.5,0,0,0-2.1.54,1.69,1.69,0,0,0-.74,1.45,1.41,1.41,0,0,0,.89,1.33,17.17,17.17,0,0,0,3,.92,26.26,26.26,0,0,1,3.67,1.06,6.24,6.24,0,0,1,2.52,1.76,4.56,4.56,0,0,1,1.06,3.16,5.68,5.68,0,0,1-2,4.51,8.61,8.61,0,0,1-5.76,1.71,11.1,11.1,0,0,1-8.21-3.07Z" fill="#fff"/><path d="M92.7,148.61a2.46,2.46,0,0,0-.51-1.64,2,2,0,0,0-1.58-.59,3,3,0,0,0-1.66.49A4.54,4.54,0,0,0,87.71,148v9.46H84v-8.85a2.46,2.46,0,0,0-.51-1.64,2,2,0,0,0-1.58-.59,3,3,0,0,0-1.65.49A4.37,4.37,0,0,0,79,148v9.43H75.33v-14H79v1.83a5.36,5.36,0,0,1,1.83-1.47,5.72,5.72,0,0,1,2.75-.71,4.41,4.41,0,0,1,2.5.67,3.51,3.51,0,0,1,1.39,1.88,5.63,5.63,0,0,1,2-1.79,5.53,5.53,0,0,1,2.82-.76,4.19,4.19,0,0,1,3,1.06,4.32,4.32,0,0,1,1.07,3.18v10.12H92.7Z" fill="#fff"/><path d="M108.45,156a5.12,5.12,0,0,1-1.9,1.33,6.5,6.5,0,0,1-2.54.49,5.4,5.4,0,0,1-2.31-.52,4.66,4.66,0,0,1-1.84-1.58,4.44,4.44,0,0,1-.72-2.55,4.27,4.27,0,0,1,.72-2.55,4.39,4.39,0,0,1,1.83-1.46,5.9,5.9,0,0,1,2.32-.47,7.5,7.5,0,0,1,2.58.43,4.4,4.4,0,0,1,1.86,1.28v-1.94a2,2,0,0,0-.84-1.71,3.61,3.61,0,0,0-2.24-.64,5.9,5.9,0,0,0-4.09,1.65l-1.39-2.46a8.42,8.42,0,0,1,2.83-1.66,10.1,10.1,0,0,1,3.29-.55,7.31,7.31,0,0,1,4.41,1.25,4.69,4.69,0,0,1,1.71,4.06v9.05h-3.68Zm0-3.65a2.72,2.72,0,0,0-1.24-.9,4.43,4.43,0,0,0-1.72-.32,3.07,3.07,0,0,0-1.89.57,1.85,1.85,0,0,0-.75,1.56,1.79,1.79,0,0,0,.75,1.52,3.13,3.13,0,0,0,1.89.55,4.62,4.62,0,0,0,1.72-.32,2.74,2.74,0,0,0,1.24-.91Z" fill="#fff"/><path d="M115.78,143.45h3.69v1.92a6.08,6.08,0,0,1,2-1.61,5.16,5.16,0,0,1,2.49-.66v3.6a4.49,4.49,0,0,0-1-.12,4.83,4.83,0,0,0-2,.47,3.32,3.32,0,0,0-1.48,1.13v9.28h-3.69Z" fill="#fff"/><path d="M128,156.85a3.83,3.83,0,0,1-1-2.85v-7.33h-2.32v-3.22H127v-3.83h3.71v3.83h2.84v3.22h-2.84V153a1.72,1.72,0,0,0,.35,1.1,1.13,1.13,0,0,0,.93.44,2.27,2.27,0,0,0,.75-.12,1.27,1.27,0,0,0,.52-.29l.79,2.79a4.55,4.55,0,0,1-3.08.89A4.08,4.08,0,0,1,128,156.85Z" fill="#fff"/><path d="M18.66,186.57A9.41,9.41,0,0,1,15,183a10.67,10.67,0,0,1,0-10.39,9.41,9.41,0,0,1,3.66-3.56,10.6,10.6,0,0,1,5.14-1.26,9,9,0,0,1,5,1.32,9.8,9.8,0,0,1,3.19,3.4l-3.53,1.74a5.29,5.29,0,0,0-1.9-2,5.19,5.19,0,0,0-2.8-.8,5.74,5.74,0,0,0-5.15,3.11,7.26,7.26,0,0,0,0,6.51,5.71,5.71,0,0,0,2.13,2.28,5.65,5.65,0,0,0,3,.83,5.24,5.24,0,0,0,4.7-2.81L32,183.08a8.92,8.92,0,0,1-8.23,4.75A10.6,10.6,0,0,1,18.66,186.57Z" fill="#fff"/><path d="M43.89,178.93a2.51,2.51,0,0,0-.66-2,2.89,2.89,0,0,0-1.95-.58,3.62,3.62,0,0,0-1.82.48A4.5,4.5,0,0,0,38.09,178v9.43H34.41V168.12h3.68v7.16a6.38,6.38,0,0,1,2-1.54A6.48,6.48,0,0,1,43,173.1a4.6,4.6,0,0,1,3.41,1.16,4.42,4.42,0,0,1,1.15,3.25v10H43.89Z" fill="#fff"/><path d="M59.64,186a5,5,0,0,1-1.9,1.33,6.46,6.46,0,0,1-2.54.49,5.33,5.33,0,0,1-2.3-.52,4.52,4.52,0,0,1-1.84-1.58,4.38,4.38,0,0,1-.73-2.55,4.21,4.21,0,0,1,.73-2.55,4.31,4.31,0,0,1,1.82-1.46,5.94,5.94,0,0,1,2.32-.47,7.6,7.6,0,0,1,2.59.43,4.3,4.3,0,0,1,1.85,1.28v-1.94a2,2,0,0,0-.84-1.71,3.56,3.56,0,0,0-2.23-.64,5.88,5.88,0,0,0-4.09,1.65l-1.39-2.46a8.37,8.37,0,0,1,2.82-1.66,10.16,10.16,0,0,1,3.3-.55,7.3,7.3,0,0,1,4.4,1.25,4.69,4.69,0,0,1,1.71,4.06v9.05H59.64Zm0-3.65a2.75,2.75,0,0,0-1.23-.9,4.48,4.48,0,0,0-1.73-.32,3,3,0,0,0-1.88.57,1.86,1.86,0,0,0-.76,1.56,1.8,1.8,0,0,0,.76,1.52,3.08,3.08,0,0,0,1.88.55,4.67,4.67,0,0,0,1.73-.32,2.76,2.76,0,0,0,1.23-.91Z" fill="#fff"/><path d="M67,173.45h3.68v1.92a6.08,6.08,0,0,1,2-1.61,5.22,5.22,0,0,1,2.5-.66v3.6a4.57,4.57,0,0,0-1-.12,4.87,4.87,0,0,0-2,.47,3.32,3.32,0,0,0-1.48,1.13v9.28H67Z" fill="#fff"/><path d="M77.69,170.74A2.21,2.21,0,0,1,79.24,167a2.17,2.17,0,0,1,1.57.64,2.21,2.21,0,0,1-1.57,3.77A2.16,2.16,0,0,1,77.69,170.74Zm-.27,2.71H81.1v14H77.42Z" fill="#fff"/><path d="M86.5,186.85a3.79,3.79,0,0,1-1-2.85v-7.33H83.16v-3.22h2.32v-3.83h3.71v3.83H92v3.22H89.19V183a1.72,1.72,0,0,0,.35,1.1,1.13,1.13,0,0,0,.93.44,2.27,2.27,0,0,0,.75-.12,1.27,1.27,0,0,0,.52-.29l.79,2.79a4.53,4.53,0,0,1-3.08.89A4,4,0,0,1,86.5,186.85Z" fill="#fff"/><path d="M94.83,170.74a2.17,2.17,0,0,1,0-3.1,2.11,2.11,0,0,1,1.55-.66,2.17,2.17,0,0,1,1.57.64,2.21,2.21,0,1,1-3.12,3.12Zm-.27,2.71h3.68v14H94.56Z" fill="#fff"/><path d="M101.92,176.75a7.08,7.08,0,0,1,2.58-2.66,7.16,7.16,0,0,1,3.74-1,7,7,0,0,1,3.66,1,6.63,6.63,0,0,1,2.48,2.73,8.81,8.81,0,0,1,.88,4v.81H104.85A3.6,3.6,0,0,0,106.1,184a4.08,4.08,0,0,0,2.78.94,6,6,0,0,0,2.05-.38,4.71,4.71,0,0,0,1.69-1l1.63,2.38a7,7,0,0,1-2.55,1.44,10.18,10.18,0,0,1-3.22.5,8,8,0,0,1-3.83-.91,6.62,6.62,0,0,1-2.68-2.59,8,8,0,0,1,0-7.58Zm3.89.22a3.82,3.82,0,0,0-1,2.16h6.91a3.56,3.56,0,0,0-1-2.14,3.69,3.69,0,0,0-4.94,0Z" fill="#fff"/><path d="M118.31,183.08a7.25,7.25,0,0,0,2.2,1.33,6.83,6.83,0,0,0,2.64.58,3.26,3.26,0,0,0,1.76-.38,1.19,1.19,0,0,0,.59-1.05,1.11,1.11,0,0,0-.7-1,9.45,9.45,0,0,0-2.11-.64,19.42,19.42,0,0,1-2.79-.7,4.57,4.57,0,0,1-1.91-1.26,3.44,3.44,0,0,1-.81-2.42,3.81,3.81,0,0,1,.68-2.2,4.51,4.51,0,0,1,2-1.61,7.33,7.33,0,0,1,3.08-.6,8.79,8.79,0,0,1,5.65,1.92l-1.48,2.52a5.23,5.23,0,0,0-1.78-1.16,6.05,6.05,0,0,0-2.36-.46,3.19,3.19,0,0,0-1.61.34,1.07,1.07,0,0,0-.6,1,1,1,0,0,0,.66.91,9.16,9.16,0,0,0,2,.6,18.48,18.48,0,0,1,2.81.73,4.79,4.79,0,0,1,2,1.33,3.67,3.67,0,0,1,.84,2.54,4,4,0,0,1-.71,2.31,4.6,4.6,0,0,1-2.09,1.61,8.33,8.33,0,0,1-3.26.58,10.49,10.49,0,0,1-3.5-.58,7.72,7.72,0,0,1-2.77-1.59Z" fill="#fff"/><path d="M132,183.83a2.31,2.31,0,1,1-.7,1.66A2.25,2.25,0,0,1,132,183.83Z" fill="#fff"/></g></g></svg>