<svg xmlns="http://www.w3.org/2000/svg" viewBox="0 0 160 600"><title>txt2</title><g id="Layer_2" data-name="Layer 2"><g id="frame_2_v1" data-name="frame 2 v1" style="isolation:isolate"><g id="National_Adoption_Days" data-name="NationalAdoptionDays"><path d="M18.69,24.47v13H14.58V18.12h4.23l9,12.52V18.12h4.12V37.46h-4Z" fill="#fff"/><path d="M44,36a5,5,0,0,1-1.9,1.33,6.46,6.46,0,0,1-2.54.49,5.33,5.33,0,0,1-2.3-.52,4.52,4.52,0,0,1-1.84-1.58,4.38,4.38,0,0,1-.73-2.55,4.21,4.21,0,0,1,.73-2.55,4.31,4.31,0,0,1,1.82-1.46,5.94,5.94,0,0,1,2.32-.47,7.5,7.5,0,0,1,2.58.43A4.28,4.28,0,0,1,44,30.41V28.47a2,2,0,0,0-.84-1.71A3.58,3.58,0,0,0,41,26.12a5.86,5.86,0,0,0-4.09,1.65l-1.4-2.46a8.51,8.51,0,0,1,2.83-1.66,10.14,10.14,0,0,1,3.29-.55A7.31,7.31,0,0,1,46,24.35a4.69,4.69,0,0,1,1.71,4.06v9.05H44Zm0-3.65a2.75,2.75,0,0,0-1.23-.9,4.51,4.51,0,0,0-1.73-.32,3,3,0,0,0-1.88.57,1.84,1.84,0,0,0-.76,1.56,1.78,1.78,0,0,0,.76,1.52,3.08,3.08,0,0,0,1.88.55A4.71,4.71,0,0,0,42.81,35,2.76,2.76,0,0,0,44,34.11Z" fill="#fff"/><path d="M53.12,36.85a3.79,3.79,0,0,1-1-2.85V26.67H49.78V23.45H52.1V19.62h3.71v3.83h2.85v3.22H55.81V33a1.72,1.72,0,0,0,.35,1.1,1.13,1.13,0,0,0,.93.44,2.27,2.27,0,0,0,.75-.12,1.32,1.32,0,0,0,.53-.29l.78,2.79a4.53,4.53,0,0,1-3.08.89A4,4,0,0,1,53.12,36.85Z" fill="#fff"/><path d="M61.45,20.74a2.2,2.2,0,1,1,1.55.65A2.14,2.14,0,0,1,61.45,20.74Zm-.27,2.71h3.68v14H61.18Z" fill="#fff"/><path d="M71.1,36.85a6.59,6.59,0,0,1-2.58-2.68,8.08,8.08,0,0,1,0-7.41,6.62,6.62,0,0,1,2.58-2.67,7.55,7.55,0,0,1,3.91-1,7.67,7.67,0,0,1,3.95,1,6.75,6.75,0,0,1,2.58,2.67,8.08,8.08,0,0,1,0,7.41A6.72,6.72,0,0,1,79,36.85a7.67,7.67,0,0,1-3.95,1A7.55,7.55,0,0,1,71.1,36.85Zm6.54-3.47a4.5,4.5,0,0,0,1-2.93,4.43,4.43,0,0,0-1-2.89A3.23,3.23,0,0,0,75,26.38a3.18,3.18,0,0,0-2.61,1.18,4.42,4.42,0,0,0-1,2.89,4.49,4.49,0,0,0,1,2.93A3.18,3.18,0,0,0,75,34.56,3.23,3.23,0,0,0,77.64,33.38Z" fill="#fff"/><path d="M94.62,29A2.62,2.62,0,0,0,94,27,2.73,2.73,0,0,0,92,26.38a3.61,3.61,0,0,0-1.84.48A4.53,4.53,0,0,0,88.84,28v9.43H85.16v-14h3.68v1.83a6.44,6.44,0,0,1,4.91-2.18,4.52,4.52,0,0,1,3.4,1.19,4.51,4.51,0,0,1,1.15,3.28v9.89H94.62Z" fill="#fff"/><path d="M110.36,36a5,5,0,0,1-1.9,1.33,6.46,6.46,0,0,1-2.54.49,5.33,5.33,0,0,1-2.3-.52,4.59,4.59,0,0,1-1.84-1.58,4.38,4.38,0,0,1-.73-2.55,4.21,4.21,0,0,1,.73-2.55,4.27,4.27,0,0,1,1.83-1.46,5.85,5.85,0,0,1,2.31-.47,7.6,7.6,0,0,1,2.59.43,4.3,4.3,0,0,1,1.85,1.28V28.47a2,2,0,0,0-.84-1.71,3.56,3.56,0,0,0-2.23-.64,5.88,5.88,0,0,0-4.09,1.65l-1.39-2.46a8.37,8.37,0,0,1,2.82-1.66,10.2,10.2,0,0,1,3.3-.55,7.3,7.3,0,0,1,4.4,1.25A4.69,4.69,0,0,1,114,28.41v9.05h-3.68Zm0-3.65a2.75,2.75,0,0,0-1.23-.9,4.48,4.48,0,0,0-1.73-.32,3,3,0,0,0-1.88.57,1.86,1.86,0,0,0-.76,1.56,1.8,1.8,0,0,0,.76,1.52,3.08,3.08,0,0,0,1.88.55,4.67,4.67,0,0,0,1.73-.32,2.76,2.76,0,0,0,1.23-.91Z" fill="#fff"/><path d="M117.7,18.12h3.68V37.46H117.7Z" fill="#fff"/><path d="M26.9,64.12H18.26L17,67.46H12.52L20,48.12h5.16l7.45,19.34H28.12Zm-7.54-3.56h6.41l-3.19-8.88Z" fill="#fff"/><path d="M44,65.66A5.61,5.61,0,0,1,42,67.27a5.16,5.16,0,0,1-2.39.56A6,6,0,0,1,36.44,67a5.83,5.83,0,0,1-2.22-2.52,9.11,9.11,0,0,1-.79-4,9,9,0,0,1,.79-3.9A6,6,0,0,1,36.43,54a5.78,5.78,0,0,1,3.2-.9A5.41,5.41,0,0,1,44,55.25V48.12h3.71V67.46H44ZM44,58a3.47,3.47,0,0,0-1.36-1.15,4.05,4.05,0,0,0-1.83-.45,3.22,3.22,0,0,0-2.55,1.14,4.89,4.89,0,0,0,0,5.9,3.22,3.22,0,0,0,2.55,1.14,4.05,4.05,0,0,0,1.83-.45A3.47,3.47,0,0,0,44,63Z" fill="#fff"/><path d="M53.9,66.85a6.72,6.72,0,0,1-2.58-2.68,8.08,8.08,0,0,1,0-7.41,6.75,6.75,0,0,1,2.58-2.67,8.3,8.3,0,0,1,7.86,0,6.75,6.75,0,0,1,2.58,2.67,8.08,8.08,0,0,1,0,7.41,6.72,6.72,0,0,1-2.58,2.68,8.37,8.37,0,0,1-7.86,0Zm6.54-3.47a4.44,4.44,0,0,0,1-2.93,4.37,4.37,0,0,0-1-2.89,3.22,3.22,0,0,0-2.63-1.18,3.18,3.18,0,0,0-2.61,1.18,4.47,4.47,0,0,0-1,2.89,4.54,4.54,0,0,0,1,2.93,3.18,3.18,0,0,0,2.61,1.18A3.22,3.22,0,0,0,60.44,63.38Z" fill="#fff"/><path d="M68,72.79V53.45h3.69v1.77a5.6,5.6,0,0,1,1.93-1.57A5.41,5.41,0,0,1,76,53.1a5.77,5.77,0,0,1,5.41,3.4,10.32,10.32,0,0,1,0,7.92A5.87,5.87,0,0,1,79.17,67a6,6,0,0,1-3.2.87,5.32,5.32,0,0,1-2.38-.53,5.67,5.67,0,0,1-1.94-1.61v7.1Zm9.41-15.27a3.19,3.19,0,0,0-2.56-1.14,3.9,3.9,0,0,0-1.8.47A3.6,3.6,0,0,0,71.65,58v5A3.73,3.73,0,0,0,73,64.09a4,4,0,0,0,1.79.47,3.19,3.19,0,0,0,2.56-1.14,4.38,4.38,0,0,0,1-3A4.32,4.32,0,0,0,77.37,57.52Z" fill="#fff"/><path d="M86.67,66.85a3.79,3.79,0,0,1-1-2.85V56.67H83.33V53.45h2.32V49.62h3.72v3.83h2.84v3.22H89.37V63a1.72,1.72,0,0,0,.34,1.1,1.14,1.14,0,0,0,.93.44,2.37,2.37,0,0,0,.76-.12,1.34,1.34,0,0,0,.52-.29l.78,2.79a4.52,4.52,0,0,1-3.07.89A4.05,4.05,0,0,1,86.67,66.85Z" fill="#fff"/><path d="M95,50.74a2.19,2.19,0,1,1,1.55.65A2.11,2.11,0,0,1,95,50.74Zm-.28,2.71h3.68v14H94.73Z" fill="#fff"/><path d="M104.65,66.85a6.72,6.72,0,0,1-2.58-2.68,8.08,8.08,0,0,1,0-7.41,6.75,6.75,0,0,1,2.58-2.67,7.55,7.55,0,0,1,3.91-1,7.65,7.65,0,0,1,4,1,6.75,6.75,0,0,1,2.58,2.67,8.08,8.08,0,0,1,0,7.41,6.72,6.72,0,0,1-2.58,2.68,7.64,7.64,0,0,1-4,1A7.55,7.55,0,0,1,104.65,66.85Zm6.54-3.47a4.5,4.5,0,0,0,1-2.93,4.43,4.43,0,0,0-1-2.89,3.22,3.22,0,0,0-2.63-1.18A3.18,3.18,0,0,0,106,57.56a4.47,4.47,0,0,0-1,2.89,4.54,4.54,0,0,0,1,2.93,3.18,3.18,0,0,0,2.61,1.18A3.22,3.22,0,0,0,111.19,63.38Z" fill="#fff"/><path d="M128.17,59a2.62,2.62,0,0,0-.67-2,2.72,2.72,0,0,0-1.91-.61,3.62,3.62,0,0,0-1.85.48A4.37,4.37,0,0,0,122.4,58v9.43h-3.69v-14h3.69v1.83a6.29,6.29,0,0,1,2-1.54,6.38,6.38,0,0,1,2.87-.64,4.08,4.08,0,0,1,4.55,4.47v9.89h-3.68Z" fill="#fff"/><path d="M14.58,78.12H22.2a11.48,11.48,0,0,1,5.34,1.2,8.88,8.88,0,0,1,3.62,3.41,10.45,10.45,0,0,1,0,10.13,8.9,8.9,0,0,1-3.62,3.39,11.36,11.36,0,0,1-5.34,1.21H14.58ZM22.2,93.83A6.28,6.28,0,0,0,25.44,93a5.46,5.46,0,0,0,2.1-2.19,6.45,6.45,0,0,0,.72-3,6.11,6.11,0,0,0-1.59-4.36,5.85,5.85,0,0,0-4.47-1.7H18.69V93.83Z" fill="#fff"/><path d="M43.72,96a5,5,0,0,1-1.9,1.33,6.46,6.46,0,0,1-2.54.49,5.33,5.33,0,0,1-2.3-.52,4.52,4.52,0,0,1-1.84-1.58,4.38,4.38,0,0,1-.73-2.55,4.21,4.21,0,0,1,.73-2.55A4.31,4.31,0,0,1,37,89.17a5.94,5.94,0,0,1,2.32-.47,7.5,7.5,0,0,1,2.58.43,4.28,4.28,0,0,1,1.86,1.28V88.47a2,2,0,0,0-.84-1.71,3.58,3.58,0,0,0-2.23-.64,5.88,5.88,0,0,0-4.09,1.65l-1.39-2.46A8.37,8.37,0,0,1,38,83.65a10.14,10.14,0,0,1,3.29-.55,7.31,7.31,0,0,1,4.41,1.25,4.69,4.69,0,0,1,1.71,4.06v9H43.72Zm0-3.65a2.75,2.75,0,0,0-1.23-.9,4.48,4.48,0,0,0-1.73-.32,3,3,0,0,0-1.88.57,1.84,1.84,0,0,0-.76,1.56,1.78,1.78,0,0,0,.76,1.52,3.08,3.08,0,0,0,1.88.55A4.67,4.67,0,0,0,42.49,95a2.76,2.76,0,0,0,1.23-.91Z" fill="#fff"/><path d="M52.28,99.87a2.63,2.63,0,0,0,1.21-.24,1.59,1.59,0,0,0,.73-.78l.52-1.19L49.06,83.45H53l3.65,9.74,3.66-9.74h4L57.7,99.75a4.85,4.85,0,0,1-2,2.59,6.93,6.93,0,0,1-3.28.8,9.1,9.1,0,0,1-1-.06,6.09,6.09,0,0,1-.87-.14l.56-3.31A2.7,2.7,0,0,0,52.28,99.87Z" fill="#fff"/><path d="M66.31,93.08a7.31,7.31,0,0,0,2.21,1.33,6.74,6.74,0,0,0,2.63.58,3.24,3.24,0,0,0,1.76-.38,1.19,1.19,0,0,0,.59-1,1.12,1.12,0,0,0-.69-1,9.57,9.57,0,0,0-2.12-.64,18.91,18.91,0,0,1-2.78-.7A4.54,4.54,0,0,1,66,89.93a3.44,3.44,0,0,1-.81-2.42,3.89,3.89,0,0,1,.68-2.2,4.6,4.6,0,0,1,2-1.61,7.28,7.28,0,0,1,3.07-.6A8.81,8.81,0,0,1,76.58,85L75.1,87.54a5.28,5.28,0,0,0-1.79-1.16A6.05,6.05,0,0,0,71,85.92a3.21,3.21,0,0,0-1.61.34,1.06,1.06,0,0,0-.59,1,1,1,0,0,0,.65.91,9.28,9.28,0,0,0,2,.6,18.8,18.8,0,0,1,2.81.73,4.82,4.82,0,0,1,2,1.33A3.67,3.67,0,0,1,77,93.33a4,4,0,0,1-.71,2.31,4.55,4.55,0,0,1-2.09,1.61,8.29,8.29,0,0,1-3.26.58,10.43,10.43,0,0,1-3.49-.58,7.55,7.55,0,0,1-2.77-1.59Z" fill="#fff"/></g><g id="rect"><rect width="160" height="600" fill="none"/></g></g></g></svg>