<svg xmlns="http://www.w3.org/2000/svg" viewBox="0 0 160 600"><title>overlay</title><g id="Layer_2" data-name="Layer 2"><g id="rect"><rect width="160" height="600" fill="none"/></g><g id="CTA"><g id="Rounded_Rectangle_1" data-name="Rounded Rectangle 1"><rect x="14.53" y="219.91" width="90.03" height="31.09" rx="4" fill="#e52823"/></g><g id="Learn_More" data-name="Learn More"><path d="M24.17,230.5h2v7.73h4V240h-6Z" fill="#fff"/><path d="M31.46,234.75a3.47,3.47,0,0,1,1.27-1.31,3.56,3.56,0,0,1,1.84-.49,3.39,3.39,0,0,1,1.8.48,3.3,3.3,0,0,1,1.22,1.34,4.34,4.34,0,0,1,.43,2v.39H32.9a1.78,1.78,0,0,0,.62,1.15,2,2,0,0,0,1.36.46,3,3,0,0,0,1-.18,2.27,2.27,0,0,0,.83-.5l.8,1.17a3.37,3.37,0,0,1-1.25.7,4.93,4.93,0,0,1-1.58.25,3.94,3.94,0,0,1-1.89-.45,3.21,3.21,0,0,1-1.31-1.27,4,4,0,0,1,0-3.72Zm1.91.11a1.83,1.83,0,0,0-.49,1.06h3.39a1.79,1.79,0,0,0-.47-1.06,1.81,1.81,0,0,0-2.43,0Z" fill="#fff"/><path d="M44.06,239.12a2.76,2.76,0,0,1-.94.8,2.65,2.65,0,0,1-1.18.27,3,3,0,0,1-1.57-.42,2.91,2.91,0,0,1-1.09-1.25,5,5,0,0,1,0-3.86,2.92,2.92,0,0,1,1.08-1.26,2.86,2.86,0,0,1,1.58-.45,2.64,2.64,0,0,1,1.17.27,2.78,2.78,0,0,1,1,.79v-.89h1.83V240H44.06Zm0-3.75a1.66,1.66,0,0,0-.67-.57,1.92,1.92,0,0,0-.89-.22,1.58,1.58,0,0,0-1.26.55,2.13,2.13,0,0,0-.48,1.45,2.17,2.17,0,0,0,.48,1.45,1.58,1.58,0,0,0,1.26.55,1.92,1.92,0,0,0,.89-.22,1.64,1.64,0,0,0,.67-.56Z" fill="#fff"/><path d="M47.59,233.12H49.4v.95a3.08,3.08,0,0,1,1-.8A2.62,2.62,0,0,1,51.6,233v1.77a2.2,2.2,0,0,0-.5-.06,2.4,2.4,0,0,0-1,.23,1.61,1.61,0,0,0-.73.56V240H47.59Z" fill="#fff"/><path d="M57.24,235.85a1.28,1.28,0,0,0-.33-1,1.34,1.34,0,0,0-.94-.3,1.77,1.77,0,0,0-.91.24,2.19,2.19,0,0,0-.66.58V240H52.59v-6.89H54.4v.9a3.16,3.16,0,0,1,1-.75,3.11,3.11,0,0,1,1.41-.32,2,2,0,0,1,2.24,2.2V240H57.24Z" fill="#fff"/><path d="M72.8,233.17,70.12,240h-.88l-2.68-6.84V240h-2V230.5h2.84l2.31,5.93L72,230.5h2.85V240h-2Z" fill="#fff"/><path d="M78,239.71a3.36,3.36,0,0,1-1.27-1.32,4,4,0,0,1,0-3.64A3.33,3.33,0,0,1,78,233.44a4,4,0,0,1,3.86,0,3.2,3.2,0,0,1,1.27,1.31,4,4,0,0,1,0,3.64,3.23,3.23,0,0,1-1.27,1.32,4.12,4.12,0,0,1-3.86,0ZM81.21,238a2.41,2.41,0,0,0,0-2.86,1.72,1.72,0,0,0-2.58,0,2.41,2.41,0,0,0,0,2.86,1.72,1.72,0,0,0,2.58,0Z" fill="#fff"/><path d="M84.87,233.12h1.81v.95a3,3,0,0,1,1-.8,2.56,2.56,0,0,1,1.22-.32v1.77a2.2,2.2,0,0,0-.5-.06,2.48,2.48,0,0,0-1,.23,1.58,1.58,0,0,0-.72.56V240H84.87Z" fill="#fff"/><path d="M89.91,234.75a3.33,3.33,0,0,1,1.27-1.31A3.54,3.54,0,0,1,93,233a3.35,3.35,0,0,1,1.79.48A3.3,3.3,0,0,1,96,234.77a4.34,4.34,0,0,1,.43,2v.39H91.35a1.73,1.73,0,0,0,.61,1.15,2,2,0,0,0,1.37.46,2.94,2.94,0,0,0,1-.18,2.32,2.32,0,0,0,.84-.5l.8,1.17a3.49,3.49,0,0,1-1.26.7,4.89,4.89,0,0,1-1.58.25,3.93,3.93,0,0,1-1.88-.45,3.29,3.29,0,0,1-1.32-1.27,3.67,3.67,0,0,1-.48-1.9A3.59,3.59,0,0,1,89.91,234.75Zm1.91.11a1.84,1.84,0,0,0-.5,1.06h3.39a1.78,1.78,0,0,0-.46-1.06,1.58,1.58,0,0,0-1.23-.47A1.54,1.54,0,0,0,91.82,234.86Z" fill="#fff"/></g></g><g id="logo"><path d="M38.27,552.77a10.54,10.54,0,0,0-7.34,3.42,14.48,14.48,0,0,0-4,10.46,13,13,0,0,0,7.11,11c3.9,1.79,9.39,1,11.68-1.67a.91.91,0,0,0,.08-1.28c-.34-.44-.85-.27-1.33,0-2.29,1.29-6.89,1.2-9.89-.63-1.7-1-4.11-2.41-4.32-7.72-.17-4.24.75-6.65,2.78-8.85a7.15,7.15,0,0,1,5.28-2.7c2.52-.09,3.88,1.48,4,2.84.17,1.81-.86,2.27-1.78,2.31-1.44.06-1.44-1.9-1.44-1.92-.06-.55-.17-.84-.72-.78s-1.08.58-1.2,1.58c0,.23-.3,2.22,1,3.28a3.72,3.72,0,0,0,2.75.66c2.4-.35,3.64-2.29,3.49-4.94A5.79,5.79,0,0,0,38.27,552.77Z" fill="#fff"/><path d="M51.13,554.88a17.9,17.9,0,0,0-2.28,7.24c-1,.08-1.7.06-1.79.08a1,1,0,0,0-.91,1c-.06.54.49.77,1,.83l1.34-.08c-.27,2.69-.35,5-.85,10.8,0,.57-.29,2-.29,2.62a1.46,1.46,0,0,0,1.5,1.66c.79,0,1.19-.73,1.37-1.17.73-1.74,2.28-6.49,4.7-7.39.17.37,1.12,3.24,1.12,3.24,1.07,2.69,2.77,2.6,3.75,2.4a1,1,0,1,0-.39-2c-.26,0-.75-.49-1.2-1.61L58,571.37c-.26-1.23-.53-2.51-1.41-3a1.6,1.6,0,0,0-1.27-.17c-2.09.57-3.89,2.77-5.16,4.8.32-4.14.4-6.68.44-9.32a9.66,9.66,0,0,0,7.83-7.1,7.16,7.16,0,0,0,.29-1.91A3.06,3.06,0,0,0,57,551.56C55.09,550.78,52.7,552.14,51.13,554.88Zm2,1.09c.92-1.49,1.66-1.88,2.28-1.62.29.12.74,1,.29,2.57a7.51,7.51,0,0,1-4.19,5C52,558.85,52.36,557.31,53.13,556Z" fill="#fff"/><path d="M64.83,570.39a9.88,9.88,0,0,0-2.45,6.6,2.7,2.7,0,0,0,1.24,2.16c2.25,1.25,5.84-.84,6.74-2.7.41.58,1,2.08,2.74,2.25.54.06,1.34-.1,1.49-.63a1.33,1.33,0,0,0-.66-1.66c-2.26-.73-2.16-4.15-2.16-5.23,0-.32-.67-1-.92-1.17v0a.91.91,0,0,0-.11-.45,3.32,3.32,0,0,0-2.21-1.27C67.32,568.1,66.15,568.94,64.83,570.39Zm-.41,5.24a6.33,6.33,0,0,1,1.85-4.29c.82-.88,1.59-1.36,2.1-1.3a.93.93,0,0,1,.61.44,1,1,0,0,0,.31.3c-.57,3.9-1.89,5.4-2.91,6a2.37,2.37,0,0,1-1.67.3A2.85,2.85,0,0,1,64.42,575.63Z" fill="#fff"/><path d="M78.4,565.36a1,1,0,0,0-.91,1l-.21,10.47a1.19,1.19,0,0,0,1.2,1.12c.52-.07,1.21-.08,1.21-1,0-.05.62-5.73,2.58-7.31.54-.46,1-.46,1.08-.38s.33,1.29,1.12,1.38a1.89,1.89,0,0,0,1.79-1.79,1.85,1.85,0,0,0-1-1.83c-1.38-.55-3.24,0-5.78,3.4-.07-2.11,0-4.11,0-4.11A1,1,0,0,0,78.4,565.36Z" fill="#fff"/><path d="M88.94,568c0,.26-1.62,6-1.16,9.39a1.46,1.46,0,0,0,1.83,1.08,1.26,1.26,0,0,0,1-1.5c-.41-3,.33-8.91.34-9a.76.76,0,0,0-.67-1A1.33,1.33,0,0,0,88.94,568Z" fill="#fff"/><path d="M102.35,568a28.37,28.37,0,0,1-4.34.26,25.72,25.72,0,0,1,1.23-5.65c.19-.51,0-.82-.55-1a1.38,1.38,0,0,0-1.49.83,23.09,23.09,0,0,0-1.33,5.82,9.81,9.81,0,0,1-2.08-.59,1.08,1.08,0,0,0-1.41.42.89.89,0,0,0,.41,1.25,5.47,5.47,0,0,0,2.66,1,18.37,18.37,0,0,0,1.83,9.06,1.72,1.72,0,0,0,2.33.67,1.53,1.53,0,0,0,.49-2,15.72,15.72,0,0,1-2-7.56,22.3,22.3,0,0,0,4.32.17c.55,0,1.41-.34,1.33-1.33A1.29,1.29,0,0,0,102.35,568Z" fill="#fff"/><path d="M108.34,561.7l-.83.75a1.32,1.32,0,0,0,0,1.66,1.47,1.47,0,0,0,1.76.08l.75-.66c.41-.37.2-1.42-.17-1.83A1.09,1.09,0,0,0,108.34,561.7Z" fill="#fff"/><path d="M90.63,561.14l-.83.75a1.32,1.32,0,0,0,0,1.66,1.47,1.47,0,0,0,1.76.08l.75-.66c.41-.37.2-1.42-.16-1.83A1.11,1.11,0,0,0,90.63,561.14Z" fill="#fff"/><path d="M106.61,567.56c0,.24-1.75,5.47-1.41,9.89a1.27,1.27,0,0,0,1.66,1.16,1.45,1.45,0,0,0,1.08-1.49,49.41,49.41,0,0,1,.56-9.55c.12-.54,0-.8-.56-.92A1.27,1.27,0,0,0,106.61,567.56Z" fill="#fff"/><path d="M127.44,567.06a5.22,5.22,0,0,0-3.32,2.41c-1.25,2.5.85,3.94,1.67,4.5l.37.28c1,1,1,1.53,1,2.2,0,.14,0,.53-.66,1-1.2.92-2.45-.2-2.91-.67a1.58,1.58,0,0,0-1.82.05,2,2,0,0,0-.34,1.87c.66,1.41,5,2.32,7.47.41a2.94,2.94,0,0,0,1.25-2.41c.12-1.91-2-3.31-2.53-3.86l-.65-.51c-.82-.57-1.54-1.14-.84-2.55a1.86,1.86,0,0,1,1.42-.95,2.36,2.36,0,0,1,1.7.59.89.89,0,0,0,1.32.05,1.48,1.48,0,0,0-.25-1.74A3.12,3.12,0,0,0,127.44,567.06Z" fill="#fff"/><path d="M116,566.56c-2.09.8-5,3.74-5,6.82,0,5.65,6.37,5.93,6.65,5.9.83-.09,1.24-.47,1.34-1a1.1,1.1,0,0,0,0-.18,1,1,0,0,0-.81-1s-4.08-.87-4.72-3c2.82-.13,5-1.4,5.9-3.52a4.44,4.44,0,0,0,.35-1.68,2.55,2.55,0,0,0-.75-2.06A3.06,3.06,0,0,0,116,566.56Zm-2.16,4.66s.5-2.25,1.91-2.83,1.16.75,1.16.75a3.9,3.9,0,0,1-2,2.66C113.79,572.3,113.79,571.22,113.79,571.22Z" fill="#fff"/><path d="M131,578a1.09,1.09,0,1,1-1.08,1.09A1.07,1.07,0,0,1,131,578Zm0,.17a.92.92,0,0,0,0,1.84.88.88,0,0,0,.87-.92.89.89,0,0,0-.87-.92Zm-.21,1.55h-.19v-1.21a1.65,1.65,0,0,1,.34,0,.65.65,0,0,1,.38.09.27.27,0,0,1,.11.25.3.3,0,0,1-.23.3h0c.1,0,.18.11.2.29a1,1,0,0,0,.08.3h-.21a1.06,1.06,0,0,1-.08-.31.22.22,0,0,0-.26-.21h-.14Zm0-.67h.14c.16,0,.3-.06.3-.21s-.08-.21-.3-.21h-.14Z" fill="#fff"/><path d="M67.2,547.82a10.49,10.49,0,0,1,12,3.66s-2.52-8.51-12-3.66Z" fill="#fff"/><path d="M82.58,548.13a2.8,2.8,0,0,1,0-.29,5.94,5.94,0,0,0-3.14,4.57,6.3,6.3,0,0,1,3.63-3.28,1.58,1.58,0,0,1-.49-1Z" fill="#fff"/><path d="M72.43,551.68s0,1.21,0,1.81c-.31,0-1.63-.08-2.21-.1,0,.32,0,.66,0,1,.7,0,1.42.1,2.11.09,0,.58,0,1.09,0,1.67-.69,0-1.39-.06-2.09-.07,0,.35,0,.71,0,1.06.75,0,1.5.08,2.25.07,0,0,0,1.77,0,1.77-1.48,0-3.23-.11-4.9-.25l.12-7.4c.7.09,2.87.32,4.76.37Z" fill="#fff"/><path d="M73.06,551.7l0,1.93c.7,0,1.33,0,1.33,0V559A17.06,17.06,0,0,0,77,559l0-5.31s1.18,0,1.36-.07c0-.71,0-1.26,0-2a48.71,48.71,0,0,1-5.27.06Z" fill="#fff"/><path d="M108.76,550.52v2.24c.45,0,1,.12,1.42.16,0,1.87-.05,3.28-.05,5.15,1.25.15,2.15.3,2.49.36,0-1.87.08-3.34.08-5.21,0,0,1.33.21,1.35.23,0-.77,0-1.54,0-2.31a41.59,41.59,0,0,0-5.3-.62Z" fill="#fff"/><path d="M63.82,554.13l-.23,0c0-.5,0-1,0-1.52l.23,0a.77.77,0,0,1,.77.81c0,.63-.39.75-.78.71Zm.59-3.58L61.24,550l0,7.76c.81.16,1.56.29,2.35.38v-2.24l.85.09c1.37.13,2.76-.39,2.78-2.64,0-2-1.31-2.56-2.78-2.78Z" fill="#fff"/><path d="M90.84,557.76c.35-.92.71-1.79,1.06-2.71.06.88.09,1.68.15,2.57.88-.1,1.59-.15,2.48-.21-.23-2.35-.42-4.88-.65-7.24l-2.29.21c-.42,1.11-.85,2.46-1.28,3.58-.41-1-.82-2.24-1.23-3.27-.77.11-2.14.35-2.28.35-.27,2.4-.57,5.07-.83,7.48.61-.11,2.09-.35,2.53-.41.07-.89.14-1.85.21-2.75.34.86.68,1.71,1,2.57l1.1-.17Z" fill="#fff"/><path d="M104.89,553.7l-.23,0,0-1.5.22,0a.75.75,0,0,1,.78.79c0,.61-.4.73-.79.71Zm2.2,1.59a2.22,2.22,0,0,0,1.19-2.26,2.74,2.74,0,0,0-2.77-2.9c-1.06-.09-2.12-.14-3.18-.17,0,2.49,0,4.77-.08,7.26.79,0,1.66.09,2.36.14,0-.7,0-1.22,0-1.92l1.27,2.08c1,.09,2,.21,3,.36-.61-.92-1.16-1.7-1.78-2.59Z" fill="#fff"/><path d="M97.82,554.81c.16-.62.33-1.27.5-1.89.18.62.37,1.24.56,1.86l-1.06,0Zm1.73-4.91c-.94,0-1.71,0-2.52.05-.65,2.42-1.41,5-2.06,7.43.72,0,1.45-.06,2.17-.06.07-.25.14-.55.21-.81l1.1,0s1,0,1,0,.12.34.25.77c.72,0,1.44,0,2.16,0-.78-2.56-1.57-5-2.28-7.35Z" fill="#fff"/><path d="M79.18,558.34a6.49,6.49,0,0,0,2.93.74c1.65,0,3.39-1,3.43-2.85a2.15,2.15,0,0,0-2-2.21l-.63-.14c-.21,0-.56-.1-.55-.39s.36-.41.61-.41a4.35,4.35,0,0,1,1.69.36l.7-1.87A5.43,5.43,0,0,0,83,551a3.11,3.11,0,0,0-3.38,2.85,2.1,2.1,0,0,0,2,2.09l.56.1c.25.06.61.09.61.44s-.44.39-.72.39a3.25,3.25,0,0,1-1.9-.63c-.29.65-.63,1.45-.91,2.1Z" fill="#fff"/><path d="M85.17,545.7A1.87,1.87,0,1,0,87,547.59,1.87,1.87,0,0,0,85.17,545.7Zm.68.69a2.23,2.23,0,0,0-2,1.17,0,0,0,0,0,0,0,1.34,1.34,0,0,1,0-.52,1.22,1.22,0,0,1,2-.67Z" fill="#fff"/></g></g></svg>