<svg xmlns="http://www.w3.org/2000/svg" viewBox="0 0 320 50"><title>overlay</title><g id="Layer_2" data-name="Layer 2"><g id="rect"><rect width="320" height="50" fill="none"/><path d="M188.94,18.77a5.34,5.34,0,0,0-3.7,1.72,7.32,7.32,0,0,0-2,5.26,6.57,6.57,0,0,0,3.57,5.54c2,.9,4.73.52,5.88-.84a.47.47,0,0,0,0-.65c-.17-.22-.43-.13-.67,0a5.62,5.62,0,0,1-5-.31c-.86-.52-2.07-1.22-2.18-3.89a5.55,5.55,0,0,1,1.4-4.45A3.61,3.61,0,0,1,189,19.8a1.79,1.79,0,0,1,2,1.42c.09.91-.44,1.15-.9,1.17-.72,0-.72-1-.72-1,0-.27-.09-.42-.36-.39s-.54.29-.61.79a1.92,1.92,0,0,0,.5,1.65,1.88,1.88,0,0,0,1.38.34A2.12,2.12,0,0,0,192,21.32,2.92,2.92,0,0,0,188.94,18.77Z" fill="#fff"/><path d="M195.4,19.83a9.07,9.07,0,0,0-1.14,3.64c-.52,0-.86,0-.9,0a.53.53,0,0,0-.46.48c0,.28.25.39.52.42l.68,0c-.14,1.36-.18,2.51-.43,5.43,0,.29-.15,1-.14,1.32a.73.73,0,0,0,.75.84c.39,0,.59-.37.69-.59.37-.88,1.14-3.26,2.36-3.72.09.19.56,1.63.56,1.63.54,1.35,1.4,1.31,1.89,1.21a.5.5,0,1,0-.2-1c-.13,0-.38-.25-.6-.81l-.15-.57c-.13-.62-.26-1.27-.7-1.54a.76.76,0,0,0-.64-.08,5.21,5.21,0,0,0-2.6,2.41c.16-2.08.2-3.36.22-4.69a4.85,4.85,0,0,0,3.94-3.57,3.64,3.64,0,0,0,.15-1,1.56,1.56,0,0,0-.87-1.54C197.4,17.77,196.19,18.46,195.4,19.83Zm1,.55c.46-.75.84-.95,1.15-.81.14.06.37.52.14,1.29a3.75,3.75,0,0,1-2.11,2.49A8.74,8.74,0,0,1,196.41,20.38Z" fill="#fff"/><path d="M202.29,27.63A5,5,0,0,0,201.06,31a1.38,1.38,0,0,0,.63,1.09c1.13.63,2.93-.42,3.38-1.36.21.29.5,1.05,1.38,1.13.28,0,.68,0,.75-.31a.67.67,0,0,0-.33-.84c-1.14-.37-1.09-2.09-1.09-2.63,0-.16-.33-.5-.46-.59h0a.64.64,0,0,0,0-.23,1.74,1.74,0,0,0-1.12-.64C203.54,26.48,203,26.9,202.29,27.63Zm-.2,2.64a3.15,3.15,0,0,1,.93-2.16c.41-.44.8-.68,1-.65a.45.45,0,0,1,.31.21.49.49,0,0,0,.16.16c-.29,2-.95,2.71-1.47,3a1.22,1.22,0,0,1-.84.15A1.46,1.46,0,0,1,202.09,30.27Z" fill="#fff"/><path d="M209.12,25.1a.49.49,0,0,0-.46.52l-.11,5.27a.6.6,0,0,0,.61.56c.26,0,.61,0,.61-.52,0,0,.31-2.88,1.29-3.68.27-.23.48-.23.54-.18s.17.64.57.69a1,1,0,0,0,.9-.9.92.92,0,0,0-.53-.92c-.69-.28-1.62,0-2.9,1.71,0-1.06,0-2.07,0-2.07A.52.52,0,0,0,209.12,25.1Z" fill="#fff"/><path d="M214.42,26.42a15.9,15.9,0,0,0-.59,4.72.74.74,0,0,0,.92.54.62.62,0,0,0,.5-.75,23.81,23.81,0,0,1,.18-4.51.39.39,0,0,0-.34-.5A.66.66,0,0,0,214.42,26.42Z" fill="#fff"/><path d="M221.16,26.42a13.69,13.69,0,0,1-2.18.13,12.69,12.69,0,0,1,.62-2.84c.09-.26,0-.41-.28-.51a.7.7,0,0,0-.75.42,11.57,11.57,0,0,0-.67,2.92,4.27,4.27,0,0,1-1-.29.54.54,0,0,0-.71.21.45.45,0,0,0,.2.63,2.71,2.71,0,0,0,1.34.5,9.21,9.21,0,0,0,.92,4.55.86.86,0,0,0,1.17.34.77.77,0,0,0,.25-1,7.8,7.8,0,0,1-1-3.8,11.24,11.24,0,0,0,2.17.09c.28,0,.71-.17.67-.67A.65.65,0,0,0,221.16,26.42Z" fill="#fff"/><path d="M224.17,23.26l-.42.38a.68.68,0,0,0,0,.83.74.74,0,0,0,.89,0l.38-.33c.2-.19.1-.71-.09-.92A.55.55,0,0,0,224.17,23.26Z" fill="#fff"/><path d="M215.27,23l-.42.38a.65.65,0,0,0,0,.83.73.73,0,0,0,.89,0l.37-.33c.21-.19.11-.71-.08-.92A.54.54,0,0,0,215.27,23Z" fill="#fff"/><path d="M223.3,26.21a15.8,15.8,0,0,0-.71,5,.65.65,0,0,0,.84.59A.74.74,0,0,0,224,31a25,25,0,0,1,.28-4.8c.07-.27,0-.4-.28-.46A.64.64,0,0,0,223.3,26.21Z" fill="#fff"/><path d="M233.78,26a2.61,2.61,0,0,0-1.67,1.21,1.68,1.68,0,0,0,.84,2.26l.18.14c.53.53.5.77.48,1.11,0,.07,0,.26-.33.5-.6.47-1.23-.1-1.46-.33a.78.78,0,0,0-.92,0,1,1,0,0,0-.17.94c.33.71,2.52,1.17,3.76.21a1.53,1.53,0,0,0,.63-1.21c.06-1-1-1.67-1.28-1.95l-.32-.25c-.42-.29-.78-.57-.42-1.29a.91.91,0,0,1,.71-.47,1.16,1.16,0,0,1,.85.3.45.45,0,0,0,.66,0,.73.73,0,0,0-.12-.88A1.58,1.58,0,0,0,233.78,26Z" fill="#fff"/><path d="M228,25.71a4.22,4.22,0,0,0-2.51,3.42c0,2.85,3.2,3,3.34,3,.42,0,.63-.23.68-.5,0,0,0-.07,0-.1a.51.51,0,0,0-.41-.49s-2.05-.44-2.37-1.48a3.17,3.17,0,0,0,3-1.77,2.16,2.16,0,0,0,.18-.85,1.29,1.29,0,0,0-.38-1A1.54,1.54,0,0,0,228,25.71Zm-1.09,2.34s.25-1.13,1-1.42.59.37.59.37a2,2,0,0,1-1,1.34C226.91,28.59,226.91,28.05,226.91,28.05Z" fill="#fff"/><path d="M235.56,31.44a.55.55,0,0,1,.54.55.54.54,0,0,1-.54.55A.55.55,0,0,1,235,32a.55.55,0,0,1,.55-.55Zm0,.09a.45.45,0,0,0-.44.46.44.44,0,1,0,.88,0,.45.45,0,0,0-.44-.46Zm-.11.78h-.09V31.7l.17,0a.31.31,0,0,1,.19.05.15.15,0,0,1,.06.13.16.16,0,0,1-.12.15h0c.05,0,.09.06.1.15a.4.4,0,0,0,0,.15h-.1a.49.49,0,0,1,0-.16c0-.07-.05-.1-.13-.1h-.07Zm0-.34h.08c.08,0,.14,0,.14-.1s0-.11-.14-.11h-.08Z" fill="#fff"/><path d="M203.48,16.28a5.3,5.3,0,0,1,6,1.84s-1.27-4.28-6-1.84Z" fill="#fff"/><path d="M211.22,16.44v-.15a3,3,0,0,0-1.58,2.3,3.19,3.19,0,0,1,1.83-1.65.75.75,0,0,1-.25-.5Z" fill="#fff"/><path d="M206.12,18.22s0,.61,0,.91c-.16,0-.82,0-1.11-.05,0,.16,0,.33,0,.5.35,0,.71,0,1.06,0,0,.29,0,.55,0,.84-.35,0-.7,0-1.05,0V21c.38,0,.75,0,1.13,0,0,0,0,.9,0,.9-.75,0-1.63-.06-2.47-.13l.06-3.72c.35,0,1.44.16,2.4.18Z" fill="#fff"/><path d="M206.43,18.23v1l.66,0v2.7a8.58,8.58,0,0,0,1.34,0V19.23l.68,0c0-.35,0-.63,0-1a23.4,23.4,0,0,1-2.65,0Z" fill="#fff"/><path d="M224.38,17.64v1.13c.23,0,.49.06.72.08,0,.94,0,1.65,0,2.59.63.07,1.08.15,1.26.18,0-.94,0-1.68,0-2.62,0,0,.67.1.69.11V18a22.06,22.06,0,0,0-2.67-.31Z" fill="#fff"/><path d="M201.79,19.45h-.12c0-.25,0-.51,0-.76h.11a.39.39,0,0,1,.39.41c0,.31-.2.37-.39.35Zm.29-1.79-1.59-.29v3.9c.41.08.78.15,1.18.19V20.33l.43.05c.69.07,1.39-.2,1.4-1.33s-.66-1.29-1.4-1.39Z" fill="#fff"/><path d="M215.37,21.28l.54-1.36c0,.44,0,.84.07,1.29.45-.05.8-.08,1.25-.1-.12-1.19-.21-2.46-.33-3.65l-1.15.11c-.21.56-.43,1.24-.64,1.8-.21-.52-.42-1.13-.62-1.64-.39.05-1.08.17-1.15.17-.13,1.21-.28,2.55-.42,3.76l1.28-.2c0-.45.07-.93.1-1.38l.52,1.29.55-.09Z" fill="#fff"/><path d="M222.44,19.24h-.12v-.75h.12a.37.37,0,0,1,.38.4c0,.31-.2.37-.39.36Zm1.11.8c.34-.15.58-.48.59-1.14a1.39,1.39,0,0,0-1.39-1.46c-.53,0-1.07-.07-1.6-.08,0,1.25,0,2.4,0,3.65.4,0,.84,0,1.19.07,0-.35,0-.61,0-1l.64,1.05c.49,0,1,.11,1.49.18-.31-.46-.59-.85-.89-1.3Z" fill="#fff"/><path d="M218.88,19.8l.25-.95c.1.31.19.62.29.93l-.54,0Zm.87-2.47c-.47,0-.86,0-1.26,0-.33,1.21-.72,2.51-1,3.73l1.09,0c0-.13.07-.28.11-.41h.55l.49,0c0,.05.06.18.12.39.37,0,.73,0,1.09,0-.39-1.29-.79-2.52-1.15-3.69Z" fill="#fff"/><path d="M209.51,21.57a3.3,3.3,0,0,0,1.47.37,1.57,1.57,0,0,0,1.73-1.43,1.08,1.08,0,0,0-1-1.11l-.32-.07c-.11,0-.28,0-.28-.19s.19-.21.31-.21a2.13,2.13,0,0,1,.85.18c.12-.32.24-.63.35-.94a2.73,2.73,0,0,0-1.21-.29,1.57,1.57,0,0,0-1.7,1.44,1.06,1.06,0,0,0,1,1.05l.28.05c.12,0,.31,0,.3.22s-.22.19-.36.19a1.66,1.66,0,0,1-.95-.31c-.15.32-.32.73-.46,1.05Z" fill="#fff"/><path d="M212.52,15.22a.94.94,0,1,0,.93,1A.94.94,0,0,0,212.52,15.22Zm.34.34a1.12,1.12,0,0,0-1,.59s0,0,0,0a.57.57,0,0,1,0-.26.64.64,0,0,1,.78-.46.53.53,0,0,1,.22.12Z" fill="#fff"/></g><g id="cta"><g id="Rounded_Rectangle_1" data-name="Rounded Rectangle 1"><rect x="252" y="15.09" width="56.91" height="19.81" rx="4" fill="#e52823"/></g><g id="Learn_More" data-name="Learn More"><path d="M258.11,21.83h1.28v4.92h2.54v1.14h-3.82Z" fill="#fff"/><path d="M262.84,24.54a2.22,2.22,0,0,1,.8-.84,2.26,2.26,0,0,1,1.16-.31,2.16,2.16,0,0,1,1.14.31,2.12,2.12,0,0,1,.77.85,2.84,2.84,0,0,1,.27,1.26v.25h-3.23a1.11,1.11,0,0,0,.38.74,1.3,1.3,0,0,0,.87.29,1.76,1.76,0,0,0,.63-.12,1.52,1.52,0,0,0,.53-.31l.51.74a2.29,2.29,0,0,1-.8.45,3,3,0,0,1-1,.16,2.49,2.49,0,0,1-1.19-.29,2.09,2.09,0,0,1-.83-.81,2.39,2.39,0,0,1-.3-1.21A2.27,2.27,0,0,1,262.84,24.54Zm1.2.07a1.16,1.16,0,0,0-.31.67h2.14a1.06,1.06,0,0,0-.29-.67,1,1,0,0,0-.78-.3A1,1,0,0,0,264,24.61Z" fill="#fff"/><path d="M270.91,27.33a1.61,1.61,0,0,1-.6.5,1.59,1.59,0,0,1-.74.18,1.86,1.86,0,0,1-1-.27,1.94,1.94,0,0,1-.69-.8,2.87,2.87,0,0,1-.25-1.23,2.93,2.93,0,0,1,.25-1.23,1.81,1.81,0,0,1,.69-.8,1.77,1.77,0,0,1,1-.29,1.71,1.71,0,0,1,1.34.68V23.5h1.16v4.39h-1.16Zm0-2.4a1.08,1.08,0,0,0-.42-.36,1.33,1.33,0,0,0-.57-.14,1,1,0,0,0-.79.35,1.54,1.54,0,0,0,0,1.85,1,1,0,0,0,.79.35,1.2,1.2,0,0,0,.57-.14.94.94,0,0,0,.42-.36Z" fill="#fff"/><path d="M273.26,23.5h1.14v.6a1.82,1.82,0,0,1,.62-.5,1.57,1.57,0,0,1,.77-.21v1.13a1.75,1.75,0,0,0-.32,0,1.47,1.47,0,0,0-.61.15,1.09,1.09,0,0,0-.46.36v2.9h-1.14Z" fill="#fff"/><path d="M279.47,25.24a.71.71,0,0,0-.8-.82,1.1,1.1,0,0,0-.57.15,1.26,1.26,0,0,0-.42.37v2.95h-1.15V23.5h1.15v.58a1.89,1.89,0,0,1,.63-.49,2,2,0,0,1,.89-.2,1.27,1.27,0,0,1,1.41,1.4v3.1h-1.14Z" fill="#fff"/><path d="M289.31,23.53l-1.69,4.36h-.56l-1.7-4.36v4.36h-1.28V21.83h1.8l1.46,3.78,1.46-3.78h1.8v6.06h-1.29Z" fill="#fff"/><path d="M292.7,27.7a2.08,2.08,0,0,1-.8-.84,2.54,2.54,0,0,1,0-2.32,2.08,2.08,0,0,1,.8-.84,2.56,2.56,0,0,1,2.44,0,2.08,2.08,0,0,1,.8.84,2.54,2.54,0,0,1,0,2.32,2.08,2.08,0,0,1-.8.84,2.56,2.56,0,0,1-2.44,0Zm2-1.09a1.39,1.39,0,0,0,.3-.91,1.4,1.4,0,0,0-.3-.91,1,1,0,0,0-.81-.37,1,1,0,0,0-.81.37,1.4,1.4,0,0,0-.3.91,1.39,1.39,0,0,0,.3.91,1,1,0,0,0,.81.37A1,1,0,0,0,294.73,26.61Z" fill="#fff"/><path d="M297.16,23.5h1.14v.6a1.82,1.82,0,0,1,.62-.5,1.54,1.54,0,0,1,.77-.21v1.13a1.75,1.75,0,0,0-.32,0,1.47,1.47,0,0,0-.61.15,1,1,0,0,0-.46.36v2.9h-1.14Z" fill="#fff"/><path d="M300.46,24.54a2.22,2.22,0,0,1,.8-.84,2.26,2.26,0,0,1,1.16-.31,2.16,2.16,0,0,1,1.14.31,2,2,0,0,1,.77.85,2.84,2.84,0,0,1,.27,1.26v.25h-3.23a1.09,1.09,0,0,0,.39.74,1.28,1.28,0,0,0,.86.29,1.85,1.85,0,0,0,.64-.12,1.47,1.47,0,0,0,.52-.31l.51.74a2.33,2.33,0,0,1-.79.45,3.08,3.08,0,0,1-1,.16,2.47,2.47,0,0,1-1.19-.29,2,2,0,0,1-.84-.81,2.53,2.53,0,0,1,0-2.37Zm1.21.07a1.17,1.17,0,0,0-.32.67h2.15a1.14,1.14,0,0,0-.3-.67,1,1,0,0,0-.78-.3A1,1,0,0,0,301.67,24.61Z" fill="#fff"/></g></g></g></svg>